<?xml version="1.0" encoding="utf-8"?>
<!-- Generator: Adobe Illustrator 22.1.0, SVG Export Plug-In . SVG Version: 6.00 Build 0)  -->
<svg version="1.1" id="OBJECTS" xmlns="http://www.w3.org/2000/svg" xmlns:xlink="http://www.w3.org/1999/xlink" x="0px" y="0px"
	 viewBox="0 0 500 500" style="enable-background:new 0 0 500 500;" xml:space="preserve">
<style type="text/css">
	.st0{fill:#FFFFFF;}
	.st1{fill:#0484BF;}
	.st2{fill:#B3B3B3;}
	.st3{fill:#D6D6D6;}
	.st4{fill:#CCCCCC;}
	.st5{fill:none;stroke:#39B54A;stroke-width:8.1998;stroke-linecap:round;stroke-linejoin:round;stroke-miterlimit:10;}
</style>
<g>
	<circle class="st0" cx="250" cy="262.9" r="234"/>
	<path class="st1" d="M416,463.1H75.4c-13.5,0-24.4-8.5-24.4-18.9v-389C51,44.8,62,36.3,75.4,36.3h340.5c13.5,0,24.4,8.5,24.4,18.9
		v389C440.4,454.6,429.5,463.1,416,463.1z"/>
	<path class="st0" d="M91,51.8h311.7c13.1,0,23.7,11.9,23.7,26.7V421c0,14.7-10.6,26.7-23.7,26.7H91c-13.1,0-23.7-11.9-23.7-26.7
		V78.4C67.4,63.7,78,51.8,91,51.8z"/>
	<rect x="183.1" y="113.8" class="st2" width="198.9" height="13.3"/>
	<rect x="183.1" y="138" class="st3" width="198.9" height="13.3"/>
	<rect x="118" y="162.3" class="st3" width="264.1" height="13.3"/>
	<path class="st3" d="M187.4,51.8c0.1,3.7,3.3,6.7,7.1,6.7h99.4c3.9,0,7-3,7.1-6.7H187.4z"/>
	<path class="st3" d="M293.9,17.8h-34.4c0-8.2-6.9-14.8-15.3-14.8c-8.5,0-15.3,6.6-15.3,14.8h-34.4c-3.9,0-7.1,3-7.1,6.9v23.2
		c0,3.8,3.2,6.9,7.1,6.9h99.4c3.9,0,7.1-3,7.1-6.9V24.7C301,20.9,297.8,17.8,293.9,17.8z M244.2,23.6c-3.3,0-6-2.6-6-5.8
		s2.7-5.8,6-5.8c3.3,0,6,2.6,6,5.8S247.5,23.6,244.2,23.6z"/>
	<path class="st4" d="M187.4,41.8V48c0,3.8,3.2,6.9,7.1,6.9h99.4c3.9,0,7.1-3,7.1-6.9v-6.2H187.4z"/>
	<g>
		<path class="st3" d="M153.6,121.2v22.5h-29v-22.5H153.6 M160.2,113.8H118v37.6h42.3V113.8L160.2,113.8z"/>
	</g>
	<rect x="183.1" y="198.1" class="st2" width="198.9" height="13.3"/>
	<rect x="183.1" y="222.4" class="st3" width="198.9" height="13.3"/>
	<rect x="118" y="246.6" class="st3" width="264.1" height="13.3"/>
	<rect x="118" y="351.9" class="st3" width="117.5" height="13.3"/>
	<rect x="118" y="375.4" class="st3" width="64.3" height="13.3"/>
	<rect x="265" y="351.9" class="st3" width="117.5" height="13.3"/>
	<rect x="265" y="375.4" class="st3" width="64.3" height="13.3"/>
	<g>
		<path class="st3" d="M153.6,205.6v22.5h-29v-22.5H153.6 M160.2,198.1H118v37.6h42.3V198.1L160.2,198.1z"/>
	</g>
	<rect x="118" y="282.3" class="st2" width="264.1" height="13.2"/>
	<g>
		<path class="st3" d="M227.9,312.3v22.5H125.9v-22.5H227.9 M235.8,304.8H118v37.6h117.9L235.8,304.8L235.8,304.8z"/>
	</g>
	<g>
		<path class="st3" d="M374.1,312.3v22.5H272.1v-22.5H374.1 M382,304.8H264.3v37.6h117.9L382,304.8L382,304.8z"/>
	</g>
	<polyline class="st5" points="126.8,133.6 139.1,144.6 158.1,113.8 	"/>
	<polyline class="st5" points="124.6,217.9 137,228.9 156,198.1 	"/>
</g>
</svg>
