<?xml version="1.0" encoding="utf-8"?>
<!-- Generator: Adobe Illustrator 22.1.0, SVG Export Plug-In . SVG Version: 6.00 Build 0)  -->
<svg version="1.1" id="OBJECTS" xmlns="http://www.w3.org/2000/svg" xmlns:xlink="http://www.w3.org/1999/xlink" x="0px" y="0px"
	 viewBox="0 0 500 500" style="enable-background:new 0 0 500 500;" xml:space="preserve">
<style type="text/css">
	.st0{fill:#FFFFFF;}
	.st1{fill:#000044;}
	.st2{fill:#A9C2C2;}
	.st3{fill:#7E9191;}
	.st4{fill:#1D2B5E;}
	.st5{fill:#0484BF;}
	.st6{fill:#F1CF00;}
	.st7{fill:#9DC6C6;}
	.st8{fill:none;}
	.st9{fill:#191213;}
	.st10{fill:#2E4C5E;}
	.st11{fill:#281B1C;}
	.st12{fill:#3D5E77;}
	.st13{fill:#4A6D82;}
	.st14{fill:#EDB38C;}
	.st15{fill:#292A28;}
	.st16{fill:#C19272;}
	.st17{fill:#CEEAE8;}
	.st18{fill:#B7CECC;}
	.st19{fill:#681616;}
	.st20{fill:#4C3729;}
</style>
<circle class="st0" cx="251.3" cy="250.9" r="234"/>
<g>
	<g>
		<path class="st1" d="M115.7,325.2c39.7,0,71.9,32.2,71.9,71.9S155.4,469,115.7,469s-71.9-32.2-71.9-71.9
			C43.8,357.4,76,325.2,115.7,325.2 M115.7,343.7c-29.5,0-53.5,24-53.5,53.5c0,29.5,24,53.5,53.5,53.5s53.5-24,53.5-53.5
			C169.1,367.6,145.2,343.7,115.7,343.7"/>
		<path class="st2" d="M115.7,343.7c29.5,0,53.5,24,53.5,53.5c0,29.5-24,53.5-53.5,53.5s-53.5-24-53.5-53.5
			C62.2,367.6,86.2,343.7,115.7,343.7 M115.7,363.8c-18.4,0-33.3,14.9-33.3,33.3s14.9,33.3,33.3,33.3s33.3-14.9,33.3-33.3
			S134,363.8,115.7,363.8"/>
		<path class="st3" d="M115.7,434.9c-20.9,0-37.8-16.9-37.8-37.8c0-20.9,16.9-37.8,37.8-37.8s37.8,16.9,37.8,37.8
			C153.5,418,136.6,434.9,115.7,434.9 M115.7,348.2c-27,0-48.9,21.9-48.9,48.9c0,27,21.9,48.9,48.9,48.9s48.9-21.9,48.9-48.9
			C164.6,370.1,142.7,348.2,115.7,348.2"/>
		<path class="st2" d="M109.2,385.3c0.9-0.5,1.8-0.9,2.7-1.2l1.8-23.3h2h2l1.8,23.3c0.9,0.3,1.9,0.6,2.7,1.2l17.7-15.2l1.4,1.4
			l1.4,1.4l-15.2,17.7c0.5,0.9,0.9,1.8,1.2,2.7L152,395v2v2l-23.3,1.8c-0.3,0.9-0.6,1.9-1.2,2.7l15.2,17.7l-1.4,1.4l-1.4,1.4
			l-17.7-15.2c-0.9,0.5-1.8,0.9-2.7,1.2l-1.8,23.3h-2h-2l-1.8-23.3c-0.9-0.3-1.9-0.6-2.7-1.2L91.4,424l-1.4-1.4l-1.4-1.4l15.2-17.7
			c-0.5-0.9-0.9-1.8-1.2-2.7L79.4,399v-2v-2l23.3-1.8c0.3-0.9,0.6-1.9,1.2-2.7l-15.2-17.7l1.4-1.4l1.4-1.4L109.2,385.3z"/>
		<path class="st2" d="M426.5,413.4c9,0,16.3-7.3,16.3-16.3c0-9-7.3-16.3-16.3-16.3c-9,0-16.3,7.3-16.3,16.3
			C410.3,406.1,417.6,413.4,426.5,413.4z"/>
		<path class="st2" d="M438,385.6c6.3,6.3,6.3,16.6,0,23s-16.6,6.3-23,0s-6.3-16.6,0-23C421.4,379.3,431.7,379.3,438,385.6z"/>
		<path class="st2" d="M442.7,397.1c0,9-7.2,16.3-16.3,16.3c-9,0-16.3-7.2-16.3-16.3c0-9,7.2-16.3,16.3-16.3
			S442.7,388.2,442.7,397.1z"/>
		<path class="st2" d="M438,408.6c-6.3,6.3-16.6,6.3-23,0s-6.3-16.6,0-23s16.6-6.3,23,0C444.4,392,444.4,402.3,438,408.6z"/>
		<path class="st2" d="M426.5,413.4c-9,0-16.3-7.2-16.3-16.3c0-9,7.2-16.3,16.3-16.3c9,0,16.3,7.2,16.3,16.3
			C442.7,406.1,435.5,413.4,426.5,413.4z"/>
		<path class="st2" d="M415.1,408.6c-6.3-6.3-6.3-16.6,0-23s16.6-6.3,23,0s6.3,16.6,0,23C431.7,414.9,421.4,414.9,415.1,408.6z"/>
		<path class="st2" d="M410.3,397.1c0-9,7.2-16.3,16.3-16.3c9,0,16.3,7.2,16.3,16.3c0,9-7.2,16.3-16.3,16.3
			C417.6,413.4,410.3,406.1,410.3,397.1z"/>
		<path class="st1" d="M426.5,325.2c39.7,0,71.9,32.2,71.9,71.9S466.3,469,426.5,469s-71.9-32.2-71.9-71.9S386.8,325.2,426.5,325.2
			 M426.5,343.7c-29.5,0-53.5,24-53.5,53.5c0,29.5,24,53.5,53.5,53.5c29.5,0,53.5-24,53.5-53.5C480,367.6,456,343.7,426.5,343.7"/>
		<path class="st2" d="M426.5,343.7c29.5,0,53.5,24,53.5,53.5c0,29.5-24,53.5-53.5,53.5c-29.5,0-53.5-24-53.5-53.5
			C373.1,367.6,397,343.7,426.5,343.7 M426.5,363.8c-18.4,0-33.3,14.9-33.3,33.3s14.9,33.3,33.3,33.3c18.4,0,33.3-14.9,33.3-33.3
			S444.9,363.8,426.5,363.8"/>
		<path class="st3" d="M426.5,434.9c-20.9,0-37.8-16.9-37.8-37.8c0-20.9,16.9-37.8,37.8-37.8s37.8,16.9,37.8,37.8
			C464.4,418,447.4,434.9,426.5,434.9 M426.5,348.2c-27,0-48.9,21.9-48.9,48.9c0,27,21.9,48.9,48.9,48.9c27,0,48.9-21.9,48.9-48.9
			C475.5,370.1,453.6,348.2,426.5,348.2"/>
		<path class="st2" d="M420,385.3c0.9-0.5,1.8-0.9,2.7-1.2l1.8-23.3h2h2l1.8,23.3c0.9,0.3,1.9,0.6,2.7,1.2l17.7-15.2l1.4,1.4
			l1.4,1.4l-15.2,17.7c0.5,0.9,0.9,1.8,1.2,2.7l23.3,1.8v2v2l-23.3,1.8c-0.3,0.9-0.6,1.9-1.2,2.7l15.2,17.7l-1.4,1.4l-1.4,1.4
			l-17.7-15.2c-0.9,0.5-1.8,0.9-2.7,1.2l-1.8,23.3h-2h-2l-1.8-23.3c-0.9-0.3-1.9-0.6-2.7-1.2L402.3,424l-1.4-1.4l-1.4-1.4l15.2-17.7
			c-0.5-0.9-0.9-1.8-1.2-2.7l-23.3-1.8v-2v-2l23.3-1.8c0.3-0.9,0.6-1.9,1.2-2.7l-15.2-17.7l1.4-1.4l1.4-1.4L420,385.3z"/>
		<path d="M365.1,306.3l13-7.5l54.4,95.4c2.1,3.6,0.2,7.3-2.7,10.3c-2.9,2.9-8.2,0.8-10.3-2.7L365.1,306.3z"/>
		<path class="st4" d="M426.5,305.1c8.4,0,16.5,1.1,24.2,3.3c2.4,0.6,4,2.4,4.6,4.7c0.6,2.4,0,4.6-1.7,6.3L348.9,424.2
			c-1.7,1.7-4,2.4-6.3,1.7c-2.4-0.6-4.1-2.3-4.7-4.6c-2.1-7.7-3.3-15.8-3.3-24.2C334.6,346.4,375.7,305.1,426.5,305.1z"/>
		<path class="st4" d="M112.9,287.2l142.6-2.1c-27,52.9-28.1,91.2,0,123h-65.4l-4.6-4.6H28.1c-4,0-7.4-1.5-10-4.5s-3.7-6.6-3.2-10.6
			c7.1-53.7,40-93.6,92.2-96.3C113.3,291.7,114.1,288.6,112.9,287.2z"/>
		<path class="st5" d="M233.9,401h7.2c-21.9-34.2-14-72,2.9-108.5l-5.6,0.1c-5,0.1-9.1,3-10.9,7.6c-12.5,31.6-17.5,63.6-4.4,93.6
			C224.9,398.2,229,401,233.9,401z"/>
		<path class="st5" d="M188.9,405h63.6c20.3,0,47.4,2.9,60.1-18.2l55.8-92.7c7.1-11.8,7.1-20.8,3.3-36.8L359,204.1
			c-1.2-4.7-1.6-8.4,2.9-8.4h5.9c5.6,0,10.3,3.7,11.7,9.1l11.3,46.4c2.3,9.4,10,40.4,5.1,48.8l-68.3,114.6h-4.3h-26.3H187.5
			C188.1,411.4,188.6,408.2,188.9,405z"/>
		<path class="st4" d="M325.9,413.8H186.4c-0.9,0-1.7,0.7-1.7,1.7v6.2c0,0.9,0.7,1.7,1.7,1.7h139.5c0.9,0,1.7-0.7,1.7-1.7v-6.2
			C327.6,414.6,326.9,413.8,325.9,413.8z"/>
		<path class="st5" d="M115.5,302.1c51.5,0,94,38.3,100.6,87.9c0.5,3.5-0.5,6.8-2.9,9.5c-2.4,2.7-5.4,4.1-9,4.1H26.8
			c-3.6,0-6.7-1.4-9-4.1c-2.4-2.7-3.3-6-2.9-9.5C21.5,340.4,64,302.1,115.5,302.1z"/>
		<path class="st4" d="M115.5,311.9c43.7,0,79.8,32.5,85.4,74.6c0.4,3-0.5,5.8-2.4,8c-0.3,0.3-0.5,0.5-0.8,0.8
			c-11-34.8-43.6-60.1-82.1-60.1s-71.1,25.2-82.1,60.1c-0.3-0.3-0.5-0.5-0.8-0.8c-2-2.3-2.8-5.1-2.4-8
			C35.7,344.4,71.8,311.9,115.5,311.9z"/>
		<path d="M110.4,260.9h145.7c1.7,0,3.2,1.4,3.2,3.2v20c0,1.7-1.4,3.2-3.2,3.2H110.4c-1.7,0-3.2-1.4-3.2-3.2v-20
			C107.3,262.3,108.6,260.9,110.4,260.9z"/>
		<path class="st6" d="M400.9,215.6c3.6-0.3,7.2,7.2,8,16.8c0.8,9.6-1.4,17.5-5.1,17.9c-3.6,0.3-7.2-7.2-8-16.8
			C394.9,223.9,397.2,215.9,400.9,215.6z"/>
		<path class="st4" d="M399.3,213.2L399.3,213.2c1.4-0.2,2.6,0.8,2.7,2.1l3.9,34.4c0.2,1.3-0.8,2.5-2.1,2.6h-0.1
			c-12.2,1.4-23.2-6.2-24.3-17C378.2,224.5,387.1,214.7,399.3,213.2z"/>
		<path class="st7" d="M395.5,214.1l5.1,38.5c1.1,0,2.2,0,3.3-0.2h0.1c1.3-0.2,2.3-1.4,2.1-2.6l-3.9-34.4c-0.2-1.3-1.4-2.3-2.6-2.1
			h-0.1C398.1,213.4,396.7,213.7,395.5,214.1z"/>
		<path d="M365.2,199.9l-26.5-6.8c-1.4-0.4-2.8,0.5-3.2,1.8l-0.7,2.7c-0.4,1.4,0.5,2.8,1.8,3.2l26.5,6.8c1.4,0.4,2.8-0.5,3.2-1.8
			l0.7-2.7C367.5,201.6,366.6,200.2,365.2,199.9z"/>
		<line class="st8" x1="369.4" y1="195.3" x2="369.2" y2="195.5"/>
		<g>
			<path class="st9" d="M256.6,385.7c-1.2,2.4-2.4,4.9-2.9,7.6c-0.5,2.6-0.4,5.6,1.2,7.8c2.9,4.3,9,4.3,14.1,4.1
				c2.5-0.2,5.1-0.4,7.6-0.5c3.3-0.2,7-0.7,8.6-3.5c1.4-2.5,0.5-5.6-0.4-8.4c-1.9-6.2-2.8-12.8-2.7-19.3c0-1.9,0.1-4-0.6-5.7
				c-1-2.5-3.5-4.2-6.2-4.9c-5.9-1.6-10.4-1.4-11.9,4.2C261.5,373.5,259.4,379.7,256.6,385.7z"/>
			<path class="st10" d="M276.7,298.1c1.4,1.4,2.6,3,3.2,4.9c0.5,1.7,0.1,3.6-0.5,5.3c-2.3,7.6-7.2,14.5-7.7,22.4
				c-0.1,2.4,0.2,4.8-0.3,7.1c-0.5,2.6-1.9,5-3.3,7.3c-1.8,3-3.6,6.1-5.4,9c-1.1,1.9-2.3,3.9-2.2,6.1c0.3,4.1,4.7,6.4,8.6,7.8
				c2.3,0.7,5.1,1.3,6.8-0.4c0.7-0.7,1-1.6,1.4-2.6c6.8-20.1,13.6-40.2,20.4-60.3c1.7-5.1,3.3-10.6,1.5-15.6
				c-2.1-5.4-7.8-8.5-13-11.1c-4.9-2.4-9.8-4.8-14.7-7.1c-4.3-2.1-10-3.9-13.2-0.4c-4.3,5-0.2,9,3.4,11.8
				C267.3,286.4,272,293,276.7,298.1z"/>
			<path class="st11" d="M266.6,387.6c-1.7,4.3-3.4,8.8-3,13.3c0.1,1,0.4,2.1,1.1,2.7c0.6,0.6,1.4,0.8,2.3,1.1
				c14.2,3.8,29.3,4.3,43.8,1.7c2.1-0.4,4.3-0.9,6-2.2c1.7-1.4,2.7-3.7,1.9-5.6c-1.1-2.4-4.2-3-6.8-3.3c-4.7-0.5-9.4-1.3-13.6-3.6
				c-4.1-2.4-7.4-6.5-7.5-11.2c0-3.5,1.5-7.9-1.2-10.2c-1.3-1.1-3.1-1.3-4.8-1.4c-5.6-0.4-8.6-1.6-12,2.5
				C270,375,268.4,383.1,266.6,387.6z"/>
			<path class="st4" d="M194.9,152.3c-12.1,22.8-18.3,48.1-24.2,73.3c-0.5,2.2-1.1,4.5-0.5,6.8c0.6,2.2,2.8,4.2,5,3.6
				c0,2.2,0.1,4.3,0.1,6.5c3,4.3,8.4,6.6,13.7,7.1s10.6-0.6,15.8-1.7c11.2-2.4,22.5-4.8,33.7-7.1c2.3-0.5,4.7-1.1,6.2-2.9
				c1.4-1.8,0.9-5.2-1.4-5.6c8-1.4,11.3-10.9,13.2-18.7c1.9-8,3.7-15.8,5.6-23.8c3-12.6,6-25.3,6.2-38.3c0.1-9.6-0.8-20.5,6-27.2
				c2.1-2.1,5-3.7,6-6.5c1.6-4.3-1.7-8.7-4.9-12.1c-4.1-4.3-8-8.8-12.1-13.1c-0.6-0.7-1.4-1.4-2.4-1.5c-1.1-0.1-2.1,0.8-2.8,1.6
				c-5.9,6.4-9.7,9-17.4,12.7c-6.8,3.3-13.1,7.6-18.8,12.6C211.6,126.6,200.1,139.3,194.9,152.3z"/>
			<path class="st4" d="M216.4,169.3c-1.6,14.3,1.8,29.8,12.4,39.6c7.1,6.5,16.7,9.8,26.3,10.9c9.6,1.1,19.3,0.1,28.9-0.9
				c0.6-1.1,1.2-2.2,1.8-3.3c2.3,0.8,4.6,1.6,6.9,2.4c0.8-1,1.6-2,2.5-3c0.8,2.4,3.7,4,6.2,3.3c0.7-6.6,2.7-13.1,5.7-19.1
				c-17.5-3.4-35.2-7-51.1-14.8c-2.5-1.3-5.3-2.6-8-1.8c2.1-11.6,2.7-23.5,1.7-35.3c-0.5-5.6-1.4-11.5-5-15.8
				C227.8,111.1,217.5,160,216.4,169.3z"/>
			<path class="st5" d="M250.7,139.9c-0.5-2.7-1-5.5-2.2-8c-1.3-2.6-4-5.1-6.7-4.2c-3.3,1.1-3.4,5.7-2.8,9.1c1.6,10,3.3,20.1,5,30.2
				c1.2,7.1,2.4,14.7,0,21.5c1.5-0.2,3.1-0.3,4.6-0.5c0.1,1.7,0.2,3.4,0.3,5.1c11.8,3.4,24.1,5.7,36.4,6.8
				c-0.3-4.5-5.9-6.3-10.3-7.4c-5.3-1.3-10.9-2.9-15.7-5.3c-6.1-3.1-5.2-4.2-5.3-11.1C253.8,164,252.7,151.9,250.7,139.9z"/>
			<path class="st5" d="M268.9,123.2c2.6-1.9,5.1-4.2,7.1-6.6c-2.2-2.7-4.3-5.3-6.4-8c-0.4-0.4-0.6-0.8-1.2-1.1
				c-0.9-0.5-2,0-2.7,0.6c-2,1.7-2.2,4.8-1.3,7.1c1,2.4,2.8,4.3,4.7,6.2"/>
			<path class="st5" d="M244,230.5c-2.2,1.9-5.4,1.9-8.3,1.8c-1.4-0.1-2.9-0.2-4.2-0.9c-1.2-0.7-2-2.4-1.3-3.6
				c0.7-1.2,2.3-1.4,3.6-1.4c2-0.1,3.9-0.2,5.8-0.8c1.8-0.6,3.5-2.1,3.9-4c1.5-0.8,3.6,0.3,4.2,1.9c0.5,1.6-0.2,3.5-1.3,4.8
				c-1.2,1.3-2.7,2.2-4.3,3"/>
			<path class="st12" d="M189.7,264.2c7.5,4.3,16.5,5.4,25.1,6.4c9.6,1.1,19.3,2.3,28.9,3.3c13.3,1.5,28.1,3.9,36.2,14.6
				c0.8,1.1,1.7,2.4,3.1,2.7c1.4,0.4,2.9-0.5,4.3-0.9c1.4-0.5,3.5,0,3.7,1.5c-1.5,1.4-2.4,3.6-2.3,5.7c1.1-0.2,2.2-0.4,3.3-0.5
				c0.6,2.6-1.1,5.2-2.5,7.5c-4.5,7.1-7.4,15.4-8.1,23.8c-0.5,6-0.2,12.4-3.3,17.5c-1.4,2.4-3.4,4.3-4.9,6.5
				c-1.4,2.1-2.2,4.5-2.4,7.1c-0.6,8.3,7.1,16.4,15.3,15.7c8.5-0.7,14.2-8.8,18.3-16.2c12.5-22.8,21.7-47.7,24.6-73.5
				c0.5-4.3,0.8-8.7-0.5-12.8c-3-9.3-12.9-14.1-22-17.7c-15.4-6.1-31-11.6-46.8-16.4c-4.3-1.4-8.7-2.6-13.2-2.9
				c-4-0.3-8,0.3-11.9,0.8c-15.3,2-30.6,4-45.9,6c-7.1,0.9-12.8-0.2-10.3,8.5C180,256.5,184.6,261.4,189.7,264.2z"/>
			<path class="st13" d="M292.6,262.8c4.5,1.7,9.2,3.6,12.8,7c8.5,8,7.8,21.9,4.2,33c-3.6,11.1-9.6,21.9-9.5,33.6
				c1.7,1.5,4.3-0.8,5.2-2.8c8-15,13-31.6,15.1-48.5c0.5-4.4,0.8-9.3-1.6-13.1c-2.1-3.3-5.7-5.2-9.1-6.9
				c-17.7-8.7-40.2-20.8-59.9-22.9C249.3,251,285.3,259.9,292.6,262.8z"/>
			<path class="st14" d="M317,215.8c1.7,0.1,3.5,0.1,5.2-0.3c6.5-1.5,10.2-9,16.6-10.9c0.4-0.1,0.8-0.2,1.2-0.1c0.5,0.1,1,0.5,1.4,1
				c1.1,1.2,2,2.4,3.3,3.4c1.3,0.9,3,1.4,4.4,0.7c1.4-0.7,1.9-3,0.6-3.9c0.6,1.4,2.4,2.1,3.8,1.4s2-2.5,1.3-3.9
				c0.6,1.1,2,1.6,3.3,1.4c1.2-0.3,2.2-1.4,2.3-2.6c0.2-1.8-1.3-3.3-2.5-4.7c-1.8-2-3.3-4.3-5.2-6.2c-1.9-1.9-4.2-3.5-6.9-3.9
				c-2.1-0.3-4.3,0.4-6.2,1.1c-4.5,1.5-8.9,3.5-13,5.9c-3.3,1.8-6.5,3.9-10,5.4c-3.5,1.4-7.4,2.3-11.1,1.4
				c-2.3-0.5-5.6,11.8-4.5,13.6c0.9,1.5,5.1,0.8,6.8,0.9C310.8,215.6,313.9,215.7,317,215.8z"/>
			<path class="st14" d="M330.4,72.3c1.7,2.7,5.4,3.6,6.8,6.5c-4.6,1.8-8.3,5.6-9.9,10.3c-1.9,5.5-1.2,12.3-5.2,16.6
				c-3.6,3.9-9.7,4.1-14.8,2.8c-5.2-1.3-9.9-3.7-15.2-4.3c-6.5-0.7-13.3,1.8-17.8,6.6c-1.1,1.1-2.3,2.4-3.8,2.2
				c-1.1-0.2-1.8-1.1-2.4-2c-2.5-3.3-5.1-6.8-7.6-10.1c3.6-4,5.6-9.3,5.5-14.7c-0.1-4.2-1.4-8.1-1.6-12.3c-1.1-15.1,12-28.5,26.7-32
				c11.5-2.8,30.8-1.6,40.7,5.6C341.7,55,325.2,63.9,330.4,72.3z"/>
			<path class="st15" d="M320.8,56.1c0.7,1.8-1.8,3.2-3.8,3.2c-3.8,0-7.4-1.4-11.1-1.8c-3.8-0.4-8.2,1.1-9.4,4.6
				c-0.8,2.4,0,5,0.4,7.5c0.3,2.5-0.3,5.6-2.6,6.5c-2.1-2.6-1.4-7-3.9-9.1c-2.2-1.9-5.5-1.3-8-0.1c-2.2,1-4.3,2.4-5.4,4.4
				c-2.5,5,2.1,11.2,0.2,16.5c-0.6,1.7-1.9,3.2-3.2,4.5c-1.5,1.6-3.3,3.3-5.3,4.3c-2.1,0.9-4.8,0.8-6.4-0.8c-2.8-2.6-1.3-7.3-2-11.1
				c-0.7-4-4.2-7.1-4.9-11.2c-0.5-2.3,0.1-4.5,0.5-6.7c1.3-5.7,2.9-11.3,5.9-16.3c5-8.1,13.5-13.7,22.7-16.2
				c9.1-2.5,18.9-2.3,28.3-0.6c4.1,0.7,8.2,1.6,11.8,3.8c4.2,2.5,8,6.7,12.8,6.2c-1.3,1.2-2.9,2.1-4.5,2.6c2.3,1.1,4.3,2.5,6,4.3
				c-0.6,1.1-1.9,1.7-3.1,1.7c1.3,2.2,0.5,5.8-2.4,6.1c-2.1,0.2-4.3-2-6.4-2.4c0.5,0.3,1.1,1,1.6,1.3
				C326.8,57.9,321.5,58,320.8,56.1z"/>
			<path class="st16" d="M287.5,79.4c0,0.3-0.4,0.4-0.5,0.3c-0.2-0.1-0.3-0.4-0.4-0.6c-0.3-0.9-0.5-1.9-0.2-2.8
				c0.4-0.9,1.4-1.5,2.3-1.1c0.6-1.5,0.2-3.5-1.2-4.6c-1.4-1.1-3.3-1.2-4.8-0.2c-1.1,0.8-1.8,2.1-2.3,3.3c-0.4,1.1-0.7,2.2-0.5,3.3
				c0.2,0.9,0.7,1.7,1.3,2.4c0.6,0.9,1.3,1.7,1.9,2.6c0.6,0.8,1.4,1.8,2.4,1.8s1.9-0.9,2.1-2c0.2-1-0.1-2.1-0.5-3.1"/>
			<path class="st17" d="M327.2,75.7c1.7-0.8,3.5-1.7,5.3-1.4c2.8,0.5,4.8,3.1,4.6,5.9c-0.2,2.8-1.5,7.5-3,9.9
				c-2.4,4.2-5.4,8.4-8,12.5c-1.7,2.8-3.3,3.9-6.2,5.5c-3.4,2.1-7.9,2-11.7,0.8c-3.8-1.3-7.2-3.6-10.5-5.9c0.2-2.2,2.3-3.5,3.8-5.1
				c2.9-3.1,3.4-7.6,3.1-11.8c-0.6-6.5,3.2-5,8.4-6C318,79.3,322.7,77.7,327.2,75.7z"/>
			<path class="st17" d="M292.3,73.2c4.9,3.6,9.9,6.9,15.3,9.8c0.8,0.5,1.6-0.8,0.7-1.3c-5.3-2.9-10.4-6.2-15.3-9.8
				C292.2,71.3,291.5,72.6,292.3,73.2z"/>
			<path class="st17" d="M276.5,86.7c8.1,5.4,16.1,11.1,23.9,17c0.8,0.5,1.5-0.7,0.7-1.3c-7.8-5.9-15.7-11.6-23.9-17
				C276.4,84.9,275.7,86.2,276.5,86.7z"/>
			<path class="st18" d="M308.9,90.4c0.1-1.4,0.1-3.1,0.9-4.3c1-1.4,2.8-1.8,4.4-2.3c3-0.8,5.8-2,8.4-3.5c0.5-0.3,1-0.5,1.5-0.6
				c1.3-0.1,2.1,1.4,2,2.6c-0.1,1.3-0.8,2.4-1.3,3.4l-0.1,0.6c0.1,0.3,0.4,0.5,0.5,0.5c1,0.8,0.9,2.4,0.2,3.5
				c-0.8,1-2.1,1.4-3.3,1.6c-0.8,0.1-1.9,0.1-2.3,0.8c-0.2,0.4-0.2,0.8-0.2,1.2c-0.1,3.9-3.1,7.5-6.9,8.3c0.3,0.8,0.4,1.6,0.4,2.4
				c0,0.3-0.1,0.6-0.3,0.9c-0.4,0.4-1,0.1-1.4-0.2c-2.8-1.5-6.8-2.4-5.9-5.9C306.4,96.4,308.9,94.1,308.9,90.4z"/>
			<path class="st4" d="M282.4,84.4c1.3-0.1,2.6-0.2,3.7-0.9c1.1-0.6,1.8-1.8,2.4-2.9c3-5.6,3.7-12.7,8-17.2
				c5.2-5.4,13.3-4.7,20.5-4.7c5.7,0,11.5-0.7,17-2.1c1-0.3,2.1-0.5,3-1.3c1.5-1.2,2.1-3.4,2.2-5.5c0.3-7.8-5.2-14.3-11-18.6
				c-10.3-7.6-22.8-11.5-35.1-10.8s-24.3,6-33.7,14.7c-5,4.6-9.4,10.5-10.8,17.5c-0.8,4.3-0.5,8.9,0.1,13.3
				c0.5,3.9,1.2,7.8,2.9,11.3C257.4,89.1,272.2,85.1,282.4,84.4z"/>
			<path class="st5" d="M273.7,26.2c-7.7,2.6-15,7.1-19.8,13.7s-6.6,15.6-3.3,23.1c1,2.3,2.4,4.3,4.7,5.2c3,1.2,6.5-0.4,8.8-2.6
				c4.6-4.6,7-10.9,11.7-15.6c3.8-3.8,8.6-5.6,12.6-9c3.4-2.9,4.8-7.8,2.4-11.9C287.2,23.1,279.2,24.3,273.7,26.2z"/>
			<path class="st19" d="M285.8,103.7l0.1,0.7l-0.5,0.4c-0.9,0.5-1.8,0.8-2.8,1.1c-2.3-6.6-3.8-13.5-4.5-20.4
				c-0.1-0.7-0.2-1.5,0.1-2.2c0.5-1.2,3.3-2.8,4.4-1.8c0.6,0.6-0.1,6.3,0,7.5C282.9,93.9,284,99,285.8,103.7z"/>
			<path class="st20" d="M315.8,66c3-1.4,5.5-1.9,8.8-1.8c1.4,0,3-0.5,3.1-2.2l-0.1-0.2c-1-0.2-1.9,0.2-2.9,0.2
				c-1.3,0-2.4-0.1-3.7,0.2c-2.1,0.4-4.5,1.4-5.7,3.2C314.8,65.8,315.3,66.2,315.8,66z"/>
			<path class="st20" d="M316.5,70.5c1.9-1.2,4-1.2,6.2-1.4c1.1-0.2,2.4-0.4,2.9-1.4c0.1-0.2-0.1-0.5-0.4-0.5
				c-0.7,0.2-1.3,0.6-2,0.8c-0.8,0.3-1.6,0.4-2.4,0.5C319.3,69,317.7,69.5,316.5,70.5L316.5,70.5z"/>
			<path class="st20" d="M321.5,68.8c-0.2,0.6-0.5,2.4,0.5,2.5c1.2,0.2,1.2-1.5,1.1-2.3l-0.5-0.5h-0.1l-0.5,0.2l-0.2,0.5l0.1,0.4
				v0.5l0.1-0.3v-0.4c-0.1-0.3-0.1-0.5-0.2-0.9L321.5,68.8L321.5,68.8z"/>
			<path class="st20" d="M319.1,71.3c0.8,0.5,1.6,0.6,2.6,0.5c0.7-0.1,1.7-0.2,2-0.9l-0.1-0.3c-0.6,0-1.1,0.4-1.7,0.5
				c-0.9,0.2-1.7,0-2.5-0.4C319.1,70.8,318.8,71.1,319.1,71.3z"/>
			<path class="st20" d="M320.9,73c0.4,0,0.8,0,1.2-0.3l-0.1-0.4c-0.4,0-0.7,0.1-1.1,0.1C320.6,72.4,320.6,72.9,320.9,73z"/>
		</g>
		<path class="st5" d="M5.1,101.4h168c3.3,0,6,2.7,6,6v147.3c0,3.3-2.7,6-6,6H5.1c-3.3,0-6-2.7-6-6V107.2
			C-0.9,104,1.8,101.4,5.1,101.4z"/>
		<path class="st4" d="M14.7,110.4h148.7c2.9,0,5.2,2.4,5.2,5.2v54.2c-53,21.5-121.9-28.7-159.2,42v-96.1
			C9.4,112.8,11.8,110.4,14.7,110.4z"/>
	</g>
</g>
</svg>
