<?xml version="1.0" encoding="utf-8"?>
<!-- Generator: Adobe Illustrator 22.1.0, SVG Export Plug-In . SVG Version: 6.00 Build 0)  -->
<svg version="1.1" id="Capa_1" xmlns="http://www.w3.org/2000/svg" xmlns:xlink="http://www.w3.org/1999/xlink" x="0px" y="0px"
	 viewBox="0 0 500 500" style="enable-background:new 0 0 500 500;" xml:space="preserve">
<style type="text/css">
	.st0{fill:#FFFFFF;}
	.st1{fill:#DB9C94;}
	.st2{fill:none;stroke:#DB9C94;stroke-width:1.1073;stroke-linecap:round;stroke-linejoin:round;stroke-miterlimit:10;}
	.st3{fill:#424D3D;}
	.st4{fill:#090A09;}
	.st5{fill:#5B6656;}
	.st6{fill:#84927D;}
	.st7{fill:#32362F;}
	.st8{fill:#9EB293;}
	.st9{fill:#4E5649;}
	.st10{opacity:0.7;fill:#4E5649;enable-background:new    ;}
	.st11{fill:#0052BC;}
	.st12{fill:#146BC9;}
	.st13{opacity:0.5;fill:#0052BC;enable-background:new    ;}
	.st14{fill:#C68D55;}
	.st15{opacity:0.5;fill:#9D6734;enable-background:new    ;}
	.st16{fill:#DDB392;}
	.st17{fill:#3C649B;}
	.st18{fill:#A1CFE5;}
	.st19{fill:#A4FF90;}
	.st20{fill:none;stroke:#FFFFFF;stroke-width:9.5192;stroke-linecap:round;stroke-linejoin:round;stroke-miterlimit:10;}
</style>
<circle class="st0" cx="251" cy="250.9" r="234"/>
<g id="OBJECTS">
	<g id="XMLID_807_">
		<g id="XMLID_907_">
			<path id="XMLID_901_" class="st1" d="M390.7,223c0,0-17.3,3.2-25,4.5c-7.6,1.3-42.9-10.7-51.1-15s-14.5-13.4-8.3-15.5
				c0,0-8.1-1.7-10.8-7.9c-2.7-6.2,12.1-6.9,12.1-6.9l-0.2-2.4c0,0-8.3,3.5-14.1-0.1c-5.9-3.6-4.8-11.7,6.7-17.6l-4.6-5.7
				c0,0-9-2.7-12-6.7c-3-3.9,6.2-11.7,6.2-11.7l14.8-2l77.1,36.5L390.7,223z"/>
			<path id="XMLID_909_" class="st1" d="M390.7,223c0,0-17.3,3.2-25,4.5c-7.6,1.3-42.9-10.7-51.1-15s-14.5-13.4-8.3-15.5
				c0,0-8.1-1.7-10.8-7.9c-2.7-6.2,12.1-6.9,12.1-6.9l-0.2-2.4c0,0-8.3,3.5-14.1-0.1c-5.9-3.6-4.8-11.7,6.7-17.6l-4.6-5.7
				c0,0-9-2.7-12-6.7c-3-3.9,6.2-11.7,6.2-11.7l14.8-2l77.1,36.5L390.7,223z"/>
			<path id="XMLID_906_" class="st2" d="M319.5,198.7c0,0-8.1-3.5-13.2-1.8"/>
			<g id="XMLID_882_">
				<polygon id="XMLID_900_" class="st3" points="329.7,239.3 385.9,220.8 352.9,63.3 296.4,74.4 				"/>
				<g id="XMLID_883_">
					<path id="XMLID_897_" class="st4" d="M346.2,72.4l30.9,142.3l-42,12.6c-10-47.7-27.3-130.6-30.6-147c1.2-0.2,2.7-0.5,4.7-0.8
						c3.9-0.7,9.4-1.8,16.3-3.1C333.7,74.9,342.1,73.3,346.2,72.4 M348.4,69.1c0,0-47.1,9.3-47.3,8.9c-0.3-0.4,31.8,153,31.8,153
						l47.5-14.3L348.4,69.1L348.4,69.1z"/>
					<path id="XMLID_896_" class="st4" d="M344.3,194.8c-3.8,2.7-4.6,7.9-1.9,11.7s7.9,4.6,11.7,1.9c3.8-2.7,4.6-7.9,1.9-11.7
						C353.3,193,348,192.1,344.3,194.8z"/>
					<path id="XMLID_895_" class="st4" d="M323.9,97.8c-3.4,2.4-4.1,7.1-1.7,10.5s7.1,4.1,10.5,1.7s4.1-7.1,1.7-10.5
						S327.3,95.3,323.9,97.8z"/>
					<g id="XMLID_893_">
						<path id="XMLID_894_" class="st4" d="M372.4,214c0.2,0.2,0.3,0.2,0.5,0.3c0.4,0.1,0.7-0.1,1-0.4c0.2-0.3,0.2-0.8,0-1.1
							c-0.6-1.9-5.1-22.5-8-36.1c-0.1-0.5-0.6-0.8-1.1-0.7s-0.8,0.6-0.7,1.1c0,0,1.9,9.1,3.9,18.2
							C371.2,210.1,371.9,213.2,372.4,214z"/>
					</g>
					<g id="XMLID_891_">
						<path id="XMLID_892_" class="st4" d="M368.7,215.7c0.2,0.2,0.3,0.2,0.5,0.3c0.4,0.1,0.7-0.1,1-0.4c0.2-0.3,0.2-0.8,0-1.1
							c-0.6-1.9-5.1-22.5-8-36.1c-0.1-0.5-0.6-0.8-1.1-0.7s-0.8,0.6-0.7,1.1c0,0,1.9,9.1,3.9,18.2
							C367.5,211.7,368.2,214.9,368.7,215.7z"/>
					</g>
					<path id="XMLID_890_" class="st4" d="M335.4,145.2c1.8,0.6,3.2,2.1,5,2.6c2.5,0.7,5.1-0.7,7.6-1.2c4.4-0.9,9.3,1.1,11.8,4.8
						c1.1,1.7,1.8,3.6,2.4,5.6c0.5,1.6,1.1,3.3,1.6,4.9c0.6,1.8,0.9,4.2,1.1,6.1c0.2,1.5-0.8,3.3-1.7,4.5c-1.5,1.9-3.6,3.1-5.7,4.5
						c-2,1.3-4,2.9-5,5.1c-0.4,0.9-0.6,1.8-1.1,2.7c-0.4,0.8-1.2,1.6-2.1,1.7c-0.7,0.1-1.4-0.2-2.1-0.1c-1.1,0.1-1.8,1.1-2.3,2
						c-0.5,1-0.8,2-1.5,2.8c-1.1,1.2-3,1.4-4.7,1.4c-1.1,0-2.3-0.1-3.3-0.5c-0.3-0.2-0.7-0.4-1-0.6c-2.1,4.7-4.9,11.3-5.4,14.1
						l-6.2-29.2c0,0,8.5,3.9,12.7,5.6c0.3-0.8,0.8-1.5,1.4-2.1c-2.2-1.5-5.6-4.4-8.7-9.3c-0.6-1-1.2-2-1.6-2.9
						c-3.3-3.3-7.7-7.9-7.7-7.9s-0.8-2.8-0.5-2.9c0.2-0.1,4,3.6,6.2,5.9c-1-3.6-0.7-5.8-0.6-5.7c0.2,0.1,1,6.1,7.6,12.9
						c4.6,4.7,9.7,7.6,12.5,8.9c1-0.8,1.4-2.1,2.2-3.1c0.9-1.1,2.2-1.8,3.3-2.7c2.1-1.5,3.9-3.7,4.2-6.2c0.3-2.6-1.2-5.4-3.7-6
						c-1.6-0.4-3.4,0.2-4.9-0.6c-1.4-0.8-1.9-2.6-2.9-3.9c-1.6-2.1-4.4-2.6-6.8-3.6s-5-3-4.6-5.6c0.1-0.6,0.4-1.3,0.9-1.7
						C333,144.8,334.3,144.8,335.4,145.2z"/>
					<g id="XMLID_888_">
						<path id="XMLID_889_" class="st4" d="M352,135.4c0.2,0.3,0.6,0.5,1,0.4c0.5-0.1,0.8-0.6,0.7-1.1l-8.3-36
							c-0.1-0.5-0.6-0.8-1.1-0.7c-0.5,0.1-0.8,0.6-0.7,1.1l8.3,36C351.9,135.2,351.9,135.3,352,135.4z"/>
					</g>
					<g id="XMLID_886_">
						<path id="XMLID_887_" class="st4" d="M347.9,136.5c0.2,0.3,0.6,0.5,1,0.4c0.5-0.1,0.8-0.6,0.7-1.1l-8.3-36
							c-0.1-0.5-0.6-0.8-1.1-0.7c-0.5,0.1-0.8,0.6-0.7,1.1l8.3,36C347.8,136.3,347.9,136.4,347.9,136.5z"/>
					</g>
					<g id="XMLID_884_">
						
							<rect id="XMLID_885_" x="342.2" y="75.8" transform="matrix(0.9737 -0.2277 0.2277 0.9737 -10.4016 80.8156)" class="st4" width="5.7" height="19.4"/>
					</g>
				</g>
			</g>
			<g id="XMLID_863_">
				<polygon id="XMLID_881_" class="st5" points="330.4,240.9 385.2,218.4 341.3,63.6 285.7,78.6 				"/>
				<g id="XMLID_864_">
					<path id="XMLID_878_" class="st4" d="M335.3,73.2L376,213.1l-41.1,15.5c-13.3-46.9-36.3-128.4-40.7-144.5
						c1.2-0.3,2.7-0.7,4.6-1.2c3.9-1,9.3-2.4,16-4.2C323,76.5,331.2,74.3,335.3,73.2 M337.2,69.8c0,0-46.3,12.5-46.6,12.1
						c-0.3-0.4,42.4,150.5,42.4,150.5l46.4-17.5L337.2,69.8L337.2,69.8z"/>
					<path id="XMLID_877_" class="st4" d="M341.9,195.5c-3.6,3-4.1,8.2-1.1,11.8s8.2,4.1,11.8,1.1c3.6-3,4.1-8.2,1.1-11.8
						C350.7,193,345.4,192.5,341.9,195.5z"/>
					<path id="XMLID_876_" class="st4" d="M314.8,100c-3.2,2.6-3.6,7.4-1,10.6s7.4,3.6,10.6,1s3.6-7.4,1-10.6S318,97.4,314.8,100z"
						/>
					<g id="XMLID_874_">
						<path id="XMLID_875_" class="st4" d="M371.3,212.6c0.2,0.2,0.3,0.2,0.5,0.2c0.4,0.1,0.7-0.1,0.9-0.4c0.2-0.3,0.2-0.8,0-1.1
							c-0.8-1.9-6.7-22.1-10.5-35.4c-0.1-0.5-0.7-0.8-1.2-0.6c-0.5,0.1-0.8,0.7-0.6,1.2c0,0,2.6,8.9,5.2,17.8
							C369.7,208.8,370.7,211.9,371.3,212.6z"/>
					</g>
					<g id="XMLID_872_">
						<path id="XMLID_873_" class="st4" d="M367.7,214.5c0.2,0.2,0.3,0.2,0.5,0.2c0.4,0.1,0.7-0.1,0.9-0.4c0.2-0.3,0.2-0.8,0-1.1
							c-0.8-1.9-6.7-22.1-10.5-35.4c-0.1-0.5-0.7-0.8-1.2-0.6c-0.5,0.1-0.8,0.7-0.6,1.2c0,0,2.6,8.9,5.2,17.8
							C366.2,210.7,367.1,213.8,367.7,214.5z"/>
					</g>
					<path id="XMLID_871_" class="st4" d="M329.5,146.6c1.8,0.5,3.3,1.9,5.2,2.2c2.6,0.5,5-1.1,7.5-1.7c4.3-1.2,9.3,0.5,12.1,4
						c1.2,1.6,2,3.5,2.8,5.4c0.7,1.6,1.3,3.2,2,4.8c0.7,1.7,1.2,4.2,1.5,6c0.3,1.5-0.5,3.4-1.4,4.6c-1.4,2-3.4,3.4-5.3,4.9
						s-3.8,3.2-4.6,5.5c-0.3,0.9-0.5,1.9-0.9,2.7c-0.4,0.9-1.1,1.7-2,1.8c-0.7,0.1-1.4-0.1-2.1,0c-1,0.2-1.7,1.2-2.1,2.2
						s-0.6,2.1-1.3,2.9c-1,1.3-2.9,1.6-4.6,1.8c-1.1,0.1-2.3,0.1-3.3-0.3c-0.4-0.1-0.7-0.3-1-0.5c-1.7,4.8-4.1,11.6-4.4,14.5
						l-8.2-28.7c0,0,8.8,3.3,13,4.7c0.3-0.8,0.7-1.6,1.3-2.1c-2.3-1.4-5.9-4-9.3-8.7c-0.7-1-1.3-1.9-1.8-2.8
						c-3.5-3.1-8.3-7.4-8.3-7.4s-1-2.7-0.7-2.8c0.2-0.1,4.2,3.3,6.6,5.4c-1.3-3.5-1.1-5.7-1-5.7c0.2,0.1,1.5,6,8.5,12.3
						c4.9,4.3,10.2,6.9,13.1,8.1c0.9-0.8,1.3-2.2,2-3.3c0.8-1.2,2-2,3.1-2.9c2-1.7,3.6-3.9,3.7-6.5c0.2-2.6-1.6-5.3-4.1-5.7
						c-1.6-0.2-3.4,0.4-4.9-0.3s-2.1-2.5-3.2-3.7c-1.8-1.9-4.6-2.3-7.1-3.1s-5.2-2.6-5-5.3c0-0.6,0.3-1.3,0.7-1.7
						C327.1,146.4,328.4,146.3,329.5,146.6z"/>
					<g id="XMLID_869_">
						<path id="XMLID_870_" class="st4" d="M345.4,135.6c0.2,0.3,0.6,0.4,1,0.3c0.5-0.2,0.8-0.7,0.6-1.2l-10.8-35.4
							c-0.2-0.5-0.7-0.8-1.2-0.6c-0.5,0.2-0.8,0.7-0.6,1.2l10.8,35.4C345.3,135.4,345.4,135.5,345.4,135.6z"/>
					</g>
					<g id="XMLID_867_">
						<path id="XMLID_868_" class="st4" d="M341.4,137c0.2,0.3,0.6,0.4,1,0.3c0.5-0.2,0.8-0.7,0.6-1.2l-10.8-35.4
							c-0.2-0.5-0.7-0.8-1.2-0.6c-0.5,0.2-0.8,0.7-0.6,1.2l10.8,35.4C341.3,136.8,341.3,136.9,341.4,137z"/>
					</g>
					<g id="XMLID_865_">
						
							<rect id="XMLID_866_" x="332.2" y="76.6" transform="matrix(0.9556 -0.2948 0.2948 0.9556 -10.5501 102.6071)" class="st4" width="5.7" height="19.4"/>
					</g>
				</g>
			</g>
			<g id="XMLID_844_">
				<polygon id="XMLID_862_" class="st6" points="331.4,242.2 384.7,216.4 331.2,64.6 276.6,83.1 				"/>
				<g id="XMLID_845_">
					<path id="XMLID_859_" class="st7" d="M325.8,74.6l49.4,137l-40,18.1c-16.2-46-44.3-125.9-49.7-141.7c1.2-0.4,2.6-0.8,4.5-1.4
						c3.8-1.2,9.1-3,15.7-5.2C313.7,78.7,321.8,75.9,325.8,74.6 M327.5,71c0,0-45.4,15.4-45.7,15c-0.3-0.3,51.7,147.5,51.7,147.5
						l45.2-20.4L327.5,71L327.5,71z"/>
					<path id="XMLID_858_" class="st7" d="M340,196.2c-3.4,3.2-3.5,8.5-0.4,11.8c3.2,3.4,8.5,3.5,11.8,0.4c3.4-3.2,3.5-8.5,0.4-11.8
						C348.7,193.2,343.4,193,340,196.2z"/>
					<path id="XMLID_857_" class="st7" d="M307,102.6c-3,2.8-3.2,7.6-0.3,10.6c2.8,3,7.6,3.2,10.6,0.3c3-2.8,3.2-7.6,0.3-10.6
						S310.1,99.8,307,102.6z"/>
					<g id="XMLID_855_">
						<path id="XMLID_856_" class="st7" d="M370.4,211.4c0.2,0.2,0.3,0.2,0.5,0.2c0.4,0,0.7-0.2,0.9-0.5c0.2-0.4,0.1-0.8-0.1-1.1
							c-0.9-1.8-8-21.6-12.7-34.7c-0.2-0.5-0.7-0.8-1.2-0.6s-0.8,0.7-0.6,1.2c0,0,3.1,8.7,6.3,17.5
							C368.7,207.7,369.8,210.8,370.4,211.4z"/>
					</g>
					<g id="XMLID_853_">
						<path id="XMLID_854_" class="st7" d="M367,213.6c0.2,0.2,0.3,0.2,0.5,0.2c0.4,0,0.7-0.2,0.9-0.5c0.2-0.4,0.1-0.8-0.1-1.1
							c-0.9-1.8-8-21.6-12.7-34.7c-0.2-0.5-0.7-0.8-1.2-0.6s-0.8,0.7-0.6,1.2c0,0,3.1,8.7,6.3,17.5
							C365.2,209.8,366.3,212.9,367,213.6z"/>
					</g>
					<path id="XMLID_852_" class="st7" d="M324.6,148.1c1.8,0.4,3.4,1.7,5.3,1.9c2.6,0.3,4.9-1.4,7.4-2.2c4.3-1.4,9.3-0.1,12.3,3.3
						c1.3,1.5,2.2,3.4,3.1,5.2c0.8,1.5,1.5,3.1,2.3,4.6c0.8,1.7,1.4,4.1,1.9,5.9c0.4,1.5-0.3,3.4-1.1,4.7c-1.3,2.1-3.2,3.6-5,5.2
						c-1.8,1.6-3.6,3.4-4.3,5.7c-0.3,0.9-0.4,1.9-0.7,2.8s-1,1.8-1.9,2c-0.7,0.2-1.4,0-2.1,0.1c-1,0.3-1.7,1.3-2,2.3s-0.5,2.1-1.1,3
						c-1,1.4-2.8,1.8-4.4,2c-1.1,0.1-2.3,0.2-3.3-0.1c-0.4-0.1-0.7-0.3-1-0.5c-1.4,4.9-3.4,11.9-3.5,14.7l-10-28.1
						c0,0,9,2.7,13.3,3.8c0.2-0.8,0.6-1.6,1.2-2.2c-2.4-1.2-6.2-3.7-9.8-8.1c-0.8-0.9-1.4-1.8-2-2.6c-3.7-2.9-8.7-6.8-8.7-6.8
						s-1.2-2.6-0.8-2.8c0.2-0.1,4.4,3.1,7,5c-1.5-3.5-1.5-5.6-1.3-5.6c0.2,0.1,1.8,5.9,9.3,11.8c5.1,4,10.6,6.2,13.6,7.2
						c0.9-0.9,1.2-2.3,1.8-3.4c0.7-1.2,1.9-2.1,3-3.1c1.9-1.8,3.3-4.2,3.3-6.7c0-2.6-1.9-5.2-4.5-5.4c-1.6-0.1-3.4,0.6-4.9,0
						s-2.2-2.3-3.4-3.5c-1.9-1.8-4.7-2-7.3-2.7c-2.5-0.6-5.3-2.3-5.3-4.9c0-0.6,0.2-1.3,0.6-1.8
						C322.2,148.1,323.5,147.9,324.6,148.1z"/>
					<g id="XMLID_850_">
						<path id="XMLID_851_" class="st7" d="M339.8,136.2c0.3,0.3,0.7,0.4,1,0.2c0.5-0.2,0.7-0.7,0.6-1.2l-13-34.6
							c-0.2-0.5-0.7-0.7-1.2-0.6c-0.5,0.2-0.7,0.7-0.6,1.2l13,34.6C339.7,136,339.7,136.1,339.8,136.2z"/>
					</g>
					<g id="XMLID_848_">
						<path id="XMLID_849_" class="st7" d="M335.9,137.8c0.3,0.3,0.7,0.4,1,0.2c0.5-0.2,0.7-0.7,0.6-1.2l-13-34.6
							c-0.2-0.5-0.7-0.7-1.2-0.6c-0.5,0.2-0.7,0.7-0.6,1.2l13,34.6C335.8,137.6,335.8,137.7,335.9,137.8z"/>
					</g>
					<g id="XMLID_846_">
						
							<rect id="XMLID_847_" x="323.5" y="77.9" transform="matrix(0.9352 -0.3541 0.3541 0.9352 -9.8799 121.2326)" class="st7" width="5.7" height="19.4"/>
					</g>
				</g>
			</g>
			<g id="XMLID_825_">
				<polygon id="XMLID_1_" class="st8" points="333.2,243.8 383.8,213.2 316.4,67.1 263.8,90.5 				"/>
				<g id="XMLID_843_">
					<path id="XMLID_816_" class="st9" d="M312,77.5l61.9,131.8L335.7,231c-20.4-44.3-55.8-121.3-62.7-136.5
						c1.1-0.5,2.6-1.1,4.4-1.9c3.7-1.6,8.8-3.8,15.2-6.6C300.3,82.7,308.1,79.2,312,77.5 M313.4,73.7c0,0-43.8,19.5-44.2,19.2
						c-0.4-0.3,65.2,142.1,65.2,142.1l43.1-24.5L313.4,73.7L313.4,73.7z"/>
					<path id="XMLID_815_" class="st9" d="M337.4,197.2c-3.1,3.5-2.7,8.8,0.7,11.8c3.5,3.1,8.8,2.7,11.8-0.7
						c3.1-3.5,2.7-8.8-0.7-11.8C345.8,193.4,340.5,193.7,337.4,197.2z"/>
					<path id="XMLID_822_" class="st9" d="M295.9,107.1c-2.7,3.1-2.4,7.9,0.7,10.6s7.9,2.4,10.6-0.7s2.4-7.9-0.7-10.6
						C303.4,103.7,298.7,104,295.9,107.1z"/>
					<g id="XMLID_831_">
						<path id="XMLID_842_" class="st9" d="M369.1,209.6c0.2,0.2,0.3,0.2,0.5,0.2c0.4,0,0.7-0.2,0.9-0.6c0.2-0.4,0.1-0.8-0.2-1.1
							c-1.1-1.7-10-20.8-15.9-33.4c-0.2-0.5-0.8-0.7-1.3-0.5s-0.7,0.8-0.5,1.3c0,0,3.9,8.4,7.9,16.8C367,206,368.4,209,369.1,209.6z
							"/>
					</g>
					<g id="XMLID_833_">
						<path id="XMLID_841_" class="st9" d="M365.9,212c0.2,0.2,0.3,0.2,0.5,0.2c0.4,0,0.7-0.2,0.9-0.6c0.2-0.4,0.1-0.8-0.2-1.1
							c-1.1-1.7-10-20.8-15.9-33.4c-0.2-0.5-0.8-0.7-1.3-0.5s-0.7,0.8-0.5,1.3c0,0,3.9,8.4,7.9,16.8
							C363.8,208.5,365.2,211.4,365.9,212z"/>
					</g>
					<path id="XMLID_838_" class="st9" d="M317.7,150.8c1.9,0.2,3.6,1.3,5.5,1.4c2.6,0.1,4.8-1.8,7.2-2.9c4.1-1.8,9.3-1,12.6,2.1
						c1.5,1.4,2.5,3.1,3.6,4.9c0.9,1.5,1.8,2.9,2.7,4.4c1,1.6,1.8,3.9,2.4,5.7c0.5,1.5,0,3.4-0.7,4.7c-1.1,2.2-2.9,3.9-4.5,5.6
						c-1.7,1.8-3.2,3.7-3.7,6.1c-0.2,0.9-0.2,1.9-0.4,2.8c-0.2,0.9-0.8,1.8-1.7,2.1c-0.7,0.2-1.4,0.1-2,0.3c-1,0.4-1.5,1.5-1.8,2.5
						c-0.2,1-0.3,2.2-0.8,3.1c-0.8,1.5-2.6,2.1-4.2,2.4c-1.1,0.2-2.2,0.4-3.3,0.2c-0.4-0.1-0.7-0.2-1.1-0.4c-1,5-2.3,12.1-2.1,15
						l-12.5-27c0,0,9.2,1.9,13.6,2.6c0.1-0.8,0.4-1.7,0.9-2.3c-2.5-1-6.5-3.1-10.5-7.1c-0.8-0.8-1.6-1.7-2.2-2.4c-4-2.5-9.3-6-9.3-6
						s-1.4-2.5-1.1-2.7c0.2-0.1,4.7,2.6,7.4,4.3c-1.8-3.3-2-5.5-1.8-5.4c0.3,0.1,2.4,5.7,10.3,10.9c5.5,3.5,11.2,5.2,14.2,5.9
						c0.8-1,0.9-2.4,1.5-3.5c0.6-1.3,1.7-2.3,2.7-3.4c1.7-1.9,2.9-4.4,2.7-7c-0.3-2.6-2.4-5-4.9-5c-1.6,0-3.3,1-4.9,0.5
						s-2.5-2.1-3.7-3.2c-2-1.6-4.9-1.6-7.5-2s-5.5-1.8-5.8-4.4c-0.1-0.6,0.1-1.3,0.5-1.8C315.3,151,316.5,150.7,317.7,150.8z"/>
					<g id="XMLID_834_">
						<path id="XMLID_840_" class="st9" d="M331.7,137.5c0.3,0.2,0.7,0.3,1,0.1c0.5-0.2,0.7-0.8,0.4-1.3L317,103.2
							c-0.2-0.5-0.8-0.7-1.3-0.4c-0.5,0.2-0.7,0.8-0.4,1.3l16.2,33.3C331.5,137.4,331.6,137.5,331.7,137.5z"/>
					</g>
					<g id="XMLID_835_">
						<path id="XMLID_839_" class="st9" d="M327.9,139.5c0.3,0.2,0.7,0.3,1,0.1c0.5-0.2,0.7-0.8,0.4-1.3L313.1,105
							c-0.2-0.5-0.8-0.7-1.3-0.4c-0.5,0.2-0.7,0.8-0.4,1.3l16.2,33.3C327.8,139.3,327.8,139.4,327.9,139.5z"/>
					</g>
					<g id="XMLID_836_">
						
							<rect id="XMLID_837_" x="310.9" y="80.7" transform="matrix(0.8983 -0.4394 0.4394 0.8983 -7.8178 147.054)" class="st9" width="5.7" height="19.4"/>
					</g>
				</g>
			</g>
			<path id="XMLID_908_" class="st10" d="M384.7,199.1c0,0-15.6-7.3-22.7-15.3c-7.1-7.9-7.1-7.9-7.1-7.9s-9.5,2.5-18,3
				s-32.2,3.2-33.2-20.6c0,0,54.2,5,54,5C357.6,163.4,384.7,199.1,384.7,199.1z"/>
			<path id="XMLID_914_" class="st1" d="M500,224.4v81.2c-25.4-20.2-87.7-70.3-87.7-70.3s-2.5-0.8-7.2-2.4c-2.6-0.9-6-1.9-10-3.2
				c-11.1-3.5-29.4-2.3-29.4-2.3l20.2-6.7l-5.1-24.4c-6.3-5.1-11.1-10.1-14.6-14.2c-5-5.8-7.4-9.8-7.4-9.8l-6.1-0.6
				c-6.9,2.4-17.7,1.1-17.7,1.1c-10.6,2-17.7-0.7-17.7-0.7c-22-10.6-10.6-19.4-10.6-19.4c2.7,0.3,12.7,3.2,23,2.6
				c10.3-0.6,32-8,39.3-8.3c7.4-0.2,35.6,15,43.4,21.5s19.4,16.7,56.4,38.4C478.4,212.5,489.2,218.6,500,224.4z"/>
			<path id="XMLID_912_" class="st1" d="M405.1,182.2V233c-2.6-0.9-6-1.9-10-3.2c-11.1-3.5-29.4-2.3-29.4-2.3l20.2-6.7l-5.1-24.4
				c-6.3-5.1-11.1-10.1-14.6-14.2L405.1,182.2L405.1,182.2z"/>
			<g id="XMLID_902_">
				<path id="XMLID_903_" class="st2" d="M395.6,202.7c0,0-8.9-1.3-14.7-6.4c-14.8-12.9-22-23.9-22-23.9l-6.1-0.6
					c-6.9,2.4-17.7,1.1-17.7,1.1c-10.6,2-17.7-0.7-17.7-0.7c-22-10.6-10.6-19.4-10.6-19.4c2.7,0.3,12.7,3.2,23,2.6
					c10.3-0.6,32-8,39.3-8.3"/>
				<path id="XMLID_904_" class="st2" d="M372.5,165.1c0-0.2-5.1,5.5-13.7,7.3"/>
				<path id="XMLID_905_" class="st2" d="M339.6,168.5c0,0-1.3,1.9-4.6,4.4"/>
			</g>
		</g>
		<g id="XMLID_805_">
			<path id="XMLID_824_" class="st1" d="M178.4,332.3c-1.4,1.4-3.1,12.9-16.6,13.7c-1.6,0.1-3.5,0-5.5-0.2
				c-11.4-1.4-30.3-5.4-43.3-8.3c-8.2-1.8-14-3.2-14-3.2l9.1-16.6l9.5-17.3c0,0,3.9-1.5,9.2-2.8c2.3-0.6,4.9-1.1,7.4-1.5
				c6.8-1,20.3-10.7,34.1-15.6c3.4-1.2,6.8-2.1,10.1-2.6c0,0,0.2,8.1,0.5,18C179.1,311.3,179.3,331.3,178.4,332.3z"/>
			<path id="XMLID_821_" class="st1" d="M178.4,332.3c-1.4,1.4-3.1,12.9-16.6,13.7l6.5-65.5c3.4-1.2,6.8-2.1,10.1-2.6
				c0,0,0.2,8.1,0.5,18C179.1,311.3,179.3,331.3,178.4,332.3z"/>
			<path id="XMLID_819_" class="st1" d="M178.4,332.3c-1.6,1.6-3.5,15.8-22.1,13.5c-11.4-1.4-30.3-5.4-43.3-8.3
				c-8.2-1.8-14-3.2-14-3.2l9.1-16.6c5.9,1.4,13.3,3,18.7,3c9.3,0,29.1-17.2,52.1-24.7C179.1,311.3,179.3,331.3,178.4,332.3z"/>
			<path id="XMLID_820_" class="st1" d="M126.7,297.5c-3.6,7.5-10.1,22.7-13.8,39.9c-8.2-1.8-14-3.2-14-3.2l18.6-33.9
				C117.6,300.2,121.5,298.8,126.7,297.5z"/>
			<path id="XMLID_928_" class="st11" d="M92.6,291.1c-1.2-0.4-2.6-0.8-4-1.1c-10.9-2.7-27.7-4.6-42.1-8.6
				c-16.4-4.5-33.1-14.5-48-17.8c-14.9-3.2-25.7-14.6-45.4-25.4c-4.4-2.4-9.2-4.4-14-5.9v120.6c18.6,1.3,62.8,3.5,83.7,9.3
				c6.1,1.7,13.1,3.3,20.2,4.8c20.7,4.3,42,7.1,42,7.1s9.3-19.4,18.2-39.8c2.4-5.4,5-10.6,7.5-15.3c7-13,13.4-22.1,13.4-22.1
				C112.7,294.6,103,294.5,92.6,291.1z"/>
			<path id="XMLID_811_" class="st12" d="M123.9,296.9c0,0-11.9,17-20.9,37.4c-8.9,20.4-18.2,39.8-18.2,39.8s-21.3-2.9-42-7.1
				c7.8-15.8,16.2-32.9,23.4-47.6c9-18.4,16.6-26.3,22.4-29.4c1.5,0.3,2.8,0.7,4,1.1C103,294.5,112.7,294.6,123.9,296.9z"/>
			<path id="XMLID_920_" class="st13" d="M61.7,302.3c-8.2-3-14.2-3.7-22.7-7.1c-8.6-3.4-8.6-2.2-24-9.2s-41.5-12-41.5-12
				c-12.6-9.4-24.3-15.3-34.5-19v97.9c18.6,1.3,62.8,3.5,83.7,9.3c6.1,1.7,13.1,3.3,20.2,4.8c20.7,4.3,42,7.1,42,7.1
				s9.3-19.4,18.2-39.8c2.4-5.4,5-10.6,7.5-15.3C94,313.4,67.3,304.3,61.7,302.3z"/>
		</g>
		<g id="XMLID_798_">
			<polygon id="XMLID_832_" class="st14" points="396.6,182.3 390.9,340.8 389.5,381.2 386.8,381.1 273,377.1 217.9,375.1 
				169.2,373.4 176.3,174.4 			"/>
			<path id="XMLID_829_" class="st15" d="M390.9,340.8l-1.4,40.4l-2.6-0.1c0-0.7,0.1-1.4,0.2-2.3c2.9-19.2-12.5-16.6-30.3-28.1
				c-17.7-11.5-7.9-22.4-7.9-22.4l10.9,1.9L390.9,340.8z"/>
			
				<rect id="XMLID_3_" x="263.4" y="184.6" transform="matrix(3.568321e-02 -0.9994 0.9994 3.568321e-02 74.9921 478.8289)" class="st16" width="44.5" height="32"/>
			
				<rect id="XMLID_799_" x="257.9" y="339.1" transform="matrix(3.568321e-02 -0.9994 0.9994 3.568321e-02 -84.7204 622.3244)" class="st16" width="44.5" height="32"/>
			<g id="XMLID_32_">
				
					<rect id="XMLID_7_" x="330.1" y="175.8" transform="matrix(3.568445e-02 -0.9994 0.9994 3.568445e-02 128.6704 547.4611)" class="st0" width="35.9" height="62.6"/>
				<g id="XMLID_14_">
					
						<rect id="XMLID_12_" x="331.9" y="184.9" transform="matrix(3.568752e-02 -0.9994 0.9994 3.568752e-02 126.623 521.7417)" class="st17" width="3.5" height="20.7"/>
					
						<rect id="XMLID_13_" x="347.2" y="179.5" transform="matrix(3.568432e-02 -0.9994 0.9994 3.568432e-02 131.2593 545.2482)" class="st18" width="2" height="50.3"/>
					
						<rect id="XMLID_15_" x="347" y="184.3" transform="matrix(3.568432e-02 -0.9994 0.9994 3.568432e-02 126.2716 549.6776)" class="st18" width="2" height="50.3"/>
					
						<rect id="XMLID_28_" x="346.8" y="189.1" transform="matrix(3.568440e-02 -0.9994 0.9994 3.568440e-02 121.2838 554.107)" class="st18" width="2" height="50.3"/>
					
						<rect id="XMLID_30_" x="346.7" y="194" transform="matrix(3.568209e-02 -0.9994 0.9994 3.568209e-02 116.2863 558.7332)" class="st18" width="2" height="50.3"/>
				</g>
			</g>
			<g id="XMLID_790_">
				<path id="XMLID_795_" d="M209.4,192.9l-0.7,18.5l-18.5-0.7l0.7-18.5L209.4,192.9 M211,191.3l-21.7-0.8l-0.8,21.7l21.7,0.8
					L211,191.3L211,191.3z"/>
				<g id="XMLID_791_">
					<path id="XMLID_794_" d="M193.5,207.4c0-0.4,0-0.8,0-1.2c4,0.1,8.1,0.3,12.1,0.4c0,0.4,0,0.8,0,1.2
						C201.6,207.7,197.6,207.5,193.5,207.4z"/>
					<path id="XMLID_793_" d="M202.2,198.5c-0.3,0-0.5,0-0.8,0c0.5-0.8,1-1.6,1.5-2.4c0.4,0.8,0.9,1.6,1.3,2.5c-0.3,0-0.5,0-0.7,0
						c-0.1,2.4-0.2,4.8-0.3,7.2c-0.5,0-0.9,0-1.4,0C202,203.4,202.1,201,202.2,198.5z"/>
					<path id="XMLID_792_" d="M196.2,198.3c-0.3,0-0.5,0-0.8,0c0.5-0.8,1-1.6,1.5-2.4c0.4,0.8,0.9,1.6,1.3,2.5c-0.3,0-0.5,0-0.7,0
						c-0.1,2.4-0.2,4.8-0.3,7.2c-0.5,0-0.9,0-1.3,0C196.1,203.2,196.2,200.8,196.2,198.3z"/>
				</g>
			</g>
			<g id="XMLID_758_">
				<g id="XMLID_765_">
					<path id="XMLID_789_" d="M222.8,207.6c-0.3,0-0.6,0-0.9,0c-0.6,0-1.2,0-1.8-0.1c-0.4,0-0.7-0.2-0.9-0.6
						c-0.4-0.8-0.8-1.6-1.2-2.4c0.4,0.1,0.8,0.1,1.3,0.2c1.2,0.1,2.4,0.1,3.7,0.1C222.9,205.9,222.9,206.7,222.8,207.6z"/>
					<path id="XMLID_788_" d="M228,200.7c0.4,0.8,0.9,1.6,1.3,2.4c0.2,0.3,0.1,0.6-0.1,0.9c-0.5,0.8-1,1.5-1.4,2.3
						c-0.2-0.4-0.3-0.7-0.5-1.1c-0.5-1-1-2-1.5-3.1c-0.1-0.1-0.1-0.2-0.2-0.3C226.4,201.4,227.2,201,228,200.7z"/>
					<path id="XMLID_769_" d="M221.7,201.2c-0.7-0.5-1.4-1-2.2-1.5c0.5-0.8,1-1.6,1.5-2.4c0.2-0.2,0.4-0.4,0.7-0.3
						c0.9,0,1.8,0.1,2.7,0.1h0.1c-0.2,0.3-0.5,0.6-0.7,0.9c-0.6,1-1.3,1.9-1.9,2.9C221.8,201,221.8,201.1,221.7,201.2z"/>
					<path id="XMLID_768_" d="M227.2,198.8c0.2-0.1,0.4-0.2,0.5-0.3l0,0c-0.1,0.2-0.3,0.5-0.4,0.7c-0.2,0.4-0.4,0.7-0.7,1.1
						c-0.1,0.1-0.2,0.2-0.2,0.2c-0.8,0-1.5,0-2.3-0.1c0.2-0.1,0.4-0.2,0.6-0.3c-0.3-0.5-0.5-1-0.8-1.5c-0.2-0.3-0.1-0.5,0-0.8
						c0.4-0.7,1-1,1.8-0.9c0.4,0,0.6,0.2,0.8,0.5C226.8,198,227,198.4,227.2,198.8z"/>
					<path id="XMLID_767_" d="M221.1,203.2c-0.2-0.1-0.3-0.2-0.6-0.3c-0.3,0.4-0.6,0.9-0.8,1.3c-0.2,0.3-0.4,0.4-0.8,0.4
						c-0.8,0-1.2-0.4-1.6-1.2c-0.1-0.3-0.1-0.6,0.1-0.9c0.3-0.4,0.5-0.8,0.7-1.2c-0.2-0.1-0.3-0.2-0.5-0.3v-0.1c0.5,0,0.9,0.1,1.4,0
						c0.8-0.1,1.2,0.2,1.5,0.9C220.7,202.3,220.9,202.7,221.1,203.2L221.1,203.2z"/>
					<path id="XMLID_766_" d="M225,204.3c0,0.2,0,0.4,0,0.6c0.2,0,0.3,0,0.5,0c0.3,0,0.6,0,0.9,0c0.2,0,0.6,0,0.7,0.1
						c0.3,0.4,0.6,0.8,0.4,1.4c-0.1,0.3-0.2,0.6-0.4,0.9c-0.2,0.3-0.5,0.5-0.9,0.4c-0.5,0-0.9,0-1.4-0.1c0,0.2,0,0.4,0,0.6
						c0,0,0,0-0.1,0c-0.3-0.5-0.6-1.1-0.9-1.6c-0.2-0.4-0.2-0.6,0-1C224.3,205.3,224.6,204.8,225,204.3
						C224.9,204.3,224.9,204.3,225,204.3z"/>
				</g>
				<path id="XMLID_759_" d="M232.9,193.7l-0.7,18.5l-18.5-0.7l0.7-18.5L232.9,193.7 M234.6,192.2l-21.7-0.8l-0.8,21.7l21.7,0.8
					L234.6,192.2L234.6,192.2z"/>
			</g>
			<g id="XMLID_731_">
				<g id="XMLID_735_">
					<path id="XMLID_757_" d="M245.8,197.6c-0.2,0.2-0.4,0.6-0.6,0.9c-0.1,0.1-0.2,0.3-0.3,0.5l1.5,0.1c-0.8,1-1.5,2-2.3,3
						c1.2,1.2,3.6,1.4,5.2,0.5c1.3-0.7,2-1.8,2.6-3.1c0.2-0.5,0.4-1.1,0.5-1.6L245.8,197.6z"/>
					<path id="XMLID_756_" d="M242.6,209.1c0-0.4,0-0.8,0-1.2c1.1,0,2.2,0.1,3.4,0.1c0.1-1.5,0.1-3,0.2-4.5c0.4,0,0.9,0,1.3,0
						c-0.1,1.5-0.1,2.9-0.2,4.4c1.1,0,2.3,0.1,3.4,0.1c0,0.4,0,0.8,0,1.2C248,209.3,245.3,209.2,242.6,209.1z"/>
					<path id="XMLID_736_" d="M245,197.6l-3.2-0.1c0.3,1.5,0.7,2.9,1.8,4.1c0.5-0.6,0.9-1.2,1.4-1.9l-1.4-0.1
						C244,199,244.5,198.3,245,197.6z"/>
				</g>
				<path id="XMLID_732_" d="M256.5,194.5l-0.7,18.5l-18.5-0.7l0.7-18.5L256.5,194.5 M258.1,193l-21.7-0.8l-0.8,21.7l21.7,0.8
					L258.1,193L258.1,193z"/>
			</g>
			<path id="XMLID_823_" class="st15" d="M273,377.1l-55-2l-16.6-36.6l1.5-13.8c0,0,62.4-25.7,61.5-24.7c-0.4,0.4,7.4,10.6,0,21
				s-18.6,11.1-32.3,13.7s8.7,26,20.1,30.7C262,369.3,270.1,373.4,273,377.1z"/>
		</g>
		<g id="XMLID_806_">
			<path id="XMLID_828_" class="st1" d="M270.5,377c0,0-1.3,16.6-6.8,22.1c-5.5,5.6-17.9-1.4-17.9-1.4s-2.5,8.4-30.8,4.3
				c0,0-4,7.1-16.6,8.3c0,0-1,1.5-6,3.5s-9.2,0-9.2,0s-4.7,6.4-12.7,6.9s-25.3-19.4-43.7-29.8c0,0-7.5-6.2-20.1-7.9
				c-1.6-0.2-3.5-0.5-5.5-0.7c-13.7-1.6-34.2-3.5-34.2-3.5l31.5-54.1c0,0,8.6,0.4,18.1,0.6c8.4,0.2,17.5,0.1,21.9-0.6
				c0,0,5-1.7,9.4-5c4.5-3.2,19.4-8.7,29.8-10.4c10.4-1.7,17.1-3.3,25.3-3.5s31.3-4.4,42-7.4c4.9-1.4,10.5-3,15.7-2.4
				c4.8,0.6,7,6.4,6.4,10.8c-0.7,4.6-3.8,8.5-7.5,11.2c-3.8,2.7-8.2,4.3-12.5,5.7c-4.1,1.3-7.2,0.8-11.3,1.2
				c-3.6,0.4-7.3,0.7-10.9,1.3c-3.6,0.6-7.7,1.2-10.6,3.7c-4.2,3.7,0.3,10.7,4,15.9c3.7,5.2,28,27.1,35,30.8l16.1,0.3L270.5,377z"/>
			<path id="XMLID_826_" class="st1" d="M116.8,325.3c-1.6,9.9-6.1,34.8-15.4,57c-13.7-1.6-34.2-3.5-34.2-3.5l31.5-54.1
				C98.7,324.7,107.3,325.2,116.8,325.3z"/>
			<path id="XMLID_813_" class="st1" d="M269.4,377c-0.8,1.9-2.1,4-3.7,4c-3,0-12.4-4.3-12.4-4.3L269.4,377z"/>
			<g id="XMLID_802_">
				<path id="XMLID_801_" class="st2" d="M225.4,389.8c0,0,6.3,1.6,12.2,4.5c6.1,3,8.3,3.5,8.3,3.5"/>
				<path id="XMLID_803_" class="st2" d="M201.3,400.5c0,0,7.2,0.2,13.8,1.6"/>
				<path id="XMLID_804_" class="st2" d="M183.3,413.9c0,0-3-0.8-7.3-0.8"/>
			</g>
			<path id="XMLID_919_" class="st11" d="M111,322.9c-8.4-2.7-38.9-12.8-50.3-17.1c-0.6-0.2-1.1-0.4-1.5-0.6
				c-11.5-4.5-17.5,0-35.7-10.1s-39.8-9.7-48-14.2s-18.6-8.9-36.3-17.4l0,0V404c14.6-0.7,29.9-1,43.4-1.5
				c12.1-0.5,18.8,0.1,24.8,0.9c6.2,0.8,11.7,1.7,21.8,1.7c19.7,0,31.3,4.8,39.1,0s24.9-38.4,34.3-56c6.5-12.2,9.2-19.8,10.2-23.2
				C112.9,324.6,112.2,323.3,111,322.9z"/>
			<path id="XMLID_808_" class="st12" d="M112.5,325.9c-1,3.5-3.7,11-10.2,23.2c-9.3,17.6-26.4,51.1-34.3,56c-7.8,4.8-19.4,0-39.1,0
				c-10,0-15.5-0.9-21.8-1.7l0,0c29.6-35.2,39.2-76.1,50-92.9c1.1-1.8,2.3-3.3,3.4-4.6c11.5,4.3,42,14.3,50.3,17.1
				C112.2,323.3,112.9,324.6,112.5,325.9z"/>
			<ellipse id="XMLID_800_" class="st11" cx="42.1" cy="393" rx="9.5" ry="9.1"/>
		</g>
		<g id="XMLID_812_">
			<path id="XMLID_922_" class="st1" d="M500,388.4c-10.9-4.1-22.1-8.5-29.1-12c-17.1-8.6-30.9-18.2-47.3-26.1
				c-16.4-7.8-18.6-8.6-32.4-14.5c-13.8-6-15.6-8.2-27.7-11.4c-10.2-2.7-17.7,1.3-14,10.2c3.7,8.9,17.9,10.4,22,13
				s14.5,5.2,15.3,8.6c0.4,1.8,1,5.6,0.3,9c-0.6,2.8-2.3,5.4-5.8,6.3c-7.8,1.9-13.8,3-23.1,5.6c-9.3,2.6-17.1,1.5-28.3,1.5
				s-35.7-1.1-35.7-1.1s-2.6,3.7,8.9,7.5c0.8,0.3,1.6,0.5,2.3,0.8c9.9,3.5,14.7,7.3,23.7,11.5c9.7,4.5,19.4,4.8,26.1,8.6
				c6.7,3.7,15.6,9.7,24.6,10.4c8.9,0.8,10.1-2.2,27.9-4.5s28.7-1.9,38,1.9c5.4,2.2,32.6,18.2,54.4,31.2L500,388.4L500,388.4z"/>
			<path id="XMLID_827_" class="st1" d="M387,365.3c0,7.7-8.6,10.5-14.9,12.9c-6.4,2.3-15.5,6.5-23,6.5c-4.9,0-28.4,0.5-43.8,1.1
				c-0.8-0.3-1.5-0.5-2.3-0.8c-11.5-3.7-8.9-7.5-8.9-7.5s24.6,1.1,35.7,1.1s19,1.1,28.3-1.5s15.3-3.7,23.1-5.6
				C384.8,370.7,386.4,368.1,387,365.3z"/>
			<path id="XMLID_464_" class="st2" d="M383.4,347.2c0,0,3.3,5.1,3.6,10.4"/>
			<path id="XMLID_467_" class="st2" d="M370,342.3c0,0,0.3,4.1,4.1,6.8"/>
			<path id="XMLID_470_" class="st2" d="M333.5,383.1c0,0,4.5-4.2,8.8-4.2"/>
			<path id="XMLID_471_" class="st2" d="M353.4,378.2c0,0,9.5-0.5,12.7,4"/>
			<path id="XMLID_413_" class="st2" d="M330.3,397.8c0,0,4.9,1.3,18.9,0.9s20.9,2.2,30.9,1.7"/>
		</g>
	</g>
</g>
<circle class="st19" cx="282.8" cy="267.5" r="30.5"/>
<polyline class="st20" points="270.5,268.5 279,277.7 295.2,259.3 "/>
</svg>
