<?xml version="1.0" encoding="utf-8"?>
<!-- Generator: Adobe Illustrator 22.1.0, SVG Export Plug-In . SVG Version: 6.00 Build 0)  -->
<svg version="1.1" id="Capa_1" xmlns="http://www.w3.org/2000/svg" xmlns:xlink="http://www.w3.org/1999/xlink" x="0px" y="0px"
	 viewBox="0 0 742.8 913.6" style="enable-background:new 0 0 742.8 913.6;" xml:space="preserve">
<style type="text/css">
	.st0{clip-path:url(#SVGID_2_);}
	.st1{fill:#3F3D56;}
	.st2{fill:#E6E8EC;}
	.st3{fill:#FFFFFF;}
	.st4{fill:#FFD290;}
	.st5{opacity:0.1;enable-background:new    ;}
	.st6{opacity:5.000000e-02;enable-background:new    ;}
	.st7{fill:#FFDCA3;}
	.st8{fill:#FFC0C6;}
	.st9{fill:#080060;}
	.st10{fill:#000021;}
	.st11{fill:#6E88FF;}
	.st12{fill:#0071BC;}
</style>
<title>phone-contact</title>
<g id="phone">
	<defs>
		<rect id="SVGID_1_" x="1" width="742.8" height="913.6"/>
	</defs>
	<clipPath id="SVGID_2_">
		<use xlink:href="#SVGID_1_"  style="overflow:visible;"/>
	</clipPath>
	<g class="st0">
		<path class="st1" d="M723.3,334.7h12c2.6,0,4.8,2.1,4.8,4.8v167.8c0,2.6-2.1,4.8-4.8,4.8h-12c-2.6,0-4.8-2.1-4.8-4.8V339.5
			C718.5,336.8,720.6,334.7,723.3,334.7z"/>
		<path class="st1" d="M6.5,195.8h5.8c1.7,0,3.1,1.4,3.1,3.1V251c0,1.7-1.4,3.1-3.1,3.1H6.5c-1.7,0-3.1-1.4-3.1-3.1v-52.1
			C3.4,197.2,4.8,195.8,6.5,195.8z"/>
		<path class="st1" d="M6.5,302.7H13c1.9,0,3.5,1.6,3.5,3.5v94.6c0,1.9-1.6,3.5-3.5,3.5H6.5c-1.9,0-3.5-1.6-3.5-3.5v-94.6
			C3,304.2,4.5,302.7,6.5,302.7z"/>
		<path class="st1" d="M6.5,439.8h6.2c1.9,0,3.4,1.5,3.4,3.4V539c0,1.9-1.5,3.4-3.4,3.4H6.5c-1.9,0-3.4-1.5-3.4-3.4v-95.8
			C3.2,441.3,4.7,439.8,6.5,439.8z"/>
		<path class="st1" d="M84.7,2.8h571c41.1,0,74.4,33.3,74.4,74.4v1314.1c0,41.1-33.3,74.4-74.4,74.4h-571
			c-41.1,0-74.4-33.3-74.4-74.4V77.3C10.2,36.2,43.6,2.8,84.7,2.8z"/>
		<path class="st2" d="M306,46.5h89.9c2.9,0,5.3,2.4,5.3,5.3v9.8c0,2.9-2.4,5.3-5.3,5.3H306c-2.9,0-5.3-2.4-5.3-5.3v-9.8
			C300.7,48.9,303.1,46.5,306,46.5z"/>
		<circle class="st2" cx="428" cy="56.7" r="11.6"/>
		<path class="st3" d="M685.6,98.1v1272.4c0,31.6-25.6,57.2-57.2,57.2H111.9c-31.6,0-57.2-25.6-57.2-57.2V98.1
			c0-31.6,25.6-57.2,57.2-57.2l0,0h77.3v9.9c0,26,21.1,47,47.1,47h262.8c26,0,47.1-21.1,47.1-47.1v0v-9.9h82.4
			C660.1,41,685.6,66.6,685.6,98.1z"/>
	</g>
</g>
<polygon class="st4" points="340,869.5 222.6,893.5 219.9,893.2 116.7,882.8 116.7,752 243,730.7 334.6,741.3 334.7,741.9 
	334.7,742.2 "/>
<polygon class="st5" points="340,869.5 222.6,893.5 219.9,893.2 219.9,759.1 334.7,741.9 "/>
<polygon class="st6" points="334.7,742.2 334.6,742.2 219.9,759.1 116.7,752 243,730.7 334.6,741.3 334.7,741.9 "/>
<polygon class="st7" points="469,874.8 351.5,898.8 348.9,898.5 245.7,888.1 245.7,757.4 372,736 463.6,746.7 463.7,747.3 
	463.7,747.5 "/>
<polygon class="st5" points="469,874.8 351.5,898.8 348.9,898.5 348.9,764.5 463.7,747.3 "/>
<polygon class="st6" points="463.7,747.5 463.6,747.6 348.9,764.5 245.7,757.4 372,736 463.6,746.7 463.7,747.3 "/>
<polygon class="st7" points="388,746.7 270.6,770.7 267.9,770.4 164.7,760 164.7,629.3 291.1,607.9 382.7,618.6 382.7,619.2 
	382.7,619.4 "/>
<polygon class="st5" points="388,746.7 270.6,770.7 267.9,770.4 267.9,636.4 382.7,619.2 "/>
<polygon class="st6" points="382.7,619.4 382.7,619.5 267.9,636.4 164.7,629.3 291.1,607.9 382.7,618.6 382.7,619.2 "/>
<polygon class="st7" points="454.8,752.2 393.5,764.7 392.1,764.6 338.2,759.1 338.2,690.9 404.1,679.7 452,685.3 452,685.6 
	452,685.8 "/>
<polygon class="st5" points="454.8,752.2 393.5,764.7 392.1,764.6 392.1,694.6 452,685.6 "/>
<polygon class="st6" points="452,685.8 452,685.8 392.1,694.6 338.2,690.9 404.1,679.7 452,685.3 452,685.6 "/>
<polygon class="st7" points="290.2,619.6 228.9,632.2 227.5,632 173.6,626.6 173.6,558.3 239.6,547.2 287.4,552.8 287.4,553.1 
	287.4,553.2 "/>
<polygon class="st5" points="290.2,619.6 228.9,632.2 227.5,632 227.5,562 287.4,553.1 "/>
<polygon class="st6" points="287.4,553.2 287.4,553.2 227.5,562 173.6,558.3 239.6,547.2 287.4,552.8 287.4,553.1 "/>
<polygon class="st4" points="397.8,616.9 336.5,629.5 335.1,629.3 281.3,623.9 281.3,555.7 347.2,544.5 395,550.1 395,550.4 
	395,550.5 "/>
<polygon class="st5" points="397.8,616.9 336.5,629.5 335.1,629.3 335.1,559.4 395,550.4 "/>
<polygon class="st6" points="395,550.5 395,550.5 335.1,559.4 281.3,555.7 347.2,544.5 395,550.1 395,550.4 "/>
<polygon class="st7" points="429.8,548.4 368.5,561 367.2,560.8 313.3,555.4 313.3,487.1 379.2,476 427.1,481.6 427.1,481.9 
	427.1,482 "/>
<polygon class="st5" points="429.8,548.4 368.5,561 367.2,560.8 367.2,490.9 427.1,481.9 "/>
<polygon class="st6" points="427.1,482 427.1,482 367.2,490.9 313.3,487.1 379.2,476 427.1,481.6 427.1,481.9 "/>
<path class="st8" d="M471.6,408.9c-0.6,5.8-5.1,10.5-6.7,16c-2.5,8.4,1.8,17.4,7.6,24c9.5,10.6,22.8,16.9,37,17.6
	c2.1,0.2,4.1-0.1,6.1-0.7c1.8-0.7,3.4-1.8,4.7-3.2c4.4-4.4,6.7-10.5,7.7-16.6s0.6-12.4,0.2-18.6c0-1.3-0.2-2.6-0.7-3.8
	c-0.6-1.2-1.4-2.2-2.4-3c-3.2-2.9-6.6-5.4-10.4-7.5c-1.6-0.9-3.3-1.8-4.3-3.3c-0.7-1.2-1.2-2.6-1.3-4l-1.1-5.8
	c-0.2-1.7-0.8-3.3-1.7-4.7c-2-2.7-5.9-3.1-9.3-3.2l-12.5-0.5c-3.9-0.1-9-1.3-12.7-0.5c-3.6,0.7-2.4,4-1.7,6.9
	C470.9,401.5,471.5,405.2,471.6,408.9z"/>
<path class="st5" d="M471.6,408.9c-0.6,5.8-5.1,10.5-6.7,16c-2.5,8.4,1.8,17.4,7.6,24c9.5,10.6,22.8,16.9,37,17.6
	c2.1,0.2,4.1-0.1,6.1-0.7c1.8-0.7,3.4-1.8,4.7-3.2c4.4-4.4,6.7-10.5,7.7-16.6s0.6-12.4,0.2-18.6c0-1.3-0.2-2.6-0.7-3.8
	c-0.6-1.2-1.4-2.2-2.4-3c-3.2-2.9-6.6-5.4-10.4-7.5c-1.6-0.9-3.3-1.8-4.3-3.3c-0.7-1.2-1.2-2.6-1.3-4l-1.1-5.8
	c-0.2-1.7-0.8-3.3-1.7-4.7c-2-2.7-5.9-3.1-9.3-3.2l-12.5-0.5c-3.9-0.1-9-1.3-12.7-0.5c-3.6,0.7-2.4,4-1.7,6.9
	C470.9,401.5,471.5,405.2,471.6,408.9z"/>
<path class="st9" d="M550.7,669.4l-5.3,57.9c-1.4,15.2-2.8,30.5-5.5,45.5c-0.9,5.2-2,10.3-3.3,15.4c-3.6,14.2-8.8,28-10.5,42.5
	c-0.1,0.4-0.1,0.9-0.2,1.3c-0.2,3.2-0.8,6.4-1.8,9.4c-0.9,2.2-2.1,4.2-3.1,6.4c-1.8,4.4-2.1,9.2-2.3,14c-6.4-3.6-13.4-6-20.7-7.1
	c-3.6-0.5-7.4-0.9-9.8-3.6c-2.7-2.9-2.4-7.3-1.9-11.2c1.4-12.1,2.8-24.2,4.2-36.3c0.5-5.2,1.4-10.3,2.7-15.4c0.5-1.7,1.1-3.3,1.6-5
	c0.8-2.3,1.6-4.5,2.3-6.9c0.9-3.8,1.4-7.6,1.8-11.4c1.4-12.2,3.2-24.3,4.7-36.5l0.1-0.6c2.3-18.4,4-37,3.5-55.5
	c-0.1-2.8-0.2-5.5-0.4-8.3c-0.3-4-0.6-6.1,2.7-8.6c3.7-2.8,8.5-4.7,12.6-6.5c2.3-1,27-9.8,27.6-7.8c1.2,4.1,1.7,8.4,1.8,12.7
	C551.5,658.9,551.2,664.2,550.7,669.4z"/>
<path class="st5" d="M539.9,772.7c-0.9,5.2-2,10.3-3.3,15.4c-3.6,14.2-8.8,28-10.5,42.5c-0.1,0.4-0.1,0.9-0.2,1.3
	c-11-15.8-20.4-32.8-31.1-48.7c0.8-2.3,1.6-4.6,2.2-6.9c0.9-3.8,1.5-7.6,1.9-11.5c1.4-12.2,3.2-24.3,4.7-36.5l0.1-0.6
	c0.6,2.6,1.5,5.1,2.7,7.5c7.2,14.7,24.4,22.2,32.9,36.2C539.4,771.9,539.7,772.3,539.9,772.7z"/>
<path class="st9" d="M450.3,643.4c0.4,11.8,2.3,23.5,4.1,35.2l3.9,24c2.1,13.2,4.4,26.6,10.6,38.4c4.7,8.8,11.4,16.3,17.5,24.3
	c14.9,19.5,26.1,41.5,40.3,61.5c4.1,5.8,10,12.1,17,10.9c4.6-0.8,8-4.6,11.6-7.6c4.3-3.5,9.4-6,12.8-10.4s4-11.6-0.5-14.8
	c-1.6-1-3.5-1.5-5.2-2.1c-7.1-2.7-11.6-9.6-14.5-16.5s-4.7-14.5-8.5-20.9c-8.4-14.1-25.6-21.5-32.9-36.2c-4.1-8.2-4.5-17.8-4.8-26.9
	l-0.8-23.4c-0.1-2.6-0.2-5.2,0.9-7.6c2.8-6.2,11.1-6.8,17.9-7.6c7.7-0.9,15.2-3.2,22-6.9c3.9-2.1,7.7-4.8,9.8-8.7
	c1.9-3.6,2.2-7.8,2.4-11.8l2.3-42.4c0.2-3.7,0.4-7.4-0.9-10.8c-3.2-8.6-14.1-11.4-23.3-11c-17.1,0.8-32.8,8.1-48.9,13.1
	c-4,1.3-8,2.3-12.1,3.2c-3.6,0.7-8,0.4-11.4,1.6c-6.1,2.1-6,15.5-6.8,21C450.8,621.4,450,632.4,450.3,643.4z"/>
<path class="st10" d="M541.3,839.4c1.5,1.5,2,3.7,2.4,5.8c2.2,11.7,3.3,23.5,3.4,35.3c-0.1,1.1,0.1,2.2,0.6,3.2
	c0.4,0.6,1,1.1,1.7,1.3c4.3,2.1,9.4-0.8,13-4c6.7-5.9,12.4-13.8,12.8-22.7c-0.1-2.3,0-4.6,0.2-6.9c0.6-3.4,2.5-6.3,4.3-9.2
	c3-5,5.3-10.3,7.1-15.8c0.7-2.1,1.1-4.7-0.5-6.2c-0.6-0.5-1.2-0.8-1.9-1l-19.6-7.3c-1.7-0.6-5.9,10.3-6.6,11.4
	c-1.6,2.9-3.3,4.5-6.6,5.2s-7.4-0.3-10.5,1.4C535.6,832.9,538.3,836.3,541.3,839.4z"/>
<path class="st10" d="M511,846.1c-0.4-0.7-0.9-1.4-1.5-1.9c-0.9-0.6-1.9-0.9-3-1c-3.7-0.6-8.2-1.1-10.8,1.7c-2.4,2.6-2,6.8-4,9.8
	c-0.7,0.9-1.4,1.7-2.1,2.7c-0.7,1.5-1,3.1-0.9,4.8c-0.1,4.5-0.2,9.1,0.1,13.6c0.3,3.8,0.9,7.8,3.3,10.7c3.8,4.8,10.7,5.5,16.8,5.8
	l4.9,0.3c1.3,0.2,2.7,0,4-0.4c1.6-0.8,2.9-2.1,3.5-3.8c2.6-6.4-1.5-13.3-4-19.7C514.4,861.2,515,853.1,511,846.1z"/>
<path class="st1" d="M470.2,376.3c-0.1-0.6,0-1.3,0.3-1.9c0.7-1.3,2.6-0.9,4-0.6c5.7,1.5,11.8,0.1,17.6,0.5s12.5,3.3,13.7,9.1
	c4.3-3,8-6.8,10.9-11.2c1.6-2.5,3.1-5.3,2.8-8.2c-0.3-4.2-3.9-7.4-7.1-10.1l-9.8-8c-1.3-1.2-2.8-2.1-4.4-2.8
	c-2.3-0.8-4.7-0.4-7.1-0.4c-7.1,0-14.8-3.2-21.1,0c-2.7,1.4-4.6,3.7-6.6,6l-8.8,10.4c-0.7,0.7-1.1,1.5-1.4,2.4
	c-0.3,1.3,0.4,2.5,0.6,3.8c0.4,2.3-0.6,4.8,0.2,7c1.3,3.7,5.8,4.2,8.5,6.3c1,0.8,2.6,3.5,3.8,3.4C468.6,381.9,470.1,378,470.2,376.3
	z"/>
<ellipse transform="matrix(0.1602 -0.9871 0.9871 0.1602 33.3832 796.8772)" class="st8" cx="485" cy="378.8" rx="28" ry="28"/>
<path class="st11" d="M491.6,440.1c-1.9-5.6-7.3-9.3-13.2-9.1c-0.8,0.2-1.7,0.1-2.4-0.3c-0.4-0.3-0.8-0.8-1-1.2
	c-1.7-3.1-3.1-6.3-4.1-9.7c-0.4-1.5-1.1-3.2-2.6-3.6c-1.3-0.2-2.5,0.4-3.3,1.4c-0.7,1-1.5,2-2.3,2.9c-3.6,3.1-9.8,0.3-13.5,3.2
	c-0.6,0.5-1.1,1.1-1.8,1.5c-0.6,0.4-1.3,0.7-2.1,0.9c-7.2,2.3-14.3,5.1-21.2,8.3c2.5,15,5,30.2,10.9,44.3c2.8,6.7,5.9,13.2,8.1,20.1
	c4.9,15.2,5.1,31.6,5.2,47.6c0,11,0,22.2-3.5,32.5c-0.9,2.3-1.6,4.7-2,7.1c-0.2,2.4,0.5,5.2,2.5,6.7c1.2,0.8,2.5,1.2,3.9,1.4
	c6.1,0.9,12.3-0.7,18.4-2.1c16.2-3.8,32.8-5.9,49.3-8l27.7-3.6c2-0.1,3.9-0.6,5.7-1.5c5.1-2.8,5.5-10.4,2.4-15.2
	c-1.5-2.3-3.6-4.2-4.9-6.7s-1.4-5.9,0.8-7.6c4.5-3.5,3.1-9.9,3.3-15.5c0.6-15.7,0.5-31.5-0.2-47.1c-0.2-3.3-0.3-6.5-0.2-9.8
	c0.3-5.5,1.7-11,3.1-16.3l8.4-33.1c-2.2-3.5-6.4-5.7-10.4-6.7s-8.1-1.3-12-2.5c-8-2.5-15.2-8.8-23.6-8.2c-0.6,0-1.3,0.2-1.8,0.5
	c-1.9,1.1-1.6,3.8-1.7,6c-0.3,4.8-3.8,8.8-7.7,11.6s-8.4,4.9-12,8.1C492.5,437.1,491.7,438.6,491.6,440.1z"/>
<path class="st8" d="M380.5,471.5c-1.9,1.2-3.8,2.2-5.9,3c-2,0.8-4,1.4-5.6,2.7c-0.8,0.7-1.5,1.5-2,2.4c-2.9,5.2-1.1,11.8,4.1,14.7
	c1.8,1,3.8,1.5,5.9,1.4c2.6-0.3,5.1-1,7.4-2.2l19.8-8.6c3.4-1.5,7-3.1,8.5-6.4c0.2-0.3,0.2-0.7,0.2-1c-0.2-0.4-0.4-0.7-0.8-0.9
	c-4.5-2.9-8.3-6.6-11.5-10.9c-0.8-1.1-1.8-3.7-3-4.4C393.4,459.1,383.9,469.4,380.5,471.5z"/>
<path class="st8" d="M591.8,464.6l7.3,8.3c1.6,1.8,3.1,3.5,4.5,5.5c3.5,4.8,6.3,10.1,8.3,15.7c1.6,4.1,2.9,8.6,2.3,13
	c-0.4,2.3-1,4.5-1.8,6.6c-1.3,4.1-3,8.1-5,11.9c-1.6,2.9-3.5,5.7-5.5,8.3c-5.6,7.5-11.8,14.5-18.5,21.1c-2.5,2.5-3.6,6.5-4.6,9.8
	c-2,6.2-6.8,11-11.4,15.5c-1.5,1.6-3.1,3-4.9,4.2c-2.6,1.7-5.7,2.6-8.9,2.5c-1.4,0-2.7-0.3-4-0.8c-3.2-1.5-4.8-5.1-5.1-8.6
	c-0.3-3.2,0.2-6.3,1.5-9.2c4.2-9.3,14.9-13.3,22.5-20c4.5-4,7.9-8.9,11.2-13.9c2.3-3.1,4.2-6.4,5.7-9.9c1.7-4.5,1-9.9,2.5-14.5
	c0.6-2,1.8-3.7,2.4-5.6s0.8-4.2-0.3-5.9c-0.9-1.1-2-1.9-3.3-2.4c-4.8-2.5-10.3-5.6-11.2-11c-0.4-3,0.4-6,2.2-8.4
	c1.8-2.4,3.8-4.6,6.1-6.4C586.1,468.5,589.7,466.4,591.8,464.6z"/>
<path class="st8" d="M375.9,483.2c-1.3-2.6-2.9-5.3-5.5-6.5c-2.6-1.1-5.4-1.1-8,0c-2.5,1.1-4.9,2.5-7,4.2l-6.3,4.6
	c-1.4,0.9-2.7,2.1-3.7,3.4c-1,1.6-1.6,3.5-1.9,5.3c-0.9,4.3-1.6,8.8-1,13.2c1,7.1,5.3,13.3,10,18.7c2.9,3.4,6.6,6.8,11,6.9
	c1.9,0.1,4.1-0.7,4.9-2.5c0.3-0.7,0.4-1.4,0.4-2.2c0.5-7.9-2.4-15.6-5.6-22.8c-0.9-2-1.9-4-1.8-6.1c-0.1-0.7,0.4-1.4,1.1-1.5
	c0.1,0,0.1,0,0.2,0c4.5-0.9,12.3,2.6,15.4-2.4C380.1,492.2,377.3,486.1,375.9,483.2z"/>
<path class="st1" d="M468.7,367.5c-0.1-0.6,0-1.3,0.3-1.9c0.7-1.3,2.6-0.9,4-0.6c5.7,1.4,11.8,0.1,17.6,0.5s12.5,3.3,13.7,9.1
	c4.3-3,8-6.8,10.9-11.2c1.6-2.5,3.1-5.3,2.8-8.2c-0.3-4.2-3.9-7.4-7.1-10.1l-9.8-8c-1.3-1.2-2.8-2.1-4.4-2.8
	c-2.3-0.8-4.7-0.4-7.1-0.4c-7.1,0-14.8-3.3-21.1,0c-2.7,1.4-4.6,3.7-6.6,6l-8.8,10.4c-0.7,0.7-1.1,1.5-1.4,2.4
	c-0.3,1.3,0.4,2.5,0.6,3.8c0.4,2.3-0.6,4.8,0.2,7c1.3,3.7,5.8,4.2,8.5,6.3c1,0.8,2.6,3.5,3.8,3.4
	C467.1,373.1,468.6,369.2,468.7,367.5z"/>
<path class="st11" d="M409.2,444.3c-1.1,0.7-2.1,1.7-2.9,2.7c-1,1.6-1.2,3.6-2.1,5.2c-1.9,3.5-6.3,4.8-9.1,7.6
	c-0.4,0.4-0.8,0.9-0.9,1.5c0,0.8,0.2,1.5,0.7,2.2l13.3,20.9c4.5,0.4,8.7-2.4,13.1-2c1.6,0.1,3.4,0.7,4.9,0.2
	c1.1-0.5,2.2-1.2,3.2-1.9c2.7-1.7,6.1-1.9,8.4-4.1s2.4-5.4,2.4-8.4c0-2.6-0.2-5.2-0.8-7.7c-2-8-8.1-14.2-11.9-21.3
	c-1.9-3.5-2.9-5.5-6.9-3.1S412.9,441.5,409.2,444.3z"/>
<path class="st11" d="M570.5,433.7c2.5,1.6,4.7,3.6,6.7,5.9c2,2.6,3.2,5.8,5.1,8.5s4.5,4.6,6.6,7c3.3,3.6,5.5,8,7.6,12.4
	c-5.3,6.9-11,13.3-17.2,19.4c-0.7,0.8-1.6,1.4-2.6,1.7c-1.4,0.1-2.8-0.4-3.7-1.5c-1-1-1.6-2.2-2.5-3.3c-2.2-2.2-5-3.6-8.1-3.9
	c-3.1-0.3-6.1-0.3-9.2-0.1c-0.7,0.1-1.4,0-2-0.3c-0.5-0.3-0.8-0.7-1.1-1.2c-3.6-6.1-2.5-13.8-1.2-20.8l2.9-16c0.4-3.1,1.2-6,2.4-8.9
	c1.1-2.4,3.6-6.4,6.6-5.6S568,431.9,570.5,433.7z"/>
<polygon class="st4" points="316.9,551.1 255.6,563.7 254.2,563.5 200.3,558.1 200.3,489.8 266.3,478.7 314.1,484.3 314.1,484.6 
	314.1,484.7 "/>
<polygon class="st5" points="316.9,551.1 255.6,563.7 254.2,563.5 254.2,493.5 314.1,484.6 "/>
<polygon class="st6" points="314.1,484.7 314.1,484.7 254.2,493.5 200.3,489.8 266.3,478.7 314.1,484.3 314.1,484.6 "/>
<polygon class="st7" points="348.9,483.5 287.6,496 286.2,495.9 232.3,490.5 232.3,422.2 298.3,411.1 346.1,416.6 346.1,416.9 
	346.1,417.1 "/>
<polygon class="st5" points="348.9,483.5 287.6,496 286.2,495.9 286.2,425.9 346.1,416.9 "/>
<polygon class="st6" points="346.1,417.1 346.1,417.1 286.2,425.9 232.3,422.2 298.3,411.1 346.1,416.6 346.1,416.9 "/>
<path class="st12" d="M96.9,663.6l15.6,13.3c1.9,1.7,2.2,4.6,0.5,6.5L99.7,699c-1.7,1.9-4.6,2.2-6.5,0.5l-15.6-13.3
	c-1.9-1.7-2.2-4.6-0.5-6.5l13.3-15.6C92.1,662.2,95,662,96.9,663.6z"/>
<path class="st12" d="M109.3,435.6l10.3,8.8c1.3,1.1,1.4,3,0.3,4.3l-8.8,10.3c-1.1,1.3-3,1.4-4.3,0.3l-10.3-8.8
	c-1.3-1.1-1.4-3-0.3-4.3l8.8-10.3C106.1,434.6,108,434.5,109.3,435.6z"/>
<path class="st12" d="M637.7,761.9l15.6,13.3c1.9,1.7,2.2,4.6,0.5,6.5l-13.3,15.6c-1.7,1.9-4.6,2.2-6.5,0.5l-15.6-13.3
	c-1.9-1.7-2.2-4.6-0.5-6.5l13.3-15.6C632.8,760.5,635.7,760.2,637.7,761.9z"/>
<path class="st12" d="M615.8,624.9l11.1,9.5c1.4,1.2,1.6,3.3,0.4,4.7l-9.5,11.1c-1.2,1.4-3.3,1.6-4.7,0.4l-11.1-9.5
	c-1.4-1.2-1.6-3.3-0.4-4.7l9.5-11.1C612.3,623.9,614.4,623.7,615.8,624.9z"/>
<path class="st12" d="M165,519.9l6.5,5.5c0.8,0.7,0.9,1.9,0.2,2.7l-5.5,6.5c-0.7,0.8-1.9,0.9-2.7,0.2l-6.5-5.5
	c-0.8-0.7-0.9-1.9-0.2-2.7l5.5-6.5C163,519.3,164.2,519.3,165,519.9z"/>
<path class="st12" d="M643,422l5.4,4.6c0.7,0.6,0.8,1.6,0.2,2.3l-4.6,5.4c-0.6,0.7-1.6,0.8-2.3,0.2l-5.4-4.6
	c-0.7-0.6-0.8-1.6-0.2-2.3l4.6-5.4C641.3,421.5,642.4,421.5,643,422z"/>
</svg>
