<svg id="Capa_1" data-name="Capa 1" xmlns="http://www.w3.org/2000/svg" viewBox="0 0 742.8 913.63"><defs><style>.cls-1{fill:#333;}.cls-2{fill:#fff;}.cls-3{fill:#ffd290;}.cls-4{opacity:0.1;}.cls-4,.cls-5{isolation:isolate;}.cls-5{opacity:0.05;}.cls-6{fill:#ffdca3;}.cls-7{fill:#ffc0c6;}.cls-8{fill:#080060;}.cls-9{fill:#000021;}.cls-10{fill:#3f3d56;}.cls-11{fill:#6e88ff;}.cls-12{fill:#0071bc;}</style></defs><title>phone-contact</title><rect class="cls-1" width="741.63" height="1011.63" rx="59.86" ry="59.86"/><rect class="cls-2" x="33.06" y="34.63" width="667.47" height="944" rx="65.03" ry="65.03"/><path class="cls-1" d="M147.05,29.63H587.63a0,0,0,0,1,0,0V58.06a14.5,14.5,0,0,1-14.5,14.5H161.55a14.5,14.5,0,0,1-14.5-14.5V29.63A0,0,0,0,1,147.05,29.63Z"/><polygon class="cls-3" points="339.99 869.46 222.56 893.48 219.89 893.21 116.69 882.8 116.69 752.02 243.02 730.67 334.65 741.35 334.68 741.93 334.68 742.21 339.99 869.46"/><polygon class="cls-4" points="339.99 869.46 222.56 893.48 219.89 893.21 219.89 759.14 334.68 741.93 339.99 869.46"/><polygon class="cls-5" points="334.68 742.21 334.65 742.24 219.89 759.14 116.69 752.02 243.02 730.67 334.65 741.35 334.68 741.93 334.68 742.21"/><polygon class="cls-6" points="468.98 874.79 351.55 898.82 348.88 898.55 245.69 888.14 245.69 757.36 372.01 736.01 463.64 746.69 463.67 747.27 463.68 747.55 468.98 874.79"/><polygon class="cls-4" points="468.98 874.79 351.55 898.82 348.88 898.55 348.88 764.48 463.67 747.27 468.98 874.79"/><polygon class="cls-5" points="463.68 747.55 463.64 747.58 348.88 764.48 245.69 757.36 372.01 736.01 463.64 746.69 463.67 747.27 463.68 747.55"/><polygon class="cls-6" points="388.03 746.69 270.6 770.71 267.93 770.44 164.73 760.03 164.73 629.26 291.06 607.9 382.69 618.58 382.72 619.16 382.73 619.44 388.03 746.69"/><polygon class="cls-4" points="388.03 746.69 270.6 770.71 267.93 770.44 267.93 636.37 382.72 619.16 388.03 746.69"/><polygon class="cls-5" points="382.73 619.44 382.69 619.47 267.93 636.37 164.73 629.26 291.06 607.9 382.69 618.58 382.72 619.16 382.73 619.44"/><polygon class="cls-6" points="454.75 752.17 393.46 764.71 392.07 764.57 338.21 759.13 338.21 690.88 404.14 679.73 451.96 685.31 451.98 685.61 451.98 685.76 454.75 752.17"/><polygon class="cls-4" points="454.75 752.17 393.46 764.71 392.07 764.57 392.07 694.6 451.98 685.61 454.75 752.17"/><polygon class="cls-5" points="451.98 685.76 451.96 685.77 392.07 694.6 338.21 690.88 404.14 679.73 451.96 685.31 451.98 685.61 451.98 685.76"/><polygon class="cls-6" points="290.17 619.61 228.88 632.15 227.48 632.01 173.63 626.58 173.63 558.33 239.56 547.18 287.38 552.76 287.4 553.06 287.4 553.2 290.17 619.61"/><polygon class="cls-4" points="290.17 619.61 228.88 632.15 227.48 632.01 227.48 562.04 287.4 553.06 290.17 619.61"/><polygon class="cls-5" points="287.4 553.2 287.38 553.22 227.48 562.04 173.63 558.33 239.56 547.18 287.38 552.76 287.4 553.06 287.4 553.2"/><polygon class="cls-3" points="397.81 616.94 336.53 629.48 335.13 629.35 281.27 623.91 281.27 555.66 347.2 544.51 395.03 550.09 395.05 550.39 395.05 550.53 397.81 616.94"/><polygon class="cls-4" points="397.81 616.94 336.53 629.48 335.13 629.35 335.13 559.38 395.05 550.39 397.81 616.94"/><polygon class="cls-5" points="395.05 550.53 395.03 550.55 335.13 559.38 281.27 555.66 347.2 544.51 395.03 550.09 395.05 550.39 395.05 550.53"/><polygon class="cls-6" points="429.84 548.44 368.55 560.98 367.16 560.84 313.3 555.41 313.3 487.15 379.23 476.01 427.06 481.59 427.07 481.89 427.07 482.03 429.84 548.44"/><polygon class="cls-4" points="429.84 548.44 368.55 560.98 367.16 560.84 367.16 490.87 427.07 481.89 429.84 548.44"/><polygon class="cls-5" points="427.07 482.03 427.06 482.05 367.16 490.87 313.3 487.15 379.23 476.01 427.06 481.59 427.07 481.89 427.07 482.03"/><path class="cls-7" d="M471.58,408.91c-.65,5.78-5.06,10.45-6.7,16-2.45,8.4,1.78,17.43,7.62,24a53.18,53.18,0,0,0,37,17.56,16,16,0,0,0,6.12-.67,13.23,13.23,0,0,0,4.66-3.19c4.37-4.4,6.73-10.49,7.67-16.64s.57-12.4.21-18.6a10.7,10.7,0,0,0-.69-3.76,9.61,9.61,0,0,0-2.42-3,55.52,55.52,0,0,0-10.36-7.53c-1.6-.89-3.32-1.78-4.34-3.32a10.85,10.85,0,0,1-1.34-4L507.88,400a11.63,11.63,0,0,0-1.68-4.73c-2-2.72-5.89-3.09-9.28-3.23l-12.46-.49c-3.87-.15-9-1.26-12.74-.5-3.56.71-2.35,4-1.71,6.92A50.3,50.3,0,0,1,471.58,408.91Z"/><path class="cls-4" d="M471.58,408.91c-.65,5.78-5.06,10.45-6.7,16-2.45,8.4,1.78,17.43,7.62,24a53.18,53.18,0,0,0,37,17.56,16,16,0,0,0,6.12-.67,13.23,13.23,0,0,0,4.66-3.19c4.37-4.4,6.73-10.49,7.67-16.64s.57-12.4.21-18.6a10.7,10.7,0,0,0-.69-3.76,9.61,9.61,0,0,0-2.42-3,55.52,55.52,0,0,0-10.36-7.53c-1.6-.89-3.32-1.78-4.34-3.32a10.85,10.85,0,0,1-1.34-4L507.88,400a11.63,11.63,0,0,0-1.68-4.73c-2-2.72-5.89-3.09-9.28-3.23l-12.46-.49c-3.87-.15-9-1.26-12.74-.5-3.56.71-2.35,4-1.71,6.92A50.3,50.3,0,0,1,471.58,408.91Z"/><path class="cls-8" d="M550.68,669.36l-5.29,57.93c-1.38,15.2-2.78,30.46-5.49,45.45-.88,5.17-2,10.32-3.32,15.41-3.61,14.16-8.85,28-10.54,42.5-.06.42-.1.89-.15,1.27a37.72,37.72,0,0,1-1.78,9.43c-.89,2.22-2.14,4.24-3.06,6.43-1.78,4.37-2.06,9.21-2.28,14a60.15,60.15,0,0,0-20.72-7.11c-3.56-.53-7.43-.89-9.79-3.56-2.67-2.9-2.36-7.34-1.91-11.24q2.1-18.15,4.18-36.28a94.5,94.5,0,0,1,2.67-15.4c.48-1.69,1.06-3.34,1.64-5,.81-2.27,1.63-4.55,2.25-6.89a83,83,0,0,0,1.76-11.41c1.43-12.17,3.16-24.32,4.67-36.48l.08-.64c2.27-18.43,4-37,3.5-55.52-.08-2.75-.19-5.5-.37-8.26-.25-4-.61-6.11,2.67-8.61,3.66-2.76,8.47-4.69,12.65-6.49,2.25-1,27-9.79,27.58-7.85a48.29,48.29,0,0,1,1.78,12.65A142.25,142.25,0,0,1,550.68,669.36Z"/><path class="cls-4" d="M539.9,772.74c-.88,5.17-2,10.32-3.32,15.41-3.61,14.16-8.85,28-10.54,42.5-.06.42-.1.89-.15,1.27-11-15.78-20.35-32.75-31.13-48.7.81-2.28,1.62-4.56,2.24-6.9a84.19,84.19,0,0,0,1.85-11.48c1.43-12.17,3.16-24.32,4.67-36.48l.08-.64a37.45,37.45,0,0,0,2.67,7.48c7.24,14.72,24.44,22.15,32.86,36.24C539.41,771.88,539.67,772.31,539.9,772.74Z"/><path class="cls-8" d="M450.25,643.37c.36,11.8,2.25,23.5,4.13,35.15l3.89,24c2.13,13.17,4.35,26.6,10.58,38.38,4.66,8.83,11.37,16.35,17.45,24.26,14.92,19.45,26.14,41.49,40.3,61.5,4.11,5.82,10,12.12,17,10.9,4.61-.79,8-4.63,11.57-7.59,4.27-3.48,9.41-6,12.77-10.41s4-11.64-.53-14.76c-1.56-1.05-3.45-1.45-5.21-2.13-7.06-2.67-11.63-9.57-14.53-16.55s-4.67-14.45-8.54-20.94c-8.42-14.08-25.63-21.52-32.87-36.24-4.06-8.24-4.45-17.8-4.75-26.93l-.79-23.41c-.09-2.56-.16-5.22.88-7.56,2.77-6.23,11.13-6.81,17.91-7.61a60.9,60.9,0,0,0,22-6.92c3.91-2.11,7.71-4.79,9.79-8.71,1.9-3.56,2.16-7.75,2.38-11.78L556,593.61c.2-3.65.38-7.43-.89-10.85-3.23-8.59-14.08-11.4-23.26-11-17.06.76-32.8,8.1-48.93,13.07A124.58,124.58,0,0,1,470.79,588c-3.56.73-8,.43-11.42,1.59-6.12,2.06-6,15.46-6.84,21A176.4,176.4,0,0,0,450.25,643.37Z"/><path class="cls-9" d="M541.3,839.38c1.5,1.52,2,3.74,2.39,5.84a200.47,200.47,0,0,1,3.38,35.33,5.8,5.8,0,0,0,.63,3.2,4,4,0,0,0,1.66,1.34c4.35,2.07,9.4-.82,13-4,6.71-5.88,12.4-13.78,12.78-22.7a52.72,52.72,0,0,1,.24-6.89c.59-3.36,2.55-6.29,4.28-9.22a78.84,78.84,0,0,0,7.12-15.85c.65-2.09,1.1-4.7-.54-6.15a5.67,5.67,0,0,0-1.93-1L564.68,812c-1.71-.63-5.94,10.25-6.61,11.44-1.64,2.91-3.28,4.55-6.58,5.23s-7.38-.3-10.53,1.38C535.63,832.87,538.29,836.34,541.3,839.38Z"/><path class="cls-9" d="M511,846.09a6,6,0,0,0-1.49-1.89,6.63,6.63,0,0,0-3-1c-3.73-.64-8.16-1.06-10.75,1.72-2.42,2.61-2,6.85-4,9.79a30.15,30.15,0,0,0-2.07,2.67,10.09,10.09,0,0,0-.89,4.78c-.1,4.53-.21,9.08.11,13.6.26,3.79.89,7.76,3.26,10.74,3.81,4.76,10.68,5.45,16.76,5.75l4.94.26a9.85,9.85,0,0,0,4-.37,6.67,6.67,0,0,0,3.49-3.84c2.57-6.39-1.5-13.26-4-19.67C514.44,861.24,515,853.06,511,846.09Z"/><path class="cls-10" d="M470.16,376.31a4,4,0,0,1,.27-1.91c.72-1.27,2.61-.89,4-.57,5.72,1.45,11.76.14,17.65.48s12.54,3.28,13.72,9.06a42.8,42.8,0,0,0,10.88-11.17c1.64-2.45,3.06-5.25,2.84-8.19-.32-4.23-3.87-7.4-7.12-10.09l-9.78-8a14.84,14.84,0,0,0-4.4-2.8c-2.26-.77-4.73-.4-7.11-.4-7.12,0-14.75-3.24-21.1,0-2.67,1.36-4.65,3.7-6.57,6l-8.75,10.36a5.5,5.5,0,0,0-1.4,2.37c-.25,1.27.4,2.51.63,3.78.41,2.32-.59,4.79.18,7,1.27,3.69,5.75,4.21,8.49,6.33,1,.78,2.62,3.46,3.84,3.42C468.6,381.93,470.1,378,470.16,376.31Z"/><circle class="cls-7" cx="485" cy="378.82" r="28.02"/><path class="cls-11" d="M491.56,440.15a13.58,13.58,0,0,0-13.17-9.1,3.94,3.94,0,0,1-2.44-.31,3.3,3.3,0,0,1-1-1.24,50,50,0,0,1-4.08-9.66c-.44-1.49-1.06-3.24-2.56-3.62a3.43,3.43,0,0,0-3.26,1.42,31.18,31.18,0,0,1-2.33,2.93c-3.56,3.15-9.78.27-13.51,3.16-.62.47-1.12,1.08-1.78,1.52a8,8,0,0,1-2.06.89,195,195,0,0,0-21.24,8.3c2.49,15,5,30.24,10.87,44.25,2.78,6.68,5.92,13.22,8.14,20.09,4.93,15.24,5.14,31.55,5.2,47.57,0,11,0,22.15-3.55,32.53a31.86,31.86,0,0,0-2,7.11c-.22,2.44.51,5.2,2.51,6.66a8.53,8.53,0,0,0,3.87,1.36c6.15.89,12.34-.73,18.39-2.14,16.22-3.75,32.77-5.9,49.27-8l27.67-3.56a16.14,16.14,0,0,0,5.73-1.49c5.06-2.76,5.54-10.38,2.39-15.22-1.5-2.32-3.63-4.22-4.9-6.68s-1.37-5.91.81-7.61c4.45-3.47,3.11-9.9,3.32-15.52q.9-23.6-.24-47.15a94,94,0,0,1-.16-9.79c.32-5.53,1.69-11,3.06-16.33l8.4-33.09c-2.19-3.47-6.4-5.68-10.38-6.68s-8.13-1.29-12-2.51c-8-2.49-15.2-8.8-23.59-8.22a4.49,4.49,0,0,0-1.83.45c-1.89,1.08-1.59,3.8-1.71,6-.27,4.81-3.81,8.82-7.7,11.64s-8.37,4.87-11.95,8.08A5.34,5.34,0,0,0,491.56,440.15Z"/><path class="cls-7" d="M380.53,471.54a32.83,32.83,0,0,1-5.89,3c-2,.77-4.05,1.38-5.65,2.74a9,9,0,0,0-2,2.42,10.8,10.8,0,0,0,10,16.08,21.5,21.5,0,0,0,7.36-2.2l19.76-8.6c3.35-1.45,7-3.14,8.54-6.43a1.54,1.54,0,0,0,.2-1,1.68,1.68,0,0,0-.82-.88,44.34,44.34,0,0,1-11.5-10.86c-.81-1.1-1.78-3.7-3-4.37C393.37,459.13,383.88,469.37,380.53,471.54Z"/><path class="cls-7" d="M591.83,464.56l7.29,8.33c1.56,1.77,3.13,3.55,4.55,5.48A63.27,63.27,0,0,1,612,494.09c1.58,4.15,2.9,8.58,2.35,13a31.46,31.46,0,0,1-1.83,6.61,81.15,81.15,0,0,1-4.95,11.92,67.4,67.4,0,0,1-5.54,8.34,195.37,195.37,0,0,1-18.48,21.13c-2.49,2.46-3.56,6.46-4.62,9.78-2,6.15-6.76,10.95-11.36,15.48a30.93,30.93,0,0,1-4.88,4.2,15.86,15.86,0,0,1-8.9,2.53,9.58,9.58,0,0,1-4-.83c-3.15-1.49-4.76-5.13-5.08-8.6a18.27,18.27,0,0,1,1.53-9.22c4.18-9.26,14.91-13.27,22.5-20,4.45-4,7.86-8.94,11.22-13.86a48.18,48.18,0,0,0,5.67-9.94c1.69-4.53,1-9.88,2.52-14.47.62-1.95,1.78-3.7,2.41-5.63s.84-4.22-.34-5.89a8.61,8.61,0,0,0-3.3-2.42c-4.85-2.45-10.28-5.62-11.2-11a11.74,11.74,0,0,1,2.17-8.39A34.68,34.68,0,0,1,584,470.4C586.14,468.5,589.71,466.39,591.83,464.56Z"/><path class="cls-7" d="M375.85,483.16c-1.28-2.6-2.89-5.25-5.49-6.54a10.13,10.13,0,0,0-8,0,30.2,30.2,0,0,0-7,4.24l-6.28,4.63a15.85,15.85,0,0,0-3.73,3.44,14.62,14.62,0,0,0-1.94,5.34c-.89,4.33-1.61,8.79-1,13.18,1,7.11,5.26,13.27,10,18.68,2.94,3.36,6.57,6.76,11,6.91,1.93.06,4.08-.7,4.88-2.45a6.1,6.1,0,0,0,.43-2.19c.48-7.9-2.35-15.61-5.64-22.81-.89-2-1.85-4-1.78-6.13a1.36,1.36,0,0,1,1.34-1.56c4.51-.89,12.28,2.62,15.44-2.39C380.12,492.2,377.31,486.11,375.85,483.16Z"/><path class="cls-10" d="M468.68,367.49a4.11,4.11,0,0,1,.29-1.9c.72-1.28,2.6-.89,4-.57,5.72,1.44,11.75.13,17.65.47s12.52,3.28,13.71,9.06a43,43,0,0,0,10.88-11.17c1.64-2.45,3.06-5.26,2.84-8.19-.32-4.24-3.88-7.4-7.11-10.08l-9.79-8a14.76,14.76,0,0,0-4.39-2.79c-2.27-.78-4.73-.4-7.11-.4-7.12,0-14.75-3.25-21.1,0-2.67,1.36-4.65,3.7-6.57,6l-8.76,10.35a5.62,5.62,0,0,0-1.39,2.38c-.25,1.26.4,2.5.63,3.78.41,2.31-.59,4.78.18,7,1.27,3.69,5.75,4.22,8.49,6.33,1,.79,2.62,3.46,3.84,3.43C467.11,373.11,468.6,369.2,468.68,367.49Z"/><path class="cls-11" d="M409.16,444.28a11.72,11.72,0,0,0-2.93,2.73c-1,1.56-1.24,3.56-2.12,5.16-1.88,3.51-6.31,4.76-9.06,7.64a2.81,2.81,0,0,0-.88,1.49,3.32,3.32,0,0,0,.73,2.16l13.29,20.88c4.45.4,8.67-2.38,13.1-2,1.65.14,3.35.71,4.93.22a15,15,0,0,0,3.16-1.93c2.67-1.68,6.15-1.87,8.37-4.07s2.4-5.43,2.37-8.42a33,33,0,0,0-.79-7.74c-2-8-8.08-14.18-11.93-21.28-1.88-3.46-2.89-5.48-6.85-3.11S412.91,441.54,409.16,444.28Z"/><path class="cls-11" d="M570.55,433.72a31.44,31.44,0,0,1,6.69,5.86c2,2.6,3.17,5.81,5.12,8.48s4.45,4.59,6.58,7c3.25,3.61,5.45,8,7.6,12.38a186,186,0,0,1-17.19,19.39,5.58,5.58,0,0,1-2.61,1.71,4.2,4.2,0,0,1-3.69-1.51c-1-1-1.63-2.24-2.55-3.28a13.08,13.08,0,0,0-8.12-3.92,56.65,56.65,0,0,0-9.21-.14,3.61,3.61,0,0,1-2-.32,3.3,3.3,0,0,1-1.06-1.23c-3.56-6.12-2.45-13.81-1.18-20.8l2.91-16a35.74,35.74,0,0,1,2.43-8.89c1.1-2.36,3.56-6.36,6.6-5.65S568,431.87,570.55,433.72Z"/><polygon class="cls-3" points="316.86 551.11 255.57 563.65 254.17 563.51 200.31 558.08 200.31 489.82 266.25 478.68 314.07 484.25 314.09 484.56 314.09 484.7 316.86 551.11"/><polygon class="cls-4" points="316.86 551.11 255.57 563.65 254.17 563.51 254.17 493.54 314.09 484.56 316.86 551.11"/><polygon class="cls-5" points="314.09 484.7 314.07 484.72 254.17 493.54 200.31 489.82 266.25 478.68 314.07 484.25 314.09 484.56 314.09 484.7"/><polygon class="cls-6" points="348.88 483.5 287.6 496.04 286.2 495.9 232.34 490.46 232.34 422.21 298.27 411.06 346.1 416.64 346.12 416.94 346.12 417.09 348.88 483.5"/><polygon class="cls-4" points="348.88 483.5 287.6 496.04 286.2 495.9 286.2 425.93 346.12 416.94 348.88 483.5"/><polygon class="cls-5" points="346.12 417.09 346.1 417.11 286.2 425.93 232.34 422.21 298.27 411.06 346.1 416.64 346.12 416.94 346.12 417.09"/><rect class="cls-12" x="61.23" y="666.71" width="29.69" height="29.69" rx="4.62" ry="4.62" transform="translate(460.54 113.67) rotate(40.47)"/><rect class="cls-12" x="98.26" y="437.6" width="19.59" height="19.59" rx="3.05" ry="3.05" transform="translate(316.21 36.9) rotate(40.47)"/><rect class="cls-12" x="640.03" y="751.12" width="29.69" height="29.69" rx="4.62" ry="4.62" transform="translate(653.79 -241.79) rotate(40.47)"/><rect class="cls-12" x="603.99" y="640.66" width="21.17" height="21.17" rx="3.3" ry="3.3" transform="translate(569.7 -243.08) rotate(40.47)"/><rect class="cls-12" x="158.08" y="521.23" width="12.33" height="12.33" rx="1.92" ry="1.92" transform="translate(381.58 19.57) rotate(40.47)"/><rect class="cls-12" x="661.45" y="416.51" width="10.27" height="10.27" rx="1.6" ry="1.6" transform="translate(433.13 -331.76) rotate(40.47)"/></svg>