<svg id="Capa_1" data-name="Capa 1" xmlns="http://www.w3.org/2000/svg" viewBox="0 0 232 301"><defs><style>.cls-1{fill:#feb67c;}.cls-2{fill:#f5a167;}.cls-3{fill:#204198;}.cls-4{fill:#754c24;}.cls-5{fill:#3460d6;}.cls-6{fill:#294dad;}.cls-7{fill:#4d4d4d;}.cls-8{fill:#666;}.cls-9{fill:#333;}.cls-10{fill:#c79d6f;}.cls-11{fill:#a6835d;}.cls-12{fill:#2d54bd;}</style></defs><title>services-person</title><polygon class="cls-1" points="116.1 25.79 103.86 40.8 112.8 55.2 126.34 42.29 116.1 25.79"/><polygon class="cls-2" points="116.1 25.79 103.86 40.8 112.8 55.2 119.02 30.5 116.1 25.79"/><path class="cls-3" d="M77.42,26.1c1.32,3.69,7.3,1.9,11.55-3.18L87.14,17.8l-7.06,2.52A4.57,4.57,0,0,0,77.42,26.1Z"/><path class="cls-1" d="M115.56,13.18l1.78,5a21.33,21.33,0,0,1-2.8,19.68s-3.81,4.18-5.21,5.45c-4.72,4.29-7.13,2.38-8.63,1.21-4-3.11-7.31-6.51-9-11.29L88,23A14.26,14.26,0,0,1,96.64,4.81l.72-.26a14.24,14.24,0,0,1,18.2,8.63Z"/><path class="cls-4" d="M105,2.6a6.37,6.37,0,0,1,8.14,3.85l4.18,11.71a21.3,21.3,0,0,1,1,10.47h0A1.84,1.84,0,0,1,116,27.52L113.25,20l-4.09,1.47-6.43-18Z"/><path class="cls-3" d="M117.26,13.62l.11,4.65-11.56-.72L96.48,17c-5.9-.41-8.64.36-9.47,2.07l-.14-5.9c-.16-6.49,6-12.08,12.3-13a2.91,2.91,0,0,1,.42,0C100.62.06,103,0,103,0,110.09-.19,117.11,6.55,117.26,13.62Z"/><path class="cls-1" d="M115.31,25l-.23.09a.91.91,0,0,1-1.17-.56l-1.83-5.12a1.68,1.68,0,0,1,1-2.16l.16-.05a1.58,1.58,0,0,1,2,1l.1.26a7,7,0,0,1,.35,1.5l.41,3.43A1.64,1.64,0,0,1,115.31,25Z"/><path class="cls-5" d="M109.36,17.74,97.65,22c-8,2.85-9.48-4.59-17.91-1.58L89.48,17a8.13,8.13,0,0,1,3.28-.44Z"/><path class="cls-5" d="M99.59.14c3.08,1.76,5.29,7,6.22,17.41L96.48,17c-5.9-.41-8.64.36-9.47,2.07l-.14-5.9c-.16-6.49,6-12.08,12.3-13A2.91,2.91,0,0,1,99.59.14Z"/><path class="cls-6" d="M145,78.13l-.08,54.61-33.87,5.57-1.26-5.07-9-36.25a42.5,42.5,0,0,1,8.13-37l1.21-1.49.12-3.85,14.88-14.26,7.15,7.71L134.91,51A38,38,0,0,1,145,78.13Z"/><path class="cls-7" d="M199.58,273.73l-6.41,4A11.84,11.84,0,0,0,189.35,294l.07.1,40.05-24.86L225,262Z"/><path class="cls-8" d="M198.74,274.25l-5.57,3.46A11.84,11.84,0,0,0,189.35,294l.07.1,9.13-5.67-2.27-3.66A7.64,7.64,0,0,1,198.74,274.25Z"/><rect class="cls-9" x="216.03" y="273.07" width="15.03" height="1.72" transform="translate(-110.85 159.06) rotate(-31.82)"/><rect class="cls-9" x="187.93" y="287.16" width="25.84" height="1.72" transform="translate(-121.68 149.21) rotate(-31.82)"/><path class="cls-6" d="M231.59,263.52l-23.37,9.55-8.15,3.33-56.62-47.13a11.23,11.23,0,0,1-3.46-5.06l-19.76-58.69-9.17-27.21,33.87-5.57L153,143.8a35,35,0,0,1,6.59,23.92l0,.22A35,35,0,0,0,161,181.61l8.89,28.55Z"/><path class="cls-3" d="M208.22,273.07c-5.09-11.07-15.36-30.67-27.47-42.8-15.9-15.92-26.83-9.13-27.34-11.63s7.07-5.8,9-8.73-8.85-25.58-16.5-34.9c-6.32-7.67-13.95-9.76-25.69-9.49l-9.17-27.21,33.87-5.57L153,143.8a35,35,0,0,1,6.59,23.92l0,.22A35,35,0,0,0,161,181.61l8.89,28.55,61.69,53.36Z"/><path class="cls-3" d="M145,78.13l-.08,54.61-33.87,5.57-1.26-5.07c6.77-15.92,20-47.35,19.93-50.74,0-3.75,1.94-24.07,2.54-34.37L134.91,51A38,38,0,0,1,145,78.13Z"/><rect class="cls-10" x="4.27" y="71.87" width="94.27" height="86.98" transform="translate(-3.51 1.63) rotate(-1.75)"/><rect class="cls-7" x="18" y="150.76" width="7.99" height="1.41" transform="translate(-4.63 0.74) rotate(-1.75)"/><polygon class="cls-7" points="19.25 141.39 17.77 144.03 18.68 144 18.87 150.25 20.18 150.21 19.99 143.96 20.9 143.93 19.25 141.39"/><polygon class="cls-7" points="24.11 141.24 22.62 143.88 23.53 143.85 23.72 150.1 25.03 150.06 24.84 143.81 25.75 143.78 24.11 141.24"/><path class="cls-7" d="M14.87,145.87a2.59,2.59,0,0,1-2.52,2.53h0A2.59,2.59,0,0,1,9.63,146l-.42-4.73,5.79-.18Z"/><rect class="cls-7" x="11.98" y="147.83" width="0.71" height="4.64" transform="translate(-4.59 0.45) rotate(-1.75)"/><path class="cls-7" d="M14.2,152.55,12.44,152l-1.69.63a.53.53,0,0,0-.35.53h0l4.19-.12h0A.53.53,0,0,0,14.2,152.55Z"/><path class="cls-7" d="M32.07,139.92a4.27,4.27,0,0,0-4.15,4.41l8.56-.27A4.28,4.28,0,0,0,32.07,139.92Z"/><path class="cls-7" d="M31.3,152a1.51,1.51,0,0,1-1.34-.7l-.35-.57a.35.35,0,0,1,.12-.5.36.36,0,0,1,.5.12l.35.56a.78.78,0,0,0,1.44-.43l-.21-7.07a.37.37,0,0,1,.35-.38.38.38,0,0,1,.38.36l.21,7.07A1.49,1.49,0,0,1,31.3,152Z"/><path class="cls-11" d="M58.32,98.27c-3.13,2.65-6,2.75-7,.35-1.32-3.31-4.11.25-6.17-1.19l-.82-27,13.13-.4Z"/><polygon class="cls-1" points="139.35 72.19 135.78 95.4 135.12 99.76 131.71 121.99 131.62 122.55 121.98 121.09 111.62 119.51 112.31 114.15 114.56 97.07 118.19 69.42 118.5 69.46 139.35 72.19"/><path class="cls-1" d="M83.4,143.85l-8.73,5.43-3.51,1.07a4.07,4.07,0,0,1-4.64-1.75l-.19-.31a.78.78,0,0,1,.49-1.17l4-.88,3.53-2.2a7.59,7.59,0,0,1,5.75-.95Z"/><path class="cls-1" d="M79,159.76,68.7,162a3,3,0,0,1-3.63-2.33l-.3-1.38,13.28-2.89Z"/><path class="cls-1" d="M77.38,161.93,75,163.44a2.64,2.64,0,0,1-3.64-.85l-.26-.41,4.68-2.91Z"/><path class="cls-1" d="M81.38,163.13,79,164.65a2.65,2.65,0,0,1-3.65-.85l-.26-.42,4.68-2.91Z"/><path class="cls-1" d="M90.57,149.86a4.62,4.62,0,0,1-.21,3.74L86,162.21a8.41,8.41,0,0,1-2.65,3.06l-.18.13a2.39,2.39,0,0,1-3.3-.78l-.24-.38,1.49-.92-.33-.07-4.18-.81h0L72,161.56l-1.4-.27,1.74-5.2,2.29-6.82,8.73-5.42,5.49,3.85a.7.7,0,0,1,.17.13A4.36,4.36,0,0,1,90.57,149.86Z"/><path class="cls-1" d="M131.68,122l0,0a2,2,0,0,1-.68,2.76L90.62,149.88l-.05,0-2.63-1.32v0l-6.66-3.34-.79-.4,1.23-1.32L105,118c.21-.22,7.72-5.88,8-6l-.69,2.15,9.68-4.21a2.21,2.21,0,0,1,2.75.86h0Z"/><path class="cls-2" d="M138.23,95.22l-.64,4.87-2.47-.33L131.71,122a2,2,0,0,1-.68,2.76L90.62,149.88l-.05,0a4.62,4.62,0,0,1-.21,3.74L86,162.21a8.41,8.41,0,0,1-2.65,3.06s7.69-13.63,4.63-16.73v0c.16-.07.55-.32,1.13-.69,6.19-4,34.13-22.75,33-26.67,0,0,0,0,0-.07-1-3.25-2.59-4-3.24-4.2,1,.14,3.65.48,4.52-.24.36-.3.91-2.74,1.48-5.85.75-4,1.54-9.1,2-12.13.26-1.61.4-2.64.4-2.64l8.66-.63Z"/><path class="cls-6" d="M141.54,69.89l-3.31,25.33-.64,4.87-2.47-.33-8.4-1.09-11.83-1.55-.33-.05-3.76-.5,4-30.19a13.36,13.36,0,0,1,15-11.52l.26,0a13.08,13.08,0,0,1,5.07,1.75l.63.4A13.34,13.34,0,0,1,141.54,69.89Z"/><path class="cls-12" d="M118.69,68.16a13.37,13.37,0,0,1,15-11.52l.27,0a14.22,14.22,0,0,1,1.77.37A13.23,13.23,0,0,0,130,54.89l-.27,0a13.38,13.38,0,0,0-15,11.52l-4,30.21,4.09.54Z"/><path class="cls-3" d="M110.18,58.51l.2-3.63c2.66.48,4.6,1.56,5.75,3.31l12.69-14.58-3.18-4L108.55,53.72Z"/></svg>