<svg id="Capa_1" data-name="Capa 1" xmlns="http://www.w3.org/2000/svg" viewBox="0 0 990.35 723.94"><defs><style>.cls-1{fill:#1d2f47;}.cls-2{fill:#b79160;}.cls-3{fill:#caac89;}.cls-4{fill:#e5c395;}.cls-5{fill:#d7ae7c;}.cls-6{fill:#e2c59e;}.cls-7{fill:#fff;}.cls-8{fill:#adaead;}</style></defs><title>logo-mi-express-isotipo</title><path class="cls-1" d="M12.13,11.77h968V146.36a158.09,158.09,0,0,1-16,8.3c-20.89,10.14-41.79,16.59-55,21.2-2.15.61-4,1.23-5.84,1.84V284.64a106.83,106.83,0,0,0,15.05-1.54c15.06-2.45,37.8-7.06,61.77-12.29v98c-12,3.07-21.82,8.91-28.27,12.29-7.38,4-9.83,4.61-15.37,3.69-5.53-1.23-14.13-4.31-24.58-7.69s-22.43-6.76-30.73-9.21-12.9-4-18.74-2.16A25.28,25.28,0,0,0,847,380.21,23.49,23.49,0,0,0,852,404.48c6.76,7.07,19,11.37,31,13.22s23.66,1.23,30.11,4.61,7.68,10.75,6.45,16.9a22.15,22.15,0,0,1-7.37,13.21c-3.07,2.77-6.15,3.69-8.3,5.53-1.84,2.15-2.46,5.22-2.76,12.91s-.31,20-1.23,26.42-3.08,7.07-21.21,9.22-52.23,6.46-68.52,8.61c-16.59,2.45-15.37,2.76-.92,4s41.79,2.77,58.38,4.3,22.43,3.08,31.35.62c9.21-2.46,21.81-8.61,36.87-17.52,12.91-7.68,27.35-16.9,43.64-25.81V713H12.13V602.07c14.14.61,27.35,1.54,37.8,2.15,24.89,1.23,35.34,1.54,49.16,6.76s31.35,15.67,51,25.81S191.28,657.07,206,662.6s22.43,7.07,33.19,5.84a124,124,0,0,0,32.57-8.91c8.91-4,13.52-8.3,20-9.52s14.75.61,21.82-.93,12.6-6.76,16.9-11.67,6.76-9.53,11.68-11.07,12,0,17.51.31c5.54,0,10.15-1.23,16.91-6.76A171.38,171.38,0,0,0,400.85,595a183.7,183.7,0,0,0,16.9-25.81c3.08-5.53,2.77-5.53-14.44-3.69s-51.62,5.84-71.91,8.61c-20.28,2.45-26.12,3.68-30.72,2.15s-8-5.84-13.53-13.52C281.32,555.05,273,544,269,538.15c-4-5.53-3.38-5.84-1.22-5.84s6.45.31,16,1.85c9.84,1.53,25.2,4.61,38.42,5.53,13.52.92,24.58,0,34.72-5.22,9.83-4.92,18.13-13.83,21.82-20.59,3.38-6.76,2.15-11.07-5.53-13.52-7.69-2.77-21.82-3.69-37.19-6.76-15.67-3.08-32.57-8-46.4-11.68-13.83-4-24.58-6.76-37.18-8.3-12.29-1.53-26.43-1.53-42.1-.92s-32.88,2.15-44.55,5.53c-11.37,3.38-17.21,8.91-26.43,11.68s-22.43,3.07-35.95,1.54-27.66-4.61-64.23-19.06c-8.29-3.07-17.51-6.76-27.35-11.06V396.49c2.77,1.54,5.84,3.08,8.92,4.61,16.59,8.3,40.56,16.29,58.07,20.28a156.1,156.1,0,0,0,16.9,3.08V250.84h-4c-13.83.31-31.65.92-48.55,2.46-10.76,1.23-21.82,2.76-31,4.3Z"/><path class="cls-2" d="M96,162l155.18,80.2V473c-12-1.23-25.5-1.23-40.56-.62-15.67.62-32.88,2.15-44.56,5.53-11.37,3.38-17.21,8.92-26.42,11.68s-22.44,3.07-36,1.54c-2.45-.31-4.91-.62-7.68-.92Z"/><polygon class="cls-3" points="151.95 190.61 193.43 212.12 193.43 320.29 151.95 297.85 151.95 190.61"/><path class="cls-4" d="M903.27,162,251.2,241.93V472.7l1.54.31c12.29,1.53,23.35,4.61,37.18,8.29,13.83,4,31,8.92,46.4,11.68,15.67,3.07,29.5,4,37.18,6.76s8.91,7.07,5.53,13.52c-3.38,6.76-12,15.67-21.81,20.59S336,540,322.49,539.07s-28.88-4-38.41-5.53c-9.83-1.53-13.83-1.84-16-1.84s-2.76.31,1.23,5.84,12.29,16.9,18.13,24.58,8.91,12,13.52,13.52,10.45.62,30.73-2.15c20.28-2.46,54.39-6.76,71.91-8.6,9.83-1.23,14.13-1.54,15.67-.62L799.4,517.56c.93-.61,4.61-1.22,12-2.15,16.59-2.45,50.39-6.45,68.52-8.6s20-2.77,21.21-9.22c.92-6.45.92-18.74,1.23-26.43.3-5.83.61-9.21,1.53-11.37V419.85c-5.84-.62-12.9-.93-20.28-2.15-12-1.85-24.27-6.15-31-13.22a22.86,22.86,0,0,1-4.91-24.27c2.76-7.38,9.83-12.6,15.36-14.45,5.84-1.84,10.45-.3,18.75,2.16,6.14,1.84,14.13,4,22.12,6.45V162Z"/><polygon class="cls-5" points="748.09 81.52 96.02 161.72 96.02 162.03 251.2 241.93 748.09 181.08 903.27 162.03 903.27 161.42 748.09 81.22 748.09 81.52"/><polygon class="cls-6" points="149.49 189.38 194.66 212.74 843.65 130.69 798.48 107.33 149.49 189.38"/><polygon class="cls-7" points="795.1 241.62 419.9 300.62 435.88 544.61 801.86 476.69 795.1 241.62"/><polygon class="cls-8" points="438.95 395.26 787.42 339.34 788.34 344.87 439.88 400.8 438.95 395.26"/><path class="cls-8" d="M651.6,274.19l112.47-18.13h1.23a7,7,0,0,1,4.91,1.85h0a8.45,8.45,0,0,1,2.46,4.61v58.07a9.93,9.93,0,0,1-2.46,6.46,9.51,9.51,0,0,1-6.14,3.38L651.6,348.56h-1.23a7,7,0,0,1-4.92-1.85A8.45,8.45,0,0,1,643,342.1V284a10,10,0,0,1,2.46-6.46,9.54,9.54,0,0,1,6.15-3.38Zm112.77-16L651.91,276.65a7.28,7.28,0,0,0-4.61,2.77,7,7,0,0,0-1.85,4.91V341.8h0a7.25,7.25,0,0,0,1.54,3.07,5.61,5.61,0,0,0,3.38,1.23h.92L763.76,328a7.3,7.3,0,0,0,4.61-2.77,7,7,0,0,0,1.84-4.91V262.52a7.34,7.34,0,0,0-1.53-3.08h0a5.66,5.66,0,0,0-3.38-1.23Z"/><polygon class="cls-8" points="448.17 481.61 560.95 460.72 561.56 463.18 448.48 484.07 448.17 481.61"/><polygon class="cls-8" points="449.1 490.22 561.87 469.32 562.49 471.78 449.4 492.67 449.1 490.22"/><polygon class="cls-8" points="449.71 498.82 562.79 477.92 563.1 480.69 450.32 501.59 449.71 498.82"/><polygon class="cls-8" points="450.63 507.73 563.41 486.84 564.02 489.29 451.25 510.19 450.63 507.73"/><polygon class="cls-8" points="451.55 516.34 564.33 495.44 564.94 497.9 451.86 518.79 451.55 516.34"/><polygon class="cls-8" points="452.17 524.94 565.25 504.04 565.56 506.5 452.78 527.4 452.17 524.94"/><polygon class="cls-8" points="670.96 455.49 784.04 434.6 784.35 437.36 671.57 457.95 670.96 455.49"/><polygon class="cls-8" points="671.88 464.4 784.65 443.51 785.27 445.97 672.19 466.86 671.88 464.4"/><polygon class="cls-8" points="672.8 473.01 785.58 452.11 786.19 454.57 673.11 475.47 672.8 473.01"/><polygon class="cls-8" points="673.42 481.61 786.5 460.72 786.8 463.18 674.03 484.07 673.42 481.61"/><polygon class="cls-8" points="652.21 290.48 764.99 269.58 765.6 272.04 652.52 292.94 652.21 290.48"/><polygon class="cls-8" points="652.21 304.31 764.99 283.41 765.6 285.87 652.52 306.76 652.21 304.31"/><polygon class="cls-8" points="652.21 317.83 764.99 296.93 765.6 299.7 652.52 320.59 652.21 317.83"/><polygon class="cls-8" points="652.21 331.65 764.99 310.76 765.6 313.22 652.52 334.11 652.21 331.65"/></svg>