<svg id="Capa_1" data-name="Capa 1" xmlns="http://www.w3.org/2000/svg" viewBox="0 0 1080 710"><defs><style>.cls-1{fill:#1d2f47;}.cls-2{fill:#b79160;}.cls-3{fill:#caac89;}.cls-4{fill:#e5c395;}.cls-5{fill:#d7ae7c;}.cls-6{fill:#e2c59e;}.cls-7{fill:#fff;}.cls-8{fill:#adaead;}.cls-9{fill:#385571;}.cls-10{fill:#4782bb;}</style></defs><title>logo-mi-express</title><path class="cls-1" d="M186.34,8.77H867.45v94.7a109,109,0,0,1-11.25,5.84c-14.7,7.14-29.4,11.68-38.7,14.92-1.51.43-2.81.87-4.11,1.3v75.25a76.21,76.21,0,0,0,10.6-1.09c10.59-1.72,26.59-5,43.46-8.64v69c-8.43,2.16-15.35,6.27-19.89,8.65-5.19,2.81-6.92,3.24-10.82,2.6-3.89-.87-9.94-3-17.29-5.41s-15.79-4.76-21.63-6.49-9.08-2.81-13.19-1.51A17.79,17.79,0,0,0,773.82,268a16.54,16.54,0,0,0,3.46,17.08c4.76,5,13.41,8,21.84,9.3s16.65.87,21.19,3.24,5.41,7.57,4.54,11.9a15.56,15.56,0,0,1-5.19,9.29c-2.16,1.95-4.32,2.6-5.84,3.9-1.29,1.51-1.73,3.67-1.94,9.08s-.22,14.05-.87,18.59-2.16,5-14.92,6.49-36.75,4.54-48.21,6.05c-11.68,1.73-10.82,1.95-.65,2.82s29.4,1.94,41.08,3,15.78,2.17,22.05.44c6.49-1.73,15.36-6.06,25.95-12.33,9.08-5.41,19.25-11.89,30.71-18.16V502.19H186.34V424.14c9.95.43,19.24,1.08,26.59,1.51,17.52.86,24.87,1.08,34.6,4.76s22.06,11,35.89,18.16,29,14.27,39.36,18.16,15.78,5,23.35,4.11a87.28,87.28,0,0,0,22.92-6.27c6.27-2.81,9.51-5.84,14.05-6.7s10.38.43,15.36-.65,8.86-4.76,11.89-8.22,4.76-6.7,8.22-7.78,8.43,0,12.32.21c3.89,0,7.14-.86,11.89-4.75a120.08,120.08,0,0,0,17.08-17.52A128.81,128.81,0,0,0,471.76,401c2.16-3.89,1.94-3.89-10.17-2.59s-36.32,4.1-50.59,6c-14.27,1.73-18.38,2.59-21.63,1.51s-5.62-4.1-9.51-9.51c-4.11-5.41-9.95-13.19-12.76-17.3-2.81-3.89-2.38-4.11-.86-4.11a78.7,78.7,0,0,1,11.24,1.3c6.92,1.08,17.73,3.24,27,3.89,9.51.65,17.3,0,24.43-3.67a38.51,38.51,0,0,0,15.36-14.49c2.37-4.76,1.51-7.78-3.9-9.51-5.4-1.95-15.35-2.6-26.16-4.76-11-2.16-22.92-5.62-32.65-8.22-9.73-2.81-17.3-4.75-26.16-5.84-8.65-1.08-18.6-1.08-29.63-.64s-23.13,1.51-31.35,3.89c-8,2.38-12.11,6.27-18.59,8.21s-15.79,2.17-25.3,1.09-19.46-3.25-45.19-13.41c-5.84-2.16-12.33-4.76-19.25-7.78V279.48c1.95,1.08,4.11,2.16,6.27,3.25,11.68,5.83,28.55,11.46,40.87,14.27a108.53,108.53,0,0,0,11.89,2.16V177h-2.81c-9.73.22-22.27.65-34.16,1.73-7.57.87-15.35,1.95-21.84,3Z"/><path class="cls-2" d="M245.37,114.5l109.19,56.44V333.32a204.93,204.93,0,0,0-28.54-.43c-11,.43-23.14,1.51-31.35,3.89-8,2.38-12.11,6.27-18.6,8.22s-15.78,2.16-25.3,1.08c-1.73-.22-3.46-.43-5.4-.65Z"/><polygon class="cls-3" points="284.72 134.61 313.91 149.75 313.91 225.86 284.72 210.07 284.72 134.61"/><path class="cls-4" d="M813.39,114.5,354.56,170.72V333.11l1.08.21c8.65,1.08,16.44,3.25,26.17,5.84,9.73,2.81,21.84,6.27,32.65,8.22,11,2.16,20.75,2.81,26.16,4.75s6.27,5,3.89,9.52c-2.38,4.75-8.43,11-15.35,14.48s-14.92,4.33-24.43,3.68-20.33-2.81-27-3.89a82,82,0,0,0-11.25-1.3c-1.51,0-1.94.22.87,4.11S376,390.62,380.08,396s6.27,8.43,9.51,9.51,7.35.43,21.62-1.51c14.27-1.73,38.28-4.76,50.6-6.06,6.92-.86,9.95-1.08,11-.43l267.47-32.87c.65-.43,3.24-.86,8.43-1.51,11.68-1.73,35.46-4.54,48.22-6.05s14-1.95,14.92-6.49c.65-4.54.65-13.19.86-18.6.22-4.1.44-6.48,1.08-8V295.91c-4.1-.43-9.08-.64-14.27-1.51-8.43-1.3-17.08-4.32-21.84-9.3A16.08,16.08,0,0,1,774.26,268c1.94-5.19,6.91-8.86,10.81-10.16,4.1-1.3,7.35-.22,13.19,1.51,4.32,1.3,9.94,2.81,15.56,4.54V114.5Z"/><polygon class="cls-5" points="704.2 57.85 245.37 114.29 245.37 114.5 354.56 170.72 704.2 127.91 813.39 114.5 813.39 114.07 704.2 57.63 704.2 57.85"/><polygon class="cls-6" points="282.99 133.75 314.78 150.18 771.44 92.45 739.66 76.01 282.99 133.75"/><polygon class="cls-7" points="737.28 170.5 473.27 212.02 484.51 383.7 742.04 335.92 737.28 170.5"/><polygon class="cls-8" points="486.68 278.62 731.88 239.26 732.52 243.16 487.32 282.51 486.68 278.62"/><path class="cls-8" d="M636.3,193.42l79.14-12.75h.87a5,5,0,0,1,3.46,1.29h0a6,6,0,0,1,1.73,3.25v40.86a7,7,0,0,1-1.73,4.55,6.68,6.68,0,0,1-4.33,2.37L636.3,245.75h-.86a4.88,4.88,0,0,1-3.46-1.3,5.91,5.91,0,0,1-1.73-3.24V200.34A7,7,0,0,1,632,195.8a6.72,6.72,0,0,1,4.32-2.38Zm79.36-11.24-79.14,13a5.13,5.13,0,0,0-3.24,1.95,4.9,4.9,0,0,0-1.3,3.46V241h0a5.19,5.19,0,0,0,1.08,2.17,4,4,0,0,0,2.38.86h.65l79.14-12.76a5.12,5.12,0,0,0,3.24-1.94,4.94,4.94,0,0,0,1.3-3.46V185.21a5.08,5.08,0,0,0-1.08-2.16h0a3.9,3.9,0,0,0-2.38-.87Z"/><polygon class="cls-8" points="493.16 339.38 572.52 324.67 572.95 326.4 493.38 341.11 493.16 339.38"/><polygon class="cls-8" points="493.81 345.43 573.17 330.73 573.6 332.46 494.03 347.16 493.81 345.43"/><polygon class="cls-8" points="494.24 351.49 573.82 336.78 574.03 338.73 494.68 353.43 494.24 351.49"/><polygon class="cls-8" points="494.89 357.75 574.25 343.05 574.68 344.78 495.32 359.49 494.89 357.75"/><polygon class="cls-8" points="495.54 363.81 574.9 349.11 575.33 350.84 495.76 365.54 495.54 363.81"/><polygon class="cls-8" points="495.97 369.86 575.54 355.16 575.76 356.89 496.41 371.59 495.97 369.86"/><polygon class="cls-8" points="649.93 321 729.5 306.29 729.71 308.24 650.36 322.73 649.93 321"/><polygon class="cls-8" points="650.57 327.27 729.93 312.56 730.36 314.29 650.79 329 650.57 327.27"/><polygon class="cls-8" points="651.22 333.32 730.58 318.62 731.01 320.35 651.44 335.05 651.22 333.32"/><polygon class="cls-8" points="651.66 339.38 731.23 324.67 731.44 326.4 652.09 341.11 651.66 339.38"/><polygon class="cls-8" points="636.74 204.88 716.09 190.18 716.52 191.91 636.95 206.61 636.74 204.88"/><polygon class="cls-8" points="636.74 214.61 716.09 199.91 716.52 201.64 636.95 216.34 636.74 214.61"/><polygon class="cls-8" points="636.74 224.13 716.09 209.43 716.52 211.37 636.95 226.07 636.74 224.13"/><polygon class="cls-8" points="636.74 233.86 716.09 219.16 716.52 220.88 636.95 235.59 636.74 233.86"/><path class="cls-1" d="M182.06,537.34h-55.2l-32.8,56.78-3.72-56.78H38a16,16,0,0,1,1,5.58c0,1.24-.14,2.82-.34,5-.35,1.38-.48,2.48-.62,3.1L19.29,623.27a60.92,60.92,0,0,1-4.82,13.37c-.62,1.1-1.24,2-2.83,4.34H35.28a15.56,15.56,0,0,1-1-5.58c0-1.24.13-2.83.34-5,.34-1.24.48-2.35.62-3.11l17.57-67.8L58.16,641H86.27l47.28-81.8-16.61,64.09a61.45,61.45,0,0,1-4.82,13.37c-.62,1.1-1.24,2-2.83,4.34H155.8a15.79,15.79,0,0,1-1-5.58c0-1.11.14-2.83.34-5a27.11,27.11,0,0,0,.62-3.11l18.68-72.28a56.55,56.55,0,0,1,4.82-13.23c.62-1.11,1.24-2,2.76-4.48Zm57.4,0c-1.58,2.48-2.2,3.44-2.82,4.48-1.73,3.1-3.1,7.16-4.69,13.23l-18.81,72.28c-.14.76-.35,1.87-.48,3.11a33.41,33.41,0,0,0-.49,5,12.16,12.16,0,0,0,1.11,5.58H166.76c1.59-2.34,2.21-3.24,2.83-4.34,1.72-3.24,3.1-7.31,4.68-13.37L193.15,551a26.8,26.8,0,0,0,.49-3.1,33,33,0,0,0,.48-5,12.77,12.77,0,0,0-1.1-5.58Zm46,55.81H230.78l-4.69,18.54h54.72l4.68-18.54Zm111.64-55.81-2.34,19.77a18.19,18.19,0,0,0-5.45-2.2c-1.72-.14-4.68-.48-7-.48h-38.1l-6.55,25.36h38.59a32.73,32.73,0,0,0,10.27-1.59L381.28,599c-3.45-1.72-5.72-2.2-12.27-2.2H333.25l-7,27.08H367a22.71,22.71,0,0,0,11-2.34L370.32,641H279c1.58-2.34,2.2-3.24,2.82-4.34,1.73-3.24,3.1-7.31,4.69-13.37L305.27,551a25.19,25.19,0,0,0,.48-3.1,31.94,31.94,0,0,0,.49-5,12.65,12.65,0,0,0-1.11-5.58Zm127.35,0H494a22,22,0,0,1-6.2,8.27l-27.5,23.29-5.58-12.27-2-4.2a27.91,27.91,0,0,1-2.48-11,14.6,14.6,0,0,1,.62-4.06H400a78.33,78.33,0,0,1,6.83,10.13,66.37,66.37,0,0,1,4.68,8.54c.35.48,1.72,3.24,4.21,8.68l14,30.19-35.35,30a157.43,157.43,0,0,1-12.75,9.79,91.94,91.94,0,0,1-11,6.41H405c1.86-4.34,3-6.07,7.92-10.27l24-20.54,5,10.55a77.39,77.39,0,0,1,4.69,12.26,22.74,22.74,0,0,1,.62,5.1,9.28,9.28,0,0,1-.35,2.83h50.72a34.72,34.72,0,0,1-6.41-8.41c-.75-1.38-1.58-3-2.61-4.82-1.11-2.21-1.87-3.59-2.21-4.34L467,584.68l43.55-36.87L513.8,545l4.06-3.1,4.07-2.83,2.55-1.72Zm109.84,18.81c0,2.2-.14,3-1.24,7.17l-4.69,18.33c-1.86,7.16-2.2,7.78-4.34,11.5-4.48,7.65-11.85,11.17-23.15,11.17H553.76l-6.06,23c-.14.76-.35,1.87-.48,3.11a33.33,33.33,0,0,0-.49,5.09,12.13,12.13,0,0,0,1.11,5.45H501.32c1.59-2.34,2.21-3.24,2.83-4.34,1.72-3.24,3.1-7.31,4.68-13.37L527.65,551a29.85,29.85,0,0,0,.48-3.1,33,33,0,0,0,.48-5,12.77,12.77,0,0,0-1.1-5.58h81.66a45.69,45.69,0,0,1,4.68.14c7.65.13,13.1,2.48,16.61,7.3a19.33,19.33,0,0,1,3.86,11.37Zm-40.45,3.38a5.68,5.68,0,0,0-1.24-3.45c-1.1-1.38-2.48-1.72-6.82-1.72H566.65l-8.55,32.8h18.68c8.68,0,10.54-1.38,12.75-9.65l3.86-14.74a11.07,11.07,0,0,0,.48-3.24Zm159.67-3.38c0-4.34-2.49-9.65-6.21-13.23-4.2-4.07-8.89-5.58-16.6-5.58H648.45a12.77,12.77,0,0,1,1.1,5.58,32.29,32.29,0,0,1-.48,5,26.8,26.8,0,0,1-.49,3.1l-18.81,72.29c-1.58,6.06-3,10.13-4.68,13.37-.62,1.1-1.24,2-2.83,4.34h46.52a12.13,12.13,0,0,1-1.11-5.45,32.58,32.58,0,0,1,.49-5.09c.13-1.24.34-2.35.48-3.11l8.06-30.94h10.13l8.54,44.66H739.2c-4.06-4.07-5.3-6.2-6.41-11.85l-6.68-32.81c1.24,0,2.2.14,2.82.14a23.5,23.5,0,0,0,11.65-2.82c3.58-2,4.69-3.59,6.55-9.93l1-3.24L752.57,563a24.21,24.21,0,0,0,.48-3.24,19.28,19.28,0,0,0,.49-3.58Zm-40.11,2.27a14.81,14.81,0,0,1-.48,3.45l-2.62,10.4c-1,3.73-1.59,4.48-3.58,5.59-1.59.75-2.35,1-6.07,1H681.25l6.41-24.39h19.91c4.34,0,5.86,1.1,5.86,4Zm149.74-21.08-2.34,19.77a18.26,18.26,0,0,0-5.44-2.2c-1.73-.14-4.69-.48-7-.48H810.25l-6.55,25.36h38.59a32.69,32.69,0,0,0,10.27-1.59L847.25,599c-3.44-1.72-5.72-2.2-12.26-2.2H799.22l-7,27.08h40.73a22.78,22.78,0,0,0,11-2.34L836.3,641H744.85c1.59-2.34,2.21-3.24,2.83-4.34,1.72-3.24,3.1-7.31,4.68-13.37L771.31,551a26.8,26.8,0,0,0,.49-3.1,33,33,0,0,0,.48-5,12.77,12.77,0,0,0-1.1-5.58Zm106.4,0H896.66a56,56,0,0,0-12.26,1.58,28.06,28.06,0,0,0-6.69,3A25,25,0,0,0,867.58,555l-1.1,3.86-6.2,24c-1.72,6.54-2,9-2,12.13,0,9.3,6.55,14.12,19.43,14.12h29.22c4.07,0,5.93,1.24,5.93,3.72a42.41,42.41,0,0,1-.76,4.48,16.57,16.57,0,0,1-1.38,3.59,4.6,4.6,0,0,1-4.82,3.1H862.14a18.63,18.63,0,0,1-6.2-1.24,22.64,22.64,0,0,1-5.45-2.62l-3,21H921.4c10.13,0,14.47-1.11,19.43-4.69a19.14,19.14,0,0,0,6.21-6.82,75.85,75.85,0,0,0,3.72-11.17L957.58,592c1.24-4.68,1.38-5.3,1.38-8.06a12.6,12.6,0,0,0-3.45-9.16c-3.1-3.59-6.06-4.69-13.23-4.69H910.72c-4.34,0-6.2-1.1-6.2-3.86a20.22,20.22,0,0,1,.76-3.58l1-3.45c1.1-3.72,3-4.68,8.55-4.68h36.38a39.46,39.46,0,0,1,10.13,1.24,17,17,0,0,1,5.93,3.1l2.34-21.5Zm109.77,0L1077,558.77a16.46,16.46,0,0,0-5.92-3.1,39.05,39.05,0,0,0-10.13-1.24h-36.39c-5.58,0-7.44,1-8.54,4.68l-1,3.45a15.83,15.83,0,0,0-.76,3.58c0,2.83,1.86,3.86,6.21,3.86h31.56c7.16,0,10.13,1.1,13.23,4.69a12.59,12.59,0,0,1,3.44,9.16c0,2.83-.14,3.45-1.38,8.06l-6.82,26.47a93.76,93.76,0,0,1-3.72,11.16,19.78,19.78,0,0,1-6.2,6.82c-5,3.59-9.3,4.69-19.43,4.69H957.3l3-21a20.21,20.21,0,0,0,5.44,2.62,19,19,0,0,0,6.2,1.24h43.76a4.7,4.7,0,0,0,4.83-3.1,13.13,13.13,0,0,0,1.37-3.59,29.34,29.34,0,0,0,.76-4.47c0-2.49-1.86-3.73-5.93-3.73H987.49c-12.89,0-19.44-4.82-19.44-14.12,0-3.1.35-5.58,2-12.13l6.2-24,1.11-3.86a24.59,24.59,0,0,1,10.13-13.09,28,28,0,0,1,6.68-3,60.73,60.73,0,0,1,12.27-1.58h72.9Z"/><path class="cls-9" d="M182.06,537.34h-55.2L98.68,586.13H118l15.51-26.88-7,26.88h39.83l8-31.08c1.59-6.07,3.1-10.13,4.82-13.23.69-1.11,1.31-2,2.83-4.48ZM93.58,586.13l-3.24-48.79H38a16,16,0,0,1,1,5.58c0,1.24-.14,2.82-.34,5-.35,1.38-.48,2.48-.62,3.1l-9,35.08H46l6.89-26.53,1.72,26.53H93.58Zm975.08,0h-99.5c.2-1,.48-2.14.82-3.38l6.21-24,1.1-3.86a24.59,24.59,0,0,1,10.13-13.09,28,28,0,0,1,6.68-3,60.73,60.73,0,0,1,12.27-1.58h73L1077,558.7a16.46,16.46,0,0,0-5.92-3.1,39.05,39.05,0,0,0-10.13-1.24h-36.39c-5.58,0-7.44,1-8.54,4.68l-1,3.45a15.83,15.83,0,0,0-.76,3.58c0,2.83,1.86,3.86,6.21,3.86h31.56c7.16,0,10.13,1.1,13.23,4.69a12.59,12.59,0,0,1,3.44,9.16,12.36,12.36,0,0,1-.07,2.35Zm-109.77,0a22.61,22.61,0,0,0,.07-2.28,12.6,12.6,0,0,0-3.45-9.16c-3.1-3.59-6.06-4.69-13.23-4.69H910.72c-4.34,0-6.2-1.1-6.2-3.86a20.22,20.22,0,0,1,.76-3.58l1-3.45c1.1-3.72,3-4.68,8.55-4.68h36.38a39.46,39.46,0,0,1,10.13,1.24,17,17,0,0,1,5.93,3.1l2.34-21.43H896.66a56,56,0,0,0-12.26,1.58,28.06,28.06,0,0,0-6.69,3A25,25,0,0,0,867.58,555l-1.1,3.86-6.2,24c-.35,1.24-.62,2.41-.83,3.37h99.44Zm-108.26,0H762.15l9.16-35.08a26.8,26.8,0,0,0,.49-3.1,33.07,33.07,0,0,0,.48-5,12.77,12.77,0,0,0-1.1-5.58h92.06l-2.34,19.77a18.19,18.19,0,0,0-5.45-2.2c-1.72-.14-4.68-.48-7-.48H810.32l-6.55,25.36h38.59a32.73,32.73,0,0,0,10.27-1.59l-2,7.86Zm-104.12,0h-107l9.16-35.08a26.8,26.8,0,0,0,.49-3.1,33.07,33.07,0,0,0,.48-5,12.77,12.77,0,0,0-1.1-5.58h82.27c7.79,0,12.48,1.58,16.61,5.58,3.72,3.58,6.2,8.89,6.2,13.23a19,19,0,0,1-.48,3.58,24,24,0,0,1-.48,3.24l-4.48,17.57-1,3.24c-.28.83-.49,1.59-.69,2.28Zm-119.36,0H584.57c2.48-1.24,3.65-3.73,4.89-8.55l3.86-14.75a11.65,11.65,0,0,0,.48-3.23,5.68,5.68,0,0,0-1.24-3.45c-1.1-1.38-2.48-1.72-6.82-1.72H566.65l-8.27,31.7h-39.9l9.17-35.08a29.85,29.85,0,0,0,.48-3.1,33.07,33.07,0,0,0,.48-5,12.77,12.77,0,0,0-1.1-5.58h81.66c1.86,0,3.44,0,4.68.13,7.65.14,13.1,2.48,16.61,7.31a18.87,18.87,0,0,1,3.86,11.37c0,2.2-.14,3-1.24,7.17l-4.69,18.33c-.48,1.79-.89,3.23-1.24,4.41Zm-159.52,0-.69-1.38,43.55-36.87,3.24-2.82,4.06-3.11,4.07-2.82,2.62-1.86H494a22,22,0,0,1-6.2,8.27l-27.5,23.29-5.58-12.27-2-4.2a27.91,27.91,0,0,1-2.48-11,14.6,14.6,0,0,1,.62-4.06H400a78.33,78.33,0,0,1,6.83,10.13,66.37,66.37,0,0,1,4.68,8.54c.35.49,1.72,3.24,4.21,8.69l9.92,21.43h42Zm-83,0H296.11l9.16-35.08a25.19,25.19,0,0,0,.48-3.1,32,32,0,0,0,.49-5,12.65,12.65,0,0,0-1.11-5.58h92l-2.34,19.77a18.19,18.19,0,0,0-5.45-2.2c-1.72-.14-4.68-.48-7-.48h-38.1l-6.55,25.36h38.59a32.73,32.73,0,0,0,10.27-1.59l-1.93,7.86Zm-160.7,0H184L193.15,551a26.8,26.8,0,0,0,.49-3.1,33,33,0,0,0,.48-5,12.77,12.77,0,0,0-1.1-5.58h46.51c-1.58,2.48-2.2,3.44-2.82,4.48-1.73,3.1-3.11,7.16-4.69,13.23l-8.13,31.08Zm489.54-27.71c0-3-1.59-4.06-5.93-4.06H687.59l-6.41,24.39h19.43c3.72,0,4.48-.14,6.07-1,2-1.1,2.61-1.86,3.58-5.58l2.62-10.41A11.15,11.15,0,0,0,713.43,558.42Z"/><path class="cls-10" d="M31.42,662.55H18.19c-4.34,0-7.51.89-9.58,2.62s-3,4.48-3,8.2a8.15,8.15,0,0,0,.55,3.1,4.51,4.51,0,0,0,1.72,1.86,6.48,6.48,0,0,0,2.83,1,28.19,28.19,0,0,0,3.93.42l12.26.55a7.62,7.62,0,0,1,3.59.69,2,2,0,0,1,1,1.72,5.75,5.75,0,0,1-.21,1.58,2.86,2.86,0,0,1-.75,1.25,4.68,4.68,0,0,1-1.66.82,9.79,9.79,0,0,1-2.75.28H14a4.69,4.69,0,0,1-2.28-.55,1.92,1.92,0,0,1-.89-1.59.5.5,0,0,1,.07-.34H3.65c-.07.48-.14.89-.21,1.24a3.64,3.64,0,0,0-.07.76,5.85,5.85,0,0,0,.49,2.48,6.12,6.12,0,0,0,1.51,2.06A7.37,7.37,0,0,0,8.13,692a13.76,13.76,0,0,0,4.13.55H27.15a19.62,19.62,0,0,0,5.86-.76,7.82,7.82,0,0,0,3.72-2.27,8.92,8.92,0,0,0,1.93-3.65,18.57,18.57,0,0,0,.55-5A5.51,5.51,0,0,0,37,676.12a7,7,0,0,0-2.48-1.24,15,15,0,0,0-3.1-.48L17,673.85a7.48,7.48,0,0,1-1.24-.14,3.64,3.64,0,0,1-1-.27,1.7,1.7,0,0,1-.62-.56,2.51,2.51,0,0,1-.2-1.1A3.39,3.39,0,0,1,14.4,670a2.55,2.55,0,0,1,1-1,4,4,0,0,1,1.3-.42,9.66,9.66,0,0,1,1.38-.07H30.11a5.37,5.37,0,0,1,2.62.42,1.59,1.59,0,0,1,.69,1.37v.35a.85.85,0,0,1-.07.41h7.72c.07-.34.07-.69.14-1s.07-.62.07-1a5.58,5.58,0,0,0-2.42-4.68c-1.65-1.31-4.13-1.93-7.44-1.93Zm16,0-5.31,30H72.84l1-6H50.37l1.17-6.48H74.28l1.11-6H52.58l1-5.51H77.11l1-6H47.41Zm65.26,21.57a6.19,6.19,0,0,1-.07,1.1,8.08,8.08,0,0,1-.21,1.58l-1,5.86h-7.24l.76-4.06a10.7,10.7,0,0,1,.21-1.11c0-.27.07-.48.07-.62,0-2.13-1.45-3.17-4.28-3.17H86.69l-1.59,9H77.87l5.3-30H105a11.81,11.81,0,0,1,4.34.69,7,7,0,0,1,3,1.86,6.48,6.48,0,0,1,1.79,2.75,8.74,8.74,0,0,1,.62,3.31,16.57,16.57,0,0,1-.89,5.93,6.74,6.74,0,0,1-3,3.58,2.81,2.81,0,0,1,1.37,1.17,4.58,4.58,0,0,1,.42,2.21Zm-5.17-11.58a2.52,2.52,0,0,0-.83-2.07,4.15,4.15,0,0,0-2.75-.69H89l-1.17,6.76h15.57a11.32,11.32,0,0,0,1.66-.14,2.91,2.91,0,0,0,1.31-.55,3.14,3.14,0,0,0,.89-1.17,9.34,9.34,0,0,0,.28-2.14Zm19.91-10h-8l10.2,30h11.44l20.88-30h-8.55L136,687.42l-8.55-24.87Zm32.74,30,5.3-30h7.24l-5.31,30Zm24.46.07h11.78a27.55,27.55,0,0,0,5.86-.55,8.37,8.37,0,0,0,3.79-1.72,8,8,0,0,0,2.27-3.24,23.17,23.17,0,0,0,1.31-5h-7.44a7.35,7.35,0,0,1-.62,2.07,2.88,2.88,0,0,1-1.31,1.24,7.46,7.46,0,0,1-2.41.55c-1,.07-2.34.14-3.93.14h-5.86a11,11,0,0,1-4.61-.76,2.67,2.67,0,0,1-1.52-2.69c0-.83.07-1.86.14-3s.34-2.62.62-4.34a19.14,19.14,0,0,1,.76-3,3.74,3.74,0,0,1,1.24-1.86,4.73,4.73,0,0,1,2.07-1,13.64,13.64,0,0,1,3.17-.28h6.89a24.74,24.74,0,0,1,3.58.21,10,10,0,0,1,2.14.48,1.64,1.64,0,0,1,1,.83,2.08,2.08,0,0,1,.28,1.17v.41c0,.14-.07.28-.07.49h7.44a9.91,9.91,0,0,0,.27-1.87,8.8,8.8,0,0,0,.07-1.17,6.45,6.45,0,0,0-.69-3.17,5.61,5.61,0,0,0-2.13-2.27,10.8,10.8,0,0,0-3.79-1.31,32.07,32.07,0,0,0-5.58-.41h-7.51a42,42,0,0,0-7.31.48,10.18,10.18,0,0,0-4.69,1.79,9.29,9.29,0,0,0-2.82,3.72,26.35,26.35,0,0,0-1.65,6.2c-.35,1.73-.56,3.45-.76,5.1a35.42,35.42,0,0,0-.28,4.41,9.37,9.37,0,0,0,.62,3.45,6.68,6.68,0,0,0,1.86,2.62,9.18,9.18,0,0,0,3.17,1.72,19.13,19.13,0,0,0,4.62.55Zm29.15-.07h7.17l5.3-30H219l-5.24,30ZM257.59,673a6.81,6.81,0,0,1-.07,1,13.19,13.19,0,0,1-.14,1.58l-.21,1.86a17,17,0,0,1-.27,1.86,18.66,18.66,0,0,1-.9,3.45,4.13,4.13,0,0,1-1.52,2,6.5,6.5,0,0,1-2.61,1,35.58,35.58,0,0,1-4.28.21h-5.72c-1.24,0-2.34-.07-3.17-.14a5.78,5.78,0,0,1-2.06-.55,2.45,2.45,0,0,1-1.11-1.24,5.62,5.62,0,0,1-.34-2,14.37,14.37,0,0,1,.28-2.55c.2-1.17.48-2.76.89-4.82a10.67,10.67,0,0,1,.76-2.62,4,4,0,0,1,1.31-1.66,7.09,7.09,0,0,1,2.48-.89,22,22,0,0,1,4.13-.28h5.31a24.16,24.16,0,0,1,3.51.21,7.63,7.63,0,0,1,2.21.62,2.26,2.26,0,0,1,1.1,1.17,3,3,0,0,1,.42,1.79Zm-7.79,19.64a34.88,34.88,0,0,0,5.72-.41,10.28,10.28,0,0,0,4.06-1.59,8.79,8.79,0,0,0,2.69-3.37,22.92,22.92,0,0,0,1.66-5.79c.2-1.1.34-2.14.48-3.17s.2-2.07.34-3,.14-1.8.21-2.55.07-1.45.07-1.93a8.53,8.53,0,0,0-.62-3.24,6.15,6.15,0,0,0-2-2.62,9.13,9.13,0,0,0-3.58-1.72,20.19,20.19,0,0,0-5.45-.62h-7.65a41.54,41.54,0,0,0-7.3.55,10.6,10.6,0,0,0-4.76,2,8.68,8.68,0,0,0-2.82,3.79,26.27,26.27,0,0,0-1.66,6.06c-.27,1.59-.55,3.17-.75,4.89a38.12,38.12,0,0,0-.35,4.34,10,10,0,0,0,.62,3.66,6.41,6.41,0,0,0,2.07,2.68,11.42,11.42,0,0,0,3.79,1.66,27.74,27.74,0,0,0,5.79.55h9.44Zm18.74-8.4h8.34l-1.72,9.71a6.71,6.71,0,0,1-1.52,3.38,8.76,8.76,0,0,1-2.62,1.93,12.21,12.21,0,0,1-3.24.89,27.85,27.85,0,0,1-3.3.21l.69-4a8.18,8.18,0,0,0,1.17-.06,3.54,3.54,0,0,0,1-.35,2.73,2.73,0,0,0,.83-.69,2.08,2.08,0,0,0,.48-1.24l.28-1.31H267l1.51-8.47Zm46.66,8.47H327a27.62,27.62,0,0,0,5.86-.55,8.47,8.47,0,0,0,3.79-1.72,8.12,8.12,0,0,0,2.27-3.24,23.76,23.76,0,0,0,1.31-5h-7.44a7.7,7.7,0,0,1-.62,2.07,2.93,2.93,0,0,1-1.31,1.24,7.52,7.52,0,0,1-2.41.55c-1,.07-2.35.14-3.93.14h-5.86a11,11,0,0,1-4.62-.76,2.68,2.68,0,0,1-1.51-2.69c0-.83.07-1.86.14-3s.34-2.62.62-4.34a19.25,19.25,0,0,1,.75-3,3.8,3.8,0,0,1,1.24-1.86,4.78,4.78,0,0,1,2.07-1,13.69,13.69,0,0,1,3.17-.28h6.89a24.79,24.79,0,0,1,3.59.21,9.89,9.89,0,0,1,2.13.48,1.66,1.66,0,0,1,1,.83,2.16,2.16,0,0,1,.27,1.17v.41c0,.14-.07.28-.07.49h7.44a10,10,0,0,0,.28-1.87,8.8,8.8,0,0,0,.07-1.17,6.56,6.56,0,0,0-.69-3.17,5.57,5.57,0,0,0-2.14-2.27,10.66,10.66,0,0,0-3.79-1.31,31.92,31.92,0,0,0-5.58-.41h-7.51a41.9,41.9,0,0,0-7.3.48,10.18,10.18,0,0,0-4.69,1.79,9.31,9.31,0,0,0-2.83,3.72,26.84,26.84,0,0,0-1.65,6.2c-.34,1.73-.55,3.45-.76,5.1a37.24,37.24,0,0,0-.27,4.41,9.17,9.17,0,0,0,.62,3.45,6.48,6.48,0,0,0,1.86,2.62,9.18,9.18,0,0,0,3.17,1.72,18.22,18.22,0,0,0,4.62.55ZM374,673a6.81,6.81,0,0,1-.07,1,13.19,13.19,0,0,1-.14,1.58l-.21,1.86a17,17,0,0,1-.27,1.86,18.66,18.66,0,0,1-.9,3.45,4.13,4.13,0,0,1-1.52,2,6.5,6.5,0,0,1-2.61,1,35.58,35.58,0,0,1-4.28.21h-5.72c-1.24,0-2.34-.07-3.17-.14a5.78,5.78,0,0,1-2.06-.55,2.45,2.45,0,0,1-1.11-1.24,5.62,5.62,0,0,1-.34-2,14.37,14.37,0,0,1,.28-2.55c.2-1.17.48-2.76.89-4.82a10.67,10.67,0,0,1,.76-2.62,4,4,0,0,1,1.31-1.66,7.09,7.09,0,0,1,2.48-.89,22,22,0,0,1,4.13-.28h5.31a24.16,24.16,0,0,1,3.51.21,7.63,7.63,0,0,1,2.21.62,2.26,2.26,0,0,1,1.1,1.17A3.56,3.56,0,0,1,374,673Zm-7.86,19.64a34.8,34.8,0,0,0,5.72-.41,10.39,10.39,0,0,0,4.07-1.59,8.86,8.86,0,0,0,2.68-3.37,22.92,22.92,0,0,0,1.66-5.79c.2-1.1.34-2.14.48-3.17s.21-2.07.34-3,.14-1.8.21-2.55.07-1.45.07-1.93a8.53,8.53,0,0,0-.62-3.24,6,6,0,0,0-2-2.62,9.13,9.13,0,0,0-3.58-1.72,20.19,20.19,0,0,0-5.45-.62h-7.65a41.54,41.54,0,0,0-7.3.55,10.65,10.65,0,0,0-4.76,2,8.68,8.68,0,0,0-2.82,3.79,25.82,25.82,0,0,0-1.65,6.06c-.28,1.59-.56,3.17-.76,4.89a38.12,38.12,0,0,0-.35,4.34,10,10,0,0,0,.62,3.66,6.5,6.5,0,0,0,2.07,2.68,11.61,11.61,0,0,0,3.79,1.66,27.88,27.88,0,0,0,5.79.55h9.44Zm22.19-30-5.31,30h7.17l3.93-22.46,18.81,22.46h8.61l5.31-30h-7.24l-3.79,21.22L398,662.55Zm43.9,0-5.31,30h7.23l2.21-12.54h22.81l1.1-6H437.44l1-5.52H462l1-6Zm31.07,30h7.17l5.31-30h-7.24l-5.24,30Zm10.75,0,20.81-30h11.38l10.19,30h-8.47l-2.41-7.23H487.4l-5,7.23Zm25.85-24.39h-.42l-7.85,11.16h12l-3.72-11.16Zm24.53-5.65-5.31,30h7.17l3.93-22.46L549,692.59h8.61l5.31-30h-7.24l-3.79,21.22-17.78-21.22Zm76.63,0-1.11,6.06-25.56,18h22.39l-1,6H562l1-5.85,26.39-18.2H566.17l1.1-6Zm-2.76,30h8.41l5-7.23h18.26l2.41,7.23h8.48l-10.2-30H619.23l-21,30Zm25.77-24.39,3.65,11.16h-12l7.86-11.16Zm53.06-5.65h-8.47l12.13,19.91L679,692.59h7.24L688,682.46l19.64-19.91h-9l-13.23,13.57-8.27-13.57Zm78.35,0H742.23c-4.34,0-7.51.89-9.57,2.62s-3,4.48-3,8.2a8.15,8.15,0,0,0,.55,3.1,4.47,4.47,0,0,0,1.73,1.86,6.44,6.44,0,0,0,2.82,1,28.37,28.37,0,0,0,3.93.42l12.27.55a7.57,7.57,0,0,1,3.58.69,2,2,0,0,1,1,1.72,5.75,5.75,0,0,1-.2,1.58,3,3,0,0,1-.76,1.25,4.55,4.55,0,0,1-1.65.82,9.87,9.87,0,0,1-2.76.28H738a4.65,4.65,0,0,1-2.27-.55,1.93,1.93,0,0,1-.9-1.59.5.5,0,0,1,.07-.34h-7.37c-.07.48-.14.89-.21,1.24a3.64,3.64,0,0,0-.07.76,6,6,0,0,0,.48,2.48,6.29,6.29,0,0,0,1.52,2.06A7.3,7.3,0,0,0,732,692a13.76,13.76,0,0,0,4.13.55h14.88a19.52,19.52,0,0,0,5.86-.76,7.72,7.72,0,0,0,3.72-2.27,8.69,8.69,0,0,0,1.93-3.65,18.19,18.19,0,0,0,.55-5,5.54,5.54,0,0,0-2.2-4.76,7.13,7.13,0,0,0-2.48-1.24,15.11,15.11,0,0,0-3.1-.48l-14.41-.55a7.6,7.6,0,0,1-1.24-.14,3.56,3.56,0,0,1-1-.27,1.62,1.62,0,0,1-.62-.56,2.36,2.36,0,0,1-.21-1.1,3.39,3.39,0,0,1,.42-1.79,2.53,2.53,0,0,1,1-1,4.11,4.11,0,0,1,1.31-.42,9.52,9.52,0,0,1,1.38-.07H754a5.4,5.4,0,0,1,2.62.42,1.59,1.59,0,0,1,.69,1.37v.35a.85.85,0,0,1-.07.41H765c.07-.34.07-.69.14-1s.07-.62.07-1a5.6,5.6,0,0,0-2.41-4.68c-1.52-1.31-3.93-1.93-7.31-1.93Zm16,0-5.3,30h30.73l1-6H774.42l1.17-6.48h22.74l1.1-6H776.62l1-5.51h23.56l1-6H771.45Zm61.61,8.54v.35a.73.73,0,0,1-.07.34h7.44a13.56,13.56,0,0,0,.28-2.75,6.12,6.12,0,0,0-.69-3.11,5.38,5.38,0,0,0-2.34-2.06,13,13,0,0,0-4.28-1.11,58.54,58.54,0,0,0-6.54-.34h-7.65a26.24,26.24,0,0,0-6.2.62,10.28,10.28,0,0,0-4.28,2.14A10.62,10.62,0,0,0,806,669.3a35.93,35.93,0,0,0-1.73,6.55c-.34,1.93-.55,3.51-.69,4.89s-.13,2.41-.13,3.24a7.39,7.39,0,0,0,3,6.41c2,1.44,4.89,2.13,8.82,2.13h8.61a36,36,0,0,0,6.69-.48,11,11,0,0,0,4.41-1.72,7.77,7.77,0,0,0,2.69-3.38,26.26,26.26,0,0,0,1.58-5.37l1.24-7.17H822.1l-1,5.86H832l-.35,1.79a6.67,6.67,0,0,1-.69,2,3.8,3.8,0,0,1-1.31,1.24,5.78,5.78,0,0,1-2.06.55c-.83.07-1.73.14-2.83.14H817a18.16,18.16,0,0,1-3-.21,5.6,5.6,0,0,1-1.93-.69,2.54,2.54,0,0,1-1-1.24,4.44,4.44,0,0,1-.28-1.72c0-.55.07-1.38.14-2.48a30.18,30.18,0,0,1,.48-3.38,18,18,0,0,1,1-3.86,5.48,5.48,0,0,1,1.58-2.2,5.61,5.61,0,0,1,2.55-1,29.2,29.2,0,0,1,3.86-.2h5.24c1.51,0,2.75,0,3.72.06a14.35,14.35,0,0,1,2.27.28,2,2,0,0,1,1.17.62,2,2,0,0,1,.28,1.1Zm20.74-8.54h-7.17l-3.1,17.78a11.42,11.42,0,0,0-.2,2.13v1.73a9.78,9.78,0,0,0,.55,3.17,6.25,6.25,0,0,0,1.79,2.68,9.36,9.36,0,0,0,3.17,1.86,13.5,13.5,0,0,0,4.68.69h10.69a28.46,28.46,0,0,0,5.92-.55,10.25,10.25,0,0,0,4.14-1.79,8.41,8.41,0,0,0,2.62-3.31,20.57,20.57,0,0,0,1.51-5l3.38-19.36h-7.24l-3.24,18.6a10.69,10.69,0,0,1-.75,2.62,4.82,4.82,0,0,1-1.38,1.66,6,6,0,0,1-2.14.89,12.56,12.56,0,0,1-3,.28h-7.79c-2.07,0-3.51-.35-4.34-1a3.63,3.63,0,0,1-1.31-3.1,5.81,5.81,0,0,1,.07-1.1,6,6,0,0,1,.21-1.38l2.89-17.43Zm61.74,21.57a7.2,7.2,0,0,1-.06,1.1,8.08,8.08,0,0,1-.21,1.58l-1,5.86H907l.76-4.06c.07-.49.14-.83.2-1.11s.07-.48.07-.62c0-2.13-1.44-3.17-4.27-3.17H889.57l-1.59,9h-7.24l5.31-30H907.9a11.81,11.81,0,0,1,4.34.69,7,7,0,0,1,3,1.86,6.48,6.48,0,0,1,1.79,2.75,8.93,8.93,0,0,1,.62,3.31,16.56,16.56,0,0,1-.9,5.93,6.69,6.69,0,0,1-3,3.58,2.83,2.83,0,0,1,1.38,1.17,7.68,7.68,0,0,1,.34,2.21Zm-5.23-11.58a2.52,2.52,0,0,0-.83-2.07,4.17,4.17,0,0,0-2.76-.69h-15l-1.17,6.76h15.57a11.45,11.45,0,0,0,1.66-.14,2.91,2.91,0,0,0,1.31-.55,3.24,3.24,0,0,0,.89-1.17,6.61,6.61,0,0,0,.28-2.14Zm10.13,20.05h7.16l5.31-30h-7.24l-5.23,30Zm34.18-6H941.73l3.17-18.13h12.89c2.06,0,3.51.35,4.34,1.11a4,4,0,0,1,1.24,3.24,26.94,26.94,0,0,1-.35,3.44c-.2,1.45-.48,3-.69,4.55a11.47,11.47,0,0,1-.75,2.69,4.57,4.57,0,0,1-1.38,1.79,4.28,4.28,0,0,1-2.21,1,11.86,11.86,0,0,1-3.37.35Zm5.79-24.05H938.7l-5.31,30h21.85a28.23,28.23,0,0,0,5.85-.55,10.83,10.83,0,0,0,4.07-1.72,7.74,7.74,0,0,0,2.62-3.1,18.5,18.5,0,0,0,1.45-4.62c.2-1.24.41-2.48.55-3.65s.34-2.34.41-3.38.21-1.93.28-2.69.06-1.3.06-1.72a11.07,11.07,0,0,0-.55-3.38,7.28,7.28,0,0,0-1.79-2.75,9.26,9.26,0,0,0-3.17-1.86,14.43,14.43,0,0,0-4.61-.62Zm7.92,30,20.81-30h11.37l10.2,30h-8.48l-2.41-7.23H981.56l-5,7.23ZM994.1,668.2h-.41l-7.86,11.16h12L994.1,668.2Zm40.25,18.4h-12.89l3.17-18.13h12.89c2.06,0,3.51.35,4.34,1.11a4,4,0,0,1,1.24,3.24,26.94,26.94,0,0,1-.35,3.44c-.2,1.45-.48,3-.69,4.55a11.47,11.47,0,0,1-.75,2.69,4.57,4.57,0,0,1-1.38,1.79,4.28,4.28,0,0,1-2.21,1,12.16,12.16,0,0,1-3.37.35Zm5.78-24.05h-21.7l-5.31,30H1035a28.23,28.23,0,0,0,5.85-.55,10.83,10.83,0,0,0,4.07-1.72,7.74,7.74,0,0,0,2.62-3.1,18.5,18.5,0,0,0,1.45-4.62c.2-1.24.41-2.48.55-3.65s.34-2.34.41-3.38.21-1.93.28-2.69.06-1.3.06-1.72a11.07,11.07,0,0,0-.55-3.38,7.28,7.28,0,0,0-1.79-2.75,9.36,9.36,0,0,0-3.17-1.86A14.76,14.76,0,0,0,1040.13,662.55Z"/></svg>