<?xml version="1.0" encoding="utf-8"?>
<!-- Generator: Adobe Illustrator 22.1.0, SVG Export Plug-In . SVG Version: 6.00 Build 0)  -->
<svg version="1.1" id="Capa_1" xmlns="http://www.w3.org/2000/svg" xmlns:xlink="http://www.w3.org/1999/xlink" x="0px" y="0px"
	 viewBox="0 0 1080 715" style="enable-background:new 0 0 1080 715;" xml:space="preserve">
<style type="text/css">
	.st0{fill:#E6E6E6;stroke:#FFE9E7;stroke-miterlimit:10;}
	.st1{fill:#979797;}
	.st2{fill:#B1B1B1;}
	.st3{fill:#C8C8C8;}
	.st4{fill:#B5B5B5;}
	.st5{fill:#C9C9C9;}
	.st6{fill:#FFFFFF;}
	.st7{fill:#AEAEAE;}
</style>
<g>
	<g>
		<path class="st0" d="M184.9,12.8H866v94.7c-3.7,2.2-7.4,4.1-11.2,5.8c-14.7,7.1-29.4,11.7-38.7,14.9c-1.5,0.4-2.8,0.9-4.1,1.3
			v75.2c2.8,0,6.3-0.4,10.6-1.1c10.6-1.7,26.6-5,43.5-8.6v69c-8.4,2.2-15.4,6.3-19.9,8.6c-5.2,2.8-6.9,3.2-10.8,2.6
			c-3.9-0.9-9.9-3-17.3-5.4s-15.8-4.8-21.6-6.5s-9.1-2.8-13.2-1.5c-4.1,1.3-8.9,5-10.8,10.2c-1.9,5.2-1.3,12.1,3.5,17.1
			s13.4,8,21.8,9.3c8.4,1.3,16.6,0.9,21.2,3.2c4.5,2.4,5.4,7.6,4.5,11.9c-0.6,4.3-3,7.4-5.2,9.3c-2.2,1.9-4.3,2.6-5.8,3.9
			c-1.3,1.5-1.7,3.7-1.9,9.1c-0.2,5.4-0.2,14.1-0.9,18.6c-0.6,4.5-2.2,5-14.9,6.5s-36.8,4.5-48.2,6.1c-11.7,1.7-10.8,1.9-0.6,2.8
			c10.2,0.9,29.4,1.9,41.1,3c11.7,1.1,15.8,2.2,22.1,0.4c6.5-1.7,15.4-6.1,25.9-12.3c9.1-5.4,19.2-11.9,30.7-18.2v163.5H184.9v-78.1
			c9.9,0.4,19.2,1.1,26.6,1.5c17.5,0.9,24.9,1.1,34.6,4.8s22.1,11,35.9,18.2c13.8,7.1,29,14.3,39.4,18.2c10.4,3.9,15.8,5,23.4,4.1
			c7.4-0.9,16.6-3.5,22.9-6.3s9.5-5.8,14.1-6.7c4.5-0.9,10.4,0.4,15.4-0.6c5-1.1,8.9-4.8,11.9-8.2s4.8-6.7,8.2-7.8
			c3.5-1.1,8.4,0,12.3,0.2c3.9,0,7.1-0.9,11.9-4.8c4.8-3.9,11.5-10.4,17.1-17.5s9.9-14.5,11.9-18.2c2.2-3.9,1.9-3.9-10.2-2.6
			s-36.3,4.1-50.6,6.1c-14.3,1.7-18.4,2.6-21.6,1.5s-5.6-4.1-9.5-9.5c-4.1-5.4-9.9-13.2-12.8-17.3c-2.8-3.9-2.4-4.1-0.9-4.1
			s4.5,0.2,11.2,1.3c6.9,1.1,17.7,3.2,27,3.9c9.5,0.6,17.3,0,24.4-3.7c6.9-3.5,12.8-9.7,15.4-14.5c2.4-4.8,1.5-7.8-3.9-9.5
			c-5.4-1.9-15.4-2.6-26.2-4.8c-11-2.2-22.9-5.6-32.6-8.2c-9.7-2.8-17.3-4.8-26.2-5.8c-8.6-1.1-18.6-1.1-29.6-0.6
			c-11,0.4-23.1,1.5-31.4,3.9c-8,2.4-12.1,6.3-18.6,8.2s-15.8,2.2-25.3,1.1c-9.5-1.1-19.5-3.2-45.2-13.4c-5.8-2.2-12.3-4.8-19.2-7.8
			v-45.6c1.9,1.1,4.1,2.2,6.3,3.2c11.7,5.8,28.5,11.5,40.9,14.3c4.5,1.1,8.4,1.7,11.9,2.2V181c-0.9,0-1.9,0-2.8,0
			c-9.7,0.2-22.3,0.6-34.2,1.7c-7.6,0.9-15.4,1.9-21.8,3L184.9,12.8L184.9,12.8z"/>
		<path class="st1" d="M244,118.5l109.2,56.4v162.4c-8.4-0.9-17.9-0.9-28.5-0.4c-11,0.4-23.1,1.5-31.4,3.9c-8,2.4-12.1,6.3-18.6,8.2
			s-15.8,2.2-25.3,1.1c-1.7-0.2-3.5-0.4-5.4-0.6C244,349.4,244,118.5,244,118.5z"/>
		<polygon class="st2" points="283.3,138.6 312.5,153.7 312.5,229.9 283.3,214.1 		"/>
		<path class="st3" d="M812,118.5l-458.8,56.2v162.4l1.1,0.2c8.6,1.1,16.4,3.2,26.2,5.8c9.7,2.8,21.8,6.3,32.6,8.2
			c11,2.2,20.8,2.8,26.2,4.8c5.4,1.9,6.3,5,3.9,9.5c-2.4,4.8-8.4,11-15.4,14.5c-6.9,3.5-14.9,4.3-24.4,3.7s-20.3-2.8-27-3.9
			c-6.9-1.1-9.7-1.3-11.2-1.3s-1.9,0.2,0.9,4.1c2.8,3.9,8.6,11.9,12.8,17.3c4.1,5.4,6.3,8.4,9.5,9.5c3.2,1.1,7.4,0.4,21.6-1.5
			c14.3-1.7,38.3-4.8,50.6-6.1c6.9-0.9,9.9-1.1,11-0.4l267.5-32.9c0.6-0.4,3.2-0.9,8.4-1.5c11.7-1.7,35.5-4.5,48.2-6.1
			s14.1-1.9,14.9-6.5c0.6-4.5,0.6-13.2,0.9-18.6c0.2-4.1,0.4-6.5,1.1-8v-28.1c-4.1-0.4-9.1-0.6-14.3-1.5c-8.4-1.3-17.1-4.3-21.8-9.3
			c-4.8-5-5.6-11.9-3.5-17.1c1.9-5.2,6.9-8.9,10.8-10.2c4.1-1.3,7.4-0.2,13.2,1.5c4.3,1.3,9.9,2.8,15.6,4.5V118.5H812z"/>
		<polygon class="st4" points="702.8,61.9 244,118.3 244,118.5 353.2,174.7 702.8,131.9 812,118.5 812,118.1 702.8,61.6 		"/>
		<polygon class="st5" points="281.6,137.7 313.4,154.2 770,96.4 738.3,80 		"/>
		<polygon class="st6" points="735.9,174.5 471.9,216 483.1,387.7 740.6,339.9 		"/>
		<g>
			<polygon class="st7" points="485.3,282.6 730.5,243.3 731.1,247.2 485.9,286.5 			"/>
			<path class="st7" d="M634.9,197.4l79.1-12.8c0.4,0,0.6,0,0.9,0c1.3,0,2.6,0.4,3.5,1.3l0,0c0.9,0.9,1.5,1.9,1.7,3.2
				c0,0.4,0,0.6,0,1.1V230c0,1.7-0.6,3.2-1.7,4.5s-2.6,2.2-4.3,2.4L635,249.7c-0.4,0-0.6,0-0.9,0c-1.3,0-2.6-0.4-3.5-1.3
				c-0.9-0.9-1.5-1.9-1.7-3.2c0-0.4,0-0.6,0-1.1v-39.8c0-1.7,0.6-3.2,1.7-4.5C631.7,198.5,633.2,197.6,634.9,197.4L634.9,197.4z
				 M714.3,186.2l-79.1,13c-1.3,0.2-2.4,0.9-3.2,1.9c-0.9,0.9-1.3,2.2-1.3,3.5v39.8c0,0.2,0,0.4,0,0.6l0,0c0.2,0.9,0.6,1.7,1.1,2.2
				c0.6,0.4,1.3,0.9,2.4,0.9c0.2,0,0.4,0,0.6,0l79.1-12.8c1.3-0.2,2.4-0.9,3.2-1.9c0.9-0.9,1.3-2.2,1.3-3.5v-40c0-0.2,0-0.4,0-0.6
				c-0.2-0.9-0.6-1.7-1.1-2.2l0,0c-0.6-0.4-1.3-0.9-2.4-0.9C714.7,186.2,714.5,186.2,714.3,186.2z"/>
			<polygon class="st7" points="491.8,343.4 571.1,328.7 571.5,330.4 492,345.1 			"/>
			<polygon class="st7" points="492.4,349.4 571.8,334.7 572.2,336.5 492.6,351.2 			"/>
			<polygon class="st7" points="492.8,355.5 572.4,340.8 572.6,342.7 493.3,357.4 			"/>
			<polygon class="st7" points="493.5,361.8 572.8,347.1 573.3,348.8 493.9,363.5 			"/>
			<polygon class="st7" points="494.1,367.8 573.5,353.1 573.9,354.8 494.4,369.5 			"/>
			<polygon class="st7" points="494.6,373.9 574.1,359.2 574.4,360.9 495,375.6 			"/>
			<polygon class="st7" points="648.5,325 728.1,310.3 728.3,312.2 649,326.7 			"/>
			<polygon class="st7" points="649.2,331.3 728.5,316.6 729,318.3 649.4,333 			"/>
			<polygon class="st7" points="649.8,337.3 729.2,322.6 729.6,324.3 650,339.1 			"/>
			<polygon class="st7" points="650.3,343.4 729.8,328.7 730,330.4 650.7,345.1 			"/>
			<polygon class="st7" points="635.3,208.9 714.7,194.2 715.1,195.9 635.6,210.6 			"/>
			<polygon class="st7" points="635.3,218.6 714.7,203.9 715.1,205.6 635.6,220.3 			"/>
			<polygon class="st7" points="635.3,228.1 714.7,213.4 715.1,215.4 635.6,230.1 			"/>
			<polygon class="st7" points="635.3,237.9 714.7,223.2 715.1,224.9 635.6,239.6 			"/>
		</g>
	</g>
</g>
<g>
	<path class="st3" d="M180.7,541.3h-55.2l-32.8,56.8L89,541.3H36.6c0.8,2.5,1,3.6,1,5.6c0,1.2-0.1,2.8-0.3,5
		c-0.3,1.4-0.5,2.5-0.6,3.1L18,627.3c-1.6,6.1-3.1,10.1-4.8,13.4c-0.6,1.1-1.2,2-2.8,4.3H34c-0.8-2.5-1-3.4-1-5.6
		c0-1.2,0.1-2.8,0.3-5c0.3-1.2,0.5-2.3,0.6-3.1l17.6-67.8l5.3,81.5h28.1l47.3-81.8l-16.6,64.1c-1.6,6.1-3.1,10.1-4.8,13.4
		c-0.6,1.1-1.2,2-2.8,4.3h46.5c-0.8-2.5-1-3.4-1-5.6c0-1.1,0.1-2.8,0.3-5c0.3-1.2,0.5-2.3,0.6-3.1l18.7-72.3
		c1.6-6.1,3.1-10.1,4.8-13.2C178.5,544.7,179.1,543.8,180.7,541.3L180.7,541.3z M238.1,541.3c-1.6,2.5-2.2,3.4-2.8,4.5
		c-1.7,3.1-3.1,7.2-4.7,13.2l-18.8,72.3c-0.1,0.8-0.3,1.9-0.5,3.1c-0.3,2.2-0.5,3.9-0.5,5c0,2.2,0.1,3.1,1.1,5.6h-46.5
		c1.6-2.3,2.2-3.2,2.8-4.3c1.7-3.2,3.1-7.3,4.7-13.4l18.9-72.3c0.1-0.6,0.3-1.7,0.5-3.1c0.3-2.2,0.5-3.7,0.5-5c0-2-0.1-3.1-1.1-5.6
		L238.1,541.3L238.1,541.3z M284.1,597.2h-54.7l-4.7,18.5h54.7L284.1,597.2L284.1,597.2z M395.7,541.3l-2.3,19.8
		c-2.6-1.4-3.7-1.9-5.4-2.2c-1.7-0.1-4.7-0.5-7-0.5h-38.1l-6.5,25.4H375c3.6,0,6.8-0.5,10.3-1.6l-5.2,20.8
		c-3.4-1.7-5.7-2.2-12.3-2.2H332l-7,27.1h40.7c4.3,0,7-0.5,11-2.3l-7.6,19.4h-91.4c1.6-2.3,2.2-3.2,2.8-4.3
		c1.7-3.2,3.1-7.3,4.7-13.4L304,555c0.1-0.6,0.3-1.7,0.5-3.1c0.3-2.2,0.5-3.7,0.5-5c0-2-0.1-3.1-1.1-5.6L395.7,541.3L395.7,541.3z
		 M523.1,541.3h-30.5c-1.7,3.6-3.1,5.6-6.2,8.3l-27.5,23.3l-5.6-12.3l-2-4.2c-1.6-3.1-2.5-7.9-2.5-11c0-1.2,0.1-2.2,0.6-4.1h-50.9
		c3.2,4.2,4.3,5.9,6.8,10.1c1.9,3,3.4,5.7,4.7,8.5c0.3,0.5,1.7,3.2,4.2,8.7l14,30.2l-35.4,30c-3.2,2.8-9.5,7.6-12.7,9.8
		c-3.4,2.3-5.6,3.6-11,6.4h34.4c1.9-4.3,3-6.1,7.9-10.3l24-20.5l5,10.5c1.7,3.6,4.1,9.5,4.7,12.3c0.3,1.2,0.6,3.4,0.6,5.1
		c0,1,0,1.4-0.3,2.8h50.7c-3.4-3.6-4.7-5.3-6.4-8.4c-0.8-1.4-1.6-3-2.6-4.8c-1.1-2.2-1.9-3.6-2.2-4.3l-19.3-38.7l43.6-36.9l3.2-2.8
		l4.1-3.1l4.1-2.8L523.1,541.3L523.1,541.3z M632.9,560.1c0,2.2-0.1,3-1.2,7.2l-4.7,18.3c-1.9,7.2-2.2,7.8-4.3,11.5
		c-4.5,7.6-11.9,11.2-23.2,11.2h-5h-42.2l-6.1,23c-0.1,0.8-0.3,1.9-0.5,3.1c-0.3,2.2-0.5,3.9-0.5,5.1c0,2,0.1,3,1.1,5.4h-46.5
		c1.6-2.3,2.2-3.2,2.8-4.3c1.7-3.2,3.1-7.3,4.7-13.4l18.8-72.3c0.1-0.6,0.3-1.7,0.5-3.1c0.3-2.2,0.5-3.7,0.5-5c0-2-0.1-3.1-1.1-5.6
		h81.7c1.9,0,3.4,0,4.7,0.1c7.6,0.1,13.1,2.5,16.6,7.3C631.5,551.9,632.9,556.2,632.9,560.1L632.9,560.1z M592.5,563.5
		c0-1.4-0.5-2.3-1.2-3.4c-1.1-1.4-2.5-1.7-6.8-1.7h-19.2l-8.5,32.8h18.7c8.7,0,10.5-1.4,12.7-9.6l3.9-14.7
		C592.3,565.7,592.5,564.5,592.5,563.5L592.5,563.5z M752.1,560.1c0-4.3-2.5-9.6-6.2-13.2c-4.2-4.1-8.9-5.6-16.6-5.6h-4.7H647
		c1,2.5,1.1,3.6,1.1,5.6c0,1.2-0.1,2.8-0.5,5c-0.1,1.4-0.3,2.5-0.5,3.1l-18.8,72.3c-1.6,6.1-3,10.1-4.7,13.4c-0.6,1.1-1.2,2-2.8,4.3
		h46.5c-1-2.5-1.1-3.4-1.1-5.4c0-1.2,0.1-3,0.5-5.1c0.1-1.2,0.3-2.3,0.5-3.1l8.1-30.9h10.1l8.5,44.7h43.8c-4.1-4.1-5.3-6.2-6.4-11.9
		l-6.7-32.8c1.2,0,2.2,0.1,2.8,0.1c4.3,0,8.4-1,11.6-2.8c3.6-2,4.7-3.6,6.5-9.9l1-3.2l4.5-17.6c0.1-0.6,0.3-1.7,0.5-3.2
		C752,562,752.1,560.9,752.1,560.1L752.1,560.1z M712,562.4c0,1-0.1,2-0.5,3.4l-2.6,10.4c-1,3.7-1.6,4.5-3.6,5.6
		c-1.6,0.8-2.3,1-6.1,1h-19.4l6.4-24.4h19.9C710.5,558.4,712,559.5,712,562.4L712,562.4z M861.8,541.3l-2.3,19.8
		c-2.6-1.4-3.7-1.9-5.4-2.2c-1.7-0.1-4.7-0.5-7-0.5H809l-6.5,25.4h38.6c3.6,0,6.8-0.5,10.3-1.6l-5.3,20.8c-3.4-1.7-5.7-2.2-12.3-2.2
		H798l-7,27.1h40.7c4.3,0,7-0.5,11-2.3l-7.6,19.4h-91.4c1.6-2.3,2.2-3.2,2.8-4.3c1.7-3.2,3.1-7.3,4.7-13.4l19-72.3
		c0.1-0.6,0.3-1.7,0.5-3.1c0.3-2.2,0.5-3.7,0.5-5c0-2-0.1-3.1-1.1-5.6L861.8,541.3L861.8,541.3z M968.2,541.3h-72.9
		c-3.9,0-9.2,0.8-12.3,1.6c-2.2,0.6-4.3,1.6-6.7,3c-5,3.2-8.7,8.3-10.1,13.1l-1.1,3.9l-6.2,24c-1.7,6.5-2,9-2,12.1
		c0,9.3,6.5,14.1,19.4,14.1h25h4.2c4.1,0,5.9,1.2,5.9,3.7c0,1-0.3,2-0.8,4.5c-0.3,1.2-0.8,2.5-1.4,3.6c-1,2.2-2.3,3.1-4.8,3.1h-3
		h-33.8h-7c-2,0-4.1-0.5-6.2-1.2c-1.9-0.6-3-1.1-5.4-2.6l-3,21h68.4h5.4c10.1,0,14.5-1.1,19.4-4.7c2.8-2,5-4.3,6.2-6.8
		c1-2,2.8-7.4,3.7-11.2l6.8-26.5c1.2-4.7,1.4-5.3,1.4-8.1c0-3.9-1-6.2-3.4-9.2c-3.1-3.6-6.1-4.7-13.2-4.7h-31.6
		c-4.3,0-6.2-1.1-6.2-3.9c0-0.8,0.3-1.9,0.8-3.6l1-3.4c1.1-3.7,3-4.7,8.5-4.7h36.4c3.7,0,7.4,0.5,10.1,1.2c2,0.6,3.4,1.2,5.9,3.1
		L968.2,541.3L968.2,541.3z M1077.9,541.3l-2.3,21.4c-2.5-1.9-3.9-2.5-5.9-3.1c-2.6-0.8-6.4-1.2-10.1-1.2h-36.4
		c-5.6,0-7.4,1-8.5,4.7l-1,3.4c-0.5,1.7-0.8,2.8-0.8,3.6c0,2.8,1.9,3.9,6.2,3.9h31.6c7.2,0,10.1,1.1,13.2,4.7c2.5,3,3.4,5.3,3.4,9.2
		c0,2.8-0.1,3.4-1.4,8.1l-6.8,26.5c-1,3.7-2.8,9.2-3.7,11.2c-1.2,2.5-3.4,4.8-6.2,6.8c-5,3.6-9.3,4.7-19.4,4.7h-5.4H956l3-21
		c2.5,1.6,3.6,2,5.4,2.6c2.2,0.8,4.2,1.2,6.2,1.2h7h33.8h3c2.5,0,3.9-1,4.8-3.1c0.6-1.1,1.1-2.3,1.4-3.6c0.5-2.5,0.8-3.6,0.8-4.5
		c0-2.5-1.9-3.7-5.9-3.7h-4.2h-25c-12.9,0-19.4-4.8-19.4-14.1c0-3.1,0.3-5.6,2-12.1l6.2-24l1.1-3.9c1.4-4.8,5.1-9.8,10.1-13.1
		c2.3-1.4,4.5-2.3,6.7-3c3.1-0.8,8.4-1.6,12.3-1.6H1077.9L1077.9,541.3z"/>
	<path class="st6" d="M180.7,541.3h-55.2l-28.2,48.8h19.4l15.5-26.9l-7,26.9H165l8-31.1c1.6-6.1,3.1-10.1,4.8-13.2
		C178.5,544.7,179.1,543.8,180.7,541.3L180.7,541.3z M92.2,590.1L89,541.3H36.6c0.8,2.5,1,3.6,1,5.6c0,1.2-0.1,2.8-0.3,5
		c-0.3,1.4-0.5,2.5-0.6,3.1l-9,35.1h17.1l6.9-26.5l1.7,26.5L92.2,590.1L92.2,590.1z M1067.3,590.1h-99.5c0.2-1,0.5-2.1,0.8-3.4
		l6.2-24l1.1-3.9c1.4-4.8,5.1-9.8,10.1-13.1c2.3-1.4,4.5-2.3,6.7-3c3.1-0.8,8.4-1.6,12.3-1.6h73l-2.3,21.4c-2.5-1.9-3.9-2.5-5.9-3.1
		c-2.6-0.8-6.4-1.2-10.1-1.2h-36.4c-5.6,0-7.4,1-8.5,4.7l-1,3.4c-0.5,1.7-0.8,2.8-0.8,3.6c0,2.8,1.9,3.9,6.2,3.9h31.6
		c7.2,0,10.1,1.1,13.2,4.7c2.5,3,3.4,5.3,3.4,9.2C1067.4,588.7,1067.3,589.4,1067.3,590.1L1067.3,590.1z M957.5,590.1
		c0.1-0.7,0.1-1.4,0.1-2.3c0-3.9-1-6.2-3.4-9.2c-3.1-3.6-6.1-4.7-13.2-4.7h-31.6c-4.3,0-6.2-1.1-6.2-3.9c0-0.8,0.3-1.9,0.8-3.6
		l1-3.4c1.1-3.7,3-4.7,8.5-4.7h36.4c3.7,0,7.4,0.5,10.1,1.2c2,0.6,3.4,1.2,5.9,3.1l2.3-21.4h-72.9c-3.9,0-9.2,0.8-12.3,1.6
		c-2.2,0.6-4.3,1.6-6.7,3c-5,3.2-8.7,8.3-10.1,13.1l-1.1,3.9l-6.2,24c-0.3,1.2-0.6,2.4-0.8,3.4L957.5,590.1L957.5,590.1z
		 M849.2,590.1h-88.5l9.2-35.1c0.1-0.6,0.3-1.7,0.5-3.1c0.3-2.2,0.5-3.7,0.5-5c0-2-0.1-3.1-1.1-5.6h92.1l-2.3,19.8
		c-2.6-1.4-3.7-1.9-5.4-2.2c-1.7-0.1-4.7-0.5-7-0.5h-38.1l-6.5,25.4H841c3.6,0,6.8-0.5,10.3-1.6L849.2,590.1L849.2,590.1z
		 M745.1,590.1h-107l9.2-35.1c0.1-0.6,0.3-1.7,0.5-3.1c0.3-2.2,0.5-3.7,0.5-5c0-2-0.1-3.1-1.1-5.6h77.6h4.7c7.8,0,12.5,1.6,16.6,5.6
		c3.7,3.6,6.2,8.9,6.2,13.2c0,0.8-0.1,1.9-0.5,3.6c-0.1,1.6-0.3,2.6-0.5,3.2l-4.5,17.6l-1,3.2C745.5,588.7,745.3,589.4,745.1,590.1
		L745.1,590.1z M625.8,590.1h-42.6c2.5-1.2,3.7-3.7,4.9-8.5l3.9-14.7c0.3-1.1,0.5-2.3,0.5-3.2c0-1.4-0.5-2.3-1.2-3.4
		c-1.1-1.4-2.5-1.7-6.8-1.7h-19.1l-8.3,31.7h-39.9l9.2-35.1c0.1-0.6,0.3-1.7,0.5-3.1c0.3-2.2,0.5-3.7,0.5-5c0-2-0.1-3.1-1.1-5.6H608
		c1.9,0,3.4,0,4.7,0.1c7.6,0.1,13.1,2.5,16.6,7.3c2.5,3.1,3.9,7.4,3.9,11.4c0,2.2-0.1,3-1.2,7.2l-4.7,18.3
		C626.5,587.5,626.1,589,625.8,590.1L625.8,590.1z M466.2,590.1l-0.7-1.4l43.6-36.9l3.2-2.8l4.1-3.1l4.1-2.8l2.6-1.9h-30.5
		c-1.7,3.6-3.1,5.6-6.2,8.3l-27.5,23.3l-5.6-12.3l-2-4.2c-1.6-3.1-2.5-7.9-2.5-11c0-1.2,0.1-2.2,0.6-4.1h-50.9
		c3.2,4.2,4.3,5.9,6.8,10.1c1.9,3,3.4,5.7,4.7,8.5c0.3,0.5,1.7,3.2,4.2,8.7l9.9,21.4L466.2,590.1L466.2,590.1z M383.2,590.1h-88.5
		l9.2-35.1c0.1-0.6,0.3-1.7,0.5-3.1c0.3-2.2,0.5-3.7,0.5-5c0-2-0.1-3.1-1.1-5.6h92l-2.3,19.8c-2.6-1.4-3.7-1.9-5.4-2.2
		c-1.7-0.1-4.7-0.5-7-0.5H343l-6.5,25.4h38.6c3.6,0,6.8-0.5,10.3-1.6L383.2,590.1L383.2,590.1z M222.5,590.1h-39.9l9.2-35.1
		c0.1-0.6,0.3-1.7,0.5-3.1c0.3-2.2,0.5-3.7,0.5-5c0-2-0.1-3.1-1.1-5.6h46.5c-1.6,2.5-2.2,3.4-2.8,4.5c-1.7,3.1-3.1,7.2-4.7,13.2
		L222.5,590.1L222.5,590.1z M712,562.4c0-3-1.6-4.1-5.9-4.1h-19.9l-6.4,24.4h19.4c3.7,0,4.5-0.1,6.1-1c2-1.1,2.6-1.9,3.6-5.6
		l2.6-10.4C711.9,564.5,712,563.4,712,562.4z"/>
	<path class="st3" d="M30,666.5H16.8c-4.3,0-7.5,0.9-9.6,2.6c-2,1.7-3,4.5-3,8.2c0,1.2,0.2,2.3,0.6,3.1c0.3,0.8,1,1.4,1.7,1.9
		c0.8,0.5,1.7,0.8,2.8,1c1.1,0.2,2.4,0.3,3.9,0.4l12.3,0.6c1.8,0.1,3,0.3,3.6,0.7c0.6,0.4,1,1,1,1.7c0,0.6-0.1,1.1-0.2,1.6
		s-0.4,0.9-0.8,1.2c-0.4,0.3-1,0.6-1.7,0.8c-0.7,0.2-1.6,0.3-2.8,0.3h-12c-0.9,0-1.7-0.2-2.3-0.6c-0.6-0.4-0.9-0.9-0.9-1.6
		c0-0.1,0-0.3,0.1-0.3H2.3c-0.1,0.5-0.1,0.9-0.2,1.2C2,689.6,2,689.9,2,690.1c0,0.9,0.1,1.7,0.5,2.5c0.3,0.8,0.8,1.4,1.5,2.1
		c0.7,0.6,1.7,1,2.8,1.4c1.1,0.3,2.5,0.6,4.1,0.6h14.9c2.3,0,4.3-0.3,5.9-0.8s2.8-1.2,3.7-2.3c0.9-1,1.5-2.2,1.9-3.7
		c0.4-1.4,0.6-3.1,0.6-5c0-1.1-0.2-2-0.6-2.8s-1-1.4-1.7-2s-1.5-1-2.5-1.2c-1-0.3-2-0.4-3.1-0.5l-14.4-0.6c-0.4,0-0.8-0.1-1.2-0.1
		c-0.4-0.1-0.7-0.1-1-0.3s-0.5-0.3-0.6-0.6c-0.1-0.3-0.2-0.6-0.2-1.1c0-0.8,0.1-1.3,0.4-1.8c0.3-0.4,0.6-0.8,1-1s0.8-0.3,1.3-0.4
		s1-0.1,1.4-0.1h12.1c1.3,0,2.2,0.1,2.6,0.4s0.7,0.8,0.7,1.4c0,0.1,0,0.2,0,0.3s0,0.3-0.1,0.4h7.7c0.1-0.3,0.1-0.7,0.1-1
		s0.1-0.6,0.1-1c0-1.9-0.8-3.5-2.4-4.7C35.8,667.2,33.3,666.5,30,666.5L30,666.5z M46,666.5l-5.3,30h30.7l1-6H49l1.2-6.5h22.7l1.1-6
		H51.2l1-5.5h23.6l1-6H46L46,666.5z M111.3,688.1c0,0.3,0,0.7-0.1,1.1c0,0.4-0.1,0.9-0.2,1.6l-1,5.9h-7.2l0.8-4.1
		c0.1-0.5,0.1-0.8,0.2-1.1c0-0.3,0.1-0.5,0.1-0.6c0-2.1-1.4-3.2-4.3-3.2H85.4l-1.6,9h-7.2l5.3-30h21.8c1.7,0,3.1,0.2,4.3,0.7
		c1.2,0.4,2.3,1,3,1.9c0.8,0.8,1.4,1.7,1.8,2.8c0.4,1,0.6,2.1,0.6,3.3c0,2.3-0.3,4.3-0.9,5.9c-0.6,1.6-1.6,2.8-3,3.6
		c0.6,0.2,1,0.6,1.4,1.2C111.1,686.4,111.3,687.2,111.3,688.1L111.3,688.1z M106.1,676.5c0-0.9-0.3-1.7-0.8-2.1
		c-0.6-0.5-1.4-0.7-2.8-0.7h-15l-1.2,6.8H102c0.6,0,1.2-0.1,1.7-0.1c0.5-0.1,1-0.3,1.3-0.6c0.3-0.3,0.7-0.7,0.9-1.2
		C106,678.1,106.1,677.4,106.1,676.5L106.1,676.5z M126,666.5h-8l10.2,30h11.4l20.9-30H152l-17.4,24.9L126,666.5L126,666.5z
		 M158.7,696.6l5.3-30h7.2l-5.3,30H158.7L158.7,696.6z M183.2,696.7H195c2.3,0,4.3-0.2,5.9-0.6c1.6-0.3,2.8-0.9,3.8-1.7
		c1-0.8,1.7-1.9,2.3-3.2c0.6-1.3,1-3,1.3-5h-7.4c-0.1,0.8-0.3,1.5-0.6,2.1c-0.3,0.6-0.7,0.9-1.3,1.2c-0.6,0.3-1.4,0.5-2.4,0.6
		s-2.3,0.1-3.9,0.1h-5.9c-2.1,0-3.7-0.3-4.6-0.8c-1-0.5-1.5-1.4-1.5-2.7c0-0.8,0.1-1.9,0.1-3c0.1-1.2,0.3-2.6,0.6-4.3
		c0.2-1.2,0.5-2.2,0.8-3s0.7-1.4,1.2-1.9c0.6-0.5,1.2-0.8,2.1-1c0.8-0.2,1.9-0.3,3.2-0.3h6.9c1.4,0,2.7,0.1,3.6,0.2s1.7,0.3,2.1,0.5
		c0.6,0.2,0.9,0.5,1,0.8c0.2,0.3,0.3,0.7,0.3,1.2c0,0.1,0,0.3,0,0.4s-0.1,0.3-0.1,0.5h7.4c0.1-0.7,0.3-1.3,0.3-1.9
		c0.1-0.6,0.1-1,0.1-1.2c0-1.2-0.2-2.3-0.7-3.2c-0.4-0.9-1.2-1.7-2.1-2.3c-1-0.6-2.3-1-3.8-1.3s-3.4-0.4-5.6-0.4h-7.5
		c-3,0-5.4,0.1-7.3,0.5c-1.9,0.3-3.4,0.9-4.7,1.8c-1.2,0.9-2.1,2.1-2.8,3.7c-0.7,1.6-1.2,3.7-1.7,6.2c-0.3,1.7-0.6,3.4-0.8,5.1
		s-0.3,3.2-0.3,4.4c0,1.2,0.2,2.4,0.6,3.4c0.4,1,1,1.9,1.9,2.6c0.8,0.7,1.9,1.3,3.2,1.7C180,696.5,181.5,696.7,183.2,696.7
		L183.2,696.7z M212.4,696.6h7.2l5.3-30h-7.2L212.4,696.6L212.4,696.6z M256.2,677c0,0.2,0,0.6-0.1,1c0,0.5-0.1,1-0.1,1.6
		c-0.1,0.6-0.1,1.2-0.2,1.9c-0.1,0.6-0.1,1.3-0.3,1.9c-0.3,1.4-0.6,2.6-0.9,3.4c-0.3,0.9-0.8,1.5-1.5,2s-1.5,0.8-2.6,1
		c-1.1,0.1-2.5,0.2-4.3,0.2h-5.7c-1.2,0-2.3-0.1-3.2-0.1c-0.8-0.1-1.5-0.3-2.1-0.6c-0.5-0.3-0.9-0.7-1.1-1.2c-0.2-0.6-0.3-1.2-0.3-2
		c0-0.6,0.1-1.4,0.3-2.5c0.2-1.2,0.5-2.8,0.9-4.8c0.2-1,0.4-1.9,0.8-2.6c0.3-0.7,0.8-1.2,1.3-1.7c0.6-0.4,1.4-0.7,2.5-0.9
		c1-0.2,2.4-0.3,4.1-0.3h5.3c1.4,0,2.5,0.1,3.5,0.2c0.9,0.1,1.7,0.3,2.2,0.6c0.6,0.3,0.9,0.7,1.1,1.2
		C256.1,675.6,256.2,676.3,256.2,677L256.2,677z M248.4,696.6c2.2,0,4.1-0.1,5.7-0.4s3-0.8,4.1-1.6c1.1-0.8,2-1.9,2.7-3.4
		s1.2-3.4,1.7-5.8c0.2-1.1,0.3-2.1,0.5-3.2c0.1-1,0.2-2.1,0.3-3c0.1-1,0.1-1.8,0.2-2.5c0.1-0.8,0.1-1.4,0.1-1.9
		c0-1.2-0.2-2.2-0.6-3.2s-1-1.9-2-2.6c-0.9-0.8-2.1-1.3-3.6-1.7c-1.4-0.4-3.3-0.6-5.4-0.6h-7.6c-3,0-5.4,0.2-7.3,0.6
		c-1.9,0.3-3.5,1-4.8,2c-1.2,1-2.2,2.2-2.8,3.8c-0.7,1.6-1.2,3.6-1.7,6.1c-0.3,1.6-0.6,3.2-0.8,4.9s-0.3,3.2-0.3,4.3
		c0,1.4,0.2,2.6,0.6,3.7c0.4,1,1.1,1.9,2.1,2.7c1,0.7,2.2,1.2,3.8,1.7c1.6,0.3,3.5,0.6,5.8,0.6h9.4v-0.5H248.4z M267.1,688.2h8.3
		l-1.7,9.7c-0.3,1.4-0.8,2.5-1.5,3.4c-0.8,0.8-1.7,1.4-2.6,1.9c-1,0.4-2.1,0.8-3.2,0.9c-1.2,0.1-2.3,0.2-3.3,0.2l0.7-4
		c0.3,0,0.8,0,1.2-0.1c0.4-0.1,0.8-0.2,1-0.3c0.3-0.2,0.6-0.4,0.8-0.7c0.3-0.3,0.4-0.7,0.5-1.2l0.3-1.3h-1.9L267.1,688.2
		L267.1,688.2z M313.8,696.7h11.8c2.3,0,4.3-0.2,5.9-0.6c1.6-0.3,2.8-0.9,3.8-1.7c1-0.8,1.7-1.9,2.3-3.2c0.6-1.3,1-3,1.3-5h-7.4
		c-0.1,0.8-0.3,1.5-0.6,2.1s-0.7,0.9-1.3,1.2c-0.6,0.3-1.4,0.5-2.4,0.6s-2.3,0.1-3.9,0.1h-5.9c-2.1,0-3.7-0.3-4.6-0.8
		c-1-0.5-1.5-1.4-1.5-2.7c0-0.8,0.1-1.9,0.1-3c0.1-1.2,0.3-2.6,0.6-4.3c0.2-1.2,0.5-2.2,0.8-3s0.7-1.4,1.2-1.9
		c0.6-0.5,1.2-0.8,2.1-1c0.8-0.2,1.9-0.3,3.2-0.3h6.9c1.4,0,2.7,0.1,3.6,0.2s1.7,0.3,2.1,0.5c0.6,0.2,0.9,0.5,1,0.8
		c0.2,0.3,0.3,0.7,0.3,1.2c0,0.1,0,0.3,0,0.4s-0.1,0.3-0.1,0.5h7.4c0.1-0.7,0.3-1.3,0.3-1.9c0.1-0.6,0.1-1,0.1-1.2
		c0-1.2-0.2-2.3-0.7-3.2c-0.4-0.9-1.2-1.7-2.1-2.3c-1-0.6-2.3-1-3.8-1.3s-3.4-0.4-5.6-0.4H321c-3,0-5.4,0.1-7.3,0.5
		c-1.9,0.3-3.4,0.9-4.7,1.8c-1.2,0.9-2.1,2.1-2.8,3.7c-0.7,1.6-1.2,3.7-1.7,6.2c-0.3,1.7-0.6,3.4-0.8,5.1c-0.2,1.7-0.3,3.2-0.3,4.4
		c0,1.2,0.2,2.4,0.6,3.4s1,1.9,1.9,2.6c0.8,0.7,1.9,1.3,3.2,1.7C310.5,696.5,312,696.7,313.8,696.7L313.8,696.7z M372.6,677
		c0,0.2,0,0.6-0.1,1c0,0.5-0.1,1-0.1,1.6c-0.1,0.6-0.1,1.2-0.2,1.9c-0.1,0.6-0.1,1.3-0.3,1.9c-0.3,1.4-0.6,2.6-0.9,3.4
		c-0.3,0.9-0.8,1.5-1.5,2s-1.5,0.8-2.6,1c-1.1,0.1-2.5,0.2-4.3,0.2h-5.7c-1.2,0-2.3-0.1-3.2-0.1c-0.8-0.1-1.5-0.3-2.1-0.6
		c-0.5-0.3-0.9-0.7-1.1-1.2c-0.2-0.6-0.3-1.2-0.3-2c0-0.6,0.1-1.4,0.3-2.5c0.2-1.2,0.5-2.8,0.9-4.8c0.2-1,0.4-1.9,0.8-2.6
		c0.3-0.7,0.8-1.2,1.3-1.7c0.6-0.4,1.4-0.7,2.5-0.9c1-0.2,2.4-0.3,4.1-0.3h5.3c1.4,0,2.5,0.1,3.5,0.2c0.9,0.1,1.7,0.3,2.2,0.6
		c0.6,0.3,0.9,0.7,1.1,1.2C372.4,675.6,372.6,676.3,372.6,677L372.6,677z M364.7,696.6c2.2,0,4.1-0.1,5.7-0.4s3-0.8,4.1-1.6
		c1.1-0.8,2-1.9,2.7-3.4c0.7-1.4,1.2-3.4,1.7-5.8c0.2-1.1,0.3-2.1,0.5-3.2c0.1-1,0.2-2.1,0.3-3c0.1-1,0.1-1.8,0.2-2.5
		c0.1-0.8,0.1-1.4,0.1-1.9c0-1.2-0.2-2.2-0.6-3.2s-1-1.9-2-2.6c-0.9-0.8-2.1-1.3-3.6-1.7c-1.4-0.4-3.3-0.6-5.4-0.6h-7.6
		c-3,0-5.4,0.2-7.3,0.6c-1.9,0.3-3.5,1-4.8,2c-1.2,1-2.2,2.2-2.8,3.8c-0.7,1.6-1.2,3.6-1.7,6.1c-0.3,1.6-0.6,3.2-0.8,4.9
		s-0.3,3.2-0.3,4.3c0,1.4,0.2,2.6,0.6,3.7c0.4,1,1.1,1.9,2.1,2.7c1,0.7,2.2,1.2,3.8,1.7c1.6,0.3,3.5,0.6,5.8,0.6h9.4v-0.5H364.7z
		 M386.9,666.5l-5.3,30h7.2l3.9-22.5l18.8,22.5h8.6l5.3-30h-7.2l-3.8,21.2l-17.8-21.2H386.9L386.9,666.5z M430.8,666.5l-5.3,30h7.2
		l2.2-12.5h22.8l1.1-6H436l1-5.5h23.6l1-6H430.8L430.8,666.5z M461.9,696.6h7.2l5.3-30h-7.2L461.9,696.6L461.9,696.6z M472.6,696.6
		l20.8-30h11.4l10.2,30h-8.5l-2.4-7.2H486l-5,7.2H472.6L472.6,696.6z M498.5,672.2h-0.4l-7.9,11.2h12L498.5,672.2L498.5,672.2z
		 M523,666.5l-5.3,30h7.2l3.9-22.5l18.8,22.5h8.6l5.3-30h-7.2l-3.8,21.2l-17.8-21.2H523L523,666.5z M599.6,666.5l-1.1,6.1l-25.6,18
		h22.4l-1,6h-33.8l1-5.9l26.4-18.2h-23.2l1.1-6H599.6L599.6,666.5z M596.9,696.6h8.4l5-7.2h18.3l2.4,7.2h8.5l-10.2-30h-11.4
		L596.9,696.6L596.9,696.6z M622.7,672.2l3.7,11.2h-12l7.9-11.2H622.7L622.7,672.2z M675.7,666.5h-8.5l12.1,19.9l-1.8,10.1h7.2
		l1.8-10.1l19.6-19.9h-9l-13.2,13.6L675.7,666.5L675.7,666.5z M754.1,666.5h-13.2c-4.3,0-7.5,0.9-9.6,2.6c-2,1.7-3,4.5-3,8.2
		c0,1.2,0.2,2.3,0.6,3.1c0.3,0.8,1,1.4,1.7,1.9c0.8,0.5,1.7,0.8,2.8,1s2.4,0.3,3.9,0.4l12.3,0.6c1.8,0.1,3,0.3,3.6,0.7
		c0.6,0.4,1,1,1,1.7c0,0.6-0.1,1.1-0.2,1.6c-0.1,0.5-0.4,0.9-0.8,1.2c-0.4,0.3-1,0.6-1.7,0.8c-0.7,0.2-1.6,0.3-2.8,0.3h-12.1
		c-0.9,0-1.7-0.2-2.3-0.6s-0.9-0.9-0.9-1.6c0-0.1,0-0.3,0.1-0.3h-7.4c-0.1,0.5-0.1,0.9-0.2,1.2c-0.1,0.3-0.1,0.6-0.1,0.8
		c0,0.9,0.1,1.7,0.5,2.5c0.3,0.8,0.8,1.4,1.5,2.1c0.7,0.6,1.7,1,2.8,1.4s2.5,0.6,4.1,0.6h14.9c2.3,0,4.3-0.3,5.9-0.8
		c1.6-0.5,2.8-1.2,3.7-2.3c0.9-1,1.5-2.2,1.9-3.7c0.4-1.4,0.6-3.1,0.6-5c0-1.1-0.2-2-0.6-2.8c-0.4-0.8-1-1.4-1.7-2s-1.5-1-2.5-1.2
		s-2-0.4-3.1-0.5l-14.4-0.6c-0.4,0-0.8-0.1-1.2-0.1c-0.4-0.1-0.7-0.1-1-0.3c-0.3-0.1-0.5-0.3-0.6-0.6c-0.1-0.3-0.2-0.6-0.2-1.1
		c0-0.8,0.1-1.3,0.4-1.8c0.3-0.4,0.6-0.8,1-1s0.8-0.3,1.3-0.4s1-0.1,1.4-0.1h12.1c1.3,0,2.2,0.1,2.6,0.4c0.4,0.3,0.7,0.8,0.7,1.4
		c0,0.1,0,0.2,0,0.3s0,0.3-0.1,0.4h7.7c0.1-0.3,0.1-0.7,0.1-1s0.1-0.6,0.1-1c0-1.9-0.8-3.5-2.4-4.7
		C759.9,667.2,757.4,666.5,754.1,666.5L754.1,666.5z M770.1,666.5l-5.3,30h30.7l1-6H773l1.2-6.5h22.7l1.1-6h-22.8l1-5.5h23.6l1-6
		H770.1L770.1,666.5z M831.7,675.1c0,0.1,0,0.2,0,0.3c0,0.1,0,0.2-0.1,0.3h7.4c0.2-1,0.3-1.9,0.3-2.8c0-1.2-0.2-2.3-0.7-3.1
		c-0.5-0.8-1.2-1.5-2.3-2.1s-2.5-0.9-4.3-1.1s-3.9-0.3-6.5-0.3h-7.6c-2.5,0-4.5,0.2-6.2,0.6s-3.1,1.2-4.3,2.1
		c-1.2,1-2.1,2.4-2.8,4.1s-1.2,3.9-1.7,6.5c-0.3,1.9-0.6,3.5-0.7,4.9c-0.1,1.4-0.1,2.4-0.1,3.2c0,2.8,1,5,3,6.4s4.9,2.1,8.8,2.1h8.6
		c2.7,0,4.9-0.1,6.7-0.5c1.8-0.3,3.2-0.9,4.4-1.7c1.2-0.8,2.1-1.9,2.7-3.4c0.6-1.4,1.2-3.2,1.6-5.4l1.2-7.2h-18.3l-1,5.9h10.9
		l-0.3,1.8c-0.1,0.8-0.4,1.4-0.7,2s-0.8,0.9-1.3,1.2c-0.6,0.3-1.2,0.5-2.1,0.6c-0.8,0.1-1.7,0.1-2.8,0.1h-7.7c-1.2,0-2.2-0.1-3-0.2
		s-1.4-0.4-1.9-0.7c-0.5-0.3-0.8-0.7-1-1.2s-0.3-1.1-0.3-1.7s0.1-1.4,0.1-2.5c0.1-1.1,0.3-2.2,0.5-3.4c0.3-1.6,0.6-2.9,1-3.9
		s1-1.7,1.6-2.2c0.7-0.5,1.5-0.8,2.5-1c1-0.1,2.3-0.2,3.9-0.2h5.2c1.5,0,2.8,0,3.7,0.1c1,0.1,1.7,0.1,2.3,0.3c0.6,0.1,1,0.3,1.2,0.6
		C831.6,674.3,831.7,674.7,831.7,675.1L831.7,675.1z M852.4,666.5h-7.2l-3.1,17.8c-0.1,0.8-0.2,1.4-0.2,2.1s0,1.2,0,1.7
		c0,1.1,0.2,2.1,0.6,3.2s1,1.9,1.8,2.7c0.8,0.8,1.9,1.4,3.2,1.9s2.9,0.7,4.7,0.7h10.7c2.3,0,4.3-0.2,5.9-0.6s3-1,4.1-1.8
		s2-1.9,2.6-3.3s1.2-3,1.5-5l3.4-19.4h-7.2l-3.2,18.6c-0.2,1-0.4,1.9-0.8,2.6s-0.8,1.2-1.4,1.7c-0.6,0.4-1.3,0.7-2.1,0.9
		c-0.8,0.2-1.9,0.3-3,0.3h-7.8c-2.1,0-3.5-0.3-4.3-1c-0.9-0.7-1.3-1.7-1.3-3.1c0-0.3,0-0.8,0.1-1.1c0-0.3,0.1-0.8,0.2-1.4
		L852.4,666.5L852.4,666.5z M914.1,688.1c0,0.3,0,0.7-0.1,1.1c0,0.4-0.1,0.9-0.2,1.6l-1,5.9h-7.2l0.8-4.1c0.1-0.5,0.1-0.8,0.2-1.1
		c0-0.3,0.1-0.5,0.1-0.6c0-2.1-1.4-3.2-4.3-3.2h-14.2l-1.6,9h-7.2l5.3-30h21.8c1.7,0,3.1,0.2,4.3,0.7c1.2,0.4,2.3,1,3,1.9
		c0.8,0.8,1.4,1.7,1.8,2.8c0.4,1,0.6,2.1,0.6,3.3c0,2.3-0.3,4.3-0.9,5.9c-0.6,1.6-1.6,2.8-3,3.6c0.6,0.2,1,0.6,1.4,1.2
		C913.9,686.4,914.1,687.2,914.1,688.1L914.1,688.1z M908.9,676.5c0-0.9-0.3-1.7-0.8-2.1c-0.6-0.5-1.4-0.7-2.8-0.7h-15l-1.2,6.8
		h15.6c0.6,0,1.2-0.1,1.7-0.1c0.5-0.1,1-0.3,1.3-0.6s0.7-0.7,0.9-1.2C908.8,678.1,908.9,677.4,908.9,676.5L908.9,676.5z M919,696.6
		h7.2l5.3-30h-7.2L919,696.6L919,696.6z M953.2,690.6h-12.9l3.2-18.1h12.9c2.1,0,3.5,0.3,4.3,1.1c0.8,0.7,1.2,1.8,1.2,3.2
		c0,0.8-0.1,2-0.3,3.4c-0.2,1.4-0.5,3-0.7,4.5c-0.2,1-0.4,2-0.8,2.7c-0.3,0.8-0.8,1.3-1.4,1.8s-1.3,0.8-2.2,1
		C955.7,690.5,954.5,690.6,953.2,690.6L953.2,690.6z M959,666.5h-21.7l-5.3,30h21.8c2.3,0,4.2-0.2,5.9-0.6c1.7-0.3,3-1,4.1-1.7
		s2-1.8,2.6-3.1c0.6-1.2,1.1-2.8,1.4-4.6c0.2-1.2,0.4-2.5,0.6-3.7s0.3-2.3,0.4-3.4c0.1-1,0.2-1.9,0.3-2.7c0.1-0.8,0.1-1.3,0.1-1.7
		c0-1.2-0.2-2.3-0.6-3.4c-0.4-1-1-2-1.8-2.8s-1.9-1.4-3.2-1.9C962.4,666.8,960.9,666.5,959,666.5L959,666.5z M966.9,696.6l20.8-30
		h11.4l10.2,30h-8.5l-2.4-7.2h-18.3l-5,7.2H966.9L966.9,696.6z M992.7,672.2h-0.4l-7.9,11.2h12L992.7,672.2L992.7,672.2z
		 M1032.9,690.6H1020l3.2-18.1h12.9c2.1,0,3.5,0.3,4.3,1.1c0.8,0.7,1.2,1.8,1.2,3.2c0,0.8-0.1,2-0.3,3.4s-0.5,3-0.7,4.5
		c-0.2,1-0.4,2-0.8,2.7c-0.3,0.8-0.8,1.3-1.4,1.8s-1.3,0.8-2.2,1C1035.4,690.5,1034.3,690.6,1032.9,690.6L1032.9,690.6z
		 M1038.7,666.5H1017l-5.3,30h21.8c2.3,0,4.2-0.2,5.9-0.6c1.7-0.3,3-1,4.1-1.7s2-1.8,2.6-3.1c0.6-1.2,1.1-2.8,1.4-4.6
		c0.2-1.2,0.4-2.5,0.6-3.7s0.3-2.3,0.4-3.4c0.1-1,0.2-1.9,0.3-2.7c0.1-0.8,0.1-1.3,0.1-1.7c0-1.2-0.2-2.3-0.6-3.4
		c-0.4-1-1-2-1.8-2.8s-1.9-1.4-3.2-1.9C1042.1,666.8,1040.5,666.5,1038.7,666.5z"/>
</g>
</svg>
