<svg id="Capa_1" data-name="Capa 1" xmlns="http://www.w3.org/2000/svg" viewBox="0 0 1956.87 255.4"><defs><style>.cls-1{fill:#1d2f47;}.cls-2{fill:#b79160;}.cls-3{fill:#caac89;}.cls-4{fill:#e5c395;}.cls-5{fill:#d7ae7c;}.cls-6{fill:#e2c59e;}.cls-7{fill:#fff;}.cls-8{fill:#adaead;}.cls-9{fill:#385571;}.cls-10{fill:#4782bb;}</style></defs><title>logo-mi-express-dos</title><path class="cls-1" d="M3.28,4.09H345.62v47.6A53,53,0,0,1,340,54.62c-7.39,3.59-14.78,5.87-19.45,7.5-.76.22-1.42.44-2.07.66V100.6a38,38,0,0,0,5.33-.55c5.32-.87,13.36-2.5,21.84-4.34v34.66a44.89,44.89,0,0,0-10,4.35c-2.61,1.41-3.48,1.63-5.43,1.31s-5-1.53-8.7-2.72-7.93-2.39-10.86-3.26-4.57-1.41-6.63-.76a8.92,8.92,0,0,0-5.44,5.11A8.3,8.3,0,0,0,300.3,143c2.39,2.5,6.74,4,11,4.67s8.37.44,10.65,1.63,2.72,3.81,2.28,6a7.79,7.79,0,0,1-2.61,4.68c-1.08,1-2.17,1.3-2.93,1.95s-.87,1.85-1,4.57-.11,7.06-.43,9.34-1.09,2.5-7.5,3.26-18.48,2.29-24.24,3.05-5.43,1-.32,1.41,14.78,1,20.64,1.52,7.94,1.09,11.09.22,7.72-3,13-6.2c4.57-2.71,9.67-6,15.43-9.13V252.1H3.28V212.86c5,.22,9.67.55,13.37.76,8.8.44,12.49.55,17.39,2.39s11.08,5.55,18,9.13a206,206,0,0,0,19.78,9.13c5.21,2,7.93,2.5,11.73,2.07a44.18,44.18,0,0,0,11.52-3.15c3.16-1.42,4.79-2.94,7.07-3.37s5.21.21,7.71-.33,4.46-2.39,6-4.13,2.39-3.37,4.13-3.91,4.24,0,6.2.11,3.58-.44,6-2.39a61,61,0,0,0,8.59-8.81,65.35,65.35,0,0,0,6-9.13c1.08-1.95,1-1.95-5.11-1.3s-18.26,2.06-25.43,3-9.24,1.31-10.87.76-2.83-2.06-4.78-4.78-5-6.63-6.41-8.69-1.2-2.07-.44-2.07a39.78,39.78,0,0,1,5.65.65c3.48.55,8.91,1.63,13.59,2s8.69,0,12.28-1.85a19.28,19.28,0,0,0,7.71-7.28c1.2-2.39.76-3.91-2-4.78s-7.72-1.3-13.15-2.39-11.52-2.83-16.41-4.13a81.47,81.47,0,0,0-13.15-2.94,94,94,0,0,0-14.89-.32c-5.55.22-11.63.76-15.76,1.95s-6.09,3.16-9.35,4.13-7.93,1.09-12.71.55-9.78-1.63-22.72-6.74c-2.93-1.09-6.19-2.39-9.67-3.91V140.16c1,.54,2.07,1.08,3.15,1.63A102.69,102.69,0,0,0,26.86,149a56.24,56.24,0,0,0,6,1.09V88.64H31.43c-4.89.11-11.2.33-17.17.87-3.81.44-7.72,1-11,1.52Z"/><path class="cls-2" d="M33,57.23,87.83,85.6v81.62A101.16,101.16,0,0,0,73.49,167c-5.55.22-11.63.76-15.76,2s-6.09,3.15-9.35,4.13-7.93,1.08-12.71.54L33,173.3Z"/><polygon class="cls-3" points="52.73 67.34 67.4 74.95 67.4 113.2 52.73 105.27 52.73 67.34"/><path class="cls-4" d="M318.45,57.23,87.83,85.49v81.62l.55.11a97.21,97.21,0,0,1,13.15,2.93c4.89,1.41,11,3.15,16.41,4.13s10.43,1.41,13.15,2.39,3.15,2.5,1.95,4.78a18.6,18.6,0,0,1-7.71,7.29c-3.48,1.73-7.5,2.17-12.28,1.84s-10.22-1.41-13.59-2a40.59,40.59,0,0,0-5.65-.66c-.76,0-1,.11.43,2.07s4.35,6,6.42,8.69,3.15,4.24,4.78,4.79,3.69.21,10.87-.76,19.23-2.4,25.43-3c3.48-.43,5-.54,5.54-.21L281.72,183a17.43,17.43,0,0,1,4.24-.77c5.86-.86,17.82-2.28,24.23-3s7.07-1,7.5-3.26.33-6.63.44-9.35a13,13,0,0,1,.54-4V148.42c-2.07-.22-4.57-.33-7.17-.77-4.24-.65-8.59-2.17-11-4.67a8.07,8.07,0,0,1-1.74-8.58,9.22,9.22,0,0,1,5.43-5.11c2.07-.65,3.7-.11,6.63.76,2.18.65,5,1.41,7.83,2.28V57.23Z"/><polygon class="cls-5" points="263.57 28.76 32.95 57.12 32.95 57.23 87.83 85.49 263.57 63.97 318.45 57.23 318.45 57.02 263.57 28.65 263.57 28.76"/><polygon class="cls-6" points="51.86 66.91 67.83 75.17 297.37 46.15 281.39 37.89 51.86 66.91"/><polygon class="cls-7" points="280.2 85.38 147.5 106.25 153.15 192.54 282.59 168.52 280.2 85.38"/><polygon class="cls-8" points="154.24 139.72 277.48 119.94 277.81 121.9 154.56 141.68 154.24 139.72"/><path class="cls-8" d="M229.44,96.9l39.78-6.41h.43a2.47,2.47,0,0,1,1.74.65h0a3,3,0,0,1,.87,1.63v20.54a3.46,3.46,0,0,1-.87,2.28,3.32,3.32,0,0,1-2.17,1.2l-39.78,6.41H229a2.49,2.49,0,0,1-1.74-.65,3,3,0,0,1-.87-1.63V100.38a3.51,3.51,0,0,1,.87-2.28,3.32,3.32,0,0,1,2.17-1.2Zm39.89-5.65-39.78,6.52a2.62,2.62,0,0,0-1.63,1,2.49,2.49,0,0,0-.65,1.74v20.32h0a2.53,2.53,0,0,0,.54,1.09,2,2,0,0,0,1.2.43h.32l39.78-6.41a2.55,2.55,0,0,0,1.63-1,2.43,2.43,0,0,0,.65-1.74V92.77a2.59,2.59,0,0,0-.54-1.09h0a2,2,0,0,0-1.2-.43Z"/><polygon class="cls-8" points="157.5 170.26 197.38 162.87 197.6 163.74 157.6 171.13 157.5 170.26"/><polygon class="cls-8" points="157.82 173.3 197.71 165.91 197.93 166.78 157.93 174.17 157.82 173.3"/><polygon class="cls-8" points="158.04 176.35 198.03 168.96 198.14 169.93 158.26 177.32 158.04 176.35"/><polygon class="cls-8" points="158.37 179.5 198.25 172.11 198.47 172.98 158.58 180.37 158.37 179.5"/><polygon class="cls-8" points="158.69 182.54 198.58 175.15 198.79 176.02 158.8 183.41 158.69 182.54"/><polygon class="cls-8" points="158.91 185.58 198.9 178.19 199.01 179.06 159.13 186.45 158.91 185.58"/><polygon class="cls-8" points="236.29 161.02 276.28 153.63 276.39 154.61 236.51 161.89 236.29 161.02"/><polygon class="cls-8" points="236.62 164.17 276.5 156.78 276.72 157.65 236.72 165.04 236.62 164.17"/><polygon class="cls-8" points="236.94 167.22 276.83 159.83 277.04 160.7 237.05 168.09 236.94 167.22"/><polygon class="cls-8" points="237.16 170.26 277.15 162.87 277.26 163.74 237.38 171.13 237.16 170.26"/><polygon class="cls-8" points="229.66 102.66 269.55 95.27 269.76 96.14 229.77 103.53 229.66 102.66"/><polygon class="cls-8" points="229.66 107.55 269.55 100.16 269.76 101.03 229.77 108.42 229.66 107.55"/><polygon class="cls-8" points="229.66 112.33 269.55 104.94 269.76 105.92 229.77 113.31 229.66 112.33"/><polygon class="cls-8" points="229.66 117.22 269.55 109.83 269.76 110.7 229.77 118.09 229.66 117.22"/><path class="cls-1" d="M647.9,16.1H567.8L520.2,98.5l-5.4-82.4h-76a23.38,23.38,0,0,1,1.4,8.1c0,1.8-.2,4.1-.5,7.2-.5,2-.7,3.6-.9,4.5L411.7,140.8c-2.3,8.8-4.5,14.7-7,19.4-.9,1.6-1.8,2.9-4.1,6.3h34.3a22.65,22.65,0,0,1-1.4-8.1c0-1.8.2-4.1.5-7.2a44.11,44.11,0,0,0,.9-4.5l25.5-98.4,7.7,118.2h40.8L577.5,47.8l-24.1,93c-2.3,8.8-4.5,14.7-7,19.4-.9,1.6-1.8,2.9-4.1,6.3h67.5a22.65,22.65,0,0,1-1.4-8.1c0-1.6.2-4.1.5-7.2a44.11,44.11,0,0,0,.9-4.5L636.9,41.8c2.3-8.8,4.5-14.7,7-19.2.9-1.6,1.8-2.9,4-6.5Zm83.3,0c-2.3,3.6-3.2,5-4.1,6.5-2.5,4.5-4.5,10.4-6.8,19.2L693,146.7c-.2,1.1-.5,2.7-.7,4.5a49.48,49.48,0,0,0-.7,7.2,17.72,17.72,0,0,0,1.6,8.1H625.7c2.3-3.4,3.2-4.7,4.1-6.3,2.5-4.7,4.5-10.6,6.8-19.4L664,35.9a39.61,39.61,0,0,0,.7-4.5,47.16,47.16,0,0,0,.7-7.2,18.45,18.45,0,0,0-1.6-8.1Zm66.8,81H718.6L711.8,124h79.4L798,97.1Zm162-81-3.4,28.7c-3.8-2-5.4-2.7-7.9-3.2-2.5-.2-6.8-.7-10.2-.7H883.2l-9.5,36.8h56a47.31,47.31,0,0,0,14.9-2.3L937,105.6c-5-2.5-8.3-3.2-17.8-3.2H867.3l-10.2,39.3h59.1c6.3,0,10.2-.7,16-3.4l-11.1,28.2H788.5c2.3-3.4,3.2-4.7,4.1-6.3,2.5-4.7,4.5-10.6,6.8-19.4L826.7,35.9a39.61,39.61,0,0,0,.7-4.5,47.16,47.16,0,0,0,.7-7.2,18.45,18.45,0,0,0-1.6-8.1Zm184.8,0h-44.2a32,32,0,0,1-9,12l-39.9,33.8-8.1-17.8-2.9-6.1c-2.3-4.5-3.6-11.5-3.6-16a21.12,21.12,0,0,1,.9-5.9H964.2a114.85,114.85,0,0,1,9.9,14.7,96.24,96.24,0,0,1,6.8,12.4c.5.7,2.5,4.7,6.1,12.6l20.3,43.8L956,143.1a228.61,228.61,0,0,1-18.5,14.2,132.34,132.34,0,0,1-16,9.3h49.9c2.7-6.3,4.3-8.8,11.5-14.9l34.8-29.8,7.2,15.3c2.5,5.2,5.9,13.8,6.8,17.8a32.58,32.58,0,0,1,.9,7.4,13.64,13.64,0,0,1-.5,4.1h73.6c-5-5.2-6.8-7.7-9.3-12.2-1.1-2-2.3-4.3-3.8-7-1.6-3.2-2.7-5.2-3.2-6.3l-28-56.2,63.2-53.5,4.7-4.1,5.9-4.5,5.9-4.1,3.7-2.5Zm159.4,27.3c0,3.2-.2,4.3-1.8,10.4l-6.8,26.6c-2.7,10.4-3.2,11.3-6.3,16.7-6.5,11.1-17.2,16.2-33.6,16.2h-68.4l-8.8,33.4c-.2,1.1-.5,2.7-.7,4.5a49.34,49.34,0,0,0-.7,7.4,17.66,17.66,0,0,0,1.6,7.9h-67.5c2.3-3.4,3.2-4.7,4.1-6.3,2.5-4.7,4.5-10.6,6.8-19.4l27.3-104.9a39.61,39.61,0,0,0,.7-4.5,47.16,47.16,0,0,0,.7-7.2,18.45,18.45,0,0,0-1.6-8.1h118.5a67.53,67.53,0,0,1,6.8.2c11.1.2,19,3.6,24.1,10.6a28,28,0,0,1,5.6,16.5Zm-58.7,4.9a8.26,8.26,0,0,0-1.8-5c-1.6-2-3.6-2.5-9.9-2.5H1206l-12.4,47.6h27.1c12.6,0,15.3-2,18.5-14l5.6-21.4a15.77,15.77,0,0,0,.7-4.7Zm231.7-4.9c0-6.3-3.6-14-9-19.2-6.1-5.9-12.9-8.1-24.1-8.1H1324.7a18.45,18.45,0,0,1,1.6,8.1,46.07,46.07,0,0,1-.7,7.2,39.61,39.61,0,0,1-.7,4.5l-27.3,104.9c-2.3,8.8-4.3,14.7-6.8,19.4-.9,1.6-1.8,2.9-4.1,6.3h67.5a17.66,17.66,0,0,1-1.6-7.9,48.24,48.24,0,0,1,.7-7.4c.2-1.8.5-3.4.7-4.5l11.7-44.9h14.7l12.4,64.8h63.6c-5.9-5.9-7.7-9-9.3-17.2l-9.7-47.6c1.8,0,3.2.2,4.1.2a34.1,34.1,0,0,0,16.9-4.1c5.2-2.9,6.8-5.2,9.5-14.4l1.4-4.7,6.5-25.5a37.72,37.72,0,0,0,.7-4.7,28.5,28.5,0,0,0,.7-5.2ZM1419,46.7a21.14,21.14,0,0,1-.7,5l-3.8,15.1c-1.4,5.4-2.3,6.5-5.2,8.1-2.3,1.1-3.4,1.4-8.8,1.4h-28.2l9.3-35.4h28.9c6.3,0,8.5,1.6,8.5,5.8Zm217.3-30.6-3.4,28.7c-3.8-2-5.4-2.7-7.9-3.2-2.5-.2-6.8-.7-10.2-.7h-55.3L1550,77.7h56a47.31,47.31,0,0,0,14.9-2.3l-7.7,30.2c-5-2.5-8.3-3.2-17.8-3.2h-51.9l-10.2,39.3h59.1c6.3,0,10.2-.7,16-3.4l-11.1,28.2H1464.6c2.3-3.4,3.2-4.7,4.1-6.3,2.5-4.7,4.5-10.6,6.8-19.4L1503,35.9a39.61,39.61,0,0,0,.7-4.5,47.16,47.16,0,0,0,.7-7.2,18.45,18.45,0,0,0-1.6-8.1Zm154.4,0H1684.9a80.8,80.8,0,0,0-17.8,2.3,40.68,40.68,0,0,0-9.7,4.3c-7.2,4.7-12.6,12-14.7,19l-1.6,5.6-9,34.8c-2.5,9.5-2.9,13.1-2.9,17.6,0,13.5,9.5,20.5,28.2,20.5h42.4c5.9,0,8.6,1.8,8.6,5.4,0,1.4-.5,2.9-1.1,6.5a23.33,23.33,0,0,1-2,5.2c-1.4,3.2-3.4,4.5-7,4.5h-63.5a27.18,27.18,0,0,1-9-1.8,32.48,32.48,0,0,1-7.9-3.8l-4.3,30.5h107.2c14.7,0,21-1.6,28.2-6.8a27.78,27.78,0,0,0,9-9.9,108.79,108.79,0,0,0,5.4-16.2l9.9-38.4c1.8-6.8,2-7.7,2-11.7,0-5.6-1.4-9-5-13.3-4.5-5.2-8.8-6.8-19.2-6.8h-45.8c-6.3,0-9-1.6-9-5.6a30.33,30.33,0,0,1,1.1-5.2l1.4-5c1.6-5.4,4.3-6.8,12.4-6.8H1764a57.35,57.35,0,0,1,14.7,1.8,24.65,24.65,0,0,1,8.6,4.5l3.4-31.2Zm159.3,0-3.4,31.1a23.84,23.84,0,0,0-8.6-4.5,56.77,56.77,0,0,0-14.7-1.8h-52.8c-8.1,0-10.8,1.4-12.4,6.8l-1.4,5a22.83,22.83,0,0,0-1.1,5.2c0,4.1,2.7,5.6,9,5.6h45.8c10.4,0,14.7,1.6,19.2,6.8,3.6,4.3,5,7.7,5,13.3,0,4.1-.2,5-2,11.7l-9.9,38.4a138.29,138.29,0,0,1-5.4,16.2,28.74,28.74,0,0,1-9,9.9c-7.2,5.2-13.5,6.8-28.2,6.8H1772.9l4.3-30.5a29.13,29.13,0,0,0,7.9,3.8,27.68,27.68,0,0,0,9,1.8h63.5c3.6,0,5.6-1.4,7-4.5a19.32,19.32,0,0,0,2-5.2,43.87,43.87,0,0,0,1.1-6.5c0-3.6-2.7-5.4-8.6-5.4h-42.4c-18.7,0-28.2-7-28.2-20.5,0-4.5.5-8.1,2.9-17.6l9-34.8,1.6-5.6c2-7,7.4-14.2,14.7-19a40.68,40.68,0,0,1,9.7-4.3,87.26,87.26,0,0,1,17.8-2.3H1950Z"/><path class="cls-9" d="M647.9,16.1H567.8L526.9,86.9H555l22.5-39-10.1,39h57.8l11.6-45.1c2.3-8.8,4.5-14.7,7-19.2,1-1.6,1.9-2.9,4.1-6.5ZM519.5,86.9l-4.7-70.8h-76a23.38,23.38,0,0,1,1.4,8.1c0,1.8-.2,4.1-.5,7.2-.5,2-.7,3.6-.9,4.5L425.7,86.8h24.8l10-38.5L463,86.8h56.5Zm1415,0H1790.1c.3-1.4.7-3.1,1.2-4.9l9-34.8,1.6-5.6c2-7,7.4-14.2,14.7-19a40.68,40.68,0,0,1,9.7-4.3,87.26,87.26,0,0,1,17.8-2.3H1950l-3.4,31.1a23.84,23.84,0,0,0-8.6-4.5,56.77,56.77,0,0,0-14.7-1.8h-52.8c-8.1,0-10.8,1.4-12.4,6.8l-1.4,5a22.83,22.83,0,0,0-1.1,5.2c0,4.1,2.7,5.6,9,5.6h45.8c10.4,0,14.7,1.6,19.2,6.8,3.6,4.3,5,7.7,5,13.3a18.12,18.12,0,0,1-.1,3.4Zm-159.3,0c.1-1,.1-2,.1-3.3,0-5.6-1.4-9-5-13.3-4.5-5.2-8.8-6.8-19.2-6.8h-45.8c-6.3,0-9-1.6-9-5.6a30.33,30.33,0,0,1,1.1-5.2l1.4-5c1.6-5.4,4.3-6.8,12.4-6.8H1764a57.35,57.35,0,0,1,14.7,1.8,24.65,24.65,0,0,1,8.6,4.5l3.4-31.1H1684.9a80.8,80.8,0,0,0-17.8,2.3,40.68,40.68,0,0,0-9.7,4.3c-7.2,4.7-12.6,12-14.7,19l-1.6,5.6-9,34.8c-.5,1.8-.9,3.5-1.2,4.9h144.3Zm-157.1,0H1489.7L1503,36a39.61,39.61,0,0,0,.7-4.5,47.16,47.16,0,0,0,.7-7.2,18.45,18.45,0,0,0-1.6-8.1h133.6L1633,44.9c-3.8-2-5.4-2.7-7.9-3.2-2.5-.2-6.8-.7-10.2-.7h-55.3l-9.5,36.8h56a47.31,47.31,0,0,0,14.9-2.3l-2.9,11.4Zm-151.1,0H1311.7L1325,36a39.61,39.61,0,0,0,.7-4.5,47.16,47.16,0,0,0,.7-7.2,18.45,18.45,0,0,0-1.6-8.1h119.4c11.3,0,18.1,2.3,24.1,8.1,5.4,5.2,9,12.9,9,19.2a28.5,28.5,0,0,1-.7,5.2,34.79,34.79,0,0,1-.7,4.7l-6.5,25.5-1.4,4.7c-.4,1.2-.7,2.3-1,3.3Zm-173.2,0H1232c3.6-1.8,5.3-5.4,7.1-12.4l5.6-21.4a16.74,16.74,0,0,0,.7-4.7,8.26,8.26,0,0,0-1.8-5c-1.6-2-3.6-2.5-9.9-2.5H1206l-12,46h-57.9L1149.4,36a39.61,39.61,0,0,0,.7-4.5,47.16,47.16,0,0,0,.7-7.2,18.45,18.45,0,0,0-1.6-8.1h118.5a67.53,67.53,0,0,1,6.8.2c11.1.2,19,3.6,24.1,10.6a27.38,27.38,0,0,1,5.6,16.5c0,3.2-.2,4.3-1.8,10.4l-6.8,26.6c-.7,2.6-1.3,4.7-1.8,6.4Zm-231.5,0-1-2,63.2-53.5,4.7-4.1,5.9-4.5,5.9-4.1,3.8-2.7h-44.2a32,32,0,0,1-9,12l-39.9,33.8L1043.6,44l-2.9-6.1c-2.3-4.5-3.6-11.5-3.6-16a21.12,21.12,0,0,1,.9-5.9H964.2a114.85,114.85,0,0,1,9.9,14.7,96.24,96.24,0,0,1,6.8,12.4c.5.7,2.5,4.7,6.1,12.6l14.4,31.1h60.9Zm-120.5,0H813.4L826.7,36a39.61,39.61,0,0,0,.7-4.5,47.16,47.16,0,0,0,.7-7.2,18.45,18.45,0,0,0-1.6-8.1H960l-3.4,28.7c-3.8-2-5.4-2.7-7.9-3.2-2.5-.2-6.8-.7-10.2-.7H883.2l-9.5,36.8h56a47.31,47.31,0,0,0,14.9-2.3l-2.8,11.4Zm-233.2,0H650.7l13.3-51a39.61,39.61,0,0,0,.7-4.5,47.16,47.16,0,0,0,.7-7.2,18.45,18.45,0,0,0-1.6-8.1h67.5c-2.3,3.6-3.2,5-4.1,6.5-2.5,4.5-4.5,10.4-6.8,19.2L708.6,86.9ZM1419,46.7c0-4.3-2.3-5.9-8.6-5.9h-28.9l-9.3,35.4h28.2c5.4,0,6.5-.2,8.8-1.4,2.9-1.6,3.8-2.7,5.2-8.1l3.8-15.1A16,16,0,0,0,1419,46.7Z"/><path class="cls-10" d="M429.3,197.8H410.1c-6.3,0-10.9,1.3-13.9,3.8s-4.4,6.5-4.4,11.9a11.69,11.69,0,0,0,.8,4.5,6.47,6.47,0,0,0,2.5,2.7,9.46,9.46,0,0,0,4.1,1.4,41.65,41.65,0,0,0,5.7.6l17.8.8c2.6.1,4.3.4,5.2,1a2.85,2.85,0,0,1,1.4,2.5,8.52,8.52,0,0,1-.3,2.3,4.18,4.18,0,0,1-1.1,1.8,6.74,6.74,0,0,1-2.4,1.2,14.48,14.48,0,0,1-4,.4H404a6.71,6.71,0,0,1-3.3-.8,2.77,2.77,0,0,1-1.3-2.3.75.75,0,0,1,.1-.5H389q-.15,1.05-.3,1.8a5.38,5.38,0,0,0-.1,1.1,8.57,8.57,0,0,0,.7,3.6,8.94,8.94,0,0,0,2.2,3,10.73,10.73,0,0,0,4,2,20.26,20.26,0,0,0,6,.8h21.6a28.76,28.76,0,0,0,8.5-1.1A11.28,11.28,0,0,0,437,237a12.82,12.82,0,0,0,2.8-5.3,26.74,26.74,0,0,0,.8-7.3,8,8,0,0,0-3.2-6.9,10.15,10.15,0,0,0-3.6-1.8,21.18,21.18,0,0,0-4.5-.7l-20.9-.8a11,11,0,0,1-1.8-.2,4.67,4.67,0,0,1-1.4-.4,2.36,2.36,0,0,1-.9-.8,3.51,3.51,0,0,1-.3-1.6,5,5,0,0,1,.6-2.6,3.76,3.76,0,0,1,1.4-1.4,6,6,0,0,1,1.9-.6,14.08,14.08,0,0,1,2-.1h17.5a7.91,7.91,0,0,1,3.8.6,2.33,2.33,0,0,1,1,2v.5a1.27,1.27,0,0,1-.1.6h11.2c.1-.5.1-1,.2-1.4s.1-.9.1-1.4a8.13,8.13,0,0,0-3.5-6.8c-2.4-1.9-6-2.8-10.8-2.8Zm23.2,0-7.7,43.6h44.6l1.5-8.7H456.8l1.7-9.4h33l1.6-8.7H460l1.4-8h34.2l1.5-8.7H452.5Zm94.7,31.3a9.15,9.15,0,0,1-.1,1.6,12,12,0,0,1-.3,2.3l-1.5,8.5H534.8l1.1-5.9a15.69,15.69,0,0,1,.3-1.6c0-.4.1-.7.1-.9,0-3.1-2.1-4.6-6.2-4.6H509.5l-2.3,13H496.7l7.7-43.6H536a17.36,17.36,0,0,1,6.3,1,10.27,10.27,0,0,1,4.4,2.7,9.58,9.58,0,0,1,2.6,4,12.8,12.8,0,0,1,.9,4.8,24,24,0,0,1-1.3,8.6,9.71,9.71,0,0,1-4.3,5.2,4.1,4.1,0,0,1,2,1.7,6.73,6.73,0,0,1,.6,3.2Zm-7.5-16.8a3.64,3.64,0,0,0-1.2-3c-.8-.7-2.1-1-4-1H512.8l-1.7,9.8h22.6a16.59,16.59,0,0,0,2.4-.2,4.06,4.06,0,0,0,1.9-.8,4.53,4.53,0,0,0,1.3-1.7,13.74,13.74,0,0,0,.4-3.1Zm28.9-14.5H557l14.8,43.6h16.6l30.3-43.6H606.3L581,233.9l-12.4-36.1Zm47.5,43.6,7.7-43.6h10.5l-7.7,43.6Zm35.5.1h17.1a39.53,39.53,0,0,0,8.5-.8,12.19,12.19,0,0,0,5.5-2.5,11.72,11.72,0,0,0,3.3-4.7,34.81,34.81,0,0,0,1.9-7.3H677.1a10.66,10.66,0,0,1-.9,3,4.16,4.16,0,0,1-1.9,1.8,10.63,10.63,0,0,1-3.5.8c-1.5.1-3.4.2-5.7.2h-8.5a15.94,15.94,0,0,1-6.7-1.1,3.87,3.87,0,0,1-2.2-3.9c0-1.2.1-2.7.2-4.3s.5-3.8.9-6.3a28.08,28.08,0,0,1,1.1-4.4,5.38,5.38,0,0,1,1.8-2.7,7,7,0,0,1,3-1.4,20.15,20.15,0,0,1,4.6-.4h10a36.37,36.37,0,0,1,5.2.3,14.44,14.44,0,0,1,3.1.7,2.38,2.38,0,0,1,1.5,1.2,3.06,3.06,0,0,1,.4,1.7v.6c0,.2-.1.4-.1.7h10.8a14.71,14.71,0,0,0,.4-2.7,13.05,13.05,0,0,0,.1-1.7,9.47,9.47,0,0,0-1-4.6,8.12,8.12,0,0,0-3.1-3.3,15.43,15.43,0,0,0-5.5-1.9,47,47,0,0,0-8.1-.6H662.1a61.6,61.6,0,0,0-10.6.7,14.92,14.92,0,0,0-6.8,2.6,13.38,13.38,0,0,0-4.1,5.4,38.45,38.45,0,0,0-2.4,9c-.5,2.5-.8,5-1.1,7.4a52.09,52.09,0,0,0-.4,6.4,13.48,13.48,0,0,0,.9,5,9.45,9.45,0,0,0,2.7,3.8,13.4,13.4,0,0,0,4.6,2.5,27.35,27.35,0,0,0,6.7.8Zm42.3-.1h10.4l7.7-43.6H701.5l-7.6,43.6Zm63.6-28.5a9.89,9.89,0,0,1-.1,1.5,19.53,19.53,0,0,1-.2,2.3l-.3,2.7a21.87,21.87,0,0,1-.4,2.7,27.17,27.17,0,0,1-1.3,5A5.94,5.94,0,0,1,753,230a9.43,9.43,0,0,1-3.8,1.4,52.23,52.23,0,0,1-6.2.3h-8.3c-1.8,0-3.4-.1-4.6-.2a8.21,8.21,0,0,1-3-.8,3.53,3.53,0,0,1-1.6-1.8,8,8,0,0,1-.5-2.9,21.19,21.19,0,0,1,.4-3.7c.3-1.7.7-4,1.3-7a15.71,15.71,0,0,1,1.1-3.8,5.66,5.66,0,0,1,1.9-2.4,10.06,10.06,0,0,1,3.6-1.3,32.53,32.53,0,0,1,6-.4H747a35.81,35.81,0,0,1,5.1.3,11.19,11.19,0,0,1,3.2.9,3.29,3.29,0,0,1,1.6,1.7,4.37,4.37,0,0,1,.6,2.6Zm-11.3,28.5a49.55,49.55,0,0,0,8.3-.6,14.88,14.88,0,0,0,5.9-2.3,12.87,12.87,0,0,0,3.9-4.9,32.85,32.85,0,0,0,2.4-8.4c.3-1.6.5-3.1.7-4.6s.3-3,.5-4.3.2-2.6.3-3.7.1-2.1.1-2.8a12.29,12.29,0,0,0-.9-4.7,8.83,8.83,0,0,0-2.9-3.8,13.28,13.28,0,0,0-5.2-2.5,29.62,29.62,0,0,0-7.9-.9H740.3a61.07,61.07,0,0,0-10.6.8,15.52,15.52,0,0,0-6.9,2.9,12.69,12.69,0,0,0-4.1,5.5,37.9,37.9,0,0,0-2.4,8.8c-.4,2.3-.8,4.6-1.1,7.1a56,56,0,0,0-.5,6.3,14.35,14.35,0,0,0,.9,5.3,9.35,9.35,0,0,0,3,3.9,16.54,16.54,0,0,0,5.5,2.4,39.88,39.88,0,0,0,8.4.8h13.7Zm27.2-12.2h12.1L783,243.3a9.69,9.69,0,0,1-2.2,4.9A12.9,12.9,0,0,1,777,251a18.14,18.14,0,0,1-4.7,1.3,41.19,41.19,0,0,1-4.8.3l1-5.8a10.28,10.28,0,0,0,1.7-.1,5.27,5.27,0,0,0,1.5-.5,4,4,0,0,0,1.2-1,3,3,0,0,0,.7-1.8l.4-1.9h-2.8l2.2-12.3Zm67.7,12.3h17.1a39.53,39.53,0,0,0,8.5-.8,12.19,12.19,0,0,0,5.5-2.5,11.72,11.72,0,0,0,3.3-4.7,34.81,34.81,0,0,0,1.9-7.3H866.6a10.66,10.66,0,0,1-.9,3,4.16,4.16,0,0,1-1.9,1.8,10.63,10.63,0,0,1-3.5.8c-1.5.1-3.4.2-5.7.2h-8.5a15.94,15.94,0,0,1-6.7-1.1,3.87,3.87,0,0,1-2.2-3.9c0-1.2.1-2.7.2-4.3s.5-3.8.9-6.3a28.08,28.08,0,0,1,1.1-4.4,5.38,5.38,0,0,1,1.8-2.7,7,7,0,0,1,3-1.4,20.15,20.15,0,0,1,4.6-.4h10a36.37,36.37,0,0,1,5.2.3,14.44,14.44,0,0,1,3.1.7,2.38,2.38,0,0,1,1.5,1.2,3.06,3.06,0,0,1,.4,1.7v.6c0,.2-.1.4-.1.7h10.8a14.71,14.71,0,0,0,.4-2.7,13.05,13.05,0,0,0,.1-1.7,9.47,9.47,0,0,0-1-4.6,8.12,8.12,0,0,0-3.1-3.3,15.43,15.43,0,0,0-5.5-1.9,47,47,0,0,0-8.1-.6H851.6a61.6,61.6,0,0,0-10.6.7,14.92,14.92,0,0,0-6.8,2.6,13.38,13.38,0,0,0-4.1,5.4,38.45,38.45,0,0,0-2.4,9c-.5,2.5-.8,5-1.1,7.4a52.09,52.09,0,0,0-.4,6.4,13.48,13.48,0,0,0,.9,5,9.45,9.45,0,0,0,2.7,3.8,13.4,13.4,0,0,0,4.6,2.5,26.17,26.17,0,0,0,6.7.8Zm85.3-28.6a9.89,9.89,0,0,1-.1,1.5,19.53,19.53,0,0,1-.2,2.3l-.3,2.7a21.87,21.87,0,0,1-.4,2.7,27.17,27.17,0,0,1-1.3,5,5.94,5.94,0,0,1-2.2,2.9,9.43,9.43,0,0,1-3.8,1.4,52.23,52.23,0,0,1-6.2.3h-8.3c-1.8,0-3.4-.1-4.6-.2a8.21,8.21,0,0,1-3-.8,3.53,3.53,0,0,1-1.6-1.8,8,8,0,0,1-.5-2.9,21.19,21.19,0,0,1,.4-3.7c.3-1.7.7-4,1.3-7a15.71,15.71,0,0,1,1.1-3.8,5.66,5.66,0,0,1,1.9-2.4,10.06,10.06,0,0,1,3.6-1.3,32.53,32.53,0,0,1,6-.4h7.7a35.81,35.81,0,0,1,5.1.3,11.19,11.19,0,0,1,3.2.9,3.29,3.29,0,0,1,1.6,1.7,5.26,5.26,0,0,1,.6,2.6ZM915,241.4a49.55,49.55,0,0,0,8.3-.6,14.88,14.88,0,0,0,5.9-2.3,12.87,12.87,0,0,0,3.9-4.9,32.85,32.85,0,0,0,2.4-8.4c.3-1.6.5-3.1.7-4.6s.3-3,.5-4.3.2-2.6.3-3.7.1-2.1.1-2.8a12.29,12.29,0,0,0-.9-4.7,8.83,8.83,0,0,0-2.9-3.8,13.28,13.28,0,0,0-5.2-2.5,29.62,29.62,0,0,0-7.9-.9H909.1a61.07,61.07,0,0,0-10.6.8,15.52,15.52,0,0,0-6.9,2.9,12.69,12.69,0,0,0-4.1,5.5,37.9,37.9,0,0,0-2.4,8.8c-.4,2.3-.8,4.6-1.1,7.1a56,56,0,0,0-.5,6.3,14.35,14.35,0,0,0,.9,5.3,9.35,9.35,0,0,0,3,3.9,16.54,16.54,0,0,0,5.5,2.4,39.88,39.88,0,0,0,8.4.8H915Zm32.2-43.6-7.7,43.6h10.4l5.7-32.6,27.3,32.6h12.5l7.7-43.6H992.6l-5.5,30.8-25.8-30.8Zm63.7,0-7.7,43.6h10.5l3.2-18.2H1050l1.6-8.7h-33.1l1.4-8h34.2l1.5-8.7Zm45.1,43.6h10.4l7.7-43.6h-10.5l-7.6,43.6Zm15.6,0,30.2-43.6h16.5l14.8,43.6h-12.3l-3.5-10.5H1091l-7.2,10.5Zm37.5-35.4h-.6l-11.4,16.2h17.4l-5.4-16.2Zm35.6-8.2-7.7,43.6h10.4l5.7-32.6,27.3,32.6h12.5l7.7-43.6h-10.5l-5.5,30.8-25.8-30.8Zm111.2,0-1.6,8.8-37.1,26.1h32.5l-1.5,8.7h-49l1.5-8.5,38.3-26.4h-33.7l1.6-8.7Zm-4,43.6h12.2l7.2-10.5h26.5l3.5,10.5h12.3l-14.8-43.6h-16.5l-30.4,43.6Zm37.4-35.4,5.3,16.2h-17.4l11.4-16.2Zm77-8.2H1354l17.6,28.9-2.6,14.7h10.5l2.6-14.7,28.5-28.9h-13.1l-19.2,19.7-12-19.7Zm113.7,0h-19.2c-6.3,0-10.9,1.3-13.9,3.8s-4.4,6.5-4.4,11.9a11.69,11.69,0,0,0,.8,4.5,6.47,6.47,0,0,0,2.5,2.7,9.46,9.46,0,0,0,4.1,1.4,41.65,41.65,0,0,0,5.7.6l17.8.8c2.6.1,4.3.4,5.2,1a2.85,2.85,0,0,1,1.4,2.5,8.52,8.52,0,0,1-.3,2.3,4.18,4.18,0,0,1-1.1,1.8,6.74,6.74,0,0,1-2.4,1.2,14.48,14.48,0,0,1-4,.4h-17.5a6.71,6.71,0,0,1-3.3-.8,2.77,2.77,0,0,1-1.3-2.3.75.75,0,0,1,.1-.5h-10.7q-.15,1.05-.3,1.8a5.38,5.38,0,0,0-.1,1.1,8.57,8.57,0,0,0,.7,3.6,8.94,8.94,0,0,0,2.2,3,10.73,10.73,0,0,0,4,2,20.26,20.26,0,0,0,6,.8h21.6a28.76,28.76,0,0,0,8.5-1.1,11.28,11.28,0,0,0,5.4-3.3,12.82,12.82,0,0,0,2.8-5.3,26.74,26.74,0,0,0,.8-7.3,8,8,0,0,0-3.2-6.9,10.15,10.15,0,0,0-3.6-1.8,21.18,21.18,0,0,0-4.5-.7l-20.9-.8a11,11,0,0,1-1.8-.2,4.67,4.67,0,0,1-1.4-.4,2.36,2.36,0,0,1-.9-.8,3.51,3.51,0,0,1-.3-1.6,5,5,0,0,1,.6-2.6,3.76,3.76,0,0,1,1.4-1.4,6,6,0,0,1,1.9-.6,14.08,14.08,0,0,1,2-.1h17.5a7.91,7.91,0,0,1,3.8.6,2.33,2.33,0,0,1,1,2v.5a1.27,1.27,0,0,1-.1.6h11.2c.1-.5.1-1,.2-1.4s.1-.9.1-1.4a8.13,8.13,0,0,0-3.5-6.8c-2.2-1.9-5.7-2.8-10.6-2.8Zm23.2,0-7.7,43.6h44.6l1.5-8.7h-34.1l1.7-9.4h33l1.6-8.7h-33.1l1.4-8h34.2l1.5-8.7h-44.6Zm89.4,12.4v.5a1.09,1.09,0,0,1-.1.5h10.8a20,20,0,0,0,.4-4,8.82,8.82,0,0,0-1-4.5,7.79,7.79,0,0,0-3.4-3,18.58,18.58,0,0,0-6.2-1.6,82.53,82.53,0,0,0-9.5-.5h-11.1a37.86,37.86,0,0,0-9,.9,15.1,15.1,0,0,0-6.2,3.1,15.42,15.42,0,0,0-4,6,51.5,51.5,0,0,0-2.5,9.5c-.5,2.8-.8,5.1-1,7.1s-.2,3.5-.2,4.7c0,4.1,1.4,7.2,4.3,9.3s7.1,3.1,12.8,3.1h12.5a52.84,52.84,0,0,0,9.7-.7,16.19,16.19,0,0,0,6.4-2.5,11.24,11.24,0,0,0,3.9-4.9,38.49,38.49,0,0,0,2.3-7.8l1.8-10.4h-26.6l-1.5,8.5H1591l-.5,2.6a9.82,9.82,0,0,1-1,2.9,5.46,5.46,0,0,1-1.9,1.8,8.21,8.21,0,0,1-3,.8c-1.2.1-2.5.2-4.1.2h-11.2a26.75,26.75,0,0,1-4.4-.3,8.25,8.25,0,0,1-2.8-1,3.76,3.76,0,0,1-1.5-1.8,6.57,6.57,0,0,1-.4-2.5c0-.8.1-2,.2-3.6a44.44,44.44,0,0,1,.7-4.9,26.08,26.08,0,0,1,1.5-5.6,8,8,0,0,1,2.3-3.2,8.19,8.19,0,0,1,3.7-1.4,42.79,42.79,0,0,1,5.6-.3h7.6c2.2,0,4,0,5.4.1a21.14,21.14,0,0,1,3.3.4,3,3,0,0,1,1.7.9,2.93,2.93,0,0,1,.4,1.6Zm30.1-12.4h-10.4l-4.5,25.8a17.09,17.09,0,0,0-.3,3.1v2.5a14.35,14.35,0,0,0,.8,4.6,9.26,9.26,0,0,0,2.6,3.9,13.65,13.65,0,0,0,4.6,2.7,19.89,19.89,0,0,0,6.8,1h15.5a41.94,41.94,0,0,0,8.6-.8,15,15,0,0,0,6-2.6,12.14,12.14,0,0,0,3.8-4.8,30.11,30.11,0,0,0,2.2-7.3l4.9-28.1h-10.5l-4.7,27a15.71,15.71,0,0,1-1.1,3.8,6.77,6.77,0,0,1-2,2.4,8.79,8.79,0,0,1-3.1,1.3,18.5,18.5,0,0,1-4.3.4h-11.3q-4.5,0-6.3-1.5a5.29,5.29,0,0,1-1.9-4.5,8.6,8.6,0,0,1,.1-1.6,8.79,8.79,0,0,1,.3-2l4.2-25.3Zm89.6,31.3a9.15,9.15,0,0,1-.1,1.6,12,12,0,0,1-.3,2.3l-1.5,8.5h-10.5l1.1-5.9a15.69,15.69,0,0,1,.3-1.6c0-.4.1-.7.1-.9,0-3.1-2.1-4.6-6.2-4.6h-20.6l-2.3,13h-10.5l7.7-43.6h31.7a17.36,17.36,0,0,1,6.3,1,10.27,10.27,0,0,1,4.4,2.7,9.58,9.58,0,0,1,2.6,4,12.8,12.8,0,0,1,.9,4.8,24,24,0,0,1-1.3,8.6,9.71,9.71,0,0,1-4.3,5.2,4.1,4.1,0,0,1,2,1.7,11.23,11.23,0,0,1,.5,3.2Zm-7.6-16.8a3.64,3.64,0,0,0-1.2-3c-.8-.7-2.1-1-4-1h-21.7l-1.7,9.8h22.6a16.59,16.59,0,0,0,2.4-.2,4.06,4.06,0,0,0,1.9-.8,4.53,4.53,0,0,0,1.3-1.7,9.72,9.72,0,0,0,.4-3.1Zm14.7,29.1h10.4l7.7-43.6H1727l-7.6,43.6Zm49.6-8.7h-18.7l4.6-26.3h18.7c3,0,5.1.5,6.3,1.6a5.82,5.82,0,0,1,1.8,4.7,39.55,39.55,0,0,1-.5,5c-.3,2.1-.7,4.3-1,6.6a16.63,16.63,0,0,1-1.1,3.9,6.5,6.5,0,0,1-2,2.6,6.28,6.28,0,0,1-3.2,1.4,17.58,17.58,0,0,1-4.9.5Zm8.4-34.9h-31.5l-7.7,43.6h31.7a41.62,41.62,0,0,0,8.5-.8,15.94,15.94,0,0,0,5.9-2.5,11.2,11.2,0,0,0,3.8-4.5,26.46,26.46,0,0,0,2.1-6.7c.3-1.8.6-3.6.8-5.3s.5-3.4.6-4.9.3-2.8.4-3.9.1-1.9.1-2.5a16.22,16.22,0,0,0-.8-4.9,10.66,10.66,0,0,0-2.6-4,13.65,13.65,0,0,0-4.6-2.7,21.28,21.28,0,0,0-6.7-.9Zm11.5,43.6,30.2-43.6h16.5l14.8,43.6h-12.3l-3.5-10.5h-26.5l-7.2,10.5Zm37.4-35.4h-.6l-11.4,16.2h17.4l-5.4-16.2Zm58.4,26.7H1866l4.6-26.3h18.7c3,0,5.1.5,6.3,1.6a5.82,5.82,0,0,1,1.8,4.7,39.55,39.55,0,0,1-.5,5c-.3,2.1-.7,4.3-1,6.6a16.63,16.63,0,0,1-1.1,3.9,6.5,6.5,0,0,1-2,2.6,6.28,6.28,0,0,1-3.2,1.4,18,18,0,0,1-4.9.5Zm8.4-34.9h-31.5l-7.7,43.6h31.7a41.62,41.62,0,0,0,8.5-.8,15.94,15.94,0,0,0,5.9-2.5,11.2,11.2,0,0,0,3.8-4.5,26.46,26.46,0,0,0,2.1-6.7c.3-1.8.6-3.6.8-5.3s.5-3.4.6-4.9.3-2.8.4-3.9.1-1.9.1-2.5a16.22,16.22,0,0,0-.8-4.9,10.66,10.66,0,0,0-2.6-4,13.65,13.65,0,0,0-4.6-2.7A21.72,21.72,0,0,0,1893.1,197.8Z"/></svg>