<?xml version="1.0" encoding="utf-8"?>
<!-- Generator: Adobe Illustrator 22.1.0, SVG Export Plug-In . SVG Version: 6.00 Build 0)  -->
<svg version="1.1" id="Capa_1" xmlns="http://www.w3.org/2000/svg" xmlns:xlink="http://www.w3.org/1999/xlink" x="0px" y="0px"
	 viewBox="0 0 1956.9 255.4" style="enable-background:new 0 0 1956.9 255.4;" xml:space="preserve">
<style type="text/css">
	.st0{fill:#1D2F47;}
	.st1{fill:#B79160;}
	.st2{fill:#CAAC89;}
	.st3{fill:#E5C395;}
	.st4{fill:#D7AE7C;}
	.st5{fill:#E2C59E;}
	.st6{fill:#FFFFFF;}
	.st7{fill:#ADAEAD;}
	.st8{fill:#385571;}
	.st9{fill:#4782BB;}
</style>
<g>
	<g>
		<path class="st0" d="M266.9,633.8H948v94.7c-3.7,2.2-7.4,4.1-11.2,5.8c-14.7,7.1-29.4,11.7-38.7,14.9c-1.5,0.4-2.8,0.9-4.1,1.3
			v75.2c2.8,0,6.3-0.4,10.6-1.1c10.6-1.7,26.6-5,43.5-8.6v69c-8.4,2.2-15.4,6.3-19.9,8.6c-5.2,2.8-6.9,3.2-10.8,2.6
			c-3.9-0.9-9.9-3-17.3-5.4s-15.8-4.8-21.6-6.5c-5.8-1.7-9.1-2.8-13.2-1.5c-4.1,1.3-8.9,5-10.8,10.2c-1.9,5.2-1.3,12.1,3.5,17.1
			c4.8,5,13.4,8,21.8,9.3c8.4,1.3,16.6,0.9,21.2,3.2c4.5,2.4,5.4,7.6,4.5,11.9c-0.6,4.3-3,7.4-5.2,9.3c-2.2,1.9-4.3,2.6-5.8,3.9
			c-1.3,1.5-1.7,3.7-1.9,9.1c-0.2,5.4-0.2,14.1-0.9,18.6c-0.6,4.5-2.2,5-14.9,6.5s-36.8,4.5-48.2,6.1c-11.7,1.7-10.8,1.9-0.6,2.8
			c10.2,0.9,29.4,1.9,41.1,3c11.7,1.1,15.8,2.2,22.1,0.4c6.5-1.7,15.4-6.1,25.9-12.3c9.1-5.4,19.2-11.9,30.7-18.2v163.5H266.9v-78.1
			c9.9,0.4,19.2,1.1,26.6,1.5c17.5,0.9,24.9,1.1,34.6,4.8s22.1,11,35.9,18.2c13.8,7.1,29,14.3,39.4,18.2c10.4,3.9,15.8,5,23.4,4.1
			c7.4-0.9,16.6-3.5,22.9-6.3c6.3-2.8,9.5-5.8,14.1-6.7c4.5-0.9,10.4,0.4,15.4-0.6c5-1.1,8.9-4.8,11.9-8.2s4.8-6.7,8.2-7.8
			c3.5-1.1,8.4,0,12.3,0.2c3.9,0,7.1-0.9,11.9-4.8c4.8-3.9,11.5-10.4,17.1-17.5c5.6-7.1,9.9-14.5,11.9-18.2
			c2.2-3.9,1.9-3.9-10.2-2.6s-36.3,4.1-50.6,6.1c-14.3,1.7-18.4,2.6-21.6,1.5s-5.6-4.1-9.5-9.5c-4.1-5.4-9.9-13.2-12.8-17.3
			c-2.8-3.9-2.4-4.1-0.9-4.1c1.5,0,4.5,0.2,11.2,1.3c6.9,1.1,17.7,3.2,27,3.9c9.5,0.6,17.3,0,24.4-3.7c6.9-3.5,12.8-9.7,15.4-14.5
			c2.4-4.8,1.5-7.8-3.9-9.5c-5.4-1.9-15.4-2.6-26.2-4.8c-11-2.2-22.9-5.6-32.6-8.2c-9.7-2.8-17.3-4.8-26.2-5.8
			c-8.6-1.1-18.6-1.1-29.6-0.6c-11,0.4-23.1,1.5-31.4,3.9c-8,2.4-12.1,6.3-18.6,8.2c-6.5,1.9-15.8,2.2-25.3,1.1
			c-9.5-1.1-19.5-3.2-45.2-13.4c-5.8-2.2-12.3-4.8-19.2-7.8v-45.6c1.9,1.1,4.1,2.2,6.3,3.2c11.7,5.8,28.5,11.5,40.9,14.3
			c4.5,1.1,8.4,1.7,11.9,2.2V802c-0.9,0-1.9,0-2.8,0c-9.7,0.2-22.3,0.6-34.2,1.7c-7.6,0.9-15.4,1.9-21.8,3V633.8z"/>
		<path class="st1" d="M326,739.5l109.2,56.4v162.4c-8.4-0.9-17.9-0.9-28.5-0.4c-11,0.4-23.1,1.5-31.4,3.9c-8,2.4-12.1,6.3-18.6,8.2
			s-15.8,2.2-25.3,1.1c-1.7-0.2-3.5-0.4-5.4-0.6C326,970.4,326,739.5,326,739.5z"/>
		<polygon class="st2" points="365.3,759.6 394.5,774.7 394.5,850.9 365.3,835.1 		"/>
		<path class="st3" d="M894,739.5l-458.8,56.2v162.4l1.1,0.2c8.6,1.1,16.4,3.2,26.2,5.8c9.7,2.8,21.8,6.3,32.6,8.2
			c11,2.2,20.8,2.8,26.2,4.8c5.4,1.9,6.3,5,3.9,9.5c-2.4,4.8-8.4,11-15.4,14.5c-6.9,3.5-14.9,4.3-24.4,3.7c-9.5-0.6-20.3-2.8-27-3.9
			c-6.9-1.1-9.7-1.3-11.2-1.3c-1.5,0-1.9,0.2,0.9,4.1c2.8,3.9,8.6,11.9,12.8,17.3c4.1,5.4,6.3,8.4,9.5,9.5c3.2,1.1,7.4,0.4,21.6-1.5
			c14.3-1.7,38.3-4.8,50.6-6.1c6.9-0.9,9.9-1.1,11-0.4l267.5-32.9c0.6-0.4,3.2-0.9,8.4-1.5c11.7-1.7,35.5-4.5,48.2-6.1
			s14.1-1.9,14.9-6.5c0.6-4.5,0.6-13.2,0.9-18.6c0.2-4.1,0.4-6.5,1.1-8v-28.1c-4.1-0.4-9.1-0.6-14.3-1.5c-8.4-1.3-17.1-4.3-21.8-9.3
			c-4.8-5-5.6-11.9-3.5-17.1c1.9-5.2,6.9-8.9,10.8-10.2c4.1-1.3,7.4-0.2,13.2,1.5c4.3,1.3,9.9,2.8,15.6,4.5V739.5H894z"/>
		<polygon class="st4" points="784.8,682.9 326,739.3 326,739.5 435.2,795.7 784.8,752.9 894,739.5 894,739.1 784.8,682.6 		"/>
		<polygon class="st5" points="363.6,758.7 395.4,775.2 852,717.4 820.3,701 		"/>
		<polygon class="st6" points="817.9,795.5 553.9,837 565.1,1008.7 822.6,960.9 		"/>
		<g>
			<polygon class="st7" points="567.3,903.6 812.5,864.3 813.1,868.2 567.9,907.5 			"/>
			<path class="st7" d="M716.9,818.4l79.1-12.8c0.4,0,0.6,0,0.9,0c1.3,0,2.6,0.4,3.5,1.3l0,0c0.9,0.9,1.5,1.9,1.7,3.2
				c0,0.4,0,0.6,0,1.1v39.8c0,1.7-0.6,3.2-1.7,4.5s-2.6,2.2-4.3,2.4l-79.1,12.8c-0.4,0-0.6,0-0.9,0c-1.3,0-2.6-0.4-3.5-1.3
				c-0.9-0.9-1.5-1.9-1.7-3.2c0-0.4,0-0.6,0-1.1v-39.8c0-1.7,0.6-3.2,1.7-4.5C713.7,819.5,715.2,818.6,716.9,818.4L716.9,818.4z
				 M796.3,807.2l-79.1,13c-1.3,0.2-2.4,0.9-3.2,1.9c-0.9,0.9-1.3,2.2-1.3,3.5v39.8c0,0.2,0,0.4,0,0.6l0,0c0.2,0.9,0.6,1.7,1.1,2.2
				c0.6,0.4,1.3,0.9,2.4,0.9c0.2,0,0.4,0,0.6,0l79.1-12.8c1.3-0.2,2.4-0.9,3.2-1.9c0.9-0.9,1.3-2.2,1.3-3.5v-40c0-0.2,0-0.4,0-0.6
				c-0.2-0.9-0.6-1.7-1.1-2.2l0,0c-0.6-0.4-1.3-0.9-2.4-0.9C796.7,807.2,796.5,807.2,796.3,807.2z"/>
			<polygon class="st7" points="573.8,964.4 653.1,949.7 653.5,951.4 574,966.1 			"/>
			<polygon class="st7" points="574.4,970.4 653.8,955.7 654.2,957.5 574.6,972.2 			"/>
			<polygon class="st7" points="574.8,976.5 654.4,961.8 654.6,963.7 575.3,978.4 			"/>
			<polygon class="st7" points="575.5,982.8 654.8,968.1 655.3,969.8 575.9,984.5 			"/>
			<polygon class="st7" points="576.1,988.8 655.5,974.1 655.9,975.8 576.4,990.5 			"/>
			<polygon class="st7" points="576.6,994.9 656.1,980.2 656.4,981.9 577,996.6 			"/>
			<polygon class="st7" points="730.5,946 810.1,931.3 810.3,933.2 731,947.7 			"/>
			<polygon class="st7" points="731.2,952.3 810.5,937.6 811,939.3 731.4,954 			"/>
			<polygon class="st7" points="731.8,958.3 811.2,943.6 811.6,945.3 732,960.1 			"/>
			<polygon class="st7" points="732.3,964.4 811.8,949.7 812,951.4 732.7,966.1 			"/>
			<polygon class="st7" points="717.3,829.9 796.7,815.2 797.1,816.9 717.6,831.6 			"/>
			<polygon class="st7" points="717.3,839.6 796.7,824.9 797.1,826.6 717.6,841.3 			"/>
			<polygon class="st7" points="717.3,849.1 796.7,834.4 797.1,836.4 717.6,851.1 			"/>
			<polygon class="st7" points="717.3,858.9 796.7,844.2 797.1,845.9 717.6,860.6 			"/>
		</g>
	</g>
</g>
<g>
	<g>
		<path class="st0" d="M3.3,4.1h342.3v47.6c-1.8,1.1-3.7,2.1-5.7,2.9c-7.4,3.6-14.8,5.9-19.5,7.5c-0.8,0.2-1.4,0.4-2.1,0.7v37.8
			c1.4,0,3.2-0.2,5.3-0.5c5.3-0.9,13.4-2.5,21.8-4.3v34.7c-4.2,1.1-7.7,3.2-10,4.3c-2.6,1.4-3.5,1.6-5.4,1.3c-2-0.4-5-1.5-8.7-2.7
			c-3.7-1.2-7.9-2.4-10.9-3.3c-2.9-0.9-4.6-1.4-6.6-0.8s-4.5,2.5-5.4,5.1s-0.7,6.1,1.7,8.6c2.4,2.5,6.7,4,11,4.7
			c4.2,0.7,8.4,0.4,10.7,1.6c2.3,1.2,2.7,3.8,2.3,6c-0.3,2.2-1.5,3.7-2.6,4.7s-2.2,1.3-2.9,2c-0.7,0.8-0.9,1.8-1,4.6
			c-0.1,2.7-0.1,7.1-0.4,9.3c-0.3,2.3-1.1,2.5-7.5,3.3s-18.5,2.3-24.2,3c-5.9,0.9-5.4,1-0.3,1.4c5.1,0.4,14.8,1,20.6,1.5
			s7.9,1.1,11.1,0.2c3.3-0.9,7.7-3,13-6.2c4.6-2.7,9.7-6,15.4-9.1v82.2H3.3v-39.2c5,0.2,9.7,0.5,13.4,0.8c8.8,0.4,12.5,0.5,17.4,2.4
			c4.9,1.8,11.1,5.5,18,9.1s14.6,7.2,19.8,9.1s7.9,2.5,11.7,2.1c3.7-0.4,8.4-1.7,11.5-3.2c3.2-1.4,4.8-2.9,7.1-3.4s5.2,0.2,7.7-0.3
			c2.5-0.5,4.5-2.4,6-4.1c1.5-1.7,2.4-3.4,4.1-3.9c1.7-0.5,4.2,0,6.2,0.1c2,0,3.6-0.4,6-2.4c2.4-2,5.8-5.2,8.6-8.8
			c2.8-3.6,5-7.3,6-9.1c1.1-2,1-2-5.1-1.3c-6.1,0.7-18.3,2.1-25.4,3c-7.2,0.9-9.2,1.3-10.9,0.8c-1.6-0.5-2.8-2.1-4.8-4.8
			c-2.1-2.7-5-6.6-6.4-8.7c-1.4-2-1.2-2.1-0.4-2.1s2.3,0.1,5.7,0.7c3.5,0.5,8.9,1.6,13.6,2c4.8,0.3,8.7,0,12.3-1.8
			c3.5-1.7,6.4-4.9,7.7-7.3c1.2-2.4,0.8-3.9-2-4.8c-2.7-1-7.7-1.3-13.2-2.4c-5.5-1.1-11.5-2.8-16.4-4.1c-4.9-1.4-8.7-2.4-13.2-2.9
			c-4.3-0.5-9.3-0.5-14.9-0.3c-5.5,0.2-11.6,0.8-15.8,2c-4,1.2-6.1,3.2-9.3,4.1s-7.9,1.1-12.7,0.5c-4.8-0.5-9.8-1.6-22.7-6.7
			c-2.9-1.1-6.2-2.4-9.7-3.9v-22.9c1,0.5,2.1,1.1,3.2,1.6c5.9,2.9,14.3,5.8,20.5,7.2c2.3,0.5,4.2,0.9,6,1.1V88.6c-0.4,0-1,0-1.4,0
			c-4.9,0.1-11.2,0.3-17.2,0.9c-3.8,0.4-7.7,1-11,1.5V4.1z"/>
		<path class="st1" d="M32.9,57.2l54.9,28.4v81.6c-4.2-0.4-9-0.4-14.3-0.2c-5.5,0.2-11.6,0.8-15.8,2c-4,1.2-6.1,3.2-9.3,4.1
			s-7.9,1.1-12.7,0.5c-0.9-0.1-1.7-0.2-2.7-0.3C32.9,173.3,32.9,57.2,32.9,57.2z"/>
		<polygon class="st2" points="52.7,67.3 67.4,74.9 67.4,113.2 52.7,105.3 		"/>
		<path class="st3" d="M318.5,57.2L87.8,85.5v81.6l0.5,0.1c4.3,0.5,8.3,1.6,13.2,2.9c4.9,1.4,11,3.2,16.4,4.1
			c5.5,1.1,10.4,1.4,13.2,2.4c2.7,1,3.2,2.5,2,4.8c-1.2,2.4-4.2,5.5-7.7,7.3c-3.5,1.7-7.5,2.2-12.3,1.8c-4.8-0.3-10.2-1.4-13.6-2
			c-3.5-0.5-4.9-0.7-5.7-0.7s-1,0.1,0.4,2.1c1.4,2,4.3,6,6.4,8.7c2.1,2.7,3.2,4.2,4.8,4.8c1.6,0.5,3.7,0.2,10.9-0.8
			c7.2-0.9,19.2-2.4,25.4-3c3.5-0.4,5-0.5,5.5-0.2L281.7,183c0.3-0.2,1.6-0.4,4.2-0.8c5.9-0.9,17.8-2.3,24.2-3
			c6.4-0.8,7.1-1,7.5-3.3c0.3-2.3,0.3-6.6,0.4-9.3c0.1-2.1,0.2-3.3,0.5-4v-14.1c-2.1-0.2-4.6-0.3-7.2-0.8c-4.2-0.7-8.6-2.2-11-4.7
			c-2.4-2.5-2.8-6-1.7-8.6c1-2.6,3.5-4.5,5.4-5.1c2.1-0.7,3.7-0.1,6.6,0.8c2.2,0.7,5,1.4,7.8,2.3V57.2H318.5z"/>
		<polygon class="st4" points="263.6,28.8 32.9,57.1 32.9,57.2 87.8,85.5 263.6,64 318.5,57.2 318.5,57 263.6,28.6 		"/>
		<polygon class="st5" points="51.9,66.9 67.8,75.2 297.4,46.1 281.4,37.9 		"/>
		<polygon class="st6" points="280.2,85.4 147.5,106.2 153.1,192.5 282.6,168.5 		"/>
		<g>
			<polygon class="st7" points="154.2,139.7 277.5,119.9 277.8,121.9 154.6,141.7 			"/>
			<path class="st7" d="M229.4,96.9l39.8-6.4c0.2,0,0.3,0,0.4,0c0.7,0,1.3,0.2,1.7,0.7l0,0c0.4,0.4,0.8,1,0.9,1.6c0,0.2,0,0.3,0,0.5
				v20c0,0.9-0.3,1.6-0.9,2.3c-0.5,0.7-1.3,1.1-2.2,1.2l-39.8,6.4c-0.2,0-0.3,0-0.4,0c-0.7,0-1.3-0.2-1.7-0.7
				c-0.4-0.4-0.8-1-0.9-1.6c0-0.2,0-0.3,0-0.5v-20c0-0.9,0.3-1.6,0.9-2.3C227.8,97.4,228.6,97,229.4,96.9L229.4,96.9z M269.3,91.2
				l-39.8,6.5c-0.7,0.1-1.2,0.4-1.6,1c-0.4,0.4-0.7,1.1-0.7,1.7v20c0,0.1,0,0.2,0,0.3l0,0c0.1,0.4,0.3,0.9,0.5,1.1
				c0.3,0.2,0.7,0.4,1.2,0.4c0.1,0,0.2,0,0.3,0l39.8-6.4c0.7-0.1,1.2-0.4,1.6-1c0.4-0.4,0.7-1.1,0.7-1.7V93.1c0-0.1,0-0.2,0-0.3
				c-0.1-0.4-0.3-0.9-0.5-1.1l0,0c-0.3-0.2-0.7-0.4-1.2-0.4C269.5,91.2,269.4,91.2,269.3,91.2z"/>
			<polygon class="st7" points="157.5,170.3 197.4,162.9 197.6,163.7 157.6,171.1 			"/>
			<polygon class="st7" points="157.8,173.3 197.7,165.9 197.9,166.8 157.9,174.2 			"/>
			<polygon class="st7" points="158,176.3 198,169 198.1,169.9 158.3,177.3 			"/>
			<polygon class="st7" points="158.4,179.5 198.3,172.1 198.5,173 158.6,180.4 			"/>
			<polygon class="st7" points="158.7,182.5 198.6,175.2 198.8,176 158.8,183.4 			"/>
			<polygon class="st7" points="158.9,185.6 198.9,178.2 199,179.1 159.1,186.5 			"/>
			<polygon class="st7" points="236.3,161 276.3,153.6 276.4,154.6 236.5,161.9 			"/>
			<polygon class="st7" points="236.6,164.2 276.5,156.8 276.7,157.7 236.7,165 			"/>
			<polygon class="st7" points="236.9,167.2 276.8,159.8 277,160.7 237,168.1 			"/>
			<polygon class="st7" points="237.2,170.3 277.2,162.9 277.3,163.7 237.4,171.1 			"/>
			<polygon class="st7" points="229.7,102.7 269.5,95.3 269.8,96.1 229.8,103.5 			"/>
			<polygon class="st7" points="229.7,107.6 269.5,100.2 269.8,101 229.8,108.4 			"/>
			<polygon class="st7" points="229.7,112.3 269.5,104.9 269.8,105.9 229.8,113.3 			"/>
			<polygon class="st7" points="229.7,117.2 269.5,109.8 269.8,110.7 229.8,118.1 			"/>
		</g>
	</g>
</g>
<g>
	<g>
		<path class="st0" d="M1264.7,636.8h968v134.6c-5.2,3.1-10.4,5.8-16,8.3c-20.9,10.1-41.8,16.6-55,21.2c-2.2,0.6-4,1.2-5.8,1.8
			v106.9c4,0,8.9-0.6,15.1-1.5c15.1-2.5,37.8-7.1,61.8-12.3v98c-12,3.1-21.8,8.9-28.3,12.3c-7.4,4-9.8,4.6-15.4,3.7
			c-5.5-1.2-14.1-4.3-24.6-7.7c-10.4-3.4-22.4-6.8-30.7-9.2s-12.9-4-18.7-2.2c-5.8,1.8-12.6,7.1-15.4,14.4
			c-2.8,7.4-1.8,17.2,4.9,24.3c6.8,7.1,19.1,11.4,31,13.2c12,1.8,23.7,1.2,30.1,4.6c6.5,3.4,7.7,10.8,6.5,16.9
			c-0.9,6.1-4.3,10.4-7.4,13.2c-3.1,2.8-6.1,3.7-8.3,5.5c-1.8,2.2-2.5,5.2-2.8,12.9c-0.3,7.7-0.3,20-1.2,26.4
			c-0.9,6.5-3.1,7.1-21.2,9.2c-18.1,2.2-52.2,6.5-68.5,8.6c-16.6,2.5-15.4,2.8-0.9,4c14.4,1.2,41.8,2.8,58.4,4.3
			c16.6,1.5,22.4,3.1,31.3,0.6c9.2-2.5,21.8-8.6,36.9-17.5c12.9-7.7,27.3-16.9,43.6-25.8V1338h-967.3v-110.9
			c14.1,0.6,27.3,1.5,37.8,2.2c24.9,1.2,35.3,1.5,49.2,6.8s31.3,15.7,51,25.8c19.7,10.1,41.2,20.3,55.9,25.8
			c14.7,5.5,22.4,7.1,33.2,5.8c10.4-1.2,23.7-4.9,32.6-8.9s13.5-8.3,20-9.5c6.5-1.2,14.7,0.6,21.8-0.9c7.1-1.5,12.6-6.8,16.9-11.7
			s6.8-9.5,11.7-11.1c4.9-1.5,12,0,17.5,0.3c5.5,0,10.1-1.2,16.9-6.8c6.8-5.5,16.3-14.7,24.3-24.9s14.1-20.6,16.9-25.8
			c3.1-5.5,2.8-5.5-14.4-3.7s-51.6,5.8-71.9,8.6c-20.3,2.5-26.1,3.7-30.7,2.2c-4.6-1.5-8-5.8-13.5-13.5
			c-5.8-7.7-14.1-18.7-18.1-24.6c-4-5.5-3.4-5.8-1.2-5.8s6.5,0.3,16,1.8c9.8,1.5,25.2,4.6,38.4,5.5c13.5,0.9,24.6,0,34.7-5.2
			c9.8-4.9,18.1-13.8,21.8-20.6c3.4-6.8,2.2-11.1-5.5-13.5c-7.7-2.8-21.8-3.7-37.2-6.8c-15.7-3.1-32.6-8-46.4-11.7
			c-13.8-4-24.6-6.8-37.2-8.3c-12.3-1.5-26.4-1.5-42.1-0.9c-15.7,0.6-32.9,2.2-44.6,5.5c-11.4,3.4-17.2,8.9-26.4,11.7
			s-22.4,3.1-36,1.5c-13.5-1.5-27.7-4.6-64.2-19.1c-8.3-3.1-17.5-6.8-27.3-11.1v-64.8c2.8,1.5,5.8,3.1,8.9,4.6
			c16.6,8.3,40.6,16.3,58.1,20.3c6.5,1.5,12,2.5,16.9,3.1V875.8c-1.2,0-2.8,0-4,0c-13.8,0.3-31.7,0.9-48.6,2.5
			c-10.8,1.2-21.8,2.8-31,4.3V636.8z"/>
		<path class="st1" d="M1348.6,787l155.2,80.2V1098c-12-1.2-25.5-1.2-40.6-0.6c-15.7,0.6-32.9,2.2-44.6,5.5
			c-11.4,3.4-17.2,8.9-26.4,11.7c-9.2,2.8-22.4,3.1-36,1.5c-2.5-0.3-4.9-0.6-7.7-0.9C1348.6,1115.2,1348.6,787,1348.6,787z"/>
		<polygon class="st2" points="1404.5,815.6 1446,837.1 1446,945.3 1404.5,922.9 		"/>
		<path class="st3" d="M2155.9,787l-652.1,79.9v230.8l1.5,0.3c12.3,1.5,23.4,4.6,37.2,8.3c13.8,4,31,8.9,46.4,11.7
			c15.7,3.1,29.5,4,37.2,6.8c7.7,2.8,8.9,7.1,5.5,13.5c-3.4,6.8-12,15.7-21.8,20.6c-9.8,4.9-21.2,6.1-34.7,5.2
			c-13.5-0.9-28.9-4-38.4-5.5c-9.8-1.5-13.8-1.8-16-1.8s-2.8,0.3,1.2,5.8c4,5.5,12.3,16.9,18.1,24.6c5.8,7.7,8.9,12,13.5,13.5
			c4.6,1.5,10.4,0.6,30.7-2.2c20.3-2.5,54.4-6.8,71.9-8.6c9.8-1.2,14.1-1.5,15.7-0.6l380.1-46.7c0.9-0.6,4.6-1.2,12-2.2
			c16.6-2.5,50.4-6.5,68.5-8.6c18.1-2.2,20-2.8,21.2-9.2c0.9-6.5,0.9-18.7,1.2-26.4c0.3-5.8,0.6-9.2,1.5-11.4v-39.9
			c-5.8-0.6-12.9-0.9-20.3-2.2c-12-1.8-24.3-6.1-31-13.2c-6.8-7.1-8-16.9-4.9-24.3c2.8-7.4,9.8-12.6,15.4-14.4
			c5.8-1.8,10.4-0.3,18.7,2.2c6.1,1.8,14.1,4,22.1,6.5V787H2155.9z"/>
		<polygon class="st4" points="2000.7,706.5 1348.6,786.7 1348.6,787 1503.8,866.9 2000.7,806.1 2155.9,787 2155.9,786.4 
			2000.7,706.2 		"/>
		<polygon class="st5" points="1402.1,814.4 1447.3,837.7 2096.3,755.7 2051.1,732.3 		"/>
		<polygon class="st6" points="2047.7,866.6 1672.5,925.6 1688.5,1169.6 2054.5,1101.7 		"/>
		<g>
			<polygon class="st7" points="1691.6,1020.3 2040,964.3 2040.9,969.9 1692.5,1025.8 			"/>
			<path class="st7" d="M1904.2,899.2l112.5-18.1c0.6,0,0.9,0,1.2,0c1.8,0,3.7,0.6,4.9,1.8l0,0c1.2,1.2,2.2,2.8,2.5,4.6
				c0,0.6,0,0.9,0,1.5v56.5c0,2.5-0.9,4.6-2.5,6.5c-1.5,1.8-3.7,3.1-6.1,3.4l-112.5,18.1c-0.6,0-0.9,0-1.2,0c-1.8,0-3.7-0.6-4.9-1.8
				c-1.2-1.2-2.2-2.8-2.5-4.6c0-0.6,0-0.9,0-1.5V909c0-2.5,0.9-4.6,2.5-6.5C1899.6,900.7,1901.7,899.5,1904.2,899.2L1904.2,899.2z
				 M2017,883.2l-112.5,18.4c-1.8,0.3-3.4,1.2-4.6,2.8c-1.2,1.2-1.8,3.1-1.8,4.9v56.5c0,0.3,0,0.6,0,0.9l0,0
				c0.3,1.2,0.9,2.5,1.5,3.1c0.9,0.6,1.8,1.2,3.4,1.2c0.3,0,0.6,0,0.9,0l112.5-18.1c1.8-0.3,3.4-1.2,4.6-2.8
				c1.2-1.2,1.8-3.1,1.8-4.9v-56.8c0-0.3,0-0.6,0-0.9c-0.3-1.2-0.9-2.5-1.5-3.1l0,0c-0.9-0.6-1.8-1.2-3.4-1.2
				C2017.6,883.2,2017.3,883.2,2017,883.2z"/>
			<polygon class="st7" points="1700.8,1106.6 1813.5,1085.7 1814.2,1088.2 1701.1,1109.1 			"/>
			<polygon class="st7" points="1701.7,1115.2 1814.5,1094.3 1815.1,1096.8 1702,1117.7 			"/>
			<polygon class="st7" points="1702.3,1123.8 1815.4,1102.9 1815.7,1105.7 1702.9,1126.6 			"/>
			<polygon class="st7" points="1703.2,1132.7 1816,1111.8 1816.6,1114.3 1703.8,1135.2 			"/>
			<polygon class="st7" points="1704.2,1141.3 1816.9,1120.4 1817.5,1122.9 1704.5,1143.8 			"/>
			<polygon class="st7" points="1704.8,1149.9 1817.9,1129 1818.2,1131.5 1705.4,1152.4 			"/>
			<polygon class="st7" points="1923.6,1080.5 2036.6,1059.6 2036.9,1062.4 1924.2,1083 			"/>
			<polygon class="st7" points="1924.5,1089.4 2037.3,1068.5 2037.9,1071 1924.8,1091.9 			"/>
			<polygon class="st7" points="1925.4,1098 2038.2,1077.1 2038.8,1079.6 1925.7,1100.5 			"/>
			<polygon class="st7" points="1926,1106.6 2039.1,1085.7 2039.4,1088.2 1926.6,1109.1 			"/>
			<polygon class="st7" points="1904.8,915.5 2017.6,894.6 2018.2,897 1905.1,917.9 			"/>
			<polygon class="st7" points="1904.8,929.3 2017.6,908.4 2018.2,910.9 1905.1,931.8 			"/>
			<polygon class="st7" points="1904.8,942.8 2017.6,921.9 2018.2,924.7 1905.1,945.6 			"/>
			<polygon class="st7" points="1904.8,956.7 2017.6,935.8 2018.2,938.2 1905.1,959.1 			"/>
		</g>
	</g>
</g>
<g>
	<path class="st0" d="M647.9,16.1h-80.1l-47.6,82.4l-5.4-82.4h-76c1.1,3.6,1.4,5.2,1.4,8.1c0,1.8-0.2,4.1-0.5,7.2
		c-0.5,2-0.7,3.6-0.9,4.5l-27.1,104.9c-2.3,8.8-4.5,14.7-7,19.4c-0.9,1.6-1.8,2.9-4.1,6.3h34.3c-1.1-3.6-1.4-5-1.4-8.1
		c0-1.8,0.2-4.1,0.5-7.2c0.5-1.8,0.7-3.4,0.9-4.5l25.5-98.4l7.7,118.2h40.8l68.6-118.7l-24.1,93c-2.3,8.8-4.5,14.7-7,19.4
		c-0.9,1.6-1.8,2.9-4.1,6.3h67.5c-1.1-3.6-1.4-5-1.4-8.1c0-1.6,0.2-4.1,0.5-7.2c0.5-1.8,0.7-3.4,0.9-4.5l27.1-104.9
		c2.3-8.8,4.5-14.7,7-19.2C644.8,21,645.7,19.7,647.9,16.1L647.9,16.1z M731.2,16.1c-2.3,3.6-3.2,5-4.1,6.5
		c-2.5,4.5-4.5,10.4-6.8,19.2L693,146.7c-0.2,1.1-0.5,2.7-0.7,4.5c-0.5,3.2-0.7,5.6-0.7,7.2c0,3.2,0.2,4.5,1.6,8.1h-67.5
		c2.3-3.4,3.2-4.7,4.1-6.3c2.5-4.7,4.5-10.6,6.8-19.4L664,35.9c0.2-0.9,0.5-2.5,0.7-4.5c0.5-3.2,0.7-5.4,0.7-7.2
		c0-2.9-0.2-4.5-1.6-8.1L731.2,16.1L731.2,16.1z M798,97.1h-79.4l-6.8,26.9h79.4L798,97.1L798,97.1z M960,16.1l-3.4,28.7
		c-3.8-2-5.4-2.7-7.9-3.2c-2.5-0.2-6.8-0.7-10.2-0.7h-55.3l-9.5,36.8h56c5.2,0,9.9-0.7,14.9-2.3l-7.6,30.2c-5-2.5-8.3-3.2-17.8-3.2
		h-51.9l-10.2,39.3h59.1c6.3,0,10.2-0.7,16-3.4l-11.1,28.2H788.5c2.3-3.4,3.2-4.7,4.1-6.3c2.5-4.7,4.5-10.6,6.8-19.4l27.3-104.9
		c0.2-0.9,0.5-2.5,0.7-4.5c0.5-3.2,0.7-5.4,0.7-7.2c0-2.9-0.2-4.5-1.6-8.1L960,16.1L960,16.1z M1144.8,16.1h-44.2
		c-2.5,5.2-4.5,8.1-9,12l-39.9,33.8l-8.1-17.8l-2.9-6.1c-2.3-4.5-3.6-11.5-3.6-16c0-1.8,0.2-3.2,0.9-5.9h-73.8
		c4.7,6.1,6.3,8.6,9.9,14.7c2.7,4.3,5,8.3,6.8,12.4c0.5,0.7,2.5,4.7,6.1,12.6l20.3,43.8L956,143.1c-4.7,4.1-13.8,11.1-18.5,14.2
		c-5,3.4-8.1,5.2-16,9.3h49.9c2.7-6.3,4.3-8.8,11.5-14.9l34.8-29.8l7.2,15.3c2.5,5.2,5.9,13.8,6.8,17.8c0.5,1.8,0.9,5,0.9,7.4
		c0,1.4,0,2-0.5,4.1h73.6c-5-5.2-6.8-7.7-9.3-12.2c-1.1-2-2.3-4.3-3.8-7c-1.6-3.2-2.7-5.2-3.2-6.3l-28-56.2l63.2-53.5l4.7-4.1
		l5.9-4.5l5.9-4.1L1144.8,16.1L1144.8,16.1z M1304.2,43.4c0,3.2-0.2,4.3-1.8,10.4l-6.8,26.6c-2.7,10.4-3.2,11.3-6.3,16.7
		c-6.5,11.1-17.2,16.2-33.6,16.2h-7.2h-61.2l-8.8,33.4c-0.2,1.1-0.5,2.7-0.7,4.5c-0.5,3.2-0.7,5.6-0.7,7.4c0,2.9,0.2,4.3,1.6,7.9
		h-67.5c2.3-3.4,3.2-4.7,4.1-6.3c2.5-4.7,4.5-10.6,6.8-19.4l27.3-104.9c0.2-0.9,0.5-2.5,0.7-4.5c0.5-3.2,0.7-5.4,0.7-7.2
		c0-2.9-0.2-4.5-1.6-8.1h118.5c2.7,0,5,0,6.8,0.2c11.1,0.2,19,3.6,24.1,10.6C1302.1,31.4,1304.2,37.7,1304.2,43.4L1304.2,43.4z
		 M1245.5,48.3c0-2-0.7-3.4-1.8-5c-1.6-2-3.6-2.5-9.9-2.5H1206l-12.4,47.6h27.1c12.6,0,15.3-2,18.5-14l5.6-21.4
		C1245.3,51.5,1245.5,49.7,1245.5,48.3L1245.5,48.3z M1477.2,43.4c0-6.3-3.6-14-9-19.2c-6.1-5.9-12.9-8.1-24.1-8.1h-6.8h-112.6
		c1.4,3.6,1.6,5.2,1.6,8.1c0,1.8-0.2,4.1-0.7,7.2c-0.2,2-0.5,3.6-0.7,4.5l-27.3,104.9c-2.3,8.8-4.3,14.7-6.8,19.4
		c-0.9,1.6-1.8,2.9-4.1,6.3h67.5c-1.4-3.6-1.6-5-1.6-7.9c0-1.8,0.2-4.3,0.7-7.4c0.2-1.8,0.5-3.4,0.7-4.5l11.7-44.9h14.7l12.4,64.8
		h63.6c-5.9-5.9-7.7-9-9.3-17.2l-9.7-47.6c1.8,0,3.2,0.2,4.1,0.2c6.3,0,12.2-1.4,16.9-4.1c5.2-2.9,6.8-5.2,9.5-14.4l1.4-4.7
		l6.5-25.5c0.2-0.9,0.5-2.5,0.7-4.7C1477,46.1,1477.2,44.5,1477.2,43.4L1477.2,43.4z M1419,46.7c0,1.4-0.2,2.9-0.7,5l-3.8,15.1
		c-1.4,5.4-2.3,6.5-5.2,8.1c-2.3,1.1-3.4,1.4-8.8,1.4h-28.2l9.3-35.4h28.9C1416.8,40.9,1419,42.5,1419,46.7L1419,46.7z M1636.3,16.1
		l-3.4,28.7c-3.8-2-5.4-2.7-7.9-3.2c-2.5-0.2-6.8-0.7-10.2-0.7h-55.3l-9.5,36.8h56c5.2,0,9.9-0.7,14.9-2.3l-7.7,30.2
		c-5-2.5-8.3-3.2-17.8-3.2h-51.9l-10.2,39.3h59.1c6.3,0,10.2-0.7,16-3.4l-11.1,28.2h-132.7c2.3-3.4,3.2-4.7,4.1-6.3
		c2.5-4.7,4.5-10.6,6.8-19.4L1503,35.9c0.2-0.9,0.5-2.5,0.7-4.5c0.5-3.2,0.7-5.4,0.7-7.2c0-2.9-0.2-4.5-1.6-8.1L1636.3,16.1
		L1636.3,16.1z M1790.7,16.1h-105.8c-5.6,0-13.3,1.1-17.8,2.3c-3.2,0.9-6.3,2.3-9.7,4.3c-7.2,4.7-12.6,12-14.7,19l-1.6,5.6l-9,34.8
		c-2.5,9.5-2.9,13.1-2.9,17.6c0,13.5,9.5,20.5,28.2,20.5h36.3h6.1c5.9,0,8.6,1.8,8.6,5.4c0,1.4-0.5,2.9-1.1,6.5
		c-0.5,1.8-1.1,3.6-2,5.2c-1.4,3.2-3.4,4.5-7,4.5h-4.3h-49h-10.2c-2.9,0-5.9-0.7-9-1.8c-2.7-0.9-4.3-1.6-7.9-3.8l-4.3,30.5h99.3h7.9
		c14.7,0,21-1.6,28.2-6.8c4.1-2.9,7.2-6.3,9-9.9c1.4-2.9,4.1-10.8,5.4-16.2l9.9-38.4c1.8-6.8,2-7.7,2-11.7c0-5.6-1.4-9-5-13.3
		c-4.5-5.2-8.8-6.8-19.2-6.8h-45.8c-6.3,0-9-1.6-9-5.6c0-1.1,0.5-2.7,1.1-5.2l1.4-5c1.6-5.4,4.3-6.8,12.4-6.8h52.8
		c5.4,0,10.8,0.7,14.7,1.8c2.9,0.9,5,1.8,8.6,4.5L1790.7,16.1L1790.7,16.1z M1950,16.1l-3.4,31.1c-3.6-2.7-5.6-3.6-8.6-4.5
		c-3.8-1.1-9.3-1.8-14.7-1.8h-52.8c-8.1,0-10.8,1.4-12.4,6.8l-1.4,5c-0.7,2.5-1.1,4.1-1.1,5.2c0,4.1,2.7,5.6,9,5.6h45.8
		c10.4,0,14.7,1.6,19.2,6.8c3.6,4.3,5,7.7,5,13.3c0,4.1-0.2,5-2,11.7l-9.9,38.4c-1.4,5.4-4.1,13.3-5.4,16.2c-1.8,3.6-5,7-9,9.9
		c-7.2,5.2-13.5,6.8-28.2,6.8h-7.9h-99.3l4.3-30.5c3.6,2.3,5.2,2.9,7.9,3.8c3.2,1.1,6.1,1.8,9,1.8h10.2h49h4.3c3.6,0,5.6-1.4,7-4.5
		c0.9-1.6,1.6-3.4,2-5.2c0.7-3.6,1.1-5.2,1.1-6.5c0-3.6-2.7-5.4-8.6-5.4h-6.1h-36.3c-18.7,0-28.2-7-28.2-20.5
		c0-4.5,0.5-8.1,2.9-17.6l9-34.8l1.6-5.6c2-7,7.4-14.2,14.7-19c3.4-2,6.5-3.4,9.7-4.3c4.5-1.1,12.2-2.3,17.8-2.3H1950V16.1z"/>
	<path class="st8" d="M647.9,16.1h-80.1l-40.9,70.8H555l22.5-39l-10.1,39h57.8l11.6-45.1c2.3-8.8,4.5-14.7,7-19.2
		C644.8,21,645.7,19.7,647.9,16.1L647.9,16.1z M519.5,86.9l-4.7-70.8h-76c1.1,3.6,1.4,5.2,1.4,8.1c0,1.8-0.2,4.1-0.5,7.2
		c-0.5,2-0.7,3.6-0.9,4.5l-13.1,50.9h24.8l10-38.5l2.5,38.5L519.5,86.9L519.5,86.9z M1934.5,86.9h-144.4c0.3-1.4,0.7-3.1,1.2-4.9
		l9-34.8l1.6-5.6c2-7,7.4-14.2,14.7-19c3.4-2,6.5-3.4,9.7-4.3c4.5-1.1,12.2-2.3,17.8-2.3H1950l-3.4,31.1c-3.6-2.7-5.6-3.6-8.6-4.5
		c-3.8-1.1-9.3-1.8-14.7-1.8h-52.8c-8.1,0-10.8,1.4-12.4,6.8l-1.4,5c-0.7,2.5-1.1,4.1-1.1,5.2c0,4.1,2.7,5.6,9,5.6h45.8
		c10.4,0,14.7,1.6,19.2,6.8c3.6,4.3,5,7.7,5,13.3C1934.7,84.9,1934.6,85.9,1934.5,86.9L1934.5,86.9z M1775.2,86.9
		c0.1-1,0.1-2,0.1-3.3c0-5.6-1.4-9-5-13.3c-4.5-5.2-8.8-6.8-19.2-6.8h-45.8c-6.3,0-9-1.6-9-5.6c0-1.1,0.5-2.7,1.1-5.2l1.4-5
		c1.6-5.4,4.3-6.8,12.4-6.8h52.8c5.4,0,10.8,0.7,14.7,1.8c2.9,0.9,5,1.8,8.6,4.5l3.4-31.1h-105.8c-5.6,0-13.3,1.1-17.8,2.3
		c-3.2,0.9-6.3,2.3-9.7,4.3c-7.2,4.7-12.6,12-14.7,19l-1.6,5.6l-9,34.8c-0.5,1.8-0.9,3.5-1.2,4.9L1775.2,86.9L1775.2,86.9z
		 M1618.1,86.9h-128.4L1503,36c0.2-0.9,0.5-2.5,0.7-4.5c0.5-3.2,0.7-5.4,0.7-7.2c0-2.9-0.2-4.5-1.6-8.1h133.6l-3.4,28.7
		c-3.8-2-5.4-2.7-7.9-3.2c-2.5-0.2-6.8-0.7-10.2-0.7h-55.3l-9.5,36.8h56c5.2,0,9.9-0.7,14.9-2.3L1618.1,86.9L1618.1,86.9z
		 M1467,86.9h-155.3L1325,36c0.2-0.9,0.5-2.5,0.7-4.5c0.5-3.2,0.7-5.4,0.7-7.2c0-2.9-0.2-4.5-1.6-8.1h112.6h6.8
		c11.3,0,18.1,2.3,24.1,8.1c5.4,5.2,9,12.9,9,19.2c0,1.1-0.2,2.7-0.7,5.2c-0.2,2.3-0.5,3.8-0.7,4.7l-6.5,25.5l-1.4,4.7
		C1467.6,84.8,1467.3,85.9,1467,86.9L1467,86.9z M1293.8,86.9H1232c3.6-1.8,5.3-5.4,7.1-12.4l5.6-21.4c0.5-1.6,0.7-3.4,0.7-4.7
		c0-2-0.7-3.4-1.8-5c-1.6-2-3.6-2.5-9.9-2.5H1206l-12,46h-57.9l13.3-50.9c0.2-0.9,0.5-2.5,0.7-4.5c0.5-3.2,0.7-5.4,0.7-7.2
		c0-2.9-0.2-4.5-1.6-8.1h118.5c2.7,0,5,0,6.8,0.2c11.1,0.2,19,3.6,24.1,10.6c3.6,4.5,5.6,10.8,5.6,16.5c0,3.2-0.2,4.3-1.8,10.4
		l-6.8,26.6C1294.9,83.1,1294.3,85.2,1293.8,86.9L1293.8,86.9z M1062.3,86.9l-1-2l63.2-53.5l4.7-4.1l5.9-4.5l5.9-4.1l3.8-2.7h-44.2
		c-2.5,5.2-4.5,8.1-9,12l-39.9,33.8l-8.1-17.8l-2.9-6.1c-2.3-4.5-3.6-11.5-3.6-16c0-1.8,0.2-3.2,0.9-5.9h-73.8
		c4.7,6.1,6.3,8.6,9.9,14.7c2.7,4.3,5,8.3,6.8,12.4c0.5,0.7,2.5,4.7,6.1,12.6l14.4,31.1h60.9V86.9z M941.8,86.9H813.4L826.7,36
		c0.2-0.9,0.5-2.5,0.7-4.5c0.5-3.2,0.7-5.4,0.7-7.2c0-2.9-0.2-4.5-1.6-8.1H960l-3.4,28.7c-3.8-2-5.4-2.7-7.9-3.2
		c-2.5-0.2-6.8-0.7-10.2-0.7h-55.3l-9.5,36.8h56c5.2,0,9.9-0.7,14.9-2.3L941.8,86.9L941.8,86.9z M708.6,86.9h-57.9l13.3-51
		c0.2-0.9,0.5-2.5,0.7-4.5c0.5-3.2,0.7-5.4,0.7-7.2c0-2.9-0.2-4.5-1.6-8.1h67.5c-2.3,3.6-3.2,5-4.1,6.5c-2.5,4.5-4.5,10.4-6.8,19.2
		L708.6,86.9L708.6,86.9z M1419,46.7c0-4.3-2.3-5.9-8.6-5.9h-28.9l-9.3,35.4h28.2c5.4,0,6.5-0.2,8.8-1.4c2.9-1.6,3.8-2.7,5.2-8.1
		l3.8-15.1C1418.8,49.7,1419,48.1,1419,46.7z"/>
	<path class="st9" d="M429.3,197.8h-19.2c-6.3,0-10.9,1.3-13.9,3.8c-2.9,2.5-4.4,6.5-4.4,11.9c0,1.8,0.3,3.3,0.8,4.5
		c0.5,1.1,1.4,2,2.5,2.7s2.4,1.2,4.1,1.4c1.6,0.3,3.5,0.5,5.7,0.6l17.8,0.8c2.6,0.1,4.3,0.4,5.2,1c0.9,0.6,1.4,1.4,1.4,2.5
		c0,0.8-0.1,1.6-0.3,2.3c-0.2,0.7-0.6,1.3-1.1,1.8c-0.6,0.5-1.4,0.9-2.4,1.2s-2.3,0.4-4,0.4H404c-1.3,0-2.4-0.3-3.3-0.8
		c-0.8-0.6-1.3-1.3-1.3-2.3c0-0.2,0-0.4,0.1-0.5H389c-0.1,0.7-0.2,1.3-0.3,1.8c-0.1,0.5-0.1,0.9-0.1,1.1c0,1.3,0.2,2.5,0.7,3.6
		s1.2,2.1,2.2,3s2.4,1.5,4,2s3.6,0.8,6,0.8h21.6c3.4,0,6.3-0.4,8.5-1.1c2.3-0.7,4.1-1.8,5.4-3.3c1.3-1.4,2.2-3.2,2.8-5.3
		s0.8-4.5,0.8-7.3c0-1.6-0.3-2.9-0.8-4c-0.6-1.1-1.4-2.1-2.4-2.9c-1-0.8-2.2-1.4-3.6-1.8c-1.4-0.4-2.9-0.6-4.5-0.7l-20.9-0.8
		c-0.6,0-1.2-0.1-1.8-0.2c-0.6-0.1-1-0.2-1.4-0.4s-0.7-0.5-0.9-0.8c-0.2-0.4-0.3-0.9-0.3-1.6c0-1.1,0.2-1.9,0.6-2.6
		c0.4-0.6,0.8-1.1,1.4-1.4c0.6-0.3,1.2-0.5,1.9-0.6c0.7-0.1,1.4-0.1,2-0.1h17.5c1.9,0,3.2,0.2,3.8,0.6c0.6,0.4,1,1.1,1,2
		c0,0.2,0,0.3,0,0.5s0,0.4-0.1,0.6h11.2c0.1-0.5,0.1-1,0.2-1.4c0-0.5,0.1-0.9,0.1-1.4c0-2.8-1.2-5.1-3.5-6.8
		C437.7,198.7,434.1,197.8,429.3,197.8L429.3,197.8z M452.5,197.8l-7.7,43.6h44.6l1.5-8.7h-34.1l1.7-9.4h33l1.6-8.7H460l1.4-8h34.2
		l1.5-8.7h-44.6V197.8z M547.2,229.1c0,0.5,0,1-0.1,1.6c0,0.6-0.1,1.3-0.3,2.3l-1.5,8.5h-10.5l1.1-5.9c0.1-0.7,0.2-1.2,0.3-1.6
		c0-0.4,0.1-0.7,0.1-0.9c0-3.1-2.1-4.6-6.2-4.6h-20.6l-2.3,13h-10.5l7.7-43.6H536c2.4,0,4.5,0.3,6.3,1c1.8,0.6,3.3,1.5,4.4,2.7
		c1.2,1.1,2.1,2.5,2.6,4c0.6,1.5,0.9,3.1,0.9,4.8c0,3.4-0.4,6.3-1.3,8.6c-0.9,2.3-2.3,4.1-4.3,5.2c0.8,0.3,1.5,0.9,2,1.7
		C547,226.6,547.2,227.7,547.2,229.1L547.2,229.1z M539.7,212.3c0-1.3-0.4-2.4-1.2-3c-0.8-0.7-2.1-1-4-1h-21.7l-1.7,9.8h22.6
		c0.9,0,1.7-0.1,2.4-0.2c0.7-0.1,1.4-0.4,1.9-0.8c0.5-0.4,1-1,1.3-1.7C539.5,214.5,539.7,213.5,539.7,212.3L539.7,212.3z
		 M568.6,197.8H557l14.8,43.6h16.6l30.3-43.6h-12.4L581,233.9L568.6,197.8L568.6,197.8z M616.1,241.4l7.7-43.6h10.5l-7.7,43.6H616.1
		L616.1,241.4z M651.6,241.5h17.1c3.4,0,6.3-0.3,8.5-0.8c2.3-0.5,4.1-1.3,5.5-2.5s2.5-2.7,3.3-4.7c0.8-1.9,1.4-4.4,1.9-7.3h-10.8
		c-0.2,1.2-0.5,2.2-0.9,3s-1,1.3-1.9,1.8c-0.9,0.4-2.1,0.7-3.5,0.8c-1.5,0.1-3.4,0.2-5.7,0.2h-8.5c-3,0-5.3-0.4-6.7-1.1
		c-1.5-0.7-2.2-2-2.2-3.9c0-1.2,0.1-2.7,0.2-4.3c0.1-1.7,0.5-3.8,0.9-6.3c0.3-1.8,0.7-3.2,1.1-4.4c0.4-1.2,1-2.1,1.8-2.7
		c0.8-0.7,1.8-1.1,3-1.4c1.2-0.3,2.8-0.4,4.6-0.4h10c2.1,0,3.9,0.1,5.2,0.3s2.4,0.4,3.1,0.7c0.8,0.3,1.3,0.7,1.5,1.2
		c0.3,0.5,0.4,1,0.4,1.7c0,0.2,0,0.4,0,0.6c0,0.2-0.1,0.4-0.1,0.7h10.8c0.2-1,0.4-1.9,0.4-2.7c0.1-0.8,0.1-1.4,0.1-1.7
		c0-1.8-0.3-3.3-1-4.6c-0.6-1.3-1.7-2.4-3.1-3.3c-1.4-0.9-3.3-1.5-5.5-1.9s-5-0.6-8.1-0.6h-10.9c-4.3,0-7.9,0.2-10.6,0.7
		c-2.8,0.4-5,1.3-6.8,2.6c-1.7,1.3-3.1,3.1-4.1,5.4c-1,2.3-1.8,5.3-2.4,9c-0.5,2.5-0.8,5-1.1,7.4s-0.4,4.6-0.4,6.4
		c0,1.8,0.3,3.5,0.9,5c0.6,1.5,1.5,2.8,2.7,3.8s2.7,1.9,4.6,2.5C646.9,241.2,649.1,241.5,651.6,241.5L651.6,241.5z M693.9,241.4
		h10.4l7.7-43.6h-10.5L693.9,241.4L693.9,241.4z M757.5,212.9c0,0.3,0,0.8-0.1,1.5c0,0.7-0.1,1.5-0.2,2.3c-0.1,0.9-0.2,1.8-0.3,2.7
		s-0.2,1.9-0.4,2.7c-0.4,2.1-0.8,3.8-1.3,5c-0.5,1.3-1.2,2.2-2.2,2.9s-2.2,1.1-3.8,1.4c-1.6,0.2-3.7,0.3-6.2,0.3h-8.3
		c-1.8,0-3.4-0.1-4.6-0.2c-1.2-0.1-2.2-0.4-3-0.8c-0.7-0.4-1.3-1-1.6-1.8s-0.5-1.7-0.5-2.9c0-0.8,0.1-2.1,0.4-3.7
		c0.3-1.7,0.7-4,1.3-7c0.3-1.5,0.6-2.8,1.1-3.8c0.4-1,1.1-1.8,1.9-2.4c0.9-0.6,2.1-1,3.6-1.3s3.5-0.4,6-0.4h7.7
		c2.1,0,3.7,0.1,5.1,0.3c1.3,0.2,2.4,0.5,3.2,0.9s1.3,1,1.6,1.7C757.4,211,757.5,211.9,757.5,212.9L757.5,212.9z M746.2,241.4
		c3.2,0,6-0.2,8.3-0.6c2.3-0.4,4.3-1.2,5.9-2.3c1.6-1.2,2.9-2.8,3.9-4.9c1-2.1,1.8-4.9,2.4-8.4c0.3-1.6,0.5-3.1,0.7-4.6
		s0.3-3,0.5-4.3c0.1-1.4,0.2-2.6,0.3-3.7c0.1-1.1,0.1-2.1,0.1-2.8c0-1.7-0.3-3.2-0.9-4.7c-0.6-1.5-1.5-2.7-2.9-3.8
		c-1.3-1.1-3-1.9-5.2-2.5c-2.1-0.6-4.8-0.9-7.9-0.9h-11.1c-4.3,0-7.8,0.3-10.6,0.8s-5.1,1.5-6.9,2.9c-1.8,1.4-3.2,3.2-4.1,5.5
		c-1,2.3-1.8,5.2-2.4,8.8c-0.4,2.3-0.8,4.6-1.1,7.1s-0.5,4.6-0.5,6.3c0,2,0.3,3.8,0.9,5.3c0.6,1.5,1.6,2.8,3,3.9
		c1.4,1,3.2,1.8,5.5,2.4c2.3,0.5,5.1,0.8,8.4,0.8h13.7V241.4z M773.4,229.2h12.1l-2.5,14.1c-0.4,2.1-1.1,3.7-2.2,4.9
		c-1.1,1.2-2.4,2.1-3.8,2.8c-1.5,0.6-3,1.1-4.7,1.3s-3.3,0.3-4.8,0.3l1-5.8c0.5,0,1.1,0,1.7-0.1c0.6-0.1,1.1-0.3,1.5-0.5
		c0.5-0.3,0.9-0.6,1.2-1c0.4-0.4,0.6-1,0.7-1.8l0.4-1.9h-2.8L773.4,229.2L773.4,229.2z M841.1,241.5h17.1c3.4,0,6.3-0.3,8.5-0.8
		c2.3-0.5,4.1-1.3,5.5-2.5s2.5-2.7,3.3-4.7c0.8-1.9,1.4-4.4,1.9-7.3h-10.8c-0.2,1.2-0.5,2.2-0.9,3s-1,1.3-1.9,1.8
		c-0.9,0.4-2.1,0.7-3.5,0.8c-1.5,0.1-3.4,0.2-5.7,0.2h-8.5c-3,0-5.3-0.4-6.7-1.1c-1.5-0.7-2.2-2-2.2-3.9c0-1.2,0.1-2.7,0.2-4.3
		c0.1-1.7,0.5-3.8,0.9-6.3c0.3-1.8,0.7-3.2,1.1-4.4c0.4-1.2,1-2.1,1.8-2.7c0.8-0.7,1.8-1.1,3-1.4c1.2-0.3,2.8-0.4,4.6-0.4h10
		c2.1,0,3.9,0.1,5.2,0.3s2.4,0.4,3.1,0.7c0.8,0.3,1.3,0.7,1.5,1.2c0.3,0.5,0.4,1,0.4,1.7c0,0.2,0,0.4,0,0.6c0,0.2-0.1,0.4-0.1,0.7
		h10.8c0.2-1,0.4-1.9,0.4-2.7c0.1-0.8,0.1-1.4,0.1-1.7c0-1.8-0.3-3.3-1-4.6c-0.6-1.3-1.7-2.4-3.1-3.3c-1.4-0.9-3.3-1.5-5.5-1.9
		s-5-0.6-8.1-0.6h-10.9c-4.3,0-7.9,0.2-10.6,0.7c-2.8,0.4-5,1.3-6.8,2.6c-1.7,1.3-3.1,3.1-4.1,5.4c-1,2.3-1.8,5.3-2.4,9
		c-0.5,2.5-0.8,5-1.1,7.4s-0.4,4.6-0.4,6.4c0,1.8,0.3,3.5,0.9,5c0.6,1.5,1.5,2.8,2.7,3.8s2.7,1.9,4.6,2.5
		C836.3,241.2,838.5,241.5,841.1,241.5L841.1,241.5z M926.4,212.9c0,0.3,0,0.8-0.1,1.5c0,0.7-0.1,1.5-0.2,2.3
		c-0.1,0.9-0.2,1.8-0.3,2.7s-0.2,1.9-0.4,2.7c-0.4,2.1-0.8,3.8-1.3,5c-0.5,1.3-1.2,2.2-2.2,2.9s-2.2,1.1-3.8,1.4
		c-1.6,0.2-3.7,0.3-6.2,0.3h-8.3c-1.8,0-3.4-0.1-4.6-0.2c-1.2-0.1-2.2-0.4-3-0.8c-0.7-0.4-1.3-1-1.6-1.8s-0.5-1.7-0.5-2.9
		c0-0.8,0.1-2.1,0.4-3.7c0.3-1.7,0.7-4,1.3-7c0.3-1.5,0.6-2.8,1.1-3.8c0.4-1,1.1-1.8,1.9-2.4c0.9-0.6,2.1-1,3.6-1.3s3.5-0.4,6-0.4
		h7.7c2.1,0,3.7,0.1,5.1,0.3c1.3,0.2,2.4,0.5,3.2,0.9s1.3,1,1.6,1.7C926.2,211,926.4,211.9,926.4,212.9L926.4,212.9z M915,241.4
		c3.2,0,6-0.2,8.3-0.6c2.3-0.4,4.3-1.2,5.9-2.3c1.6-1.2,2.9-2.8,3.9-4.9c1-2.1,1.8-4.9,2.4-8.4c0.3-1.6,0.5-3.1,0.7-4.6
		s0.3-3,0.5-4.3c0.1-1.4,0.2-2.6,0.3-3.7c0.1-1.1,0.1-2.1,0.1-2.8c0-1.7-0.3-3.2-0.9-4.7c-0.6-1.5-1.5-2.7-2.9-3.8
		c-1.3-1.1-3-1.9-5.2-2.5c-2.1-0.6-4.8-0.9-7.9-0.9h-11.1c-4.3,0-7.8,0.3-10.6,0.8s-5.1,1.5-6.9,2.9c-1.8,1.4-3.2,3.2-4.1,5.5
		c-1,2.3-1.8,5.2-2.4,8.8c-0.4,2.3-0.8,4.6-1.1,7.1s-0.5,4.6-0.5,6.3c0,2,0.3,3.8,0.9,5.3c0.6,1.5,1.6,2.8,3,3.9
		c1.4,1,3.2,1.8,5.5,2.4c2.3,0.5,5.1,0.8,8.4,0.8H915V241.4z M947.2,197.8l-7.7,43.6h10.4l5.7-32.6l27.3,32.6h12.5l7.7-43.6h-10.5
		l-5.5,30.8l-25.8-30.8L947.2,197.8L947.2,197.8z M1010.9,197.8l-7.7,43.6h10.5l3.2-18.2h33.1l1.6-8.7h-33.1l1.4-8h34.2l1.5-8.7
		H1010.9L1010.9,197.8z M1056,241.4h10.4l7.7-43.6h-10.5L1056,241.4L1056,241.4z M1071.6,241.4l30.2-43.6h16.5l14.8,43.6h-12.3
		l-3.5-10.5H1091l-7.2,10.5H1071.6L1071.6,241.4z M1109.1,206h-0.6l-11.4,16.2h17.4L1109.1,206L1109.1,206z M1144.7,197.8l-7.7,43.6
		h10.4l5.7-32.6l27.3,32.6h12.5l7.7-43.6h-10.5l-5.5,30.8l-25.8-30.8L1144.7,197.8L1144.7,197.8z M1255.9,197.8l-1.6,8.8l-37.1,26.1
		h32.5l-1.5,8.7h-49l1.5-8.5l38.3-26.4h-33.7l1.6-8.7L1255.9,197.8L1255.9,197.8z M1251.9,241.4h12.2l7.2-10.5h26.5l3.5,10.5h12.3
		l-14.8-43.6h-16.5L1251.9,241.4L1251.9,241.4z M1289.3,206l5.3,16.2h-17.4l11.4-16.2H1289.3L1289.3,206z M1366.3,197.8H1354
		l17.6,28.9l-2.6,14.7h10.5l2.6-14.7l28.5-28.9h-13.1l-19.2,19.7L1366.3,197.8L1366.3,197.8z M1480,197.8h-19.2
		c-6.3,0-10.9,1.3-13.9,3.8c-2.9,2.5-4.4,6.5-4.4,11.9c0,1.8,0.3,3.3,0.8,4.5c0.5,1.1,1.4,2,2.5,2.7s2.4,1.2,4.1,1.4
		c1.6,0.3,3.5,0.5,5.7,0.6l17.8,0.8c2.6,0.1,4.3,0.4,5.2,1c0.9,0.6,1.4,1.4,1.4,2.5c0,0.8-0.1,1.6-0.3,2.3c-0.2,0.7-0.6,1.3-1.1,1.8
		c-0.6,0.5-1.4,0.9-2.4,1.2s-2.3,0.4-4,0.4h-17.5c-1.3,0-2.4-0.3-3.3-0.8c-0.8-0.6-1.3-1.3-1.3-2.3c0-0.2,0-0.4,0.1-0.5h-10.7
		c-0.1,0.7-0.2,1.3-0.3,1.8c-0.1,0.5-0.1,0.9-0.1,1.1c0,1.3,0.2,2.5,0.7,3.6s1.2,2.1,2.2,3s2.4,1.5,4,2s3.6,0.8,6,0.8h21.6
		c3.4,0,6.3-0.4,8.5-1.1c2.3-0.7,4.1-1.8,5.4-3.3c1.3-1.4,2.2-3.2,2.8-5.3s0.8-4.5,0.8-7.3c0-1.6-0.3-2.9-0.8-4
		c-0.6-1.1-1.4-2.1-2.4-2.9c-1-0.8-2.2-1.4-3.6-1.8c-1.4-0.4-2.9-0.6-4.5-0.7l-20.9-0.8c-0.6,0-1.2-0.1-1.8-0.2
		c-0.6-0.1-1-0.2-1.4-0.4s-0.7-0.5-0.9-0.8c-0.2-0.4-0.3-0.9-0.3-1.6c0-1.1,0.2-1.9,0.6-2.6c0.4-0.6,0.8-1.1,1.4-1.4
		c0.6-0.3,1.2-0.5,1.9-0.6c0.7-0.1,1.4-0.1,2-0.1h17.5c1.9,0,3.2,0.2,3.8,0.6c0.6,0.4,1,1.1,1,2c0,0.2,0,0.3,0,0.5s0,0.4-0.1,0.6
		h11.2c0.1-0.5,0.1-1,0.2-1.4c0-0.5,0.1-0.9,0.1-1.4c0-2.8-1.2-5.1-3.5-6.8C1488.4,198.7,1484.9,197.8,1480,197.8L1480,197.8z
		 M1503.2,197.8l-7.7,43.6h44.6l1.5-8.7h-34.1l1.7-9.4h33l1.6-8.7h-33.1l1.4-8h34.2l1.5-8.7h-44.6V197.8z M1592.6,210.2
		c0,0.2,0,0.3,0,0.5c0,0.1,0,0.3-0.1,0.5h10.8c0.3-1.5,0.4-2.8,0.4-4c0-1.8-0.3-3.3-1-4.5s-1.8-2.2-3.4-3s-3.6-1.3-6.2-1.6
		s-5.7-0.5-9.5-0.5h-11.1c-3.6,0-6.6,0.3-9,0.9c-2.5,0.6-4.5,1.7-6.2,3.1c-1.7,1.5-3,3.5-4,6s-1.8,5.7-2.5,9.5
		c-0.5,2.8-0.8,5.1-1,7.1c-0.1,2-0.2,3.5-0.2,4.7c0,4.1,1.4,7.2,4.3,9.3s7.1,3.1,12.8,3.1h12.5c3.9,0,7.1-0.2,9.7-0.7
		s4.7-1.3,6.4-2.5c1.7-1.2,3-2.8,3.9-4.9c0.9-2.1,1.7-4.7,2.3-7.8l1.8-10.4h-26.6l-1.5,8.5h15.8l-0.5,2.6c-0.2,1.2-0.6,2.1-1,2.9
		c-0.5,0.8-1.1,1.3-1.9,1.8c-0.8,0.4-1.8,0.7-3,0.8s-2.5,0.2-4.1,0.2h-11.2c-1.8,0-3.2-0.1-4.4-0.3c-1.2-0.2-2.1-0.6-2.8-1
		c-0.7-0.5-1.2-1-1.5-1.8c-0.3-0.7-0.4-1.6-0.4-2.5c0-0.8,0.1-2,0.2-3.6s0.4-3.2,0.7-4.9c0.4-2.3,0.9-4.2,1.5-5.6
		c0.6-1.4,1.4-2.5,2.3-3.2c1-0.7,2.2-1.2,3.7-1.4s3.3-0.3,5.6-0.3h7.6c2.2,0,4,0,5.4,0.1s2.5,0.2,3.3,0.4s1.4,0.5,1.7,0.9
		C1592.5,209.1,1592.6,209.6,1592.6,210.2L1592.6,210.2z M1622.7,197.8h-10.4l-4.5,25.8c-0.2,1.1-0.3,2.1-0.3,3.1s0,1.8,0,2.5
		c0,1.6,0.3,3.1,0.8,4.6s1.4,2.8,2.6,3.9c1.2,1.1,2.7,2,4.6,2.7s4.2,1,6.8,1h15.5c3.4,0,6.2-0.3,8.6-0.8s4.4-1.4,6-2.6
		c1.6-1.2,2.9-2.8,3.8-4.8s1.7-4.4,2.2-7.3l4.9-28.1h-10.5l-4.7,27c-0.3,1.5-0.6,2.8-1.1,3.8s-1.2,1.8-2,2.4s-1.9,1-3.1,1.3
		s-2.7,0.4-4.3,0.4h-11.3c-3,0-5.1-0.5-6.3-1.5c-1.3-1-1.9-2.5-1.9-4.5c0-0.5,0-1.1,0.1-1.6c0-0.5,0.1-1.2,0.3-2L1622.7,197.8
		L1622.7,197.8z M1712.3,229.1c0,0.5,0,1-0.1,1.6c0,0.6-0.1,1.3-0.3,2.3l-1.5,8.5h-10.5l1.1-5.9c0.1-0.7,0.2-1.2,0.3-1.6
		c0-0.4,0.1-0.7,0.1-0.9c0-3.1-2.1-4.6-6.2-4.6h-20.6l-2.3,13h-10.5l7.7-43.6h31.7c2.4,0,4.5,0.3,6.3,1c1.8,0.6,3.3,1.5,4.4,2.7
		c1.2,1.1,2.1,2.5,2.6,4c0.6,1.5,0.9,3.1,0.9,4.8c0,3.4-0.4,6.3-1.3,8.6s-2.3,4.1-4.3,5.2c0.8,0.3,1.5,0.9,2,1.7
		C1712,226.6,1712.3,227.7,1712.3,229.1L1712.3,229.1z M1704.7,212.3c0-1.3-0.4-2.4-1.2-3c-0.8-0.7-2.1-1-4-1h-21.7l-1.7,9.8h22.6
		c0.9,0,1.7-0.1,2.4-0.2c0.7-0.1,1.4-0.4,1.9-0.8c0.5-0.4,1-1,1.3-1.7C1704.6,214.5,1704.7,213.5,1704.7,212.3L1704.7,212.3z
		 M1719.4,241.4h10.4l7.7-43.6H1727L1719.4,241.4L1719.4,241.4z M1769,232.7h-18.7l4.6-26.3h18.7c3,0,5.1,0.5,6.3,1.6
		c1.2,1,1.8,2.6,1.8,4.7c0,1.2-0.2,2.9-0.5,5s-0.7,4.3-1,6.6c-0.3,1.5-0.6,2.9-1.1,3.9c-0.5,1.1-1.1,1.9-2,2.6
		c-0.8,0.7-1.9,1.2-3.2,1.4C1772.6,232.6,1770.9,232.7,1769,232.7L1769,232.7z M1777.4,197.8h-31.5l-7.7,43.6h31.7
		c3.3,0,6.1-0.3,8.5-0.8s4.3-1.4,5.9-2.5s2.9-2.6,3.8-4.5c0.9-1.8,1.6-4.1,2.1-6.7c0.3-1.8,0.6-3.6,0.8-5.3c0.3-1.8,0.5-3.4,0.6-4.9
		c0.2-1.5,0.3-2.8,0.4-3.9c0.1-1.1,0.1-1.9,0.1-2.5c0-1.7-0.3-3.3-0.8-4.9c-0.6-1.5-1.4-2.9-2.6-4s-2.7-2-4.6-2.7
		C1782.3,198.1,1780.1,197.8,1777.4,197.8L1777.4,197.8z M1788.9,241.4l30.2-43.6h16.5l14.8,43.6h-12.3l-3.5-10.5h-26.5l-7.2,10.5
		H1788.9L1788.9,241.4z M1826.3,206h-0.6l-11.4,16.2h17.4L1826.3,206L1826.3,206z M1884.7,232.7H1866l4.6-26.3h18.7
		c3,0,5.1,0.5,6.3,1.6c1.2,1,1.8,2.6,1.8,4.7c0,1.2-0.2,2.9-0.5,5s-0.7,4.3-1,6.6c-0.3,1.5-0.6,2.9-1.1,3.9c-0.5,1.1-1.1,1.9-2,2.6
		c-0.8,0.7-1.9,1.2-3.2,1.4C1888.2,232.6,1886.6,232.7,1884.7,232.7L1884.7,232.7z M1893.1,197.8h-31.5l-7.7,43.6h31.7
		c3.3,0,6.1-0.3,8.5-0.8s4.3-1.4,5.9-2.5s2.9-2.6,3.8-4.5c0.9-1.8,1.6-4.1,2.1-6.7c0.3-1.8,0.6-3.6,0.8-5.3c0.3-1.8,0.5-3.4,0.6-4.9
		c0.2-1.5,0.3-2.8,0.4-3.9c0.1-1.1,0.1-1.9,0.1-2.5c0-1.7-0.3-3.3-0.8-4.9c-0.6-1.5-1.4-2.9-2.6-4s-2.7-2-4.6-2.7
		C1898,198.1,1895.7,197.8,1893.1,197.8z"/>
</g>
<g>
	<path class="st0" d="M262.7,1162.3h-55.2l-32.8,56.8l-3.7-56.8h-52.4c0.8,2.5,1,3.6,1,5.6c0,1.2-0.1,2.8-0.3,5
		c-0.3,1.4-0.5,2.5-0.6,3.1l-18.7,72.3c-1.6,6.1-3.1,10.1-4.8,13.4c-0.6,1.1-1.2,2-2.8,4.3h23.6c-0.8-2.5-1-3.4-1-5.6
		c0-1.2,0.1-2.8,0.3-5c0.3-1.2,0.5-2.3,0.6-3.1l17.6-67.8l5.3,81.5h28.1l47.3-81.8l-16.6,64.1c-1.6,6.1-3.1,10.1-4.8,13.4
		c-0.6,1.1-1.2,2-2.8,4.3h46.5c-0.8-2.5-1-3.4-1-5.6c0-1.1,0.1-2.8,0.3-5c0.3-1.2,0.5-2.3,0.6-3.1l18.7-72.3
		c1.6-6.1,3.1-10.1,4.8-13.2C260.5,1165.7,261.1,1164.8,262.7,1162.3L262.7,1162.3z M320.1,1162.3c-1.6,2.5-2.2,3.4-2.8,4.5
		c-1.7,3.1-3.1,7.2-4.7,13.2l-18.8,72.3c-0.1,0.8-0.3,1.9-0.5,3.1c-0.3,2.2-0.5,3.9-0.5,5c0,2.2,0.1,3.1,1.1,5.6h-46.5
		c1.6-2.3,2.2-3.2,2.8-4.3c1.7-3.2,3.1-7.3,4.7-13.4l18.9-72.3c0.1-0.6,0.3-1.7,0.5-3.1c0.3-2.2,0.5-3.7,0.5-5c0-2-0.1-3.1-1.1-5.6
		H320.1L320.1,1162.3z M366.1,1218.2h-54.7l-4.7,18.5h54.7L366.1,1218.2L366.1,1218.2z M477.7,1162.3l-2.3,19.8
		c-2.6-1.4-3.7-1.9-5.4-2.2c-1.7-0.1-4.7-0.5-7-0.5h-38.1l-6.5,25.4h38.6c3.6,0,6.8-0.5,10.3-1.6l-5.2,20.8
		c-3.4-1.7-5.7-2.2-12.3-2.2h-35.8l-7,27.1h40.7c4.3,0,7-0.5,11-2.3l-7.6,19.4h-91.4c1.6-2.3,2.2-3.2,2.8-4.3
		c1.7-3.2,3.1-7.3,4.7-13.4l18.8-72.3c0.1-0.6,0.3-1.7,0.5-3.1c0.3-2.2,0.5-3.7,0.5-5c0-2-0.1-3.1-1.1-5.6H477.7L477.7,1162.3z
		 M605.1,1162.3h-30.5c-1.7,3.6-3.1,5.6-6.2,8.3l-27.5,23.3l-5.6-12.3l-2-4.2c-1.6-3.1-2.5-7.9-2.5-11c0-1.2,0.1-2.2,0.6-4.1h-50.9
		c3.2,4.2,4.3,5.9,6.8,10.1c1.9,3,3.4,5.7,4.7,8.5c0.3,0.5,1.7,3.2,4.2,8.7l14,30.2l-35.4,30c-3.2,2.8-9.5,7.6-12.7,9.8
		c-3.4,2.3-5.6,3.6-11,6.4h34.4c1.9-4.3,3-6.1,7.9-10.3l24-20.5l5,10.5c1.7,3.6,4.1,9.5,4.7,12.3c0.3,1.2,0.6,3.4,0.6,5.1
		c0,1,0,1.4-0.3,2.8h50.7c-3.4-3.6-4.7-5.3-6.4-8.4c-0.8-1.4-1.6-3-2.6-4.8c-1.1-2.2-1.9-3.6-2.2-4.3l-19.3-38.7l43.6-36.9l3.2-2.8
		l4.1-3.1l4.1-2.8L605.1,1162.3L605.1,1162.3z M714.9,1181.1c0,2.2-0.1,3-1.2,7.2l-4.7,18.3c-1.9,7.2-2.2,7.8-4.3,11.5
		c-4.5,7.6-11.9,11.2-23.2,11.2h-5h-42.2l-6.1,23c-0.1,0.8-0.3,1.9-0.5,3.1c-0.3,2.2-0.5,3.9-0.5,5.1c0,2,0.1,3,1.1,5.4h-46.5
		c1.6-2.3,2.2-3.2,2.8-4.3c1.7-3.2,3.1-7.3,4.7-13.4l18.8-72.3c0.1-0.6,0.3-1.7,0.5-3.1c0.3-2.2,0.5-3.7,0.5-5c0-2-0.1-3.1-1.1-5.6
		h81.7c1.9,0,3.4,0,4.7,0.1c7.6,0.1,13.1,2.5,16.6,7.3C713.5,1172.9,714.9,1177.2,714.9,1181.1L714.9,1181.1z M674.5,1184.5
		c0-1.4-0.5-2.3-1.2-3.4c-1.1-1.4-2.5-1.7-6.8-1.7h-19.2l-8.5,32.8h18.7c8.7,0,10.5-1.4,12.7-9.6l3.9-14.7
		C674.3,1186.7,674.5,1185.5,674.5,1184.5L674.5,1184.5z M834.1,1181.1c0-4.3-2.5-9.6-6.2-13.2c-4.2-4.1-8.9-5.6-16.6-5.6h-4.7H729
		c1,2.5,1.1,3.6,1.1,5.6c0,1.2-0.1,2.8-0.5,5c-0.1,1.4-0.3,2.5-0.5,3.1l-18.8,72.3c-1.6,6.1-3,10.1-4.7,13.4c-0.6,1.1-1.2,2-2.8,4.3
		h46.5c-1-2.5-1.1-3.4-1.1-5.4c0-1.2,0.1-3,0.5-5.1c0.1-1.2,0.3-2.3,0.5-3.1l8.1-30.9h10.1l8.5,44.7h43.8c-4.1-4.1-5.3-6.2-6.4-11.9
		l-6.7-32.8c1.2,0,2.2,0.1,2.8,0.1c4.3,0,8.4-1,11.6-2.8c3.6-2,4.7-3.6,6.5-9.9l1-3.2l4.5-17.6c0.1-0.6,0.3-1.7,0.5-3.2
		C834,1183,834.1,1181.9,834.1,1181.1L834.1,1181.1z M794,1183.4c0,1-0.1,2-0.5,3.4l-2.6,10.4c-1,3.7-1.6,4.5-3.6,5.6
		c-1.6,0.8-2.3,1-6.1,1h-19.4l6.4-24.4h19.9C792.5,1179.4,794,1180.5,794,1183.4L794,1183.4z M943.8,1162.3l-2.3,19.8
		c-2.6-1.4-3.7-1.9-5.4-2.2c-1.7-0.1-4.7-0.5-7-0.5h-38.1l-6.5,25.4h38.6c3.6,0,6.8-0.5,10.3-1.6l-5.3,20.8
		c-3.4-1.7-5.7-2.2-12.3-2.2h-35.8l-7,27.1h40.7c4.3,0,7-0.5,11-2.3l-7.6,19.4h-91.4c1.6-2.3,2.2-3.2,2.8-4.3
		c1.7-3.2,3.1-7.3,4.7-13.4l19-72.3c0.1-0.6,0.3-1.7,0.5-3.1c0.3-2.2,0.5-3.7,0.5-5c0-2-0.1-3.1-1.1-5.6H943.8L943.8,1162.3z
		 M1050.2,1162.3h-72.9c-3.9,0-9.2,0.8-12.3,1.6c-2.2,0.6-4.3,1.6-6.7,3c-5,3.2-8.7,8.3-10.1,13.1l-1.1,3.9l-6.2,24
		c-1.7,6.5-2,9-2,12.1c0,9.3,6.5,14.1,19.4,14.1h25h4.2c4.1,0,5.9,1.2,5.9,3.7c0,1-0.3,2-0.8,4.5c-0.3,1.2-0.8,2.5-1.4,3.6
		c-1,2.2-2.3,3.1-4.8,3.1h-3h-33.8h-7c-2,0-4.1-0.5-6.2-1.2c-1.9-0.6-3-1.1-5.4-2.6l-3,21h68.4h5.4c10.1,0,14.5-1.1,19.4-4.7
		c2.8-2,5-4.3,6.2-6.8c1-2,2.8-7.4,3.7-11.2l6.8-26.5c1.2-4.7,1.4-5.3,1.4-8.1c0-3.9-1-6.2-3.4-9.2c-3.1-3.6-6.1-4.7-13.2-4.7h-31.6
		c-4.3,0-6.2-1.1-6.2-3.9c0-0.8,0.3-1.9,0.8-3.6l1-3.4c1.1-3.7,3-4.7,8.5-4.7h36.4c3.7,0,7.4,0.5,10.1,1.2c2,0.6,3.4,1.2,5.9,3.1
		L1050.2,1162.3L1050.2,1162.3z M1159.9,1162.3l-2.3,21.4c-2.5-1.9-3.9-2.5-5.9-3.1c-2.6-0.8-6.4-1.2-10.1-1.2h-36.4
		c-5.6,0-7.4,1-8.5,4.7l-1,3.4c-0.5,1.7-0.8,2.8-0.8,3.6c0,2.8,1.9,3.9,6.2,3.9h31.6c7.2,0,10.1,1.1,13.2,4.7c2.5,3,3.4,5.3,3.4,9.2
		c0,2.8-0.1,3.4-1.4,8.1l-6.8,26.5c-1,3.7-2.8,9.2-3.7,11.2c-1.2,2.5-3.4,4.8-6.2,6.8c-5,3.6-9.3,4.7-19.4,4.7h-5.4h-68.4l3-21
		c2.5,1.6,3.6,2,5.4,2.6c2.2,0.8,4.2,1.2,6.2,1.2h7h33.8h3c2.5,0,3.9-1,4.8-3.1c0.6-1.1,1.1-2.3,1.4-3.6c0.5-2.5,0.8-3.6,0.8-4.5
		c0-2.5-1.9-3.7-5.9-3.7h-4.2h-25c-12.9,0-19.4-4.8-19.4-14.1c0-3.1,0.3-5.6,2-12.1l6.2-24l1.1-3.9c1.4-4.8,5.1-9.8,10.1-13.1
		c2.3-1.4,4.5-2.3,6.7-3c3.1-0.8,8.4-1.6,12.3-1.6L1159.9,1162.3L1159.9,1162.3z"/>
	<path class="st8" d="M262.7,1162.3h-55.2l-28.2,48.8h19.4l15.5-26.9l-7,26.9H247l8-31.1c1.6-6.1,3.1-10.1,4.8-13.2
		C260.5,1165.7,261.1,1164.8,262.7,1162.3L262.7,1162.3z M174.2,1211.1l-3.2-48.8h-52.4c0.8,2.5,1,3.6,1,5.6c0,1.2-0.1,2.8-0.3,5
		c-0.3,1.4-0.5,2.5-0.6,3.1l-9,35.1h17.1l6.9-26.5l1.7,26.5L174.2,1211.1L174.2,1211.1z M1149.3,1211.1h-99.5c0.2-1,0.5-2.1,0.8-3.4
		l6.2-24l1.1-3.9c1.4-4.8,5.1-9.8,10.1-13.1c2.3-1.4,4.5-2.3,6.7-3c3.1-0.8,8.4-1.6,12.3-1.6h73l-2.3,21.4c-2.5-1.9-3.9-2.5-5.9-3.1
		c-2.6-0.8-6.4-1.2-10.1-1.2h-36.4c-5.6,0-7.4,1-8.5,4.7l-1,3.4c-0.5,1.7-0.8,2.8-0.8,3.6c0,2.8,1.9,3.9,6.2,3.9h31.6
		c7.2,0,10.1,1.1,13.2,4.7c2.5,3,3.4,5.3,3.4,9.2C1149.4,1209.7,1149.3,1210.4,1149.3,1211.1L1149.3,1211.1z M1039.5,1211.1
		c0.1-0.7,0.1-1.4,0.1-2.3c0-3.9-1-6.2-3.4-9.2c-3.1-3.6-6.1-4.7-13.2-4.7h-31.6c-4.3,0-6.2-1.1-6.2-3.9c0-0.8,0.3-1.9,0.8-3.6
		l1-3.4c1.1-3.7,3-4.7,8.5-4.7h36.4c3.7,0,7.4,0.5,10.1,1.2c2,0.6,3.4,1.2,5.9,3.1l2.3-21.4h-72.9c-3.9,0-9.2,0.8-12.3,1.6
		c-2.2,0.6-4.3,1.6-6.7,3c-5,3.2-8.7,8.3-10.1,13.1l-1.1,3.9l-6.2,24c-0.3,1.2-0.6,2.4-0.8,3.4L1039.5,1211.1L1039.5,1211.1z
		 M931.2,1211.1h-88.5l9.2-35.1c0.1-0.6,0.3-1.7,0.5-3.1c0.3-2.2,0.5-3.7,0.5-5c0-2-0.1-3.1-1.1-5.6h92.1l-2.3,19.8
		c-2.6-1.4-3.7-1.9-5.4-2.2c-1.7-0.1-4.7-0.5-7-0.5h-38.1l-6.5,25.4H923c3.6,0,6.8-0.5,10.3-1.6L931.2,1211.1L931.2,1211.1z
		 M827.1,1211.1h-107l9.2-35.1c0.1-0.6,0.3-1.7,0.5-3.1c0.3-2.2,0.5-3.7,0.5-5c0-2-0.1-3.1-1.1-5.6h77.6h4.7
		c7.8,0,12.5,1.6,16.6,5.6c3.7,3.6,6.2,8.9,6.2,13.2c0,0.8-0.1,1.9-0.5,3.6c-0.1,1.6-0.3,2.6-0.5,3.2l-4.5,17.6l-1,3.2
		C827.5,1209.7,827.3,1210.4,827.1,1211.1L827.1,1211.1z M707.8,1211.1h-42.6c2.5-1.2,3.7-3.7,4.9-8.5l3.9-14.7
		c0.3-1.1,0.5-2.3,0.5-3.2c0-1.4-0.5-2.3-1.2-3.4c-1.1-1.4-2.5-1.7-6.8-1.7h-19.1l-8.3,31.7h-39.9l9.2-35.1c0.1-0.6,0.3-1.7,0.5-3.1
		c0.3-2.2,0.5-3.7,0.5-5c0-2-0.1-3.1-1.1-5.6h81.7c1.9,0,3.4,0,4.7,0.1c7.6,0.1,13.1,2.5,16.6,7.3c2.5,3.1,3.9,7.4,3.9,11.4
		c0,2.2-0.1,3-1.2,7.2l-4.7,18.3C708.5,1208.5,708.1,1210,707.8,1211.1L707.8,1211.1z M548.2,1211.1l-0.7-1.4l43.6-36.9l3.2-2.8
		l4.1-3.1l4.1-2.8l2.6-1.9h-30.5c-1.7,3.6-3.1,5.6-6.2,8.3l-27.5,23.3l-5.6-12.3l-2-4.2c-1.6-3.1-2.5-7.9-2.5-11
		c0-1.2,0.1-2.2,0.6-4.1h-50.9c3.2,4.2,4.3,5.9,6.8,10.1c1.9,3,3.4,5.7,4.7,8.5c0.3,0.5,1.7,3.2,4.2,8.7l9.9,21.4L548.2,1211.1
		L548.2,1211.1z M465.2,1211.1h-88.5l9.2-35.1c0.1-0.6,0.3-1.7,0.5-3.1c0.3-2.2,0.5-3.7,0.5-5c0-2-0.1-3.1-1.1-5.6h92l-2.3,19.8
		c-2.6-1.4-3.7-1.9-5.4-2.2c-1.7-0.1-4.7-0.5-7-0.5h-38.1l-6.5,25.4h38.6c3.6,0,6.8-0.5,10.3-1.6L465.2,1211.1L465.2,1211.1z
		 M304.5,1211.1h-39.9l9.2-35.1c0.1-0.6,0.3-1.7,0.5-3.1c0.3-2.2,0.5-3.7,0.5-5c0-2-0.1-3.1-1.1-5.6h46.5c-1.6,2.5-2.2,3.4-2.8,4.5
		c-1.7,3.1-3.1,7.2-4.7,13.2L304.5,1211.1L304.5,1211.1z M794,1183.4c0-3-1.6-4.1-5.9-4.1h-19.9l-6.4,24.4h19.4c3.7,0,4.5-0.1,6.1-1
		c2-1.1,2.6-1.9,3.6-5.6l2.6-10.4C793.9,1185.5,794,1184.4,794,1183.4z"/>
	<path class="st9" d="M112,1287.5H98.8c-4.3,0-7.5,0.9-9.6,2.6c-2,1.7-3,4.5-3,8.2c0,1.2,0.2,2.3,0.6,3.1c0.3,0.8,1,1.4,1.7,1.9
		c0.8,0.5,1.7,0.8,2.8,1c1.1,0.2,2.4,0.3,3.9,0.4l12.3,0.6c1.8,0.1,3,0.3,3.6,0.7c0.6,0.4,1,1,1,1.7c0,0.6-0.1,1.1-0.2,1.6
		c-0.1,0.5-0.4,0.9-0.8,1.2c-0.4,0.3-1,0.6-1.7,0.8c-0.7,0.2-1.6,0.3-2.8,0.3H94.6c-0.9,0-1.7-0.2-2.3-0.6c-0.6-0.4-0.9-0.9-0.9-1.6
		c0-0.1,0-0.3,0.1-0.3h-7.2c-0.1,0.5-0.1,0.9-0.2,1.2c-0.1,0.3-0.1,0.6-0.1,0.8c0,0.9,0.1,1.7,0.5,2.5c0.3,0.8,0.8,1.4,1.5,2.1
		c0.7,0.6,1.7,1,2.8,1.4c1.1,0.3,2.5,0.6,4.1,0.6h14.9c2.3,0,4.3-0.3,5.9-0.8c1.6-0.5,2.8-1.2,3.7-2.3c0.9-1,1.5-2.2,1.9-3.7
		c0.4-1.4,0.6-3.1,0.6-5c0-1.1-0.2-2-0.6-2.8c-0.4-0.8-1-1.4-1.7-2c-0.7-0.6-1.5-1-2.5-1.2c-1-0.3-2-0.4-3.1-0.5l-14.4-0.6
		c-0.4,0-0.8-0.1-1.2-0.1c-0.4-0.1-0.7-0.1-1-0.3s-0.5-0.3-0.6-0.6c-0.1-0.3-0.2-0.6-0.2-1.1c0-0.8,0.1-1.3,0.4-1.8
		c0.3-0.4,0.6-0.8,1-1c0.4-0.2,0.8-0.3,1.3-0.4c0.5-0.1,1-0.1,1.4-0.1h12.1c1.3,0,2.2,0.1,2.6,0.4c0.4,0.3,0.7,0.8,0.7,1.4
		c0,0.1,0,0.2,0,0.3s0,0.3-0.1,0.4h7.7c0.1-0.3,0.1-0.7,0.1-1c0-0.3,0.1-0.6,0.1-1c0-1.9-0.8-3.5-2.4-4.7
		C117.8,1288.2,115.3,1287.5,112,1287.5L112,1287.5z M128,1287.5l-5.3,30h30.7l1-6H131l1.2-6.5h22.7l1.1-6h-22.8l1-5.5h23.6l1-6
		L128,1287.5L128,1287.5z M193.3,1309.1c0,0.3,0,0.7-0.1,1.1c0,0.4-0.1,0.9-0.2,1.6l-1,5.9h-7.2l0.8-4.1c0.1-0.5,0.1-0.8,0.2-1.1
		c0-0.3,0.1-0.5,0.1-0.6c0-2.1-1.4-3.2-4.3-3.2h-14.2l-1.6,9h-7.2l5.3-30h21.8c1.7,0,3.1,0.2,4.3,0.7c1.2,0.4,2.3,1,3,1.9
		c0.8,0.8,1.4,1.7,1.8,2.8c0.4,1,0.6,2.1,0.6,3.3c0,2.3-0.3,4.3-0.9,5.9c-0.6,1.6-1.6,2.8-3,3.6c0.6,0.2,1,0.6,1.4,1.2
		C193.1,1307.4,193.3,1308.2,193.3,1309.1L193.3,1309.1z M188.1,1297.5c0-0.9-0.3-1.7-0.8-2.1c-0.6-0.5-1.4-0.7-2.8-0.7h-15
		l-1.2,6.8H184c0.6,0,1.2-0.1,1.7-0.1c0.5-0.1,1-0.3,1.3-0.6c0.3-0.3,0.7-0.7,0.9-1.2C188,1299.1,188.1,1298.4,188.1,1297.5
		L188.1,1297.5z M208,1287.5h-8l10.2,30h11.4l20.9-30H234l-17.4,24.9L208,1287.5L208,1287.5z M240.7,1317.6l5.3-30h7.2l-5.3,30
		H240.7L240.7,1317.6z M265.2,1317.7H277c2.3,0,4.3-0.2,5.9-0.6c1.6-0.3,2.8-0.9,3.8-1.7c1-0.8,1.7-1.9,2.3-3.2c0.6-1.3,1-3,1.3-5
		h-7.4c-0.1,0.8-0.3,1.5-0.6,2.1c-0.3,0.6-0.7,0.9-1.3,1.2c-0.6,0.3-1.4,0.5-2.4,0.6c-1,0.1-2.3,0.1-3.9,0.1h-5.9
		c-2.1,0-3.7-0.3-4.6-0.8c-1-0.5-1.5-1.4-1.5-2.7c0-0.8,0.1-1.9,0.1-3c0.1-1.2,0.3-2.6,0.6-4.3c0.2-1.2,0.5-2.2,0.8-3
		c0.3-0.8,0.7-1.4,1.2-1.9c0.6-0.5,1.2-0.8,2.1-1c0.8-0.2,1.9-0.3,3.2-0.3h6.9c1.4,0,2.7,0.1,3.6,0.2c0.9,0.1,1.7,0.3,2.1,0.5
		c0.6,0.2,0.9,0.5,1,0.8c0.2,0.3,0.3,0.7,0.3,1.2c0,0.1,0,0.3,0,0.4s-0.1,0.3-0.1,0.5h7.4c0.1-0.7,0.3-1.3,0.3-1.9
		c0.1-0.6,0.1-1,0.1-1.2c0-1.2-0.2-2.3-0.7-3.2c-0.4-0.9-1.2-1.7-2.1-2.3c-1-0.6-2.3-1-3.8-1.3c-1.5-0.3-3.4-0.4-5.6-0.4h-7.5
		c-3,0-5.4,0.1-7.3,0.5c-1.9,0.3-3.4,0.9-4.7,1.8c-1.2,0.9-2.1,2.1-2.8,3.7c-0.7,1.6-1.2,3.7-1.7,6.2c-0.3,1.7-0.6,3.4-0.8,5.1
		c-0.2,1.7-0.3,3.2-0.3,4.4c0,1.2,0.2,2.4,0.6,3.4c0.4,1,1,1.9,1.9,2.6c0.8,0.7,1.9,1.3,3.2,1.7
		C262,1317.5,263.5,1317.7,265.2,1317.7L265.2,1317.7z M294.4,1317.6h7.2l5.3-30h-7.2L294.4,1317.6L294.4,1317.6z M338.2,1298
		c0,0.2,0,0.6-0.1,1c0,0.5-0.1,1-0.1,1.6c-0.1,0.6-0.1,1.2-0.2,1.9c-0.1,0.6-0.1,1.3-0.3,1.9c-0.3,1.4-0.6,2.6-0.9,3.4
		c-0.3,0.9-0.8,1.5-1.5,2c-0.7,0.5-1.5,0.8-2.6,1c-1.1,0.1-2.5,0.2-4.3,0.2h-5.7c-1.2,0-2.3-0.1-3.2-0.1c-0.8-0.1-1.5-0.3-2.1-0.6
		c-0.5-0.3-0.9-0.7-1.1-1.2c-0.2-0.6-0.3-1.2-0.3-2c0-0.6,0.1-1.4,0.3-2.5c0.2-1.2,0.5-2.8,0.9-4.8c0.2-1,0.4-1.9,0.8-2.6
		c0.3-0.7,0.8-1.2,1.3-1.7c0.6-0.4,1.4-0.7,2.5-0.9c1-0.2,2.4-0.3,4.1-0.3h5.3c1.4,0,2.5,0.1,3.5,0.2c0.9,0.1,1.7,0.3,2.2,0.6
		c0.6,0.3,0.9,0.7,1.1,1.2C338.1,1296.6,338.2,1297.3,338.2,1298L338.2,1298z M330.4,1317.6c2.2,0,4.1-0.1,5.7-0.4s3-0.8,4.1-1.6
		c1.1-0.8,2-1.9,2.7-3.4s1.2-3.4,1.7-5.8c0.2-1.1,0.3-2.1,0.5-3.2c0.1-1,0.2-2.1,0.3-3c0.1-1,0.1-1.8,0.2-2.5
		c0.1-0.8,0.1-1.4,0.1-1.9c0-1.2-0.2-2.2-0.6-3.2c-0.4-1-1-1.9-2-2.6c-0.9-0.8-2.1-1.3-3.6-1.7c-1.4-0.4-3.3-0.6-5.4-0.6h-7.6
		c-3,0-5.4,0.2-7.3,0.6c-1.9,0.3-3.5,1-4.8,2c-1.2,1-2.2,2.2-2.8,3.8c-0.7,1.6-1.2,3.6-1.7,6.1c-0.3,1.6-0.6,3.2-0.8,4.9
		s-0.3,3.2-0.3,4.3c0,1.4,0.2,2.6,0.6,3.7c0.4,1,1.1,1.9,2.1,2.7c1,0.7,2.2,1.2,3.8,1.7c1.6,0.3,3.5,0.6,5.8,0.6h9.4V1317.6z
		 M349.1,1309.2h8.3l-1.7,9.7c-0.3,1.4-0.8,2.5-1.5,3.4c-0.8,0.8-1.7,1.4-2.6,1.9c-1,0.4-2.1,0.8-3.2,0.9c-1.2,0.1-2.3,0.2-3.3,0.2
		l0.7-4c0.3,0,0.8,0,1.2-0.1c0.4-0.1,0.8-0.2,1-0.3c0.3-0.2,0.6-0.4,0.8-0.7c0.3-0.3,0.4-0.7,0.5-1.2l0.3-1.3h-1.9L349.1,1309.2
		L349.1,1309.2z M395.8,1317.7h11.8c2.3,0,4.3-0.2,5.9-0.6c1.6-0.3,2.8-0.9,3.8-1.7c1-0.8,1.7-1.9,2.3-3.2c0.6-1.3,1-3,1.3-5h-7.4
		c-0.1,0.8-0.3,1.5-0.6,2.1s-0.7,0.9-1.3,1.2c-0.6,0.3-1.4,0.5-2.4,0.6c-1,0.1-2.3,0.1-3.9,0.1h-5.9c-2.1,0-3.7-0.3-4.6-0.8
		c-1-0.5-1.5-1.4-1.5-2.7c0-0.8,0.1-1.9,0.1-3c0.1-1.2,0.3-2.6,0.6-4.3c0.2-1.2,0.5-2.2,0.8-3c0.3-0.8,0.7-1.4,1.2-1.9
		c0.6-0.5,1.2-0.8,2.1-1c0.8-0.2,1.9-0.3,3.2-0.3h6.9c1.4,0,2.7,0.1,3.6,0.2c0.9,0.1,1.7,0.3,2.1,0.5c0.6,0.2,0.9,0.5,1,0.8
		c0.2,0.3,0.3,0.7,0.3,1.2c0,0.1,0,0.3,0,0.4s-0.1,0.3-0.1,0.5h7.4c0.1-0.7,0.3-1.3,0.3-1.9c0.1-0.6,0.1-1,0.1-1.2
		c0-1.2-0.2-2.3-0.7-3.2c-0.4-0.9-1.2-1.7-2.1-2.3c-1-0.6-2.3-1-3.8-1.3c-1.5-0.3-3.4-0.4-5.6-0.4H403c-3,0-5.4,0.1-7.3,0.5
		c-1.9,0.3-3.4,0.9-4.7,1.8c-1.2,0.9-2.1,2.1-2.8,3.7c-0.7,1.6-1.2,3.7-1.7,6.2c-0.3,1.7-0.6,3.4-0.8,5.1c-0.2,1.7-0.3,3.2-0.3,4.4
		c0,1.2,0.2,2.4,0.6,3.4c0.4,1,1,1.9,1.9,2.6c0.8,0.7,1.9,1.3,3.2,1.7C392.5,1317.5,394,1317.7,395.8,1317.7L395.8,1317.7z
		 M454.6,1298c0,0.2,0,0.6-0.1,1c0,0.5-0.1,1-0.1,1.6c-0.1,0.6-0.1,1.2-0.2,1.9c-0.1,0.6-0.1,1.3-0.3,1.9c-0.3,1.4-0.6,2.6-0.9,3.4
		c-0.3,0.9-0.8,1.5-1.5,2c-0.7,0.5-1.5,0.8-2.6,1c-1.1,0.1-2.5,0.2-4.3,0.2h-5.7c-1.2,0-2.3-0.1-3.2-0.1c-0.8-0.1-1.5-0.3-2.1-0.6
		c-0.5-0.3-0.9-0.7-1.1-1.2c-0.2-0.6-0.3-1.2-0.3-2c0-0.6,0.1-1.4,0.3-2.5c0.2-1.2,0.5-2.8,0.9-4.8c0.2-1,0.4-1.9,0.8-2.6
		c0.3-0.7,0.8-1.2,1.3-1.7c0.6-0.4,1.4-0.7,2.5-0.9c1-0.2,2.4-0.3,4.1-0.3h5.3c1.4,0,2.5,0.1,3.5,0.2c0.9,0.1,1.7,0.3,2.2,0.6
		c0.6,0.3,0.9,0.7,1.1,1.2C454.4,1296.6,454.6,1297.3,454.6,1298L454.6,1298z M446.7,1317.6c2.2,0,4.1-0.1,5.7-0.4s3-0.8,4.1-1.6
		c1.1-0.8,2-1.9,2.7-3.4c0.7-1.4,1.2-3.4,1.7-5.8c0.2-1.1,0.3-2.1,0.5-3.2c0.1-1,0.2-2.1,0.3-3c0.1-1,0.1-1.8,0.2-2.5
		c0.1-0.8,0.1-1.4,0.1-1.9c0-1.2-0.2-2.2-0.6-3.2c-0.4-1-1-1.9-2-2.6c-0.9-0.8-2.1-1.3-3.6-1.7c-1.4-0.4-3.3-0.6-5.4-0.6h-7.6
		c-3,0-5.4,0.2-7.3,0.6c-1.9,0.3-3.5,1-4.8,2c-1.2,1-2.2,2.2-2.8,3.8c-0.7,1.6-1.2,3.6-1.7,6.1c-0.3,1.6-0.6,3.2-0.8,4.9
		s-0.3,3.2-0.3,4.3c0,1.4,0.2,2.6,0.6,3.7c0.4,1,1.1,1.9,2.1,2.7c1,0.7,2.2,1.2,3.8,1.7c1.6,0.3,3.5,0.6,5.8,0.6h9.4V1317.6z
		 M468.9,1287.5l-5.3,30h7.2l3.9-22.5l18.8,22.5h8.6l5.3-30h-7.2l-3.8,21.2l-17.8-21.2H468.9L468.9,1287.5z M512.8,1287.5l-5.3,30
		h7.2l2.2-12.5h22.8l1.1-6H518l1-5.5h23.6l1-6H512.8L512.8,1287.5z M543.9,1317.6h7.2l5.3-30h-7.2L543.9,1317.6L543.9,1317.6z
		 M554.6,1317.6l20.8-30h11.4l10.2,30h-8.5l-2.4-7.2H568l-5,7.2H554.6L554.6,1317.6z M580.5,1293.2h-0.4l-7.9,11.2h12L580.5,1293.2
		L580.5,1293.2z M605,1287.5l-5.3,30h7.2l3.9-22.5l18.8,22.5h8.6l5.3-30h-7.2l-3.8,21.2l-17.8-21.2H605L605,1287.5z M681.6,1287.5
		l-1.1,6.1l-25.6,18h22.4l-1,6h-33.8l1-5.9l26.4-18.2h-23.2l1.1-6H681.6L681.6,1287.5z M678.9,1317.6h8.4l5-7.2h18.3l2.4,7.2h8.5
		l-10.2-30h-11.4L678.9,1317.6L678.9,1317.6z M704.7,1293.2l3.7,11.2h-12l7.9-11.2H704.7L704.7,1293.2z M757.7,1287.5h-8.5
		l12.1,19.9l-1.8,10.1h7.2l1.8-10.1l19.6-19.9h-9l-13.2,13.6L757.7,1287.5L757.7,1287.5z M836.1,1287.5h-13.2
		c-4.3,0-7.5,0.9-9.6,2.6c-2,1.7-3,4.5-3,8.2c0,1.2,0.2,2.3,0.6,3.1c0.3,0.8,1,1.4,1.7,1.9c0.8,0.5,1.7,0.8,2.8,1
		c1.1,0.2,2.4,0.3,3.9,0.4l12.3,0.6c1.8,0.1,3,0.3,3.6,0.7c0.6,0.4,1,1,1,1.7c0,0.6-0.1,1.1-0.2,1.6c-0.1,0.5-0.4,0.9-0.8,1.2
		c-0.4,0.3-1,0.6-1.7,0.8c-0.7,0.2-1.6,0.3-2.8,0.3h-12.1c-0.9,0-1.7-0.2-2.3-0.6c-0.6-0.4-0.9-0.9-0.9-1.6c0-0.1,0-0.3,0.1-0.3
		h-7.4c-0.1,0.5-0.1,0.9-0.2,1.2c-0.1,0.3-0.1,0.6-0.1,0.8c0,0.9,0.1,1.7,0.5,2.5c0.3,0.8,0.8,1.4,1.5,2.1c0.7,0.6,1.7,1,2.8,1.4
		s2.5,0.6,4.1,0.6h14.9c2.3,0,4.3-0.3,5.9-0.8c1.6-0.5,2.8-1.2,3.7-2.3c0.9-1,1.5-2.2,1.9-3.7c0.4-1.4,0.6-3.1,0.6-5
		c0-1.1-0.2-2-0.6-2.8c-0.4-0.8-1-1.4-1.7-2c-0.7-0.6-1.5-1-2.5-1.2s-2-0.4-3.1-0.5l-14.4-0.6c-0.4,0-0.8-0.1-1.2-0.1
		c-0.4-0.1-0.7-0.1-1-0.3c-0.3-0.1-0.5-0.3-0.6-0.6c-0.1-0.3-0.2-0.6-0.2-1.1c0-0.8,0.1-1.3,0.4-1.8c0.3-0.4,0.6-0.8,1-1
		c0.4-0.2,0.8-0.3,1.3-0.4c0.5-0.1,1-0.1,1.4-0.1h12.1c1.3,0,2.2,0.1,2.6,0.4c0.4,0.3,0.7,0.8,0.7,1.4c0,0.1,0,0.2,0,0.3
		s0,0.3-0.1,0.4h7.7c0.1-0.3,0.1-0.7,0.1-1c0-0.3,0.1-0.6,0.1-1c0-1.9-0.8-3.5-2.4-4.7C841.9,1288.2,839.4,1287.5,836.1,1287.5
		L836.1,1287.5z M852.1,1287.5l-5.3,30h30.7l1-6H855l1.2-6.5h22.7l1.1-6h-22.8l1-5.5h23.6l1-6L852.1,1287.5L852.1,1287.5z
		 M913.7,1296.1c0,0.1,0,0.2,0,0.3c0,0.1,0,0.2-0.1,0.3h7.4c0.2-1,0.3-1.9,0.3-2.8c0-1.2-0.2-2.3-0.7-3.1c-0.5-0.8-1.2-1.5-2.3-2.1
		c-1.1-0.6-2.5-0.9-4.3-1.1c-1.8-0.2-3.9-0.3-6.5-0.3h-7.6c-2.5,0-4.5,0.2-6.2,0.6c-1.7,0.4-3.1,1.2-4.3,2.1c-1.2,1-2.1,2.4-2.8,4.1
		c-0.7,1.7-1.2,3.9-1.7,6.5c-0.3,1.9-0.6,3.5-0.7,4.9c-0.1,1.4-0.1,2.4-0.1,3.2c0,2.8,1,5,3,6.4c2,1.4,4.9,2.1,8.8,2.1h8.6
		c2.7,0,4.9-0.1,6.7-0.5c1.8-0.3,3.2-0.9,4.4-1.7c1.2-0.8,2.1-1.9,2.7-3.4c0.6-1.4,1.2-3.2,1.6-5.4l1.2-7.2h-18.3l-1,5.9h10.9
		l-0.3,1.8c-0.1,0.8-0.4,1.4-0.7,2c-0.3,0.6-0.8,0.9-1.3,1.2c-0.6,0.3-1.2,0.5-2.1,0.6c-0.8,0.1-1.7,0.1-2.8,0.1h-7.7
		c-1.2,0-2.2-0.1-3-0.2c-0.8-0.1-1.4-0.4-1.9-0.7c-0.5-0.3-0.8-0.7-1-1.2c-0.2-0.5-0.3-1.1-0.3-1.7c0-0.6,0.1-1.4,0.1-2.5
		c0.1-1.1,0.3-2.2,0.5-3.4c0.3-1.6,0.6-2.9,1-3.9c0.4-1,1-1.7,1.6-2.2c0.7-0.5,1.5-0.8,2.5-1c1-0.1,2.3-0.2,3.9-0.2h5.2
		c1.5,0,2.8,0,3.7,0.1c1,0.1,1.7,0.1,2.3,0.3c0.6,0.1,1,0.3,1.2,0.6C913.6,1295.3,913.7,1295.7,913.7,1296.1L913.7,1296.1z
		 M934.4,1287.5h-7.2l-3.1,17.8c-0.1,0.8-0.2,1.4-0.2,2.1c0,0.7,0,1.2,0,1.7c0,1.1,0.2,2.1,0.6,3.2s1,1.9,1.8,2.7
		c0.8,0.8,1.9,1.4,3.2,1.9s2.9,0.7,4.7,0.7h10.7c2.3,0,4.3-0.2,5.9-0.6s3-1,4.1-1.8c1.1-0.8,2-1.9,2.6-3.3c0.6-1.4,1.2-3,1.5-5
		l3.4-19.4h-7.2l-3.2,18.6c-0.2,1-0.4,1.9-0.8,2.6s-0.8,1.2-1.4,1.7c-0.6,0.4-1.3,0.7-2.1,0.9c-0.8,0.2-1.9,0.3-3,0.3h-7.8
		c-2.1,0-3.5-0.3-4.3-1c-0.9-0.7-1.3-1.7-1.3-3.1c0-0.3,0-0.8,0.1-1.1c0-0.3,0.1-0.8,0.2-1.4L934.4,1287.5L934.4,1287.5z
		 M996.1,1309.1c0,0.3,0,0.7-0.1,1.1c0,0.4-0.1,0.9-0.2,1.6l-1,5.9h-7.2l0.8-4.1c0.1-0.5,0.1-0.8,0.2-1.1c0-0.3,0.1-0.5,0.1-0.6
		c0-2.1-1.4-3.2-4.3-3.2h-14.2l-1.6,9h-7.2l5.3-30h21.8c1.7,0,3.1,0.2,4.3,0.7c1.2,0.4,2.3,1,3,1.9c0.8,0.8,1.4,1.7,1.8,2.8
		c0.4,1,0.6,2.1,0.6,3.3c0,2.3-0.3,4.3-0.9,5.9c-0.6,1.6-1.6,2.8-3,3.6c0.6,0.2,1,0.6,1.4,1.2
		C995.9,1307.4,996.1,1308.2,996.1,1309.1L996.1,1309.1z M990.9,1297.5c0-0.9-0.3-1.7-0.8-2.1c-0.6-0.5-1.4-0.7-2.8-0.7h-15
		l-1.2,6.8h15.6c0.6,0,1.2-0.1,1.7-0.1c0.5-0.1,1-0.3,1.3-0.6s0.7-0.7,0.9-1.2C990.8,1299.1,990.9,1298.4,990.9,1297.5L990.9,1297.5
		z M1001,1317.6h7.2l5.3-30h-7.2L1001,1317.6L1001,1317.6z M1035.2,1311.6h-12.9l3.2-18.1h12.9c2.1,0,3.5,0.3,4.3,1.1
		c0.8,0.7,1.2,1.8,1.2,3.2c0,0.8-0.1,2-0.3,3.4c-0.2,1.4-0.5,3-0.7,4.5c-0.2,1-0.4,2-0.8,2.7c-0.3,0.8-0.8,1.3-1.4,1.8
		c-0.6,0.5-1.3,0.8-2.2,1C1037.7,1311.5,1036.5,1311.6,1035.2,1311.6L1035.2,1311.6z M1041,1287.5h-21.7l-5.3,30h21.8
		c2.3,0,4.2-0.2,5.9-0.6c1.7-0.3,3-1,4.1-1.7s2-1.8,2.6-3.1c0.6-1.2,1.1-2.8,1.4-4.6c0.2-1.2,0.4-2.5,0.6-3.7
		c0.2-1.2,0.3-2.3,0.4-3.4c0.1-1,0.2-1.9,0.3-2.7c0.1-0.8,0.1-1.3,0.1-1.7c0-1.2-0.2-2.3-0.6-3.4c-0.4-1-1-2-1.8-2.8
		s-1.9-1.4-3.2-1.9C1044.4,1287.8,1042.9,1287.5,1041,1287.5L1041,1287.5z M1048.9,1317.6l20.8-30h11.4l10.2,30h-8.5l-2.4-7.2h-18.3
		l-5,7.2H1048.9L1048.9,1317.6z M1074.7,1293.2h-0.4l-7.9,11.2h12L1074.7,1293.2L1074.7,1293.2z M1114.9,1311.6h-12.9l3.2-18.1h12.9
		c2.1,0,3.5,0.3,4.3,1.1c0.8,0.7,1.2,1.8,1.2,3.2c0,0.8-0.1,2-0.3,3.4s-0.5,3-0.7,4.5c-0.2,1-0.4,2-0.8,2.7
		c-0.3,0.8-0.8,1.3-1.4,1.8c-0.6,0.5-1.3,0.8-2.2,1C1117.4,1311.5,1116.3,1311.6,1114.9,1311.6L1114.9,1311.6z M1120.7,1287.5H1099
		l-5.3,30h21.8c2.3,0,4.2-0.2,5.9-0.6c1.7-0.3,3-1,4.1-1.7s2-1.8,2.6-3.1c0.6-1.2,1.1-2.8,1.4-4.6c0.2-1.2,0.4-2.5,0.6-3.7
		c0.2-1.2,0.3-2.3,0.4-3.4c0.1-1,0.2-1.9,0.3-2.7c0.1-0.8,0.1-1.3,0.1-1.7c0-1.2-0.2-2.3-0.6-3.4c-0.4-1-1-2-1.8-2.8
		c-0.8-0.8-1.9-1.4-3.2-1.9C1124.1,1287.8,1122.5,1287.5,1120.7,1287.5z"/>
</g>
</svg>
