<svg id="Capa_1" data-name="Capa 1" xmlns="http://www.w3.org/2000/svg" viewBox="0 0 744 100.4"><defs><style>.cls-1{fill:#fff;}.cls-1,.cls-2,.cls-3,.cls-4,.cls-5,.cls-6,.cls-7,.cls-8{fill-rule:evenodd;}.cls-2{fill:#979797;}.cls-3{fill:#b1b1b1;}.cls-4{fill:#c8c8c8;}.cls-5{fill:#b5b5b5;}.cls-6{fill:#c9c9c9;}.cls-7{fill:#aeaeae;}.cls-8{fill:#d6d6d6;}</style></defs><title>mi-express-logo-dos-B&amp;amp;W</title><path class="cls-1" d="M14.24,12.24H131.51v16.3c-.63.36-1.28.7-1.93,1a53.83,53.83,0,0,1-6.67,2.56l-.69.24v13a14,14,0,0,0,1.82-.2c1.82-.28,4.58-.86,7.47-1.49V55.51A15.51,15.51,0,0,0,128.07,57a2.34,2.34,0,0,1-1.87.43c-.68-.14-1.72-.52-3-.92s-2.71-.81-3.72-1.11a3.57,3.57,0,0,0-2.25-.24,3.1,3.1,0,0,0-1.87,1.75,2.81,2.81,0,0,0,.6,2.93,6.94,6.94,0,0,0,3.77,1.6c1.45.22,2.88.15,3.66.57a1.84,1.84,0,0,1,.79,2,2.76,2.76,0,0,1-.88,1.62c-.38.33-.76.43-1,.67s-.29.63-.33,1.56a31.91,31.91,0,0,1-.16,3.21c-.12.78-.36.84-2.55,1.12s-6.31.77-8.3,1-1.86.35-.12.49,5.06.34,7.07.53,2.71.37,3.82.07a20.3,20.3,0,0,0,4.46-2.13c1.55-.92,3.32-2.06,5.27-3.12V97.17H14.24V83.73l4.57.25c3,.16,4.27.2,6,.83S28.58,86.7,31,87.93s5,2.43,6.78,3.12a7.62,7.62,0,0,0,4,.71,14.84,14.84,0,0,0,4-1.1,12.53,12.53,0,0,1,2.43-1.16c.78-.15,1.8.08,2.65-.12a4,4,0,0,0,2-1.41c.5-.58.83-1.14,1.42-1.32a7.64,7.64,0,0,1,2.13,0,2.86,2.86,0,0,0,2-.8,19.22,19.22,0,0,0,2.93-3,24.23,24.23,0,0,0,2.07-3.15c.36-.65.32-.68-1.77-.45S55.4,80,53,80.3s-3.16.44-3.72.24-1-.72-1.65-1.65-1.72-2.28-2.2-3-.41-.73-.13-.73a13.56,13.56,0,0,1,2,.23c1.18.2,3,.56,4.67.68a7.85,7.85,0,0,0,4.19-.63A6.49,6.49,0,0,0,58.7,73c.43-.8.26-1.32-.67-1.65s-2.63-.46-4.52-.82-3.94-1-5.63-1.42a28.08,28.08,0,0,0-4.5-1A31.4,31.4,0,0,0,38.27,68a25.15,25.15,0,0,0-5.38.65c-1.4.41-2.08,1.06-3.21,1.41a11.63,11.63,0,0,1-4.34.19c-1.64-.18-3.34-.57-7.79-2.3l-3.31-1.33V58.82c.34.2.7.39,1.09.58a36.62,36.62,0,0,0,7,2.46c.79.18,1.47.29,2.06.37v-21h-.5c-1.68,0-3.83.09-5.87.3-1.35.13-2.66.33-3.8.5Z"/><path class="cls-2" d="M24.41,30.42l18.79,9.7V68.06A33,33,0,0,0,38.27,68a25.15,25.15,0,0,0-5.38.65c-1.4.41-2.08,1.06-3.21,1.41a11.63,11.63,0,0,1-4.34.19l-.93-.12Z"/><polygon class="cls-3" points="31.17 33.91 36.19 36.5 36.19 49.59 31.17 46.9 31.17 33.91"/><path class="cls-4" d="M122.22,30.42l-79,9.7V68.06l.18,0a28.08,28.08,0,0,1,4.5,1c1.69.47,3.75,1.06,5.63,1.42s3.59.49,4.52.82,1.1.85.67,1.65a6.49,6.49,0,0,1-2.63,2.49,7.85,7.85,0,0,1-4.19.63c-1.63-.12-3.49-.48-4.67-.68a13.56,13.56,0,0,0-2-.23c-.28,0-.34,0,.13.73s1.49,2,2.2,3,1.09,1.46,1.65,1.65,1.28.07,3.72-.24,6.59-.81,8.69-1c1.21-.14,1.73-.18,1.89-.07l46-5.65a6.71,6.71,0,0,1,1.44-.27c2-.28,6.12-.77,8.3-1s2.43-.34,2.55-1.12A31.91,31.91,0,0,0,122,67.9a3.84,3.84,0,0,1,.2-1.36V61.69c-.72-.09-1.58-.12-2.45-.25a6.94,6.94,0,0,1-3.77-1.6,2.81,2.81,0,0,1-.6-2.93,3.1,3.1,0,0,1,1.87-1.75,3.57,3.57,0,0,1,2.25.24l2.7.79Z"/><polygon class="cls-5" points="103.42 20.68 24.41 30.38 24.41 30.42 43.2 40.12 103.42 32.72 122.22 30.42 122.22 30.36 103.42 20.66 103.42 20.68"/><polygon class="cls-6" points="30.89 33.76 36.34 36.58 114.97 26.62 109.52 23.81 30.89 33.76"/><polygon class="cls-1" points="109.08 40.09 63.66 47.21 65.57 76.76 109.91 68.55 109.08 40.09"/><polygon class="cls-7" points="65.96 58.68 108.15 51.9 108.26 52.59 66.07 59.37 65.96 58.68"/><path class="cls-7" d="M91.7,44l13.64-2.21h.17a.87.87,0,0,1,.59.21h0a1,1,0,0,1,.31.56,1,1,0,0,1,0,.17v6.86a1.24,1.24,0,0,1-.3.8,1.19,1.19,0,0,1-.73.42L91.75,53h-.17a.89.89,0,0,1-.9-.77c0-.06,0-.11,0-.17V45.23a1.3,1.3,0,0,1,.3-.8A1.21,1.21,0,0,1,91.7,44Zm13.69-1.91L91.75,44.31a.87.87,0,0,0-.54.32,1,1,0,0,0-.23.6v6.86a.45.45,0,0,0,0,.12h0a.61.61,0,0,0,.2.38.64.64,0,0,0,.39.14h.12l13.64-2.21a.87.87,0,0,0,.54-.32.9.9,0,0,0,.23-.6V42.73a.41.41,0,0,0,0-.12.57.57,0,0,0-.2-.38h0a.58.58,0,0,0-.39-.14Z"/><polygon class="cls-7" points="67.06 69.14 80.74 66.61 80.8 66.91 67.12 69.44 67.06 69.14"/><polygon class="cls-7" points="67.17 70.2 80.84 67.67 80.9 67.97 67.22 70.5 67.17 70.2"/><polygon class="cls-7" points="67.27 71.25 80.94 68.72 81 69.02 67.32 71.55 67.27 71.25"/><polygon class="cls-7" points="67.37 72.3 81.05 69.77 81.1 70.07 67.42 72.61 67.37 72.3"/><polygon class="cls-7" points="67.47 73.36 81.15 70.83 81.2 71.13 67.52 73.66 67.47 73.36"/><polygon class="cls-7" points="67.57 74.41 81.25 71.88 81.3 72.18 67.62 74.71 67.57 74.41"/><polygon class="cls-7" points="94.06 66 107.74 63.47 107.8 63.77 94.12 66.3 94.06 66"/><polygon class="cls-7" points="94.17 67.05 107.84 64.52 107.9 64.82 94.22 67.35 94.17 67.05"/><polygon class="cls-7" points="94.27 68.11 107.94 65.58 108 65.88 94.32 68.41 94.27 68.11"/><polygon class="cls-7" points="94.37 69.16 108.05 66.63 108.1 66.93 94.42 69.46 94.37 69.16"/><polygon class="cls-7" points="91.78 45.98 105.46 43.45 105.52 43.76 91.84 46.29 91.78 45.98"/><polygon class="cls-7" points="91.78 47.65 105.46 45.12 105.52 45.42 91.84 47.95 91.78 47.65"/><polygon class="cls-7" points="91.78 49.32 105.46 46.79 105.52 47.09 91.84 49.62 91.78 49.32"/><polygon class="cls-7" points="91.78 50.99 105.46 48.46 105.52 48.76 91.84 51.29 91.78 50.99"/><path class="cls-1" d="M244.28,12.32H214.46L196.74,43l-2-30.66H166.41a8.47,8.47,0,0,1,.5,3c0,.67-.08,1.51-.16,2.68-.17.76-.26,1.35-.34,1.69L156.33,58.78A32.37,32.37,0,0,1,153.72,66c-.33.59-.67,1.09-1.51,2.35H165a8.09,8.09,0,0,1-.5-3c0-.67.08-1.51.17-2.69.16-.67.25-1.26.33-1.68l9.49-36.62,2.86,44h15.21l25.53-44.18-9,34.61a32.94,32.94,0,0,1-2.6,7.22c-.34.59-.67,1.09-1.51,2.35h25.12a8.12,8.12,0,0,1-.51-3c0-.59.09-1.51.17-2.69.17-.67.25-1.26.34-1.68L240.17,21.9a30.38,30.38,0,0,1,2.6-7.14c.34-.59.67-1.09,1.51-2.44Zm31,0c-.84,1.35-1.17,1.85-1.51,2.44a30.87,30.87,0,0,0-2.52,7.14L261.08,61c-.08.42-.16,1-.25,1.68a20.64,20.64,0,0,0-.25,2.69,6.78,6.78,0,0,0,.59,3H236.05c.84-1.26,1.18-1.76,1.51-2.35a33,33,0,0,0,2.52-7.22l10.17-39.06A15.31,15.31,0,0,0,250.5,18a19.28,19.28,0,0,0,.25-2.68,7.08,7.08,0,0,0-.59-3Zm24.87,30.16H270.58l-2.52,10h29.57l2.52-10Zm60.31-30.16L359.2,23a8.93,8.93,0,0,0-2.94-1.17c-.92-.09-2.52-.26-3.78-.26H331.9l-3.53,13.7h20.84a18,18,0,0,0,5.54-.84L351.9,45.67c-1.85-.92-3.11-1.17-6.64-1.17H325.94l-3.78,14.61h22a12.28,12.28,0,0,0,6-1.26L346,68.35h-49.4c.84-1.26,1.18-1.76,1.51-2.35a33,33,0,0,0,2.52-7.22l10.17-39.06c.08-.34.16-.93.25-1.69a19.28,19.28,0,0,0,.25-2.68,7.08,7.08,0,0,0-.59-3Zm68.81,0H412.8a11.54,11.54,0,0,1-3.36,4.46l-14.87,12.6-3-6.64-1.1-2.27a15.32,15.32,0,0,1-1.34-6,7.85,7.85,0,0,1,.34-2.19H362a41.63,41.63,0,0,1,3.69,5.46,36.15,36.15,0,0,1,2.52,4.62c.17.26.93,1.77,2.27,4.71L378,43.4,359,59.62c-1.76,1.51-5.12,4.11-6.89,5.29a46.76,46.76,0,0,1-6,3.44h18.56c1-2.35,1.6-3.27,4.29-5.54l12.94-11.09,2.68,5.71a41.07,41.07,0,0,1,2.52,6.64,13,13,0,0,1,.34,2.77,5.36,5.36,0,0,1-.17,1.51h27.39a18.55,18.55,0,0,1-3.45-4.53c-.42-.76-.84-1.6-1.42-2.61-.59-1.17-1-1.93-1.18-2.35L398.18,37.94,421.71,18l1.76-1.51,2.18-1.68,2.19-1.51,1.43-1Zm59.3,10.17a12.42,12.42,0,0,1-.67,3.86l-2.52,9.91c-1,3.87-1.17,4.2-2.35,6.22-2.44,4.12-6.39,6.05-12.52,6.05H445.06L441.78,61c-.08.42-.17,1-.25,1.68a20.49,20.49,0,0,0-.25,2.77,6.66,6.66,0,0,0,.59,2.94H416.75c.84-1.26,1.17-1.76,1.51-2.35a33.48,33.48,0,0,0,2.52-7.22L431,19.72c.08-.34.16-.93.25-1.69a19.28,19.28,0,0,0,.25-2.68,7.08,7.08,0,0,0-.59-3H475a20.58,20.58,0,0,1,2.52.09c4.12.08,7.06,1.34,9,3.95a10.15,10.15,0,0,1,2.1,6.13Zm-21.84,1.85a2.93,2.93,0,0,0-.67-1.85c-.59-.76-1.34-.93-3.7-.93H452l-4.62,17.73h10.08c4.71,0,5.71-.76,6.89-5.21l2.1-8a6.78,6.78,0,0,0,.25-1.76ZM553,22.49a10.75,10.75,0,0,0-3.36-7.14c-2.27-2.19-4.79-3-9-3H496.22a7.23,7.23,0,0,1,.59,3,19.6,19.6,0,0,1-.26,2.68,13.2,13.2,0,0,1-.25,1.69L486.14,58.78A33.48,33.48,0,0,1,483.62,66c-.34.59-.67,1.09-1.52,2.35h25.12a6.8,6.8,0,0,1-.59-2.94,20.82,20.82,0,0,1,.26-2.77c.08-.67.16-1.26.25-1.68l4.37-16.71H517l4.62,24.1h23.69A10,10,0,0,1,541.83,62l-3.61-17.72c.67,0,1.18.08,1.51.08a12.66,12.66,0,0,0,6.3-1.51c1.94-1.1,2.52-1.94,3.53-5.38l.51-1.76,2.43-9.5a12.34,12.34,0,0,0,.25-1.76,12,12,0,0,0,.26-1.93Zm-21.68,1.26a8.61,8.61,0,0,1-.25,1.85l-1.43,5.62c-.5,2-.84,2.44-1.93,3-.84.42-1.26.5-3.28.5h-10.5l3.45-13.19h10.75c2.35,0,3.19.59,3.19,2.19Zm80.9-11.43L611,23A9.1,9.1,0,0,0,608,21.82c-.92-.09-2.52-.26-3.78-.26H583.67l-3.53,13.7H601a18,18,0,0,0,5.55-.84l-2.86,11.25c-1.85-.92-3.11-1.17-6.63-1.17H577.7l-3.78,14.61h22a12.32,12.32,0,0,0,6-1.26l-4.12,10.5H548.39c.84-1.26,1.17-1.76,1.51-2.35a33.48,33.48,0,0,0,2.52-7.22l10.16-39.06a14.77,14.77,0,0,0,.26-1.69,21,21,0,0,0,.25-2.68,7.23,7.23,0,0,0-.59-3Zm57.46,0h-39.4a31.75,31.75,0,0,0-6.63.84,14.88,14.88,0,0,0-3.62,1.6,13.38,13.38,0,0,0-5.46,7.06l-.58,2.1-3.37,12.93a23.25,23.25,0,0,0-1.09,6.55c0,5.05,3.53,7.65,10.5,7.65h15.8c2.18,0,3.19.67,3.19,2a18.27,18.27,0,0,1-.42,2.43,7.54,7.54,0,0,1-.76,1.93,2.48,2.48,0,0,1-2.6,1.68H611.64a10,10,0,0,1-3.36-.67A11.39,11.39,0,0,1,605.34,57l-1.59,11.34h39.9c5.46,0,7.81-.58,10.5-2.52a10.63,10.63,0,0,0,3.36-3.69,47.11,47.11,0,0,0,2-6l3.69-14.28a13.09,13.09,0,0,0,.76-4.37,6.8,6.8,0,0,0-1.85-5C660.45,30.55,658.85,30,655,30h-17c-2.36,0-3.36-.58-3.36-2.1a9.18,9.18,0,0,1,.42-1.93l.5-1.85c.59-2,1.6-2.52,4.62-2.52h19.66a20.65,20.65,0,0,1,5.46.68,8.91,8.91,0,0,1,3.19,1.68l1.26-11.6Zm59.31,0-1.26,11.6a8.91,8.91,0,0,0-3.19-1.68,20.65,20.65,0,0,0-5.46-.68H699.43c-3,0-4,.51-4.62,2.52l-.5,1.85a8.75,8.75,0,0,0-.43,1.93c0,1.52,1,2.1,3.37,2.1h17c3.86,0,5.46.59,7.14,2.52a6.8,6.8,0,0,1,1.85,5,13.09,13.09,0,0,1-.76,4.37l-3.69,14.28a47.11,47.11,0,0,1-2,6,10.63,10.63,0,0,1-3.36,3.69c-2.69,1.94-5,2.52-10.5,2.52H663.05L664.65,57a11.24,11.24,0,0,0,2.94,1.43,10,10,0,0,0,3.36.67h23.61a2.48,2.48,0,0,0,2.6-1.68,7.54,7.54,0,0,0,.76-1.93,18.27,18.27,0,0,0,.42-2.43c0-1.35-1-2-3.19-2h-15.8c-7,0-10.5-2.6-10.5-7.65a23.25,23.25,0,0,1,1.09-6.55l3.36-12.93.59-2.1a13.33,13.33,0,0,1,5.46-7.06,15,15,0,0,1,3.61-1.6,31.85,31.85,0,0,1,6.64-.84Z"/><path class="cls-8" d="M244.28,12.32H214.46L199.23,38.68h10.46l8.38-14.51L214.3,38.68h21.54l4.33-16.78a30.38,30.38,0,0,1,2.6-7.14c.34-.59.67-1.09,1.51-2.44ZM196.45,38.68l-1.73-26.36H166.41a8.47,8.47,0,0,1,.5,3c0,.67-.08,1.51-.16,2.68-.17.76-.26,1.35-.34,1.69l-4.89,19h9.24l3.71-14.34.93,14.34Zm526.79,0H669.49c.12-.54.27-1.14.45-1.83l3.36-12.93.59-2.1a13.33,13.33,0,0,1,5.46-7.06,15,15,0,0,1,3.61-1.6,31.85,31.85,0,0,1,6.64-.84H729l-1.26,11.6a8.91,8.91,0,0,0-3.19-1.68,20.65,20.65,0,0,0-5.46-.68H699.43c-3,0-4,.51-4.62,2.52l-.5,1.85a8.75,8.75,0,0,0-.43,1.93c0,1.52,1,2.1,3.37,2.1h17c3.86,0,5.46.59,7.14,2.52a6.8,6.8,0,0,1,1.85,5,11.3,11.3,0,0,1,0,1.24Zm-59.31,0a11.3,11.3,0,0,0,.05-1.24,6.8,6.8,0,0,0-1.85-5C660.45,30.55,658.85,30,655,30h-17c-2.36,0-3.36-.58-3.36-2.1a9.18,9.18,0,0,1,.42-1.93l.5-1.85c.59-2,1.6-2.52,4.62-2.52h19.66a20.65,20.65,0,0,1,5.46.68,8.91,8.91,0,0,1,3.19,1.68l1.26-11.6h-39.4a31.75,31.75,0,0,0-6.63.84,14.88,14.88,0,0,0-3.62,1.6,13.38,13.38,0,0,0-5.46,7.06l-.58,2.1-3.37,12.93c-.17.69-.33,1.29-.45,1.83Zm-58.49,0H557.65l4.93-19a14.77,14.77,0,0,0,.26-1.69,21,21,0,0,0,.25-2.68,7.23,7.23,0,0,0-.59-3h49.73L611,23A9.1,9.1,0,0,0,608,21.82c-.92-.09-2.52-.26-3.78-.26H583.67l-3.53,13.7H601a18,18,0,0,0,5.55-.84l-1.08,4.26Zm-56.26,0H491.37l4.93-19a13.2,13.2,0,0,0,.25-1.69,19.6,19.6,0,0,0,.26-2.68,7.23,7.23,0,0,0-.59-3h44.44c4.2,0,6.72.84,9,3A10.75,10.75,0,0,1,553,22.49a12,12,0,0,1-.26,1.93,12.34,12.34,0,0,1-.25,1.76l-2.43,9.5-.51,1.76c-.13.46-.26.87-.38,1.24Zm-64.45,0h-23c1.34-.67,2-2,2.65-4.6l2.1-8a6.78,6.78,0,0,0,.25-1.76,2.93,2.93,0,0,0-.67-1.85c-.59-.76-1.34-.93-3.7-.93H452l-4.46,17.12H426l4.94-19c.08-.34.16-.93.25-1.69a19.28,19.28,0,0,0,.25-2.68,7.08,7.08,0,0,0-.59-3H475a20.58,20.58,0,0,1,2.52.09c4.12.08,7.06,1.34,9,3.95a10.15,10.15,0,0,1,2.1,6.13,12.42,12.42,0,0,1-.67,3.86l-2.52,9.91c-.26,1-.47,1.8-.65,2.42Zm-86.18,0-.37-.74L421.71,18l1.76-1.51,2.18-1.68,2.19-1.51,1.43-1H412.8a11.54,11.54,0,0,1-3.36,4.46l-14.87,12.6-3-6.64-1.1-2.27a15.32,15.32,0,0,1-1.34-6,7.85,7.85,0,0,1,.34-2.19H362a41.63,41.63,0,0,1,3.69,5.46,36.15,36.15,0,0,1,2.52,4.62c.17.26.93,1.77,2.27,4.71l5.37,11.57Zm-44.88,0H305.88l4.94-19c.08-.34.16-.93.25-1.69a19.28,19.28,0,0,0,.25-2.68,7.08,7.08,0,0,0-.59-3h49.73L359.2,23a8.93,8.93,0,0,0-2.94-1.17c-.92-.09-2.52-.26-3.78-.26H331.9l-3.53,13.7h20.84a18,18,0,0,0,5.54-.84l-1.08,4.26Zm-86.79,0H245.31l4.94-19A15.31,15.31,0,0,0,250.5,18a19.28,19.28,0,0,0,.25-2.68,7.08,7.08,0,0,0-.59-3h25.12c-.84,1.35-1.17,1.85-1.51,2.44a30.87,30.87,0,0,0-2.52,7.14l-4.37,16.78ZM531.33,23.75c0-1.6-.84-2.19-3.19-2.19H517.39l-3.45,13.19h10.5c2,0,2.44-.08,3.28-.5,1.09-.59,1.43-1,1.93-3l1.43-5.62A8.61,8.61,0,0,0,531.33,23.75Z"/><path class="cls-1" d="M162.88,80h-7.13c-2.36,0-4.07.47-5.16,1.42A5.58,5.58,0,0,0,149,85.83a3.91,3.91,0,0,0,.3,1.66,2.32,2.32,0,0,0,.91,1,4.38,4.38,0,0,0,1.52.54,15.18,15.18,0,0,0,2.11.21l6.64.28a4.29,4.29,0,0,1,1.94.38,1,1,0,0,1,.52.93,3.26,3.26,0,0,1-.11.86,1.34,1.34,0,0,1-.42.66,2.2,2.2,0,0,1-.88.45A5.34,5.34,0,0,1,160,93h-6.5a2.14,2.14,0,0,1-1.22-.31,1,1,0,0,1-.47-.86.42.42,0,0,1,0-.18h-4c0,.25-.08.47-.1.67a3.35,3.35,0,0,0,0,.42,3.58,3.58,0,0,0,.26,1.36,2.85,2.85,0,0,0,.83,1.11,4.13,4.13,0,0,0,1.48.76,7.57,7.57,0,0,0,2.23.28h8a10.23,10.23,0,0,0,3.18-.41,4.22,4.22,0,0,0,3-3.2,11.06,11.06,0,0,0,.29-2.7,3.32,3.32,0,0,0-.31-1.5,3,3,0,0,0-.88-1.06,4,4,0,0,0-1.33-.66,7.38,7.38,0,0,0-1.69-.27l-7.76-.3-.67-.06a1.64,1.64,0,0,1-.54-.14.89.89,0,0,1-.35-.32,1.21,1.21,0,0,1-.13-.6,1.85,1.85,0,0,1,.21-1,1.53,1.53,0,0,1,.53-.54,1.7,1.7,0,0,1,.71-.23,5.05,5.05,0,0,1,.75-.05h6.53a3,3,0,0,1,1.41.22.79.79,0,0,1,.37.74v.18a.89.89,0,0,1,0,.22h4.19c0-.19.05-.37.07-.54a4.52,4.52,0,0,0,0-.52A3,3,0,0,0,166.88,81a6.67,6.67,0,0,0-4-1Zm8.63,0-2.85,16.23h16.61l.56-3.25h-12.7l.63-3.51h12.3l.59-3.25H174.32l.52-3h12.72l.56-3.25Zm35.28,11.65c0,.17,0,.37,0,.58a7.34,7.34,0,0,1-.11.85l-.56,3.15h-3.91l.4-2.19c0-.27.08-.47.09-.6a2.18,2.18,0,0,0,0-.34q0-1.71-2.31-1.71h-7.67l-.85,4.84H188L190.81,80H202.6a6.83,6.83,0,0,1,2.33.36,4.67,4.67,0,0,1,1.65,1,4.17,4.17,0,0,1,1,1.47,4.88,4.88,0,0,1,.33,1.8,9.36,9.36,0,0,1-.49,3.22,3.61,3.61,0,0,1-1.62,1.93,1.48,1.48,0,0,1,.74.64,2.41,2.41,0,0,1,.27,1.23ZM204,85.38a1.43,1.43,0,0,0-.43-1.13,2.22,2.22,0,0,0-1.49-.39H194l-.63,3.65h8.4a4.31,4.31,0,0,0,.9-.08,1.82,1.82,0,0,0,.71-.3,1.46,1.46,0,0,0,.47-.65,3,3,0,0,0,.16-1.1ZM214.74,80h-4.33l5.52,16.23h6.18L233.38,80h-4.6l-9.41,13.43L214.74,80Zm17.68,16.23L235.28,80h3.9l-2.87,16.23Zm13.24,0H252a15.55,15.55,0,0,0,3.18-.28,4.85,4.85,0,0,0,2.06-.94,4.18,4.18,0,0,0,1.22-1.74,14.07,14.07,0,0,0,.72-2.7h-4a3.48,3.48,0,0,1-.34,1.1,1.46,1.46,0,0,1-.71.65,3.62,3.62,0,0,1-1.31.3c-.54.05-1.25.07-2.1.07h-3.18a6.13,6.13,0,0,1-2.51-.39,1.48,1.48,0,0,1-.82-1.45c0-.45,0-1,.09-1.61s.16-1.39.33-2.35a9,9,0,0,1,.41-1.62,2.54,2.54,0,0,1,.68-1,2.61,2.61,0,0,1,1.11-.53,8.29,8.29,0,0,1,1.73-.15h3.72a14.46,14.46,0,0,1,1.94.1,4.4,4.4,0,0,1,1.17.27,1.06,1.06,0,0,1,.58.44,1.26,1.26,0,0,1,.15.62,1.69,1.69,0,0,1,0,.23c0,.08,0,.17,0,.26h4c.07-.37.13-.71.16-1s.05-.5.05-.63a3.64,3.64,0,0,0-.37-1.7,3,3,0,0,0-1.15-1.22,6.07,6.07,0,0,0-2.05-.73,17.31,17.31,0,0,0-3-.23h-4.07a25.06,25.06,0,0,0-3.95.25,5.53,5.53,0,0,0-2.52,1,4.74,4.74,0,0,0-1.51,2,16,16,0,0,0-.88,3.37c-.18.93-.32,1.85-.43,2.74a19.93,19.93,0,0,0-.16,2.4,5,5,0,0,0,.33,1.86,3.65,3.65,0,0,0,1,1.42,4.75,4.75,0,0,0,1.7.91,8,8,0,0,0,2.45.33Zm15.72,0h3.89L268.14,80h-3.9l-2.86,16.23Zm23.7-10.62c0,.13,0,.32,0,.58s0,.54-.07.86-.06.66-.1,1-.09.69-.15,1a10.61,10.61,0,0,1-.48,1.87,2.25,2.25,0,0,1-.81,1.08,3.1,3.1,0,0,1-1.43.51,18.15,18.15,0,0,1-2.31.11h-3.09a13.87,13.87,0,0,1-1.72-.08,2.94,2.94,0,0,1-1.1-.31,1.33,1.33,0,0,1-.58-.66,2.75,2.75,0,0,1-.18-1.07,9.54,9.54,0,0,1,.15-1.4c.1-.61.26-1.48.48-2.6a7.25,7.25,0,0,1,.4-1.42,2,2,0,0,1,.73-.9,3.44,3.44,0,0,1,1.33-.47,14.48,14.48,0,0,1,2.22-.14h2.88a13.93,13.93,0,0,1,1.89.11,3.38,3.38,0,0,1,1.18.35,1.35,1.35,0,0,1,.61.62,2.14,2.14,0,0,1,.18.93Zm-4.24,10.62a18.45,18.45,0,0,0,3.1-.22,5.37,5.37,0,0,0,2.2-.86,4.45,4.45,0,0,0,1.45-1.84,12.65,12.65,0,0,0,.88-3.13c.09-.58.17-1.15.24-1.72s.13-1.11.18-1.62.08-1,.11-1.39,0-.77,0-1.05a4.67,4.67,0,0,0-.33-1.76,3.54,3.54,0,0,0-1.06-1.42,5.28,5.28,0,0,0-1.93-1,10.82,10.82,0,0,0-2.95-.34h-4.12a21.6,21.6,0,0,0-3.95.3,6.12,6.12,0,0,0-2.56,1.07,4.9,4.9,0,0,0-1.53,2.06,15.53,15.53,0,0,0-.89,3.26c-.16.84-.3,1.72-.42,2.63a17,17,0,0,0-.19,2.35,5.57,5.57,0,0,0,.33,2,3.19,3.19,0,0,0,1.1,1.45,5.37,5.37,0,0,0,2,.89,13.92,13.92,0,0,0,3.14.3ZM291,91.68h4.52l-.94,5.26a3.61,3.61,0,0,1-.82,1.82,4,4,0,0,1-1.43,1,5.67,5.67,0,0,1-1.75.48,14.07,14.07,0,0,1-1.8.12l.37-2.17a4.32,4.32,0,0,0,.62,0,1.8,1.8,0,0,0,.58-.19,1.47,1.47,0,0,0,.45-.38,1.32,1.32,0,0,0,.27-.67l.14-.73h-1l.82-4.53Zm25.22,4.56h6.36a15.48,15.48,0,0,0,3.18-.28,4.85,4.85,0,0,0,2.06-.94A4.3,4.3,0,0,0,329,93.28a14.12,14.12,0,0,0,.71-2.7h-4a3.76,3.76,0,0,1-.34,1.1,1.53,1.53,0,0,1-.72.65,3.57,3.57,0,0,1-1.31.3c-.54.05-1.24.07-2.1.07h-3.18a6.08,6.08,0,0,1-2.5-.39,1.47,1.47,0,0,1-.82-1.45c0-.45,0-1,.08-1.61s.17-1.39.34-2.35a8.26,8.26,0,0,1,.41-1.62,2.44,2.44,0,0,1,.68-1,2.5,2.5,0,0,1,1.11-.53,8.23,8.23,0,0,1,1.73-.15h3.72a14.66,14.66,0,0,1,1.94.1,4.4,4.4,0,0,1,1.17.27,1.07,1.07,0,0,1,.57.44,1.26,1.26,0,0,1,.15.62,1.69,1.69,0,0,1,0,.23l0,.26h4a9,9,0,0,0,.16-1c0-.29.05-.5.05-.63a3.77,3.77,0,0,0-.36-1.7,3,3,0,0,0-1.16-1.22,6,6,0,0,0-2.05-.73,17.31,17.31,0,0,0-3-.23h-4.07a25.14,25.14,0,0,0-4,.25,5.44,5.44,0,0,0-2.51,1,4.66,4.66,0,0,0-1.51,2,15.4,15.4,0,0,0-.89,3.37c-.17.93-.31,1.85-.42,2.74a20.12,20.12,0,0,0-.17,2.4,5,5,0,0,0,.33,1.86A3.57,3.57,0,0,0,312,95a4.62,4.62,0,0,0,1.69.91,8.14,8.14,0,0,0,2.46.33Zm31.74-10.65c0,.13,0,.32,0,.58s0,.54-.07.86-.06.66-.1,1-.09.69-.15,1a10.61,10.61,0,0,1-.48,1.87,2.25,2.25,0,0,1-.81,1.08,3.1,3.1,0,0,1-1.43.51,18.15,18.15,0,0,1-2.31.11h-3.09a13.87,13.87,0,0,1-1.72-.08,3,3,0,0,1-1.1-.31,1.33,1.33,0,0,1-.58-.66,2.75,2.75,0,0,1-.18-1.07,9.54,9.54,0,0,1,.15-1.4c.11-.61.27-1.48.48-2.6a8,8,0,0,1,.4-1.42,2,2,0,0,1,.73-.9,3.44,3.44,0,0,1,1.33-.47,14.48,14.48,0,0,1,2.22-.14h2.88a13.93,13.93,0,0,1,1.89.11,3.38,3.38,0,0,1,1.18.35,1.35,1.35,0,0,1,.61.62,2.14,2.14,0,0,1,.18.93Zm-4.24,10.62a18.37,18.37,0,0,0,3.1-.22,5.37,5.37,0,0,0,2.2-.86,4.45,4.45,0,0,0,1.45-1.84,12.65,12.65,0,0,0,.88-3.13c.09-.58.18-1.15.25-1.72s.12-1.11.17-1.62.08-1,.11-1.39,0-.77,0-1.05a4.67,4.67,0,0,0-.33-1.76,3.45,3.45,0,0,0-1.06-1.42,5.2,5.2,0,0,0-1.93-1,10.82,10.82,0,0,0-2.95-.34H341.5a21.72,21.72,0,0,0-4,.3A6.12,6.12,0,0,0,335,81.28a4.9,4.9,0,0,0-1.53,2.06,15.53,15.53,0,0,0-.89,3.26c-.16.84-.3,1.72-.42,2.63a17,17,0,0,0-.19,2.35,5.57,5.57,0,0,0,.33,2,3.19,3.19,0,0,0,1.1,1.45,5.37,5.37,0,0,0,2,.89,13.92,13.92,0,0,0,3.14.3Zm12-16.23-2.85,16.23h3.88l2.13-12.14L369,96.21h4.66L376.51,80h-3.9l-2.06,11.46L361,80Zm23.72,0-2.85,16.23h3.9l1.19-6.76h12.31l.58-3.25H382.2l.51-3h12.72L396,80Zm16.82,16.23h3.88L403,80h-3.91l-2.85,16.23Zm5.8,0L413.24,80h6.15l5.52,16.23h-4.56l-1.29-3.9h-9.85l-2.66,3.9ZM416,83h-.24l-4.25,6h6.48l-2-6Zm13.26-3-2.85,16.23h3.88l2.13-12.14,10.17,12.14h4.66L450.05,80h-3.9l-2.06,11.46L434.5,80Zm41.4,0L470,83.26,456.23,93h12.09l-.56,3.25H449.51l.57-3.18,14.24-9.82H451.78l.59-3.23Zm-1.49,16.23h4.53l2.67-3.9h9.85l1.28,3.9H492L486.5,80h-6.16L469.12,96.21ZM483.06,83l2,6h-6.48l4.25-6Zm28.65-3h-4.56l6.55,10.76-1,5.47h3.91l1-5.47L528.2,80h-4.89l-7.16,7.32L511.71,80Zm42.34,0h-7.14q-3.52,0-5.15,1.42a5.55,5.55,0,0,0-1.63,4.43,3.91,3.91,0,0,0,.3,1.66,2.34,2.34,0,0,0,.92,1,4.31,4.31,0,0,0,1.52.54,15.19,15.19,0,0,0,2.1.21l6.65.28a4.32,4.32,0,0,1,1.94.38,1,1,0,0,1,.51.93,3.28,3.28,0,0,1-.1.86,1.34,1.34,0,0,1-.42.66,2.35,2.35,0,0,1-.88.45,5.47,5.47,0,0,1-1.48.16h-6.5a2.11,2.11,0,0,1-1.21-.31,1,1,0,0,1-.47-.86.74.74,0,0,1,0-.18h-4c0,.25-.08.47-.1.67s0,.35,0,.42a3.58,3.58,0,0,0,.26,1.36,2.85,2.85,0,0,0,.83,1.11,4.1,4.1,0,0,0,1.49.76,7.55,7.55,0,0,0,2.22.28h8a10.32,10.32,0,0,0,3.18-.41,4.48,4.48,0,0,0,2-1.21,4.56,4.56,0,0,0,1-2,11.58,11.58,0,0,0,.29-2.7,3.32,3.32,0,0,0-.32-1.5,3.08,3.08,0,0,0-.87-1.06,4,4,0,0,0-1.34-.66,7.2,7.2,0,0,0-1.68-.27l-7.77-.3-.66-.06a1.64,1.64,0,0,1-.54-.14.78.78,0,0,1-.35-.32,1.11,1.11,0,0,1-.13-.6,1.85,1.85,0,0,1,.21-1,1.42,1.42,0,0,1,.52-.54,1.74,1.74,0,0,1,.72-.23,4.89,4.89,0,0,1,.75-.05h6.52a3,3,0,0,1,1.42.22.8.8,0,0,1,.36.74v.18a1.8,1.8,0,0,1,0,.22h4.18a3.64,3.64,0,0,0,.07-.54,4.53,4.53,0,0,0,0-.52A3.07,3.07,0,0,0,558.05,81a6.71,6.71,0,0,0-4-1Zm8.63,0-2.85,16.23h16.6L577,93h-12.7l.63-3.51h12.31l.58-3.25H565.49l.51-3h12.73l.56-3.25ZM596,84.61v.19a.72.72,0,0,1,0,.19h4a8.62,8.62,0,0,0,.14-1.5,3.38,3.38,0,0,0-.38-1.69,2.79,2.79,0,0,0-1.26-1.09,7.4,7.4,0,0,0-2.32-.61,27.11,27.11,0,0,0-3.54-.19h-4.14a14,14,0,0,0-3.36.34,5.3,5.3,0,0,0-2.29,1.17,5.9,5.9,0,0,0-1.49,2.23,18.74,18.74,0,0,0-.93,3.53c-.19,1-.31,1.92-.37,2.66s-.08,1.32-.08,1.74A4,4,0,0,0,581.56,95a8,8,0,0,0,4.74,1.17H591a20.18,20.18,0,0,0,3.6-.27A5.89,5.89,0,0,0,597,95a4.53,4.53,0,0,0,1.46-1.81,12.78,12.78,0,0,0,.85-2.9l.68-3.86h-9.89l-.56,3.15h5.89l-.19,1a3,3,0,0,1-.38,1.07,1.87,1.87,0,0,1-.73.66,3.31,3.31,0,0,1-1.11.31,11.44,11.44,0,0,1-1.52.08h-4.16a9.33,9.33,0,0,1-1.64-.12,3,3,0,0,1-1-.39,1.43,1.43,0,0,1-.55-.65,2.46,2.46,0,0,1-.17-.94c0-.31,0-.76.07-1.33s.14-1.19.26-1.83a10.4,10.4,0,0,1,.56-2.09A2.65,2.65,0,0,1,587,83.62a13.24,13.24,0,0,1,2.07-.13h2.83c.81,0,1.48,0,2,.05a6.49,6.49,0,0,1,1.24.16,1.14,1.14,0,0,1,.62.34.88.88,0,0,1,.17.57ZM607.17,80h-3.88l-1.69,9.61a7,7,0,0,0-.13,1.15c0,.36,0,.67,0,.94a4.87,4.87,0,0,0,.3,1.7,3.81,3.81,0,0,0,1,1.45,4.76,4.76,0,0,0,1.71,1,7.71,7.71,0,0,0,2.55.37h5.76a14.59,14.59,0,0,0,3.19-.3,5.79,5.79,0,0,0,2.22-1,4.84,4.84,0,0,0,1.43-1.78,10.63,10.63,0,0,0,.81-2.71L622.23,80h-3.9L616.57,90a4.73,4.73,0,0,1-.42,1.4,2.39,2.39,0,0,1-.75.9,2.81,2.81,0,0,1-1.14.48,7.69,7.69,0,0,1-1.62.14h-4.21a3.86,3.86,0,0,1-2.36-.55,2,2,0,0,1-.7-1.67c0-.2,0-.4,0-.6s.06-.44.12-.76l1.66-9.4ZM640.5,91.63c0,.17,0,.37,0,.58s-.06.5-.12.85l-.56,3.15h-3.91l.4-2.19q.08-.4.09-.6a2.35,2.35,0,0,0,0-.34c0-1.14-.77-1.71-2.32-1.71h-7.67l-.84,4.84h-3.91L624.52,80h11.79a6.83,6.83,0,0,1,2.33.36,4.67,4.67,0,0,1,1.65,1,4,4,0,0,1,1,1.47,4.88,4.88,0,0,1,.33,1.8,9.13,9.13,0,0,1-.49,3.22,3.61,3.61,0,0,1-1.62,1.93,1.44,1.44,0,0,1,.74.64,2.41,2.41,0,0,1,.27,1.23Zm-2.81-6.25a1.43,1.43,0,0,0-.43-1.13,2.21,2.21,0,0,0-1.48-.39h-8.1l-.63,3.65h8.4a4.19,4.19,0,0,0,.9-.08,1.82,1.82,0,0,0,.71-.3,1.46,1.46,0,0,0,.47-.65,3,3,0,0,0,.16-1.1Zm5.45,10.83H647L649.9,80H646l-2.86,16.23ZM661.62,93h-7l1.73-9.78h7a3.53,3.53,0,0,1,2.34.58,2.23,2.23,0,0,1,.66,1.76,13.18,13.18,0,0,1-.18,1.86c-.12.78-.24,1.6-.38,2.44a6,6,0,0,1-.41,1.46,2.59,2.59,0,0,1-.74,1,2.88,2.88,0,0,1-1.21.54,8.36,8.36,0,0,1-1.81.17Zm3.14-13H653l-2.86,16.23H662a14.64,14.64,0,0,0,3.17-.29,6,6,0,0,0,2.21-.92,4.57,4.57,0,0,0,1.41-1.66,9.16,9.16,0,0,0,.79-2.51c.1-.67.21-1.33.3-2s.17-1.26.23-1.82.11-1,.14-1.45,0-.72,0-.92a5.18,5.18,0,0,0-.32-1.81,3.8,3.8,0,0,0-1-1.49,4.81,4.81,0,0,0-1.72-1,7.79,7.79,0,0,0-2.52-.37ZM669,96.21,680.24,80h6.15l5.52,16.23h-4.56l-1.28-3.9h-9.85l-2.67,3.9ZM683,83h-.23l-4.26,6h6.48l-2-6Zm21.73,10h-7l1.73-9.78h7a3.52,3.52,0,0,1,2.33.58,2.23,2.23,0,0,1,.66,1.76,13.18,13.18,0,0,1-.18,1.86c-.11.78-.24,1.6-.38,2.44a6,6,0,0,1-.41,1.46,2.59,2.59,0,0,1-.74,1,2.89,2.89,0,0,1-1.2.54,8.46,8.46,0,0,1-1.82.17Zm3.14-13H696.1l-2.85,16.23h11.81a14.57,14.57,0,0,0,3.17-.29,5.94,5.94,0,0,0,2.21-.92,4.57,4.57,0,0,0,1.41-1.66,8.83,8.83,0,0,0,.79-2.51q.17-1,.3-2c.09-.66.17-1.26.24-1.82s.1-1,.14-1.45,0-.72,0-.92a5.18,5.18,0,0,0-.31-1.81,3.82,3.82,0,0,0-1-1.49,4.72,4.72,0,0,0-1.72-1A7.79,7.79,0,0,0,707.82,80Z"/></svg>